ISO-10303-21;
HEADER;
FILE_DESCRIPTION(('FreeCAD Model'),'2;1');
FILE_NAME('Open CASCADE Shape Model','2026-08-27T18:09:13',(''),(''),
  'Open CASCADE STEP processor 7.8','FreeCAD','Unknown');
FILE_SCHEMA(('AUTOMOTIVE_DESIGN { 1 0 10303 214 1 1 1 1 }'));
ENDSEC;
DATA;
#1 = APPLICATION_PROTOCOL_DEFINITION('international standard',
  'automotive_design',2000,#2);
#2 = APPLICATION_CONTEXT(
  'core data for automotive mechanical design processes');
#3 = SHAPE_DEFINITION_REPRESENTATION(#4,#10);
#4 = PRODUCT_DEFINITION_SHAPE('','',#5);
#5 = PRODUCT_DEFINITION('design','',#6,#9);
#6 = PRODUCT_DEFINITION_FORMATION('','',#7);
#7 = PRODUCT('Fillet001','Fillet001','',(#8));
#8 = PRODUCT_CONTEXT('',#2,'mechanical');
#9 = PRODUCT_DEFINITION_CONTEXT('part definition',#2,'design');
#10 = ADVANCED_BREP_SHAPE_REPRESENTATION('',(#11,#15),#1513);
#11 = AXIS2_PLACEMENT_3D('',#12,#13,#14);
#12 = CARTESIAN_POINT('',(0.,0.,0.));
#13 = DIRECTION('',(0.,0.,1.));
#14 = DIRECTION('',(1.,0.,-0.));
#15 = MANIFOLD_SOLID_BREP('',#16);
#16 = CLOSED_SHELL('',(#17,#391,#422,#447,#471,#495,#519,#544,#568,#592,
    #616,#641,#665,#689,#713,#738,#762,#786,#810,#835,#859,#883,#908,
    #933,#958,#982,#1006,#1031,#1056,#1080,#1104,#1128,#1153,#1177,#1201
    ,#1225,#1250,#1274,#1298,#1322,#1347,#1371,#1396,#1420,#1444,#1461)
  );
#17 = ADVANCED_FACE('',(#18),#386,.T.);
#18 = FACE_BOUND('',#19,.T.);
#19 = EDGE_LOOP('',(#20,#30,#38,#46,#54,#62,#70,#78,#86,#94,#102,#111,
    #120,#128,#137,#145,#154,#162,#171,#179,#188,#197,#205,#213,#221,
    #229,#237,#245,#253,#261,#269,#277,#286,#294,#303,#311,#320,#328,
    #337,#345,#354,#362,#371,#379));
#20 = ORIENTED_EDGE('',*,*,#21,.T.);
#21 = EDGE_CURVE('',#22,#24,#26,.T.);
#22 = VERTEX_POINT('',#23);
#23 = CARTESIAN_POINT('',(-31.667069,-6.472834,14.));
#24 = VERTEX_POINT('',#25);
#25 = CARTESIAN_POINT('',(-31.667069,-6.972834,14.));
#26 = LINE('',#27,#28);
#27 = CARTESIAN_POINT('',(-31.667069,-4.472834,14.));
#28 = VECTOR('',#29,1.);
#29 = DIRECTION('',(0.,-1.,0.));
#30 = ORIENTED_EDGE('',*,*,#31,.T.);
#31 = EDGE_CURVE('',#24,#32,#34,.T.);
#32 = VERTEX_POINT('',#33);
#33 = CARTESIAN_POINT('',(-32.41706882078,-8.222834,14.));
#34 = LINE('',#35,#36);
#35 = CARTESIAN_POINT('',(-31.667069,-6.972834,14.));
#36 = VECTOR('',#37,1.);
#37 = DIRECTION('',(-0.514495665028,-0.857492979952,0.));
#38 = ORIENTED_EDGE('',*,*,#39,.T.);
#39 = EDGE_CURVE('',#32,#40,#42,.T.);
#40 = VERTEX_POINT('',#41);
#41 = CARTESIAN_POINT('',(-32.41706882078,-11.722834,14.));
#42 = LINE('',#43,#44);
#43 = CARTESIAN_POINT('',(-32.41706882078,-8.222834,14.));
#44 = VECTOR('',#45,1.);
#45 = DIRECTION('',(0.,-1.,0.));
#46 = ORIENTED_EDGE('',*,*,#47,.T.);
#47 = EDGE_CURVE('',#40,#48,#50,.T.);
#48 = VERTEX_POINT('',#49);
#49 = CARTESIAN_POINT('',(-35.41706882078,-11.722834,14.));
#50 = LINE('',#51,#52);
#51 = CARTESIAN_POINT('',(-32.41706882078,-11.722834,14.));
#52 = VECTOR('',#53,1.);
#53 = DIRECTION('',(-1.,0.,0.));
#54 = ORIENTED_EDGE('',*,*,#55,.T.);
#55 = EDGE_CURVE('',#48,#56,#58,.T.);
#56 = VERTEX_POINT('',#57);
#57 = CARTESIAN_POINT('',(-35.41706882078,-16.722834,14.));
#58 = LINE('',#59,#60);
#59 = CARTESIAN_POINT('',(-35.41706882078,-11.722834,14.));
#60 = VECTOR('',#61,1.);
#61 = DIRECTION('',(0.,-1.,0.));
#62 = ORIENTED_EDGE('',*,*,#63,.T.);
#63 = EDGE_CURVE('',#56,#64,#66,.T.);
#64 = VERTEX_POINT('',#65);
#65 = CARTESIAN_POINT('',(-24.91706882078,-16.722834,14.));
#66 = LINE('',#67,#68);
#67 = CARTESIAN_POINT('',(-35.41706882078,-16.722834,14.));
#68 = VECTOR('',#69,1.);
#69 = DIRECTION('',(1.,0.,0.));
#70 = ORIENTED_EDGE('',*,*,#71,.F.);
#71 = EDGE_CURVE('',#72,#64,#74,.T.);
#72 = VERTEX_POINT('',#73);
#73 = CARTESIAN_POINT('',(-24.91706882078,-11.722834,14.));
#74 = LINE('',#75,#76);
#75 = CARTESIAN_POINT('',(-24.91706882078,-11.722834,14.));
#76 = VECTOR('',#77,1.);
#77 = DIRECTION('',(0.,-1.,0.));
#78 = ORIENTED_EDGE('',*,*,#79,.F.);
#79 = EDGE_CURVE('',#80,#72,#82,.T.);
#80 = VERTEX_POINT('',#81);
#81 = CARTESIAN_POINT('',(-27.91706882078,-11.722834,14.));
#82 = LINE('',#83,#84);
#83 = CARTESIAN_POINT('',(-27.91706882078,-11.722834,14.));
#84 = VECTOR('',#85,1.);
#85 = DIRECTION('',(1.,0.,0.));
#86 = ORIENTED_EDGE('',*,*,#87,.F.);
#87 = EDGE_CURVE('',#88,#80,#90,.T.);
#88 = VERTEX_POINT('',#89);
#89 = CARTESIAN_POINT('',(-27.91706882078,-8.222834,14.));
#90 = LINE('',#91,#92);
#91 = CARTESIAN_POINT('',(-27.91706882078,-8.222834,14.));
#92 = VECTOR('',#93,1.);
#93 = DIRECTION('',(0.,-1.,0.));
#94 = ORIENTED_EDGE('',*,*,#95,.F.);
#95 = EDGE_CURVE('',#96,#88,#98,.T.);
#96 = VERTEX_POINT('',#97);
#97 = CARTESIAN_POINT('',(-27.9248583678,-8.20985142473,14.));
#98 = LINE('',#99,#100);
#99 = CARTESIAN_POINT('',(-28.667069,-6.972834,14.));
#100 = VECTOR('',#101,1.);
#101 = DIRECTION('',(0.514495845827,-0.857492871473,0.));
#102 = ORIENTED_EDGE('',*,*,#103,.F.);
#103 = EDGE_CURVE('',#104,#96,#106,.T.);
#104 = VERTEX_POINT('',#105);
#105 = CARTESIAN_POINT('',(-27.40414514358,-6.753772088607,14.));
#106 = CIRCLE('',#107,1.);
#107 = AXIS2_PLACEMENT_3D('',#108,#109,#110);
#108 = CARTESIAN_POINT('',(-27.06736549633,-7.695355578902,14.));
#109 = DIRECTION('',(-0.,0.,1.));
#110 = DIRECTION('',(0.,-1.,0.));
#111 = ORIENTED_EDGE('',*,*,#112,.T.);
#112 = EDGE_CURVE('',#104,#113,#115,.T.);
#113 = VERTEX_POINT('',#114);
#114 = CARTESIAN_POINT('',(-28.66706901415,0.527166,14.));
#115 = CIRCLE('',#116,3.75);
#116 = AXIS2_PLACEMENT_3D('',#117,#118,#119);
#117 = CARTESIAN_POINT('',(-28.66706882078,-3.222834,14.));
#118 = DIRECTION('',(0.,0.,1.));
#119 = DIRECTION('',(1.,0.,0.));
#120 = ORIENTED_EDGE('',*,*,#121,.F.);
#121 = EDGE_CURVE('',#122,#113,#124,.T.);
#122 = VERTEX_POINT('',#123);
#123 = CARTESIAN_POINT('',(-31.66706901415,0.527166,14.));
#124 = LINE('',#125,#126);
#125 = CARTESIAN_POINT('',(-31.66706901415,0.527166,14.));
#126 = VECTOR('',#127,1.);
#127 = DIRECTION('',(1.,0.,0.));
#128 = ORIENTED_EDGE('',*,*,#129,.F.);
#129 = EDGE_CURVE('',#130,#122,#132,.T.);
#130 = VERTEX_POINT('',#131);
#131 = CARTESIAN_POINT('',(-31.66706944716,3.027166,14.));
#132 = CIRCLE('',#133,1.25);
#133 = AXIS2_PLACEMENT_3D('',#134,#135,#136);
#134 = CARTESIAN_POINT('',(-31.66706944716,1.777166,14.));
#135 = DIRECTION('',(0.,0.,1.));
#136 = DIRECTION('',(1.,0.,0.));
#137 = ORIENTED_EDGE('',*,*,#138,.F.);
#138 = EDGE_CURVE('',#139,#130,#141,.T.);
#139 = VERTEX_POINT('',#140);
#140 = CARTESIAN_POINT('',(-28.66706944716,3.027166,14.));
#141 = LINE('',#142,#143);
#142 = CARTESIAN_POINT('',(-28.66706944716,3.027166,14.));
#143 = VECTOR('',#144,1.);
#144 = DIRECTION('',(-1.,0.,0.));
#145 = ORIENTED_EDGE('',*,*,#146,.T.);
#146 = EDGE_CURVE('',#139,#147,#149,.T.);
#147 = VERTEX_POINT('',#148);
#148 = CARTESIAN_POINT('',(-28.66706985852,10.527166,14.));
#149 = CIRCLE('',#150,3.75);
#150 = AXIS2_PLACEMENT_3D('',#151,#152,#153);
#151 = CARTESIAN_POINT('',(-28.66706924296,6.777166,14.));
#152 = DIRECTION('',(0.,0.,1.));
#153 = DIRECTION('',(1.,0.,0.));
#154 = ORIENTED_EDGE('',*,*,#155,.F.);
#155 = EDGE_CURVE('',#156,#147,#158,.T.);
#156 = VERTEX_POINT('',#157);
#157 = CARTESIAN_POINT('',(-31.66706985852,10.527166,14.));
#158 = LINE('',#159,#160);
#159 = CARTESIAN_POINT('',(-31.66706985852,10.527166,14.));
#160 = VECTOR('',#161,1.);
#161 = DIRECTION('',(1.,0.,0.));
#162 = ORIENTED_EDGE('',*,*,#163,.F.);
#163 = EDGE_CURVE('',#164,#156,#166,.T.);
#164 = VERTEX_POINT('',#165);
#165 = CARTESIAN_POINT('',(-31.66707,13.027166,14.));
#166 = CIRCLE('',#167,1.25);
#167 = AXIS2_PLACEMENT_3D('',#168,#169,#170);
#168 = CARTESIAN_POINT('',(-31.66707055829,11.777166,14.));
#169 = DIRECTION('',(0.,0.,1.));
#170 = DIRECTION('',(1.,0.,0.));
#171 = ORIENTED_EDGE('',*,*,#172,.F.);
#172 = EDGE_CURVE('',#173,#164,#175,.T.);
#173 = VERTEX_POINT('',#174);
#174 = CARTESIAN_POINT('',(-28.66707,13.027166,14.));
#175 = LINE('',#176,#177);
#176 = CARTESIAN_POINT('',(-28.66707,13.027166,14.));
#177 = VECTOR('',#178,1.);
#178 = DIRECTION('',(-1.,0.,0.));
#179 = ORIENTED_EDGE('',*,*,#180,.T.);
#180 = EDGE_CURVE('',#173,#181,#183,.T.);
#181 = VERTEX_POINT('',#182);
#182 = CARTESIAN_POINT('',(-27.40414203441,20.308106945568,14.));
#183 = CIRCLE('',#184,3.75000000001);
#184 = AXIS2_PLACEMENT_3D('',#185,#186,#187);
#185 = CARTESIAN_POINT('',(-28.66705772396,16.77716599999,14.));
#186 = DIRECTION('',(0.,0.,1.));
#187 = DIRECTION('',(1.,0.,0.));
#188 = ORIENTED_EDGE('',*,*,#189,.F.);
#189 = EDGE_CURVE('',#190,#181,#192,.T.);
#190 = VERTEX_POINT('',#191);
#191 = CARTESIAN_POINT('',(-27.92485743359,21.76418696868,14.));
#192 = CIRCLE('',#193,1.);
#193 = AXIS2_PLACEMENT_3D('',#194,#195,#196);
#194 = CARTESIAN_POINT('',(-27.0673645172,21.24969119772,14.));
#195 = DIRECTION('',(-0.,0.,1.));
#196 = DIRECTION('',(0.,-1.,0.));
#197 = ORIENTED_EDGE('',*,*,#198,.T.);
#198 = EDGE_CURVE('',#190,#199,#201,.T.);
#199 = VERTEX_POINT('',#200);
#200 = CARTESIAN_POINT('',(-27.91707001448,21.777166,14.));
#201 = LINE('',#202,#203);
#202 = CARTESIAN_POINT('',(-28.66707004528,20.527166,14.));
#203 = VECTOR('',#204,1.);
#204 = DIRECTION('',(0.51449577096,0.857492916393,0.));
#205 = ORIENTED_EDGE('',*,*,#206,.T.);
#206 = EDGE_CURVE('',#199,#207,#209,.T.);
#207 = VERTEX_POINT('',#208);
#208 = CARTESIAN_POINT('',(-27.91707001448,25.277166,14.));
#209 = LINE('',#210,#211);
#210 = CARTESIAN_POINT('',(-27.91707001448,21.777166,14.));
#211 = VECTOR('',#212,1.);
#212 = DIRECTION('',(0.,1.,0.));
#213 = ORIENTED_EDGE('',*,*,#214,.T.);
#214 = EDGE_CURVE('',#207,#215,#217,.T.);
#215 = VERTEX_POINT('',#216);
#216 = CARTESIAN_POINT('',(-24.91707001448,25.277166,14.));
#217 = LINE('',#218,#219);
#218 = CARTESIAN_POINT('',(-27.91707001448,25.277166,14.));
#219 = VECTOR('',#220,1.);
#220 = DIRECTION('',(1.,0.,0.));
#221 = ORIENTED_EDGE('',*,*,#222,.T.);
#222 = EDGE_CURVE('',#215,#223,#225,.T.);
#223 = VERTEX_POINT('',#224);
#224 = CARTESIAN_POINT('',(-24.91707001448,30.277166,14.));
#225 = LINE('',#226,#227);
#226 = CARTESIAN_POINT('',(-24.91707001448,25.277166,14.));
#227 = VECTOR('',#228,1.);
#228 = DIRECTION('',(0.,1.,0.));
#229 = ORIENTED_EDGE('',*,*,#230,.T.);
#230 = EDGE_CURVE('',#223,#231,#233,.T.);
#231 = VERTEX_POINT('',#232);
#232 = CARTESIAN_POINT('',(-35.41707001448,30.277166,14.));
#233 = LINE('',#234,#235);
#234 = CARTESIAN_POINT('',(-24.91707001448,30.277166,14.));
#235 = VECTOR('',#236,1.);
#236 = DIRECTION('',(-1.,0.,0.));
#237 = ORIENTED_EDGE('',*,*,#238,.F.);
#238 = EDGE_CURVE('',#239,#231,#241,.T.);
#239 = VERTEX_POINT('',#240);
#240 = CARTESIAN_POINT('',(-35.41707001448,25.277166,14.));
#241 = LINE('',#242,#243);
#242 = CARTESIAN_POINT('',(-35.41707001448,25.277166,14.));
#243 = VECTOR('',#244,1.);
#244 = DIRECTION('',(0.,1.,0.));
#245 = ORIENTED_EDGE('',*,*,#246,.F.);
#246 = EDGE_CURVE('',#247,#239,#249,.T.);
#247 = VERTEX_POINT('',#248);
#248 = CARTESIAN_POINT('',(-32.41707001448,25.277166,14.));
#249 = LINE('',#250,#251);
#250 = CARTESIAN_POINT('',(-32.41707001448,25.277166,14.));
#251 = VECTOR('',#252,1.);
#252 = DIRECTION('',(-1.,0.,0.));
#253 = ORIENTED_EDGE('',*,*,#254,.F.);
#254 = EDGE_CURVE('',#255,#247,#257,.T.);
#255 = VERTEX_POINT('',#256);
#256 = CARTESIAN_POINT('',(-32.41707001448,21.777166,14.));
#257 = LINE('',#258,#259);
#258 = CARTESIAN_POINT('',(-32.41707001448,21.777166,14.));
#259 = VECTOR('',#260,1.);
#260 = DIRECTION('',(0.,1.,0.));
#261 = ORIENTED_EDGE('',*,*,#262,.F.);
#262 = EDGE_CURVE('',#263,#255,#265,.T.);
#263 = VERTEX_POINT('',#264);
#264 = CARTESIAN_POINT('',(-31.66707,20.527166,14.));
#265 = LINE('',#266,#267);
#266 = CARTESIAN_POINT('',(-31.66707,20.527166,14.));
#267 = VECTOR('',#268,1.);
#268 = DIRECTION('',(-0.514495762735,0.857492921328,0.));
#269 = ORIENTED_EDGE('',*,*,#270,.F.);
#270 = EDGE_CURVE('',#271,#263,#273,.T.);
#271 = VERTEX_POINT('',#272);
#272 = CARTESIAN_POINT('',(-31.66707,20.027165999979,14.));
#273 = LINE('',#274,#275);
#274 = CARTESIAN_POINT('',(-31.66707,18.027165999979,14.));
#275 = VECTOR('',#276,1.);
#276 = DIRECTION('',(0.,1.,0.));
#277 = ORIENTED_EDGE('',*,*,#278,.F.);
#278 = EDGE_CURVE('',#279,#271,#281,.T.);
#279 = VERTEX_POINT('',#280);
#280 = CARTESIAN_POINT('',(-29.66707,18.027165999979,14.));
#281 = CIRCLE('',#282,2.);
#282 = AXIS2_PLACEMENT_3D('',#283,#284,#285);
#283 = CARTESIAN_POINT('',(-29.66707,20.027165999979,14.));
#284 = DIRECTION('',(0.,-0.,-1.));
#285 = DIRECTION('',(0.,1.,-0.));
#286 = ORIENTED_EDGE('',*,*,#287,.F.);
#287 = EDGE_CURVE('',#288,#279,#290,.T.);
#288 = VERTEX_POINT('',#289);
#289 = CARTESIAN_POINT('',(-28.66707004528,18.027165999979,14.));
#290 = LINE('',#291,#292);
#291 = CARTESIAN_POINT('',(-28.66707004528,18.027165999979,14.));
#292 = VECTOR('',#293,1.);
#293 = DIRECTION('',(-1.,0.,0.));
#294 = ORIENTED_EDGE('',*,*,#295,.F.);
#295 = EDGE_CURVE('',#296,#288,#298,.T.);
#296 = VERTEX_POINT('',#297);
#297 = CARTESIAN_POINT('',(-28.66707002897,15.527166,14.));
#298 = CIRCLE('',#299,1.25000000005);
#299 = AXIS2_PLACEMENT_3D('',#300,#301,#302);
#300 = CARTESIAN_POINT('',(-28.66705772396,16.77716599999,14.));
#301 = DIRECTION('',(0.,0.,1.));
#302 = DIRECTION('',(1.,0.,0.));
#303 = ORIENTED_EDGE('',*,*,#304,.T.);
#304 = EDGE_CURVE('',#296,#305,#307,.T.);
#305 = VERTEX_POINT('',#306);
#306 = CARTESIAN_POINT('',(-31.66707,15.527166,14.));
#307 = LINE('',#308,#309);
#308 = CARTESIAN_POINT('',(-28.66707002897,15.527166,14.));
#309 = VECTOR('',#310,1.);
#310 = DIRECTION('',(-1.,0.,0.));
#311 = ORIENTED_EDGE('',*,*,#312,.T.);
#312 = EDGE_CURVE('',#305,#313,#315,.T.);
#313 = VERTEX_POINT('',#314);
#314 = CARTESIAN_POINT('',(-31.66707041197,8.027166,14.));
#315 = CIRCLE('',#316,3.75);
#316 = AXIS2_PLACEMENT_3D('',#317,#318,#319);
#317 = CARTESIAN_POINT('',(-31.66707055829,11.777166,14.));
#318 = DIRECTION('',(0.,0.,1.));
#319 = DIRECTION('',(1.,0.,0.));
#320 = ORIENTED_EDGE('',*,*,#321,.T.);
#321 = EDGE_CURVE('',#313,#322,#324,.T.);
#322 = VERTEX_POINT('',#323);
#323 = CARTESIAN_POINT('',(-28.66706985852,8.027166,14.));
#324 = LINE('',#325,#326);
#325 = CARTESIAN_POINT('',(-31.66707041197,8.027166,14.));
#326 = VECTOR('',#327,1.);
#327 = DIRECTION('',(1.,0.,0.));
#328 = ORIENTED_EDGE('',*,*,#329,.F.);
#329 = EDGE_CURVE('',#330,#322,#332,.T.);
#330 = VERTEX_POINT('',#331);
#331 = CARTESIAN_POINT('',(-28.66706877451,5.527166,14.));
#332 = CIRCLE('',#333,1.25);
#333 = AXIS2_PLACEMENT_3D('',#334,#335,#336);
#334 = CARTESIAN_POINT('',(-28.667069,6.777166,14.));
#335 = DIRECTION('',(0.,0.,1.));
#336 = DIRECTION('',(1.,0.,0.));
#337 = ORIENTED_EDGE('',*,*,#338,.T.);
#338 = EDGE_CURVE('',#330,#339,#341,.T.);
#339 = VERTEX_POINT('',#340);
#340 = CARTESIAN_POINT('',(-31.66706877451,5.527166,14.));
#341 = LINE('',#342,#343);
#342 = CARTESIAN_POINT('',(-28.66706877451,5.527166,14.));
#343 = VECTOR('',#344,1.);
#344 = DIRECTION('',(-1.,0.,0.));
#345 = ORIENTED_EDGE('',*,*,#346,.T.);
#346 = EDGE_CURVE('',#339,#347,#349,.T.);
#347 = VERTEX_POINT('',#348);
#348 = CARTESIAN_POINT('',(-31.66706882078,-1.972834,14.));
#349 = CIRCLE('',#350,3.75);
#350 = AXIS2_PLACEMENT_3D('',#351,#352,#353);
#351 = CARTESIAN_POINT('',(-31.66706944716,1.777166,14.));
#352 = DIRECTION('',(0.,0.,1.));
#353 = DIRECTION('',(1.,0.,0.));
#354 = ORIENTED_EDGE('',*,*,#355,.T.);
#355 = EDGE_CURVE('',#347,#356,#358,.T.);
#356 = VERTEX_POINT('',#357);
#357 = CARTESIAN_POINT('',(-28.66706882078,-1.972834,14.));
#358 = LINE('',#359,#360);
#359 = CARTESIAN_POINT('',(-31.66706882078,-1.972834,14.));
#360 = VECTOR('',#361,1.);
#361 = DIRECTION('',(1.,0.,0.));
#362 = ORIENTED_EDGE('',*,*,#363,.F.);
#363 = EDGE_CURVE('',#364,#356,#366,.T.);
#364 = VERTEX_POINT('',#365);
#365 = CARTESIAN_POINT('',(-28.667069,-4.472834,14.));
#366 = CIRCLE('',#367,1.25);
#367 = AXIS2_PLACEMENT_3D('',#368,#369,#370);
#368 = CARTESIAN_POINT('',(-28.66706882078,-3.222834,14.));
#369 = DIRECTION('',(0.,0.,1.));
#370 = DIRECTION('',(1.,0.,0.));
#371 = ORIENTED_EDGE('',*,*,#372,.T.);
#372 = EDGE_CURVE('',#364,#373,#375,.T.);
#373 = VERTEX_POINT('',#374);
#374 = CARTESIAN_POINT('',(-29.667069,-4.472834,14.));
#375 = LINE('',#376,#377);
#376 = CARTESIAN_POINT('',(-28.667069,-4.472834,14.));
#377 = VECTOR('',#378,1.);
#378 = DIRECTION('',(-1.,0.,0.));
#379 = ORIENTED_EDGE('',*,*,#380,.F.);
#380 = EDGE_CURVE('',#22,#373,#381,.T.);
#381 = CIRCLE('',#382,2.);
#382 = AXIS2_PLACEMENT_3D('',#383,#384,#385);
#383 = CARTESIAN_POINT('',(-29.667069,-6.472834,14.));
#384 = DIRECTION('',(0.,-0.,-1.));
#385 = DIRECTION('',(0.,1.,-0.));
#386 = PLANE('',#387);
#387 = AXIS2_PLACEMENT_3D('',#388,#389,#390);
#388 = CARTESIAN_POINT('',(-29.93700174261,6.777168330933,14.));
#389 = DIRECTION('',(0.,0.,1.));
#390 = DIRECTION('',(1.,0.,0.));
#391 = ADVANCED_FACE('',(#392),#417,.T.);
#392 = FACE_BOUND('',#393,.T.);
#393 = EDGE_LOOP('',(#394,#395,#403,#411));
#394 = ORIENTED_EDGE('',*,*,#21,.F.);
#395 = ORIENTED_EDGE('',*,*,#396,.T.);
#396 = EDGE_CURVE('',#22,#397,#399,.T.);
#397 = VERTEX_POINT('',#398);
#398 = CARTESIAN_POINT('',(-31.667069,-6.472834,0.));
#399 = LINE('',#400,#401);
#400 = CARTESIAN_POINT('',(-31.667069,-6.472834,14.));
#401 = VECTOR('',#402,1.);
#402 = DIRECTION('',(-0.,-0.,-1.));
#403 = ORIENTED_EDGE('',*,*,#404,.T.);
#404 = EDGE_CURVE('',#397,#405,#407,.T.);
#405 = VERTEX_POINT('',#406);
#406 = CARTESIAN_POINT('',(-31.667069,-6.972834,0.));
#407 = LINE('',#408,#409);
#408 = CARTESIAN_POINT('',(-31.667069,-4.472834,0.));
#409 = VECTOR('',#410,1.);
#410 = DIRECTION('',(0.,-1.,0.));
#411 = ORIENTED_EDGE('',*,*,#412,.F.);
#412 = EDGE_CURVE('',#24,#405,#413,.T.);
#413 = LINE('',#414,#415);
#414 = CARTESIAN_POINT('',(-31.667069,-6.972834,14.));
#415 = VECTOR('',#416,1.);
#416 = DIRECTION('',(-0.,-0.,-1.));
#417 = PLANE('',#418);
#418 = AXIS2_PLACEMENT_3D('',#419,#420,#421);
#419 = CARTESIAN_POINT('',(-31.667069,-4.472834,14.));
#420 = DIRECTION('',(-1.,0.,0.));
#421 = DIRECTION('',(0.,-1.,0.));
#422 = ADVANCED_FACE('',(#423),#442,.T.);
#423 = FACE_BOUND('',#424,.T.);
#424 = EDGE_LOOP('',(#425,#426,#434,#441));
#425 = ORIENTED_EDGE('',*,*,#380,.T.);
#426 = ORIENTED_EDGE('',*,*,#427,.T.);
#427 = EDGE_CURVE('',#373,#428,#430,.T.);
#428 = VERTEX_POINT('',#429);
#429 = CARTESIAN_POINT('',(-29.667069,-4.472834,0.));
#430 = LINE('',#431,#432);
#431 = CARTESIAN_POINT('',(-29.667069,-4.472834,14.));
#432 = VECTOR('',#433,1.);
#433 = DIRECTION('',(-0.,-0.,-1.));
#434 = ORIENTED_EDGE('',*,*,#435,.F.);
#435 = EDGE_CURVE('',#397,#428,#436,.T.);
#436 = CIRCLE('',#437,2.);
#437 = AXIS2_PLACEMENT_3D('',#438,#439,#440);
#438 = CARTESIAN_POINT('',(-29.667069,-6.472834,1.78E-15));
#439 = DIRECTION('',(0.,-0.,-1.));
#440 = DIRECTION('',(0.,1.,-0.));
#441 = ORIENTED_EDGE('',*,*,#396,.F.);
#442 = CYLINDRICAL_SURFACE('',#443,2.);
#443 = AXIS2_PLACEMENT_3D('',#444,#445,#446);
#444 = CARTESIAN_POINT('',(-29.667069,-6.472834,14.));
#445 = DIRECTION('',(-0.,-0.,-1.));
#446 = DIRECTION('',(-1.,0.,0.));
#447 = ADVANCED_FACE('',(#448),#466,.T.);
#448 = FACE_BOUND('',#449,.T.);
#449 = EDGE_LOOP('',(#450,#451,#459,#465));
#450 = ORIENTED_EDGE('',*,*,#412,.T.);
#451 = ORIENTED_EDGE('',*,*,#452,.T.);
#452 = EDGE_CURVE('',#405,#453,#455,.T.);
#453 = VERTEX_POINT('',#454);
#454 = CARTESIAN_POINT('',(-32.41706882078,-8.222834,4.E-15));
#455 = LINE('',#456,#457);
#456 = CARTESIAN_POINT('',(-31.667069,-6.972834,0.));
#457 = VECTOR('',#458,1.);
#458 = DIRECTION('',(-0.514495665028,-0.857492979952,0.));
#459 = ORIENTED_EDGE('',*,*,#460,.F.);
#460 = EDGE_CURVE('',#32,#453,#461,.T.);
#461 = LINE('',#462,#463);
#462 = CARTESIAN_POINT('',(-32.41706882078,-8.222834,14.));
#463 = VECTOR('',#464,1.);
#464 = DIRECTION('',(-0.,-0.,-1.));
#465 = ORIENTED_EDGE('',*,*,#31,.F.);
#466 = PLANE('',#467);
#467 = AXIS2_PLACEMENT_3D('',#468,#469,#470);
#468 = CARTESIAN_POINT('',(-31.667069,-6.972834,14.));
#469 = DIRECTION('',(-0.857492979952,0.514495665028,0.));
#470 = DIRECTION('',(-0.514495665028,-0.857492979952,0.));
#471 = ADVANCED_FACE('',(#472),#490,.T.);
#472 = FACE_BOUND('',#473,.T.);
#473 = EDGE_LOOP('',(#474,#475,#483,#489));
#474 = ORIENTED_EDGE('',*,*,#372,.F.);
#475 = ORIENTED_EDGE('',*,*,#476,.F.);
#476 = EDGE_CURVE('',#477,#364,#479,.T.);
#477 = VERTEX_POINT('',#478);
#478 = CARTESIAN_POINT('',(-28.667069,-4.472834,0.));
#479 = LINE('',#480,#481);
#480 = CARTESIAN_POINT('',(-28.667069,-4.472834,0.));
#481 = VECTOR('',#482,1.);
#482 = DIRECTION('',(0.,0.,1.));
#483 = ORIENTED_EDGE('',*,*,#484,.T.);
#484 = EDGE_CURVE('',#477,#428,#485,.T.);
#485 = LINE('',#486,#487);
#486 = CARTESIAN_POINT('',(-28.667069,-4.472834,0.));
#487 = VECTOR('',#488,1.);
#488 = DIRECTION('',(-1.,0.,0.));
#489 = ORIENTED_EDGE('',*,*,#427,.F.);
#490 = PLANE('',#491);
#491 = AXIS2_PLACEMENT_3D('',#492,#493,#494);
#492 = CARTESIAN_POINT('',(-28.667069,-4.472834,14.));
#493 = DIRECTION('',(0.,1.,0.));
#494 = DIRECTION('',(-1.,0.,0.));
#495 = ADVANCED_FACE('',(#496),#514,.T.);
#496 = FACE_BOUND('',#497,.T.);
#497 = EDGE_LOOP('',(#498,#499,#507,#513));
#498 = ORIENTED_EDGE('',*,*,#460,.T.);
#499 = ORIENTED_EDGE('',*,*,#500,.T.);
#500 = EDGE_CURVE('',#453,#501,#503,.T.);
#501 = VERTEX_POINT('',#502);
#502 = CARTESIAN_POINT('',(-32.41706882078,-11.722834,7.105427357601E-15
    ));
#503 = LINE('',#504,#505);
#504 = CARTESIAN_POINT('',(-32.41706882078,-8.222834,7.105427357601E-15)
  );
#505 = VECTOR('',#506,1.);
#506 = DIRECTION('',(0.,-1.,0.));
#507 = ORIENTED_EDGE('',*,*,#508,.F.);
#508 = EDGE_CURVE('',#40,#501,#509,.T.);
#509 = LINE('',#510,#511);
#510 = CARTESIAN_POINT('',(-32.41706882078,-11.722834,14.));
#511 = VECTOR('',#512,1.);
#512 = DIRECTION('',(-0.,-0.,-1.));
#513 = ORIENTED_EDGE('',*,*,#39,.F.);
#514 = PLANE('',#515);
#515 = AXIS2_PLACEMENT_3D('',#516,#517,#518);
#516 = CARTESIAN_POINT('',(-32.41706882078,-8.222834,14.));
#517 = DIRECTION('',(-1.,0.,0.));
#518 = DIRECTION('',(0.,-1.,0.));
#519 = ADVANCED_FACE('',(#520),#539,.F.);
#520 = FACE_BOUND('',#521,.T.);
#521 = EDGE_LOOP('',(#522,#523,#524,#532));
#522 = ORIENTED_EDGE('',*,*,#476,.T.);
#523 = ORIENTED_EDGE('',*,*,#363,.T.);
#524 = ORIENTED_EDGE('',*,*,#525,.F.);
#525 = EDGE_CURVE('',#526,#356,#528,.T.);
#526 = VERTEX_POINT('',#527);
#527 = CARTESIAN_POINT('',(-28.66706882078,-1.972834,0.));
#528 = LINE('',#529,#530);
#529 = CARTESIAN_POINT('',(-28.66706882078,-1.972834,0.));
#530 = VECTOR('',#531,1.);
#531 = DIRECTION('',(0.,0.,1.));
#532 = ORIENTED_EDGE('',*,*,#533,.F.);
#533 = EDGE_CURVE('',#477,#526,#534,.T.);
#534 = CIRCLE('',#535,1.25);
#535 = AXIS2_PLACEMENT_3D('',#536,#537,#538);
#536 = CARTESIAN_POINT('',(-28.66706882078,-3.222834,0.));
#537 = DIRECTION('',(0.,0.,1.));
#538 = DIRECTION('',(1.,0.,0.));
#539 = CYLINDRICAL_SURFACE('',#540,1.25);
#540 = AXIS2_PLACEMENT_3D('',#541,#542,#543);
#541 = CARTESIAN_POINT('',(-28.66706882078,-3.222834,0.));
#542 = DIRECTION('',(-0.,-0.,-1.));
#543 = DIRECTION('',(1.,0.,0.));
#544 = ADVANCED_FACE('',(#545),#563,.T.);
#545 = FACE_BOUND('',#546,.T.);
#546 = EDGE_LOOP('',(#547,#548,#556,#562));
#547 = ORIENTED_EDGE('',*,*,#508,.T.);
#548 = ORIENTED_EDGE('',*,*,#549,.T.);
#549 = EDGE_CURVE('',#501,#550,#552,.T.);
#550 = VERTEX_POINT('',#551);
#551 = CARTESIAN_POINT('',(-35.41706882078,-11.722834,7.105427357601E-15
    ));
#552 = LINE('',#553,#554);
#553 = CARTESIAN_POINT('',(-32.41706882078,-11.722834,7.105427357601E-15
    ));
#554 = VECTOR('',#555,1.);
#555 = DIRECTION('',(-1.,0.,0.));
#556 = ORIENTED_EDGE('',*,*,#557,.F.);
#557 = EDGE_CURVE('',#48,#550,#558,.T.);
#558 = LINE('',#559,#560);
#559 = CARTESIAN_POINT('',(-35.41706882078,-11.722834,14.));
#560 = VECTOR('',#561,1.);
#561 = DIRECTION('',(-0.,-0.,-1.));
#562 = ORIENTED_EDGE('',*,*,#47,.F.);
#563 = PLANE('',#564);
#564 = AXIS2_PLACEMENT_3D('',#565,#566,#567);
#565 = CARTESIAN_POINT('',(-32.41706882078,-11.722834,14.));
#566 = DIRECTION('',(0.,1.,0.));
#567 = DIRECTION('',(-1.,0.,0.));
#568 = ADVANCED_FACE('',(#569),#587,.F.);
#569 = FACE_BOUND('',#570,.F.);
#570 = EDGE_LOOP('',(#571,#579,#580,#581));
#571 = ORIENTED_EDGE('',*,*,#572,.T.);
#572 = EDGE_CURVE('',#573,#347,#575,.T.);
#573 = VERTEX_POINT('',#574);
#574 = CARTESIAN_POINT('',(-31.66706882078,-1.972834,0.));
#575 = LINE('',#576,#577);
#576 = CARTESIAN_POINT('',(-31.66706882078,-1.972834,0.));
#577 = VECTOR('',#578,1.);
#578 = DIRECTION('',(0.,0.,1.));
#579 = ORIENTED_EDGE('',*,*,#355,.T.);
#580 = ORIENTED_EDGE('',*,*,#525,.F.);
#581 = ORIENTED_EDGE('',*,*,#582,.F.);
#582 = EDGE_CURVE('',#573,#526,#583,.T.);
#583 = LINE('',#584,#585);
#584 = CARTESIAN_POINT('',(-31.66706882078,-1.972834,0.));
#585 = VECTOR('',#586,1.);
#586 = DIRECTION('',(1.,0.,0.));
#587 = PLANE('',#588);
#588 = AXIS2_PLACEMENT_3D('',#589,#590,#591);
#589 = CARTESIAN_POINT('',(-31.66706882078,-1.972834,0.));
#590 = DIRECTION('',(0.,1.,0.));
#591 = DIRECTION('',(1.,0.,0.));
#592 = ADVANCED_FACE('',(#593),#611,.T.);
#593 = FACE_BOUND('',#594,.T.);
#594 = EDGE_LOOP('',(#595,#596,#604,#610));
#595 = ORIENTED_EDGE('',*,*,#557,.T.);
#596 = ORIENTED_EDGE('',*,*,#597,.T.);
#597 = EDGE_CURVE('',#550,#598,#600,.T.);
#598 = VERTEX_POINT('',#599);
#599 = CARTESIAN_POINT('',(-35.41706882078,-16.722834,7.105427357601E-15
    ));
#600 = LINE('',#601,#602);
#601 = CARTESIAN_POINT('',(-35.41706882078,-11.722834,7.105427357601E-15
    ));
#602 = VECTOR('',#603,1.);
#603 = DIRECTION('',(0.,-1.,0.));
#604 = ORIENTED_EDGE('',*,*,#605,.F.);
#605 = EDGE_CURVE('',#56,#598,#606,.T.);
#606 = LINE('',#607,#608);
#607 = CARTESIAN_POINT('',(-35.41706882078,-16.722834,14.));
#608 = VECTOR('',#609,1.);
#609 = DIRECTION('',(-0.,-0.,-1.));
#610 = ORIENTED_EDGE('',*,*,#55,.F.);
#611 = PLANE('',#612);
#612 = AXIS2_PLACEMENT_3D('',#613,#614,#615);
#613 = CARTESIAN_POINT('',(-35.41706882078,-11.722834,14.));
#614 = DIRECTION('',(-1.,0.,0.));
#615 = DIRECTION('',(0.,-1.,0.));
#616 = ADVANCED_FACE('',(#617),#636,.T.);
#617 = FACE_BOUND('',#618,.F.);
#618 = EDGE_LOOP('',(#619,#627,#628,#629));
#619 = ORIENTED_EDGE('',*,*,#620,.T.);
#620 = EDGE_CURVE('',#621,#339,#623,.T.);
#621 = VERTEX_POINT('',#622);
#622 = CARTESIAN_POINT('',(-31.66706877451,5.527166,0.));
#623 = LINE('',#624,#625);
#624 = CARTESIAN_POINT('',(-31.66706877451,5.527166,0.));
#625 = VECTOR('',#626,1.);
#626 = DIRECTION('',(0.,0.,1.));
#627 = ORIENTED_EDGE('',*,*,#346,.T.);
#628 = ORIENTED_EDGE('',*,*,#572,.F.);
#629 = ORIENTED_EDGE('',*,*,#630,.F.);
#630 = EDGE_CURVE('',#621,#573,#631,.T.);
#631 = CIRCLE('',#632,3.75);
#632 = AXIS2_PLACEMENT_3D('',#633,#634,#635);
#633 = CARTESIAN_POINT('',(-31.66706944716,1.777166,0.));
#634 = DIRECTION('',(0.,0.,1.));
#635 = DIRECTION('',(1.,0.,0.));
#636 = CYLINDRICAL_SURFACE('',#637,3.75);
#637 = AXIS2_PLACEMENT_3D('',#638,#639,#640);
#638 = CARTESIAN_POINT('',(-31.66706944716,1.777166,0.));
#639 = DIRECTION('',(-0.,-0.,-1.));
#640 = DIRECTION('',(1.,0.,0.));
#641 = ADVANCED_FACE('',(#642),#660,.T.);
#642 = FACE_BOUND('',#643,.T.);
#643 = EDGE_LOOP('',(#644,#645,#653,#659));
#644 = ORIENTED_EDGE('',*,*,#605,.T.);
#645 = ORIENTED_EDGE('',*,*,#646,.T.);
#646 = EDGE_CURVE('',#598,#647,#649,.T.);
#647 = VERTEX_POINT('',#648);
#648 = CARTESIAN_POINT('',(-24.91706882078,-16.722834,7.105427357601E-15
    ));
#649 = LINE('',#650,#651);
#650 = CARTESIAN_POINT('',(-35.41706882078,-16.722834,7.105427357601E-15
    ));
#651 = VECTOR('',#652,1.);
#652 = DIRECTION('',(1.,0.,0.));
#653 = ORIENTED_EDGE('',*,*,#654,.F.);
#654 = EDGE_CURVE('',#64,#647,#655,.T.);
#655 = LINE('',#656,#657);
#656 = CARTESIAN_POINT('',(-24.91706882078,-16.722834,14.));
#657 = VECTOR('',#658,1.);
#658 = DIRECTION('',(-0.,-0.,-1.));
#659 = ORIENTED_EDGE('',*,*,#63,.F.);
#660 = PLANE('',#661);
#661 = AXIS2_PLACEMENT_3D('',#662,#663,#664);
#662 = CARTESIAN_POINT('',(-35.41706882078,-16.722834,14.));
#663 = DIRECTION('',(0.,-1.,0.));
#664 = DIRECTION('',(1.,0.,0.));
#665 = ADVANCED_FACE('',(#666),#684,.F.);
#666 = FACE_BOUND('',#667,.F.);
#667 = EDGE_LOOP('',(#668,#676,#677,#678));
#668 = ORIENTED_EDGE('',*,*,#669,.T.);
#669 = EDGE_CURVE('',#670,#330,#672,.T.);
#670 = VERTEX_POINT('',#671);
#671 = CARTESIAN_POINT('',(-28.66706877451,5.527166,0.));
#672 = LINE('',#673,#674);
#673 = CARTESIAN_POINT('',(-28.66706877451,5.527166,0.));
#674 = VECTOR('',#675,1.);
#675 = DIRECTION('',(0.,0.,1.));
#676 = ORIENTED_EDGE('',*,*,#338,.T.);
#677 = ORIENTED_EDGE('',*,*,#620,.F.);
#678 = ORIENTED_EDGE('',*,*,#679,.F.);
#679 = EDGE_CURVE('',#670,#621,#680,.T.);
#680 = LINE('',#681,#682);
#681 = CARTESIAN_POINT('',(-28.66706877451,5.527166,0.));
#682 = VECTOR('',#683,1.);
#683 = DIRECTION('',(-1.,0.,0.));
#684 = PLANE('',#685);
#685 = AXIS2_PLACEMENT_3D('',#686,#687,#688);
#686 = CARTESIAN_POINT('',(-28.66706877451,5.527166,0.));
#687 = DIRECTION('',(0.,-1.,0.));
#688 = DIRECTION('',(-1.,0.,0.));
#689 = ADVANCED_FACE('',(#690),#708,.F.);
#690 = FACE_BOUND('',#691,.F.);
#691 = EDGE_LOOP('',(#692,#700,#706,#707));
#692 = ORIENTED_EDGE('',*,*,#693,.T.);
#693 = EDGE_CURVE('',#72,#694,#696,.T.);
#694 = VERTEX_POINT('',#695);
#695 = CARTESIAN_POINT('',(-24.91706882078,-11.722834,7.105427357601E-15
    ));
#696 = LINE('',#697,#698);
#697 = CARTESIAN_POINT('',(-24.91706882078,-11.722834,14.));
#698 = VECTOR('',#699,1.);
#699 = DIRECTION('',(-0.,-0.,-1.));
#700 = ORIENTED_EDGE('',*,*,#701,.T.);
#701 = EDGE_CURVE('',#694,#647,#702,.T.);
#702 = LINE('',#703,#704);
#703 = CARTESIAN_POINT('',(-24.91706882078,-11.722834,7.105427357601E-15
    ));
#704 = VECTOR('',#705,1.);
#705 = DIRECTION('',(0.,-1.,0.));
#706 = ORIENTED_EDGE('',*,*,#654,.F.);
#707 = ORIENTED_EDGE('',*,*,#71,.F.);
#708 = PLANE('',#709);
#709 = AXIS2_PLACEMENT_3D('',#710,#711,#712);
#710 = CARTESIAN_POINT('',(-24.91706882078,-11.722834,14.));
#711 = DIRECTION('',(-1.,0.,0.));
#712 = DIRECTION('',(0.,-1.,0.));
#713 = ADVANCED_FACE('',(#714),#733,.F.);
#714 = FACE_BOUND('',#715,.T.);
#715 = EDGE_LOOP('',(#716,#717,#718,#726));
#716 = ORIENTED_EDGE('',*,*,#669,.T.);
#717 = ORIENTED_EDGE('',*,*,#329,.T.);
#718 = ORIENTED_EDGE('',*,*,#719,.F.);
#719 = EDGE_CURVE('',#720,#322,#722,.T.);
#720 = VERTEX_POINT('',#721);
#721 = CARTESIAN_POINT('',(-28.66706985852,8.027166,0.));
#722 = LINE('',#723,#724);
#723 = CARTESIAN_POINT('',(-28.66706985852,8.027166,0.));
#724 = VECTOR('',#725,1.);
#725 = DIRECTION('',(0.,0.,1.));
#726 = ORIENTED_EDGE('',*,*,#727,.F.);
#727 = EDGE_CURVE('',#670,#720,#728,.T.);
#728 = CIRCLE('',#729,1.25);
#729 = AXIS2_PLACEMENT_3D('',#730,#731,#732);
#730 = CARTESIAN_POINT('',(-28.667069,6.777166,0.));
#731 = DIRECTION('',(0.,0.,1.));
#732 = DIRECTION('',(1.,0.,0.));
#733 = CYLINDRICAL_SURFACE('',#734,1.25);
#734 = AXIS2_PLACEMENT_3D('',#735,#736,#737);
#735 = CARTESIAN_POINT('',(-28.667069,6.777166,0.));
#736 = DIRECTION('',(-0.,-0.,-1.));
#737 = DIRECTION('',(1.,0.,0.));
#738 = ADVANCED_FACE('',(#739),#757,.F.);
#739 = FACE_BOUND('',#740,.F.);
#740 = EDGE_LOOP('',(#741,#749,#755,#756));
#741 = ORIENTED_EDGE('',*,*,#742,.T.);
#742 = EDGE_CURVE('',#80,#743,#745,.T.);
#743 = VERTEX_POINT('',#744);
#744 = CARTESIAN_POINT('',(-27.91706882078,-11.722834,7.105427357601E-15
    ));
#745 = LINE('',#746,#747);
#746 = CARTESIAN_POINT('',(-27.91706882078,-11.722834,14.));
#747 = VECTOR('',#748,1.);
#748 = DIRECTION('',(-0.,-0.,-1.));
#749 = ORIENTED_EDGE('',*,*,#750,.T.);
#750 = EDGE_CURVE('',#743,#694,#751,.T.);
#751 = LINE('',#752,#753);
#752 = CARTESIAN_POINT('',(-27.91706882078,-11.722834,7.105427357601E-15
    ));
#753 = VECTOR('',#754,1.);
#754 = DIRECTION('',(1.,0.,0.));
#755 = ORIENTED_EDGE('',*,*,#693,.F.);
#756 = ORIENTED_EDGE('',*,*,#79,.F.);
#757 = PLANE('',#758);
#758 = AXIS2_PLACEMENT_3D('',#759,#760,#761);
#759 = CARTESIAN_POINT('',(-27.91706882078,-11.722834,14.));
#760 = DIRECTION('',(0.,-1.,0.));
#761 = DIRECTION('',(1.,0.,0.));
#762 = ADVANCED_FACE('',(#763),#781,.F.);
#763 = FACE_BOUND('',#764,.F.);
#764 = EDGE_LOOP('',(#765,#773,#774,#775));
#765 = ORIENTED_EDGE('',*,*,#766,.T.);
#766 = EDGE_CURVE('',#767,#313,#769,.T.);
#767 = VERTEX_POINT('',#768);
#768 = CARTESIAN_POINT('',(-31.66707041197,8.027166,0.));
#769 = LINE('',#770,#771);
#770 = CARTESIAN_POINT('',(-31.66707041197,8.027166,0.));
#771 = VECTOR('',#772,1.);
#772 = DIRECTION('',(0.,0.,1.));
#773 = ORIENTED_EDGE('',*,*,#321,.T.);
#774 = ORIENTED_EDGE('',*,*,#719,.F.);
#775 = ORIENTED_EDGE('',*,*,#776,.F.);
#776 = EDGE_CURVE('',#767,#720,#777,.T.);
#777 = LINE('',#778,#779);
#778 = CARTESIAN_POINT('',(-31.66707041197,8.027166,0.));
#779 = VECTOR('',#780,1.);
#780 = DIRECTION('',(1.,0.,0.));
#781 = PLANE('',#782);
#782 = AXIS2_PLACEMENT_3D('',#783,#784,#785);
#783 = CARTESIAN_POINT('',(-31.66707041197,8.027166,0.));
#784 = DIRECTION('',(0.,1.,0.));
#785 = DIRECTION('',(1.,0.,0.));
#786 = ADVANCED_FACE('',(#787),#805,.F.);
#787 = FACE_BOUND('',#788,.F.);
#788 = EDGE_LOOP('',(#789,#797,#803,#804));
#789 = ORIENTED_EDGE('',*,*,#790,.T.);
#790 = EDGE_CURVE('',#88,#791,#793,.T.);
#791 = VERTEX_POINT('',#792);
#792 = CARTESIAN_POINT('',(-27.91706882078,-8.222834,4.E-15));
#793 = LINE('',#794,#795);
#794 = CARTESIAN_POINT('',(-27.91706882078,-8.222834,14.));
#795 = VECTOR('',#796,1.);
#796 = DIRECTION('',(-0.,-0.,-1.));
#797 = ORIENTED_EDGE('',*,*,#798,.T.);
#798 = EDGE_CURVE('',#791,#743,#799,.T.);
#799 = LINE('',#800,#801);
#800 = CARTESIAN_POINT('',(-27.91706882078,-8.222834,7.105427357601E-15)
  );
#801 = VECTOR('',#802,1.);
#802 = DIRECTION('',(0.,-1.,0.));
#803 = ORIENTED_EDGE('',*,*,#742,.F.);
#804 = ORIENTED_EDGE('',*,*,#87,.F.);
#805 = PLANE('',#806);
#806 = AXIS2_PLACEMENT_3D('',#807,#808,#809);
#807 = CARTESIAN_POINT('',(-27.91706882078,-8.222834,14.));
#808 = DIRECTION('',(-1.,0.,0.));
#809 = DIRECTION('',(0.,-1.,0.));
#810 = ADVANCED_FACE('',(#811),#830,.T.);
#811 = FACE_BOUND('',#812,.F.);
#812 = EDGE_LOOP('',(#813,#821,#822,#823));
#813 = ORIENTED_EDGE('',*,*,#814,.T.);
#814 = EDGE_CURVE('',#815,#305,#817,.T.);
#815 = VERTEX_POINT('',#816);
#816 = CARTESIAN_POINT('',(-31.66707,15.527166,0.));
#817 = LINE('',#818,#819);
#818 = CARTESIAN_POINT('',(-31.66707,15.527166,0.));
#819 = VECTOR('',#820,1.);
#820 = DIRECTION('',(0.,0.,1.));
#821 = ORIENTED_EDGE('',*,*,#312,.T.);
#822 = ORIENTED_EDGE('',*,*,#766,.F.);
#823 = ORIENTED_EDGE('',*,*,#824,.F.);
#824 = EDGE_CURVE('',#815,#767,#825,.T.);
#825 = CIRCLE('',#826,3.75);
#826 = AXIS2_PLACEMENT_3D('',#827,#828,#829);
#827 = CARTESIAN_POINT('',(-31.66707055829,11.777166,0.));
#828 = DIRECTION('',(0.,0.,1.));
#829 = DIRECTION('',(1.,0.,0.));
#830 = CYLINDRICAL_SURFACE('',#831,3.75);
#831 = AXIS2_PLACEMENT_3D('',#832,#833,#834);
#832 = CARTESIAN_POINT('',(-31.66707055829,11.777166,0.));
#833 = DIRECTION('',(-0.,-0.,-1.));
#834 = DIRECTION('',(1.,0.,0.));
#835 = ADVANCED_FACE('',(#836),#854,.F.);
#836 = FACE_BOUND('',#837,.F.);
#837 = EDGE_LOOP('',(#838,#839,#847,#853));
#838 = ORIENTED_EDGE('',*,*,#95,.F.);
#839 = ORIENTED_EDGE('',*,*,#840,.F.);
#840 = EDGE_CURVE('',#841,#96,#843,.T.);
#841 = VERTEX_POINT('',#842);
#842 = CARTESIAN_POINT('',(-27.9248583678,-8.20985142473,0.));
#843 = LINE('',#844,#845);
#844 = CARTESIAN_POINT('',(-27.9248583678,-8.20985142473,0.));
#845 = VECTOR('',#846,1.);
#846 = DIRECTION('',(0.,0.,1.));
#847 = ORIENTED_EDGE('',*,*,#848,.T.);
#848 = EDGE_CURVE('',#841,#791,#849,.T.);
#849 = LINE('',#850,#851);
#850 = CARTESIAN_POINT('',(-28.667069,-6.972834,0.));
#851 = VECTOR('',#852,1.);
#852 = DIRECTION('',(0.514495845827,-0.857492871473,0.));
#853 = ORIENTED_EDGE('',*,*,#790,.F.);
#854 = PLANE('',#855);
#855 = AXIS2_PLACEMENT_3D('',#856,#857,#858);
#856 = CARTESIAN_POINT('',(-28.667069,-6.972834,14.));
#857 = DIRECTION('',(-0.857492871473,-0.514495845827,0.));
#858 = DIRECTION('',(0.514495845827,-0.857492871473,0.));
#859 = ADVANCED_FACE('',(#860),#878,.F.);
#860 = FACE_BOUND('',#861,.F.);
#861 = EDGE_LOOP('',(#862,#870,#871,#872));
#862 = ORIENTED_EDGE('',*,*,#863,.T.);
#863 = EDGE_CURVE('',#864,#296,#866,.T.);
#864 = VERTEX_POINT('',#865);
#865 = CARTESIAN_POINT('',(-28.66707002897,15.527166,0.));
#866 = LINE('',#867,#868);
#867 = CARTESIAN_POINT('',(-28.66707002897,15.527166,0.));
#868 = VECTOR('',#869,1.);
#869 = DIRECTION('',(0.,0.,1.));
#870 = ORIENTED_EDGE('',*,*,#304,.T.);
#871 = ORIENTED_EDGE('',*,*,#814,.F.);
#872 = ORIENTED_EDGE('',*,*,#873,.F.);
#873 = EDGE_CURVE('',#864,#815,#874,.T.);
#874 = LINE('',#875,#876);
#875 = CARTESIAN_POINT('',(-28.66707002897,15.527166,0.));
#876 = VECTOR('',#877,1.);
#877 = DIRECTION('',(-1.,0.,0.));
#878 = PLANE('',#879);
#879 = AXIS2_PLACEMENT_3D('',#880,#881,#882);
#880 = CARTESIAN_POINT('',(-28.66707002897,15.527166,0.));
#881 = DIRECTION('',(0.,-1.,0.));
#882 = DIRECTION('',(-1.,0.,0.));
#883 = ADVANCED_FACE('',(#884),#903,.F.);
#884 = FACE_BOUND('',#885,.F.);
#885 = EDGE_LOOP('',(#886,#895,#896,#897));
#886 = ORIENTED_EDGE('',*,*,#887,.T.);
#887 = EDGE_CURVE('',#888,#841,#890,.T.);
#888 = VERTEX_POINT('',#889);
#889 = CARTESIAN_POINT('',(-27.40414514358,-6.753772088607,0.));
#890 = CIRCLE('',#891,1.);
#891 = AXIS2_PLACEMENT_3D('',#892,#893,#894);
#892 = CARTESIAN_POINT('',(-27.06736549633,-7.695355578902,2.6E-15));
#893 = DIRECTION('',(-0.,0.,1.));
#894 = DIRECTION('',(0.,-1.,0.));
#895 = ORIENTED_EDGE('',*,*,#840,.T.);
#896 = ORIENTED_EDGE('',*,*,#103,.F.);
#897 = ORIENTED_EDGE('',*,*,#898,.F.);
#898 = EDGE_CURVE('',#888,#104,#899,.T.);
#899 = LINE('',#900,#901);
#900 = CARTESIAN_POINT('',(-27.40414514358,-6.753772088607,0.));
#901 = VECTOR('',#902,1.);
#902 = DIRECTION('',(0.,0.,1.));
#903 = CYLINDRICAL_SURFACE('',#904,1.);
#904 = AXIS2_PLACEMENT_3D('',#905,#906,#907);
#905 = CARTESIAN_POINT('',(-27.06736549633,-7.695355578902,0.));
#906 = DIRECTION('',(0.,0.,1.));
#907 = DIRECTION('',(-0.336779647252,0.941583490295,0.));
#908 = ADVANCED_FACE('',(#909),#928,.F.);
#909 = FACE_BOUND('',#910,.T.);
#910 = EDGE_LOOP('',(#911,#912,#913,#921));
#911 = ORIENTED_EDGE('',*,*,#863,.T.);
#912 = ORIENTED_EDGE('',*,*,#295,.T.);
#913 = ORIENTED_EDGE('',*,*,#914,.F.);
#914 = EDGE_CURVE('',#915,#288,#917,.T.);
#915 = VERTEX_POINT('',#916);
#916 = CARTESIAN_POINT('',(-28.66707004528,18.027165999979,0.));
#917 = LINE('',#918,#919);
#918 = CARTESIAN_POINT('',(-28.66707004528,18.027165999979,0.));
#919 = VECTOR('',#920,1.);
#920 = DIRECTION('',(0.,0.,1.));
#921 = ORIENTED_EDGE('',*,*,#922,.F.);
#922 = EDGE_CURVE('',#864,#915,#923,.T.);
#923 = CIRCLE('',#924,1.25000000005);
#924 = AXIS2_PLACEMENT_3D('',#925,#926,#927);
#925 = CARTESIAN_POINT('',(-28.66705772396,16.77716599999,0.));
#926 = DIRECTION('',(0.,0.,1.));
#927 = DIRECTION('',(1.,0.,0.));
#928 = CYLINDRICAL_SURFACE('',#929,1.25000000005);
#929 = AXIS2_PLACEMENT_3D('',#930,#931,#932);
#930 = CARTESIAN_POINT('',(-28.66705772396,16.77716599999,0.));
#931 = DIRECTION('',(-0.,-0.,-1.));
#932 = DIRECTION('',(1.,0.,0.));
#933 = ADVANCED_FACE('',(#934),#953,.T.);
#934 = FACE_BOUND('',#935,.F.);
#935 = EDGE_LOOP('',(#936,#945,#946,#947));
#936 = ORIENTED_EDGE('',*,*,#937,.F.);
#937 = EDGE_CURVE('',#888,#938,#940,.T.);
#938 = VERTEX_POINT('',#939);
#939 = CARTESIAN_POINT('',(-28.66706901415,0.527166,0.));
#940 = CIRCLE('',#941,3.75);
#941 = AXIS2_PLACEMENT_3D('',#942,#943,#944);
#942 = CARTESIAN_POINT('',(-28.66706882078,-3.222834,0.));
#943 = DIRECTION('',(0.,0.,1.));
#944 = DIRECTION('',(1.,0.,0.));
#945 = ORIENTED_EDGE('',*,*,#898,.T.);
#946 = ORIENTED_EDGE('',*,*,#112,.T.);
#947 = ORIENTED_EDGE('',*,*,#948,.F.);
#948 = EDGE_CURVE('',#938,#113,#949,.T.);
#949 = LINE('',#950,#951);
#950 = CARTESIAN_POINT('',(-28.66706901415,0.527166,0.));
#951 = VECTOR('',#952,1.);
#952 = DIRECTION('',(0.,0.,1.));
#953 = CYLINDRICAL_SURFACE('',#954,3.75);
#954 = AXIS2_PLACEMENT_3D('',#955,#956,#957);
#955 = CARTESIAN_POINT('',(-28.66706882078,-3.222834,0.));
#956 = DIRECTION('',(-0.,-0.,-1.));
#957 = DIRECTION('',(1.,0.,0.));
#958 = ADVANCED_FACE('',(#959),#977,.F.);
#959 = FACE_BOUND('',#960,.F.);
#960 = EDGE_LOOP('',(#961,#962,#963,#971));
#961 = ORIENTED_EDGE('',*,*,#287,.F.);
#962 = ORIENTED_EDGE('',*,*,#914,.F.);
#963 = ORIENTED_EDGE('',*,*,#964,.T.);
#964 = EDGE_CURVE('',#915,#965,#967,.T.);
#965 = VERTEX_POINT('',#966);
#966 = CARTESIAN_POINT('',(-29.66707,18.027165999979,0.));
#967 = LINE('',#968,#969);
#968 = CARTESIAN_POINT('',(-28.66707004528,18.027165999979,0.));
#969 = VECTOR('',#970,1.);
#970 = DIRECTION('',(-1.,0.,0.));
#971 = ORIENTED_EDGE('',*,*,#972,.F.);
#972 = EDGE_CURVE('',#279,#965,#973,.T.);
#973 = LINE('',#974,#975);
#974 = CARTESIAN_POINT('',(-29.66707,18.027165999979,14.));
#975 = VECTOR('',#976,1.);
#976 = DIRECTION('',(-0.,-0.,-1.));
#977 = PLANE('',#978);
#978 = AXIS2_PLACEMENT_3D('',#979,#980,#981);
#979 = CARTESIAN_POINT('',(-28.66707004528,18.027165999979,14.));
#980 = DIRECTION('',(0.,1.,0.));
#981 = DIRECTION('',(-1.,0.,0.));
#982 = ADVANCED_FACE('',(#983),#1001,.T.);
#983 = FACE_BOUND('',#984,.T.);
#984 = EDGE_LOOP('',(#985,#993,#994,#995));
#985 = ORIENTED_EDGE('',*,*,#986,.T.);
#986 = EDGE_CURVE('',#987,#122,#989,.T.);
#987 = VERTEX_POINT('',#988);
#988 = CARTESIAN_POINT('',(-31.66706901415,0.527166,0.));
#989 = LINE('',#990,#991);
#990 = CARTESIAN_POINT('',(-31.66706901415,0.527166,0.));
#991 = VECTOR('',#992,1.);
#992 = DIRECTION('',(0.,0.,1.));
#993 = ORIENTED_EDGE('',*,*,#121,.T.);
#994 = ORIENTED_EDGE('',*,*,#948,.F.);
#995 = ORIENTED_EDGE('',*,*,#996,.F.);
#996 = EDGE_CURVE('',#987,#938,#997,.T.);
#997 = LINE('',#998,#999);
#998 = CARTESIAN_POINT('',(-31.66706901415,0.527166,0.));
#999 = VECTOR('',#1000,1.);
#1000 = DIRECTION('',(1.,0.,0.));
#1001 = PLANE('',#1002);
#1002 = AXIS2_PLACEMENT_3D('',#1003,#1004,#1005);
#1003 = CARTESIAN_POINT('',(-31.66706901415,0.527166,0.));
#1004 = DIRECTION('',(0.,1.,0.));
#1005 = DIRECTION('',(1.,0.,0.));
#1006 = ADVANCED_FACE('',(#1007),#1026,.T.);
#1007 = FACE_BOUND('',#1008,.T.);
#1008 = EDGE_LOOP('',(#1009,#1010,#1018,#1025));
#1009 = ORIENTED_EDGE('',*,*,#278,.T.);
#1010 = ORIENTED_EDGE('',*,*,#1011,.T.);
#1011 = EDGE_CURVE('',#271,#1012,#1014,.T.);
#1012 = VERTEX_POINT('',#1013);
#1013 = CARTESIAN_POINT('',(-31.66707,20.027165999979,0.));
#1014 = LINE('',#1015,#1016);
#1015 = CARTESIAN_POINT('',(-31.66707,20.027165999979,14.));
#1016 = VECTOR('',#1017,1.);
#1017 = DIRECTION('',(-0.,-0.,-1.));
#1018 = ORIENTED_EDGE('',*,*,#1019,.F.);
#1019 = EDGE_CURVE('',#965,#1012,#1020,.T.);
#1020 = CIRCLE('',#1021,2.);
#1021 = AXIS2_PLACEMENT_3D('',#1022,#1023,#1024);
#1022 = CARTESIAN_POINT('',(-29.66707,20.027165999979,1.78E-15));
#1023 = DIRECTION('',(0.,-0.,-1.));
#1024 = DIRECTION('',(0.,1.,-0.));
#1025 = ORIENTED_EDGE('',*,*,#972,.F.);
#1026 = CYLINDRICAL_SURFACE('',#1027,2.);
#1027 = AXIS2_PLACEMENT_3D('',#1028,#1029,#1030);
#1028 = CARTESIAN_POINT('',(-29.66707,20.027165999979,14.));
#1029 = DIRECTION('',(-0.,-0.,-1.));
#1030 = DIRECTION('',(-0.,-1.,0.));
#1031 = ADVANCED_FACE('',(#1032),#1051,.F.);
#1032 = FACE_BOUND('',#1033,.T.);
#1033 = EDGE_LOOP('',(#1034,#1042,#1043,#1044));
#1034 = ORIENTED_EDGE('',*,*,#1035,.T.);
#1035 = EDGE_CURVE('',#1036,#130,#1038,.T.);
#1036 = VERTEX_POINT('',#1037);
#1037 = CARTESIAN_POINT('',(-31.66706944716,3.027166,0.));
#1038 = LINE('',#1039,#1040);
#1039 = CARTESIAN_POINT('',(-31.66706944716,3.027166,0.));
#1040 = VECTOR('',#1041,1.);
#1041 = DIRECTION('',(0.,0.,1.));
#1042 = ORIENTED_EDGE('',*,*,#129,.T.);
#1043 = ORIENTED_EDGE('',*,*,#986,.F.);
#1044 = ORIENTED_EDGE('',*,*,#1045,.F.);
#1045 = EDGE_CURVE('',#1036,#987,#1046,.T.);
#1046 = CIRCLE('',#1047,1.25);
#1047 = AXIS2_PLACEMENT_3D('',#1048,#1049,#1050);
#1048 = CARTESIAN_POINT('',(-31.66706944716,1.777166,0.));
#1049 = DIRECTION('',(0.,0.,1.));
#1050 = DIRECTION('',(1.,0.,0.));
#1051 = CYLINDRICAL_SURFACE('',#1052,1.25);
#1052 = AXIS2_PLACEMENT_3D('',#1053,#1054,#1055);
#1053 = CARTESIAN_POINT('',(-31.66706944716,1.777166,0.));
#1054 = DIRECTION('',(-0.,-0.,-1.));
#1055 = DIRECTION('',(1.,0.,0.));
#1056 = ADVANCED_FACE('',(#1057),#1075,.F.);
#1057 = FACE_BOUND('',#1058,.F.);
#1058 = EDGE_LOOP('',(#1059,#1060,#1061,#1069));
#1059 = ORIENTED_EDGE('',*,*,#270,.F.);
#1060 = ORIENTED_EDGE('',*,*,#1011,.T.);
#1061 = ORIENTED_EDGE('',*,*,#1062,.T.);
#1062 = EDGE_CURVE('',#1012,#1063,#1065,.T.);
#1063 = VERTEX_POINT('',#1064);
#1064 = CARTESIAN_POINT('',(-31.66707,20.527166,0.));
#1065 = LINE('',#1066,#1067);
#1066 = CARTESIAN_POINT('',(-31.66707,18.027165999979,0.));
#1067 = VECTOR('',#1068,1.);
#1068 = DIRECTION('',(0.,1.,0.));
#1069 = ORIENTED_EDGE('',*,*,#1070,.F.);
#1070 = EDGE_CURVE('',#263,#1063,#1071,.T.);
#1071 = LINE('',#1072,#1073);
#1072 = CARTESIAN_POINT('',(-31.66707,20.527166,14.));
#1073 = VECTOR('',#1074,1.);
#1074 = DIRECTION('',(-0.,-0.,-1.));
#1075 = PLANE('',#1076);
#1076 = AXIS2_PLACEMENT_3D('',#1077,#1078,#1079);
#1077 = CARTESIAN_POINT('',(-31.66707,18.027165999979,14.));
#1078 = DIRECTION('',(1.,0.,0.));
#1079 = DIRECTION('',(0.,1.,0.));
#1080 = ADVANCED_FACE('',(#1081),#1099,.T.);
#1081 = FACE_BOUND('',#1082,.T.);
#1082 = EDGE_LOOP('',(#1083,#1091,#1092,#1093));
#1083 = ORIENTED_EDGE('',*,*,#1084,.T.);
#1084 = EDGE_CURVE('',#1085,#139,#1087,.T.);
#1085 = VERTEX_POINT('',#1086);
#1086 = CARTESIAN_POINT('',(-28.66706944716,3.027166,0.));
#1087 = LINE('',#1088,#1089);
#1088 = CARTESIAN_POINT('',(-28.66706944716,3.027166,0.));
#1089 = VECTOR('',#1090,1.);
#1090 = DIRECTION('',(0.,0.,1.));
#1091 = ORIENTED_EDGE('',*,*,#138,.T.);
#1092 = ORIENTED_EDGE('',*,*,#1035,.F.);
#1093 = ORIENTED_EDGE('',*,*,#1094,.F.);
#1094 = EDGE_CURVE('',#1085,#1036,#1095,.T.);
#1095 = LINE('',#1096,#1097);
#1096 = CARTESIAN_POINT('',(-28.66706944716,3.027166,0.));
#1097 = VECTOR('',#1098,1.);
#1098 = DIRECTION('',(-1.,0.,0.));
#1099 = PLANE('',#1100);
#1100 = AXIS2_PLACEMENT_3D('',#1101,#1102,#1103);
#1101 = CARTESIAN_POINT('',(-28.66706944716,3.027166,0.));
#1102 = DIRECTION('',(0.,-1.,0.));
#1103 = DIRECTION('',(-1.,0.,0.));
#1104 = ADVANCED_FACE('',(#1105),#1123,.F.);
#1105 = FACE_BOUND('',#1106,.F.);
#1106 = EDGE_LOOP('',(#1107,#1108,#1116,#1122));
#1107 = ORIENTED_EDGE('',*,*,#1070,.T.);
#1108 = ORIENTED_EDGE('',*,*,#1109,.T.);
#1109 = EDGE_CURVE('',#1063,#1110,#1112,.T.);
#1110 = VERTEX_POINT('',#1111);
#1111 = CARTESIAN_POINT('',(-32.41707001448,21.777166,4.E-15));
#1112 = LINE('',#1113,#1114);
#1113 = CARTESIAN_POINT('',(-31.66707,20.527166,0.));
#1114 = VECTOR('',#1115,1.);
#1115 = DIRECTION('',(-0.514495762735,0.857492921328,0.));
#1116 = ORIENTED_EDGE('',*,*,#1117,.F.);
#1117 = EDGE_CURVE('',#255,#1110,#1118,.T.);
#1118 = LINE('',#1119,#1120);
#1119 = CARTESIAN_POINT('',(-32.41707001448,21.777166,14.));
#1120 = VECTOR('',#1121,1.);
#1121 = DIRECTION('',(-0.,-0.,-1.));
#1122 = ORIENTED_EDGE('',*,*,#262,.F.);
#1123 = PLANE('',#1124);
#1124 = AXIS2_PLACEMENT_3D('',#1125,#1126,#1127);
#1125 = CARTESIAN_POINT('',(-31.66707,20.527166,14.));
#1126 = DIRECTION('',(0.857492921328,0.514495762735,0.));
#1127 = DIRECTION('',(-0.514495762735,0.857492921328,0.));
#1128 = ADVANCED_FACE('',(#1129),#1148,.T.);
#1129 = FACE_BOUND('',#1130,.F.);
#1130 = EDGE_LOOP('',(#1131,#1132,#1133,#1141));
#1131 = ORIENTED_EDGE('',*,*,#1084,.T.);
#1132 = ORIENTED_EDGE('',*,*,#146,.T.);
#1133 = ORIENTED_EDGE('',*,*,#1134,.F.);
#1134 = EDGE_CURVE('',#1135,#147,#1137,.T.);
#1135 = VERTEX_POINT('',#1136);
#1136 = CARTESIAN_POINT('',(-28.66706985852,10.527166,0.));
#1137 = LINE('',#1138,#1139);
#1138 = CARTESIAN_POINT('',(-28.66706985852,10.527166,0.));
#1139 = VECTOR('',#1140,1.);
#1140 = DIRECTION('',(0.,0.,1.));
#1141 = ORIENTED_EDGE('',*,*,#1142,.F.);
#1142 = EDGE_CURVE('',#1085,#1135,#1143,.T.);
#1143 = CIRCLE('',#1144,3.75);
#1144 = AXIS2_PLACEMENT_3D('',#1145,#1146,#1147);
#1145 = CARTESIAN_POINT('',(-28.66706924296,6.777166,0.));
#1146 = DIRECTION('',(0.,0.,1.));
#1147 = DIRECTION('',(1.,0.,0.));
#1148 = CYLINDRICAL_SURFACE('',#1149,3.75);
#1149 = AXIS2_PLACEMENT_3D('',#1150,#1151,#1152);
#1150 = CARTESIAN_POINT('',(-28.66706924296,6.777166,0.));
#1151 = DIRECTION('',(-0.,-0.,-1.));
#1152 = DIRECTION('',(1.,0.,0.));
#1153 = ADVANCED_FACE('',(#1154),#1172,.F.);
#1154 = FACE_BOUND('',#1155,.F.);
#1155 = EDGE_LOOP('',(#1156,#1157,#1165,#1171));
#1156 = ORIENTED_EDGE('',*,*,#1117,.T.);
#1157 = ORIENTED_EDGE('',*,*,#1158,.T.);
#1158 = EDGE_CURVE('',#1110,#1159,#1161,.T.);
#1159 = VERTEX_POINT('',#1160);
#1160 = CARTESIAN_POINT('',(-32.41707001448,25.277166,7.105427357601E-15
    ));
#1161 = LINE('',#1162,#1163);
#1162 = CARTESIAN_POINT('',(-32.41707001448,21.777166,7.105427357601E-15
    ));
#1163 = VECTOR('',#1164,1.);
#1164 = DIRECTION('',(0.,1.,0.));
#1165 = ORIENTED_EDGE('',*,*,#1166,.F.);
#1166 = EDGE_CURVE('',#247,#1159,#1167,.T.);
#1167 = LINE('',#1168,#1169);
#1168 = CARTESIAN_POINT('',(-32.41707001448,25.277166,14.));
#1169 = VECTOR('',#1170,1.);
#1170 = DIRECTION('',(-0.,-0.,-1.));
#1171 = ORIENTED_EDGE('',*,*,#254,.F.);
#1172 = PLANE('',#1173);
#1173 = AXIS2_PLACEMENT_3D('',#1174,#1175,#1176);
#1174 = CARTESIAN_POINT('',(-32.41707001448,21.777166,14.));
#1175 = DIRECTION('',(1.,0.,0.));
#1176 = DIRECTION('',(0.,1.,0.));
#1177 = ADVANCED_FACE('',(#1178),#1196,.T.);
#1178 = FACE_BOUND('',#1179,.T.);
#1179 = EDGE_LOOP('',(#1180,#1188,#1189,#1190));
#1180 = ORIENTED_EDGE('',*,*,#1181,.T.);
#1181 = EDGE_CURVE('',#1182,#156,#1184,.T.);
#1182 = VERTEX_POINT('',#1183);
#1183 = CARTESIAN_POINT('',(-31.66706985852,10.527166,0.));
#1184 = LINE('',#1185,#1186);
#1185 = CARTESIAN_POINT('',(-31.66706985852,10.527166,0.));
#1186 = VECTOR('',#1187,1.);
#1187 = DIRECTION('',(0.,0.,1.));
#1188 = ORIENTED_EDGE('',*,*,#155,.T.);
#1189 = ORIENTED_EDGE('',*,*,#1134,.F.);
#1190 = ORIENTED_EDGE('',*,*,#1191,.F.);
#1191 = EDGE_CURVE('',#1182,#1135,#1192,.T.);
#1192 = LINE('',#1193,#1194);
#1193 = CARTESIAN_POINT('',(-31.66706985852,10.527166,0.));
#1194 = VECTOR('',#1195,1.);
#1195 = DIRECTION('',(1.,0.,0.));
#1196 = PLANE('',#1197);
#1197 = AXIS2_PLACEMENT_3D('',#1198,#1199,#1200);
#1198 = CARTESIAN_POINT('',(-31.66706985852,10.527166,0.));
#1199 = DIRECTION('',(0.,1.,0.));
#1200 = DIRECTION('',(1.,0.,0.));
#1201 = ADVANCED_FACE('',(#1202),#1220,.F.);
#1202 = FACE_BOUND('',#1203,.F.);
#1203 = EDGE_LOOP('',(#1204,#1205,#1213,#1219));
#1204 = ORIENTED_EDGE('',*,*,#1166,.T.);
#1205 = ORIENTED_EDGE('',*,*,#1206,.T.);
#1206 = EDGE_CURVE('',#1159,#1207,#1209,.T.);
#1207 = VERTEX_POINT('',#1208);
#1208 = CARTESIAN_POINT('',(-35.41707001448,25.277166,7.105427357601E-15
    ));
#1209 = LINE('',#1210,#1211);
#1210 = CARTESIAN_POINT('',(-32.41707001448,25.277166,7.105427357601E-15
    ));
#1211 = VECTOR('',#1212,1.);
#1212 = DIRECTION('',(-1.,0.,0.));
#1213 = ORIENTED_EDGE('',*,*,#1214,.F.);
#1214 = EDGE_CURVE('',#239,#1207,#1215,.T.);
#1215 = LINE('',#1216,#1217);
#1216 = CARTESIAN_POINT('',(-35.41707001448,25.277166,14.));
#1217 = VECTOR('',#1218,1.);
#1218 = DIRECTION('',(-0.,-0.,-1.));
#1219 = ORIENTED_EDGE('',*,*,#246,.F.);
#1220 = PLANE('',#1221);
#1221 = AXIS2_PLACEMENT_3D('',#1222,#1223,#1224);
#1222 = CARTESIAN_POINT('',(-32.41707001448,25.277166,14.));
#1223 = DIRECTION('',(0.,1.,0.));
#1224 = DIRECTION('',(-1.,0.,0.));
#1225 = ADVANCED_FACE('',(#1226),#1245,.F.);
#1226 = FACE_BOUND('',#1227,.T.);
#1227 = EDGE_LOOP('',(#1228,#1236,#1237,#1238));
#1228 = ORIENTED_EDGE('',*,*,#1229,.T.);
#1229 = EDGE_CURVE('',#1230,#164,#1232,.T.);
#1230 = VERTEX_POINT('',#1231);
#1231 = CARTESIAN_POINT('',(-31.66707,13.027166,0.));
#1232 = LINE('',#1233,#1234);
#1233 = CARTESIAN_POINT('',(-31.66707,13.027166,0.));
#1234 = VECTOR('',#1235,1.);
#1235 = DIRECTION('',(0.,0.,1.));
#1236 = ORIENTED_EDGE('',*,*,#163,.T.);
#1237 = ORIENTED_EDGE('',*,*,#1181,.F.);
#1238 = ORIENTED_EDGE('',*,*,#1239,.F.);
#1239 = EDGE_CURVE('',#1230,#1182,#1240,.T.);
#1240 = CIRCLE('',#1241,1.25);
#1241 = AXIS2_PLACEMENT_3D('',#1242,#1243,#1244);
#1242 = CARTESIAN_POINT('',(-31.66707055829,11.777166,0.));
#1243 = DIRECTION('',(0.,0.,1.));
#1244 = DIRECTION('',(1.,0.,0.));
#1245 = CYLINDRICAL_SURFACE('',#1246,1.25);
#1246 = AXIS2_PLACEMENT_3D('',#1247,#1248,#1249);
#1247 = CARTESIAN_POINT('',(-31.66707055829,11.777166,0.));
#1248 = DIRECTION('',(-0.,-0.,-1.));
#1249 = DIRECTION('',(1.,0.,0.));
#1250 = ADVANCED_FACE('',(#1251),#1269,.F.);
#1251 = FACE_BOUND('',#1252,.F.);
#1252 = EDGE_LOOP('',(#1253,#1254,#1262,#1268));
#1253 = ORIENTED_EDGE('',*,*,#1214,.T.);
#1254 = ORIENTED_EDGE('',*,*,#1255,.T.);
#1255 = EDGE_CURVE('',#1207,#1256,#1258,.T.);
#1256 = VERTEX_POINT('',#1257);
#1257 = CARTESIAN_POINT('',(-35.41707001448,30.277166,7.105427357601E-15
    ));
#1258 = LINE('',#1259,#1260);
#1259 = CARTESIAN_POINT('',(-35.41707001448,25.277166,7.105427357601E-15
    ));
#1260 = VECTOR('',#1261,1.);
#1261 = DIRECTION('',(0.,1.,0.));
#1262 = ORIENTED_EDGE('',*,*,#1263,.F.);
#1263 = EDGE_CURVE('',#231,#1256,#1264,.T.);
#1264 = LINE('',#1265,#1266);
#1265 = CARTESIAN_POINT('',(-35.41707001448,30.277166,14.));
#1266 = VECTOR('',#1267,1.);
#1267 = DIRECTION('',(-0.,-0.,-1.));
#1268 = ORIENTED_EDGE('',*,*,#238,.F.);
#1269 = PLANE('',#1270);
#1270 = AXIS2_PLACEMENT_3D('',#1271,#1272,#1273);
#1271 = CARTESIAN_POINT('',(-35.41707001448,25.277166,14.));
#1272 = DIRECTION('',(1.,0.,0.));
#1273 = DIRECTION('',(0.,1.,0.));
#1274 = ADVANCED_FACE('',(#1275),#1293,.T.);
#1275 = FACE_BOUND('',#1276,.T.);
#1276 = EDGE_LOOP('',(#1277,#1285,#1286,#1287));
#1277 = ORIENTED_EDGE('',*,*,#1278,.T.);
#1278 = EDGE_CURVE('',#1279,#173,#1281,.T.);
#1279 = VERTEX_POINT('',#1280);
#1280 = CARTESIAN_POINT('',(-28.66707,13.027166,0.));
#1281 = LINE('',#1282,#1283);
#1282 = CARTESIAN_POINT('',(-28.66707,13.027166,0.));
#1283 = VECTOR('',#1284,1.);
#1284 = DIRECTION('',(0.,0.,1.));
#1285 = ORIENTED_EDGE('',*,*,#172,.T.);
#1286 = ORIENTED_EDGE('',*,*,#1229,.F.);
#1287 = ORIENTED_EDGE('',*,*,#1288,.F.);
#1288 = EDGE_CURVE('',#1279,#1230,#1289,.T.);
#1289 = LINE('',#1290,#1291);
#1290 = CARTESIAN_POINT('',(-28.66707,13.027166,0.));
#1291 = VECTOR('',#1292,1.);
#1292 = DIRECTION('',(-1.,0.,0.));
#1293 = PLANE('',#1294);
#1294 = AXIS2_PLACEMENT_3D('',#1295,#1296,#1297);
#1295 = CARTESIAN_POINT('',(-28.66707,13.027166,0.));
#1296 = DIRECTION('',(0.,-1.,0.));
#1297 = DIRECTION('',(-1.,0.,0.));
#1298 = ADVANCED_FACE('',(#1299),#1317,.T.);
#1299 = FACE_BOUND('',#1300,.T.);
#1300 = EDGE_LOOP('',(#1301,#1309,#1315,#1316));
#1301 = ORIENTED_EDGE('',*,*,#1302,.T.);
#1302 = EDGE_CURVE('',#223,#1303,#1305,.T.);
#1303 = VERTEX_POINT('',#1304);
#1304 = CARTESIAN_POINT('',(-24.91707001448,30.277166,7.105427357601E-15
    ));
#1305 = LINE('',#1306,#1307);
#1306 = CARTESIAN_POINT('',(-24.91707001448,30.277166,14.));
#1307 = VECTOR('',#1308,1.);
#1308 = DIRECTION('',(-0.,-0.,-1.));
#1309 = ORIENTED_EDGE('',*,*,#1310,.T.);
#1310 = EDGE_CURVE('',#1303,#1256,#1311,.T.);
#1311 = LINE('',#1312,#1313);
#1312 = CARTESIAN_POINT('',(-24.91707001448,30.277166,7.105427357601E-15
    ));
#1313 = VECTOR('',#1314,1.);
#1314 = DIRECTION('',(-1.,0.,0.));
#1315 = ORIENTED_EDGE('',*,*,#1263,.F.);
#1316 = ORIENTED_EDGE('',*,*,#230,.F.);
#1317 = PLANE('',#1318);
#1318 = AXIS2_PLACEMENT_3D('',#1319,#1320,#1321);
#1319 = CARTESIAN_POINT('',(-24.91707001448,30.277166,14.));
#1320 = DIRECTION('',(0.,1.,0.));
#1321 = DIRECTION('',(-1.,0.,0.));
#1322 = ADVANCED_FACE('',(#1323),#1342,.T.);
#1323 = FACE_BOUND('',#1324,.F.);
#1324 = EDGE_LOOP('',(#1325,#1334,#1335,#1336));
#1325 = ORIENTED_EDGE('',*,*,#1326,.F.);
#1326 = EDGE_CURVE('',#1279,#1327,#1329,.T.);
#1327 = VERTEX_POINT('',#1328);
#1328 = CARTESIAN_POINT('',(-27.40414203441,20.308106945568,0.));
#1329 = CIRCLE('',#1330,3.75000000001);
#1330 = AXIS2_PLACEMENT_3D('',#1331,#1332,#1333);
#1331 = CARTESIAN_POINT('',(-28.66705772396,16.77716599999,0.));
#1332 = DIRECTION('',(0.,0.,1.));
#1333 = DIRECTION('',(1.,0.,0.));
#1334 = ORIENTED_EDGE('',*,*,#1278,.T.);
#1335 = ORIENTED_EDGE('',*,*,#180,.T.);
#1336 = ORIENTED_EDGE('',*,*,#1337,.F.);
#1337 = EDGE_CURVE('',#1327,#181,#1338,.T.);
#1338 = LINE('',#1339,#1340);
#1339 = CARTESIAN_POINT('',(-27.40414203441,20.308106945568,0.));
#1340 = VECTOR('',#1341,1.);
#1341 = DIRECTION('',(0.,0.,1.));
#1342 = CYLINDRICAL_SURFACE('',#1343,3.75000000001);
#1343 = AXIS2_PLACEMENT_3D('',#1344,#1345,#1346);
#1344 = CARTESIAN_POINT('',(-28.66705772396,16.77716599999,0.));
#1345 = DIRECTION('',(-0.,-0.,-1.));
#1346 = DIRECTION('',(1.,0.,0.));
#1347 = ADVANCED_FACE('',(#1348),#1366,.T.);
#1348 = FACE_BOUND('',#1349,.T.);
#1349 = EDGE_LOOP('',(#1350,#1358,#1364,#1365));
#1350 = ORIENTED_EDGE('',*,*,#1351,.T.);
#1351 = EDGE_CURVE('',#215,#1352,#1354,.T.);
#1352 = VERTEX_POINT('',#1353);
#1353 = CARTESIAN_POINT('',(-24.91707001448,25.277166,7.105427357601E-15
    ));
#1354 = LINE('',#1355,#1356);
#1355 = CARTESIAN_POINT('',(-24.91707001448,25.277166,14.));
#1356 = VECTOR('',#1357,1.);
#1357 = DIRECTION('',(-0.,-0.,-1.));
#1358 = ORIENTED_EDGE('',*,*,#1359,.T.);
#1359 = EDGE_CURVE('',#1352,#1303,#1360,.T.);
#1360 = LINE('',#1361,#1362);
#1361 = CARTESIAN_POINT('',(-24.91707001448,25.277166,7.105427357601E-15
    ));
#1362 = VECTOR('',#1363,1.);
#1363 = DIRECTION('',(0.,1.,0.));
#1364 = ORIENTED_EDGE('',*,*,#1302,.F.);
#1365 = ORIENTED_EDGE('',*,*,#222,.F.);
#1366 = PLANE('',#1367);
#1367 = AXIS2_PLACEMENT_3D('',#1368,#1369,#1370);
#1368 = CARTESIAN_POINT('',(-24.91707001448,25.277166,14.));
#1369 = DIRECTION('',(1.,0.,0.));
#1370 = DIRECTION('',(0.,1.,0.));
#1371 = ADVANCED_FACE('',(#1372),#1391,.F.);
#1372 = FACE_BOUND('',#1373,.F.);
#1373 = EDGE_LOOP('',(#1374,#1383,#1384,#1385));
#1374 = ORIENTED_EDGE('',*,*,#1375,.T.);
#1375 = EDGE_CURVE('',#1376,#1327,#1378,.T.);
#1376 = VERTEX_POINT('',#1377);
#1377 = CARTESIAN_POINT('',(-27.92485743359,21.76418696868,0.));
#1378 = CIRCLE('',#1379,1.);
#1379 = AXIS2_PLACEMENT_3D('',#1380,#1381,#1382);
#1380 = CARTESIAN_POINT('',(-27.0673645172,21.24969119772,2.6E-15));
#1381 = DIRECTION('',(-0.,0.,1.));
#1382 = DIRECTION('',(0.,-1.,0.));
#1383 = ORIENTED_EDGE('',*,*,#1337,.T.);
#1384 = ORIENTED_EDGE('',*,*,#189,.F.);
#1385 = ORIENTED_EDGE('',*,*,#1386,.F.);
#1386 = EDGE_CURVE('',#1376,#190,#1387,.T.);
#1387 = LINE('',#1388,#1389);
#1388 = CARTESIAN_POINT('',(-27.92485743359,21.76418696868,0.));
#1389 = VECTOR('',#1390,1.);
#1390 = DIRECTION('',(0.,0.,1.));
#1391 = CYLINDRICAL_SURFACE('',#1392,1.);
#1392 = AXIS2_PLACEMENT_3D('',#1393,#1394,#1395);
#1393 = CARTESIAN_POINT('',(-27.0673645172,21.24969119772,0.));
#1394 = DIRECTION('',(0.,0.,1.));
#1395 = DIRECTION('',(-0.857492916393,0.51449577096,0.));
#1396 = ADVANCED_FACE('',(#1397),#1415,.T.);
#1397 = FACE_BOUND('',#1398,.T.);
#1398 = EDGE_LOOP('',(#1399,#1407,#1413,#1414));
#1399 = ORIENTED_EDGE('',*,*,#1400,.T.);
#1400 = EDGE_CURVE('',#207,#1401,#1403,.T.);
#1401 = VERTEX_POINT('',#1402);
#1402 = CARTESIAN_POINT('',(-27.91707001448,25.277166,7.105427357601E-15
    ));
#1403 = LINE('',#1404,#1405);
#1404 = CARTESIAN_POINT('',(-27.91707001448,25.277166,14.));
#1405 = VECTOR('',#1406,1.);
#1406 = DIRECTION('',(-0.,-0.,-1.));
#1407 = ORIENTED_EDGE('',*,*,#1408,.T.);
#1408 = EDGE_CURVE('',#1401,#1352,#1409,.T.);
#1409 = LINE('',#1410,#1411);
#1410 = CARTESIAN_POINT('',(-27.91707001448,25.277166,7.105427357601E-15
    ));
#1411 = VECTOR('',#1412,1.);
#1412 = DIRECTION('',(1.,0.,0.));
#1413 = ORIENTED_EDGE('',*,*,#1351,.F.);
#1414 = ORIENTED_EDGE('',*,*,#214,.F.);
#1415 = PLANE('',#1416);
#1416 = AXIS2_PLACEMENT_3D('',#1417,#1418,#1419);
#1417 = CARTESIAN_POINT('',(-27.91707001448,25.277166,14.));
#1418 = DIRECTION('',(0.,-1.,0.));
#1419 = DIRECTION('',(1.,0.,0.));
#1420 = ADVANCED_FACE('',(#1421),#1439,.T.);
#1421 = FACE_BOUND('',#1422,.T.);
#1422 = EDGE_LOOP('',(#1423,#1424,#1425,#1433));
#1423 = ORIENTED_EDGE('',*,*,#198,.F.);
#1424 = ORIENTED_EDGE('',*,*,#1386,.F.);
#1425 = ORIENTED_EDGE('',*,*,#1426,.T.);
#1426 = EDGE_CURVE('',#1376,#1427,#1429,.T.);
#1427 = VERTEX_POINT('',#1428);
#1428 = CARTESIAN_POINT('',(-27.91707001448,21.777166,4.E-15));
#1429 = LINE('',#1430,#1431);
#1430 = CARTESIAN_POINT('',(-28.66707004528,20.527166,0.));
#1431 = VECTOR('',#1432,1.);
#1432 = DIRECTION('',(0.51449577096,0.857492916393,0.));
#1433 = ORIENTED_EDGE('',*,*,#1434,.F.);
#1434 = EDGE_CURVE('',#199,#1427,#1435,.T.);
#1435 = LINE('',#1436,#1437);
#1436 = CARTESIAN_POINT('',(-27.91707001448,21.777166,14.));
#1437 = VECTOR('',#1438,1.);
#1438 = DIRECTION('',(-0.,-0.,-1.));
#1439 = PLANE('',#1440);
#1440 = AXIS2_PLACEMENT_3D('',#1441,#1442,#1443);
#1441 = CARTESIAN_POINT('',(-28.66707004528,20.527166,14.));
#1442 = DIRECTION('',(0.857492916393,-0.51449577096,0.));
#1443 = DIRECTION('',(0.51449577096,0.857492916393,0.));
#1444 = ADVANCED_FACE('',(#1445),#1456,.T.);
#1445 = FACE_BOUND('',#1446,.T.);
#1446 = EDGE_LOOP('',(#1447,#1448,#1454,#1455));
#1447 = ORIENTED_EDGE('',*,*,#1434,.T.);
#1448 = ORIENTED_EDGE('',*,*,#1449,.T.);
#1449 = EDGE_CURVE('',#1427,#1401,#1450,.T.);
#1450 = LINE('',#1451,#1452);
#1451 = CARTESIAN_POINT('',(-27.91707001448,21.777166,7.105427357601E-15
    ));
#1452 = VECTOR('',#1453,1.);
#1453 = DIRECTION('',(0.,1.,0.));
#1454 = ORIENTED_EDGE('',*,*,#1400,.F.);
#1455 = ORIENTED_EDGE('',*,*,#206,.F.);
#1456 = PLANE('',#1457);
#1457 = AXIS2_PLACEMENT_3D('',#1458,#1459,#1460);
#1458 = CARTESIAN_POINT('',(-27.91707001448,21.777166,14.));
#1459 = DIRECTION('',(1.,0.,0.));
#1460 = DIRECTION('',(0.,1.,0.));
#1461 = ADVANCED_FACE('',(#1462),#1508,.T.);
#1462 = FACE_BOUND('',#1463,.T.);
#1463 = EDGE_LOOP('',(#1464,#1465,#1466,#1467,#1468,#1469,#1470,#1471,
    #1472,#1473,#1474,#1475,#1476,#1477,#1478,#1479,#1480,#1481,#1482,
    #1483,#1484,#1485,#1486,#1487,#1488,#1489,#1490,#1491,#1492,#1493,
    #1494,#1495,#1496,#1497,#1498,#1499,#1500,#1501,#1502,#1503,#1504,
    #1505,#1506,#1507));
#1464 = ORIENTED_EDGE('',*,*,#1062,.T.);
#1465 = ORIENTED_EDGE('',*,*,#1109,.T.);
#1466 = ORIENTED_EDGE('',*,*,#1158,.T.);
#1467 = ORIENTED_EDGE('',*,*,#1206,.T.);
#1468 = ORIENTED_EDGE('',*,*,#1255,.T.);
#1469 = ORIENTED_EDGE('',*,*,#1310,.F.);
#1470 = ORIENTED_EDGE('',*,*,#1359,.F.);
#1471 = ORIENTED_EDGE('',*,*,#1408,.F.);
#1472 = ORIENTED_EDGE('',*,*,#1449,.F.);
#1473 = ORIENTED_EDGE('',*,*,#1426,.F.);
#1474 = ORIENTED_EDGE('',*,*,#1375,.T.);
#1475 = ORIENTED_EDGE('',*,*,#1326,.F.);
#1476 = ORIENTED_EDGE('',*,*,#1288,.T.);
#1477 = ORIENTED_EDGE('',*,*,#1239,.T.);
#1478 = ORIENTED_EDGE('',*,*,#1191,.T.);
#1479 = ORIENTED_EDGE('',*,*,#1142,.F.);
#1480 = ORIENTED_EDGE('',*,*,#1094,.T.);
#1481 = ORIENTED_EDGE('',*,*,#1045,.T.);
#1482 = ORIENTED_EDGE('',*,*,#996,.T.);
#1483 = ORIENTED_EDGE('',*,*,#937,.F.);
#1484 = ORIENTED_EDGE('',*,*,#887,.T.);
#1485 = ORIENTED_EDGE('',*,*,#848,.T.);
#1486 = ORIENTED_EDGE('',*,*,#798,.T.);
#1487 = ORIENTED_EDGE('',*,*,#750,.T.);
#1488 = ORIENTED_EDGE('',*,*,#701,.T.);
#1489 = ORIENTED_EDGE('',*,*,#646,.F.);
#1490 = ORIENTED_EDGE('',*,*,#597,.F.);
#1491 = ORIENTED_EDGE('',*,*,#549,.F.);
#1492 = ORIENTED_EDGE('',*,*,#500,.F.);
#1493 = ORIENTED_EDGE('',*,*,#452,.F.);
#1494 = ORIENTED_EDGE('',*,*,#404,.F.);
#1495 = ORIENTED_EDGE('',*,*,#435,.T.);
#1496 = ORIENTED_EDGE('',*,*,#484,.F.);
#1497 = ORIENTED_EDGE('',*,*,#533,.T.);
#1498 = ORIENTED_EDGE('',*,*,#582,.F.);
#1499 = ORIENTED_EDGE('',*,*,#630,.F.);
#1500 = ORIENTED_EDGE('',*,*,#679,.F.);
#1501 = ORIENTED_EDGE('',*,*,#727,.T.);
#1502 = ORIENTED_EDGE('',*,*,#776,.F.);
#1503 = ORIENTED_EDGE('',*,*,#824,.F.);
#1504 = ORIENTED_EDGE('',*,*,#873,.F.);
#1505 = ORIENTED_EDGE('',*,*,#922,.T.);
#1506 = ORIENTED_EDGE('',*,*,#964,.T.);
#1507 = ORIENTED_EDGE('',*,*,#1019,.T.);
#1508 = PLANE('',#1509);
#1509 = AXIS2_PLACEMENT_3D('',#1510,#1511,#1512);
#1510 = CARTESIAN_POINT('',(-29.93700174261,6.777168330933,2.6E-15));
#1511 = DIRECTION('',(-0.,-0.,-1.));
#1512 = DIRECTION('',(-1.,0.,0.));
#1513 = ( GEOMETRIC_REPRESENTATION_CONTEXT(3) 
GLOBAL_UNCERTAINTY_ASSIGNED_CONTEXT((#1517)) 
GLOBAL_UNIT_ASSIGNED_CONTEXT((#1514,#1515,#1516)) REPRESENTATION_CONTEXT
('Context #1','3D Context with UNIT and UNCERTAINTY') );
#1514 = ( LENGTH_UNIT() NAMED_UNIT(*) SI_UNIT(.MILLI.,.METRE.) );
#1515 = ( NAMED_UNIT(*) PLANE_ANGLE_UNIT() SI_UNIT($,.RADIAN.) );
#1516 = ( NAMED_UNIT(*) SI_UNIT($,.STERADIAN.) SOLID_ANGLE_UNIT() );
#1517 = UNCERTAINTY_MEASURE_WITH_UNIT(LENGTH_MEASURE(1.E-07),#1514,
  'distance_accuracy_value','confusion accuracy');
#1518 = PRODUCT_RELATED_PRODUCT_CATEGORY('part',$,(#7));
#1519 = MECHANICAL_DESIGN_GEOMETRIC_PRESENTATION_REPRESENTATION('',(
    #1520),#1513);
#1520 = STYLED_ITEM('color',(#1521),#15);
#1521 = PRESENTATION_STYLE_ASSIGNMENT((#1522,#1528));
#1522 = SURFACE_STYLE_USAGE(.BOTH.,#1523);
#1523 = SURFACE_SIDE_STYLE('',(#1524));
#1524 = SURFACE_STYLE_FILL_AREA(#1525);
#1525 = FILL_AREA_STYLE('',(#1526));
#1526 = FILL_AREA_STYLE_COLOUR('',#1527);
#1527 = COLOUR_RGB('',0.447058818107,0.474509808674,0.501960817233);
#1528 = CURVE_STYLE('',#1529,POSITIVE_LENGTH_MEASURE(0.1),#1530);
#1529 = DRAUGHTING_PRE_DEFINED_CURVE_FONT('continuous');
#1530 = COLOUR_RGB('',9.803921802644E-02,9.803921802644E-02,
  9.803921802644E-02);
ENDSEC;
END-ISO-10303-21;
