ISO-10303-21;
HEADER;
FILE_DESCRIPTION(('FreeCAD Model'),'2;1');
FILE_NAME('Open CASCADE Shape Model','2026-08-27T17:54:07',(''),(''),
  'Open CASCADE STEP processor 7.8','FreeCAD','Unknown');
FILE_SCHEMA(('AUTOMOTIVE_DESIGN { 1 0 10303 214 1 1 1 1 }'));
ENDSEC;
DATA;
#1 = APPLICATION_PROTOCOL_DEFINITION('international standard',
  'automotive_design',2000,#2);
#2 = APPLICATION_CONTEXT(
  'core data for automotive mechanical design processes');
#3 = SHAPE_DEFINITION_REPRESENTATION(#4,#10);
#4 = PRODUCT_DEFINITION_SHAPE('','',#5);
#5 = PRODUCT_DEFINITION('design','',#6,#9);
#6 = PRODUCT_DEFINITION_FORMATION('','',#7);
#7 = PRODUCT('Pocket004','Pocket004','',(#8));
#8 = PRODUCT_CONTEXT('',#2,'mechanical');
#9 = PRODUCT_DEFINITION_CONTEXT('part definition',#2,'design');
#10 = ADVANCED_BREP_SHAPE_REPRESENTATION('',(#11,#15),#908);
#11 = AXIS2_PLACEMENT_3D('',#12,#13,#14);
#12 = CARTESIAN_POINT('',(0.,0.,0.));
#13 = DIRECTION('',(0.,0.,1.));
#14 = DIRECTION('',(1.,0.,-0.));
#15 = MANIFOLD_SOLID_BREP('',#16);
#16 = CLOSED_SHELL('',(#17,#69,#116,#140,#180,#198,#223,#334,#380,#484,
    #523,#543,#555,#572,#589,#606,#637,#695,#719,#770,#787,#815,#850,
    #862,#874,#899));
#17 = ADVANCED_FACE('',(#18,#53),#64,.T.);
#18 = FACE_BOUND('',#19,.T.);
#19 = EDGE_LOOP('',(#20,#30,#39,#47));
#20 = ORIENTED_EDGE('',*,*,#21,.F.);
#21 = EDGE_CURVE('',#22,#24,#26,.T.);
#22 = VERTEX_POINT('',#23);
#23 = CARTESIAN_POINT('',(-276.925007281,111.71387299918,0.));
#24 = VERTEX_POINT('',#25);
#25 = CARTESIAN_POINT('',(-251.924838,111.77089781433,0.));
#26 = LINE('',#27,#28);
#27 = CARTESIAN_POINT('',(-276.925007281,111.71387299918,0.));
#28 = VECTOR('',#29,1.);
#29 = DIRECTION('',(0.999997398582,2.280971227268E-03,0.));
#30 = ORIENTED_EDGE('',*,*,#31,.T.);
#31 = EDGE_CURVE('',#22,#32,#34,.T.);
#32 = VERTEX_POINT('',#33);
#33 = CARTESIAN_POINT('',(-276.9249951567,76.713872999181,0.));
#34 = CIRCLE('',#35,17.500000000762);
#35 = AXIS2_PLACEMENT_3D('',#36,#37,#38);
#36 = CARTESIAN_POINT('',(-276.924838,94.213872999238,0.));
#37 = DIRECTION('',(0.,0.,1.));
#38 = DIRECTION('',(1.,0.,0.));
#39 = ORIENTED_EDGE('',*,*,#40,.F.);
#40 = EDGE_CURVE('',#41,#32,#43,.T.);
#41 = VERTEX_POINT('',#42);
#42 = CARTESIAN_POINT('',(-251.924838,76.60960729016,0.));
#43 = LINE('',#44,#45);
#44 = CARTESIAN_POINT('',(-245.924838,76.5845836773,0.));
#45 = VECTOR('',#46,1.);
#46 = DIRECTION('',(-0.999991303152,4.170565872235E-03,0.));
#47 = ORIENTED_EDGE('',*,*,#48,.F.);
#48 = EDGE_CURVE('',#24,#41,#49,.T.);
#49 = LINE('',#50,#51);
#50 = CARTESIAN_POINT('',(-251.924838,111.784584,0.));
#51 = VECTOR('',#52,1.);
#52 = DIRECTION('',(0.,-1.,0.));
#53 = FACE_BOUND('',#54,.T.);
#54 = EDGE_LOOP('',(#55));
#55 = ORIENTED_EDGE('',*,*,#56,.F.);
#56 = EDGE_CURVE('',#57,#57,#59,.T.);
#57 = VERTEX_POINT('',#58);
#58 = CARTESIAN_POINT('',(-267.174838,94.213873,0.));
#59 = CIRCLE('',#60,9.75);
#60 = AXIS2_PLACEMENT_3D('',#61,#62,#63);
#61 = CARTESIAN_POINT('',(-276.924838,94.213873,0.));
#62 = DIRECTION('',(0.,0.,1.));
#63 = DIRECTION('',(1.,0.,0.));
#64 = PLANE('',#65);
#65 = AXIS2_PLACEMENT_3D('',#66,#67,#68);
#66 = CARTESIAN_POINT('',(-269.3297988587,94.204179336299,0.));
#67 = DIRECTION('',(0.,0.,1.));
#68 = DIRECTION('',(1.,0.,0.));
#69 = ADVANCED_FACE('',(#70),#111,.T.);
#70 = FACE_BOUND('',#71,.T.);
#71 = EDGE_LOOP('',(#72,#80,#81,#89,#97,#105));
#72 = ORIENTED_EDGE('',*,*,#73,.F.);
#73 = EDGE_CURVE('',#22,#74,#76,.T.);
#74 = VERTEX_POINT('',#75);
#75 = CARTESIAN_POINT('',(-276.925007281,111.7138730007,-10.));
#76 = LINE('',#77,#78);
#77 = CARTESIAN_POINT('',(-276.925007281,111.7138730007,-6.));
#78 = VECTOR('',#79,1.);
#79 = DIRECTION('',(0.,0.,-1.));
#80 = ORIENTED_EDGE('',*,*,#21,.T.);
#81 = ORIENTED_EDGE('',*,*,#82,.F.);
#82 = EDGE_CURVE('',#83,#24,#85,.T.);
#83 = VERTEX_POINT('',#84);
#84 = CARTESIAN_POINT('',(-251.924838,111.77089781432,-3.));
#85 = LINE('',#86,#87);
#86 = CARTESIAN_POINT('',(-251.924838,111.77089781428,-2.5));
#87 = VECTOR('',#88,1.);
#88 = DIRECTION('',(0.,-7.537912E-11,1.));
#89 = ORIENTED_EDGE('',*,*,#90,.T.);
#90 = EDGE_CURVE('',#83,#91,#93,.T.);
#91 = VERTEX_POINT('',#92);
#92 = CARTESIAN_POINT('',(-245.924838,111.784584,-3.));
#93 = LINE('',#94,#95);
#94 = CARTESIAN_POINT('',(-255.19494501,111.76343877499,-3.));
#95 = VECTOR('',#96,1.);
#96 = DIRECTION('',(0.999997398582,2.28097120388E-03,0.));
#97 = ORIENTED_EDGE('',*,*,#98,.T.);
#98 = EDGE_CURVE('',#91,#99,#101,.T.);
#99 = VERTEX_POINT('',#100);
#100 = CARTESIAN_POINT('',(-245.924838,111.7845836773,-10.));
#101 = LINE('',#102,#103);
#102 = CARTESIAN_POINT('',(-245.924838,111.7845836773,0.));
#103 = VECTOR('',#104,1.);
#104 = DIRECTION('',(-0.,-0.,-1.));
#105 = ORIENTED_EDGE('',*,*,#106,.F.);
#106 = EDGE_CURVE('',#74,#99,#107,.T.);
#107 = LINE('',#108,#109);
#108 = CARTESIAN_POINT('',(-276.925007281,111.7138730007,-10.));
#109 = VECTOR('',#110,1.);
#110 = DIRECTION('',(0.999997398582,2.280971178094E-03,0.));
#111 = PLANE('',#112);
#112 = AXIS2_PLACEMENT_3D('',#113,#114,#115);
#113 = CARTESIAN_POINT('',(-261.4249226405,111.7492283386,-5.));
#114 = DIRECTION('',(-2.28097120388E-03,0.999997398582,7.537893E-11));
#115 = DIRECTION('',(0.999997398582,2.28097120388E-03,0.));
#116 = ADVANCED_FACE('',(#117),#135,.F.);
#117 = FACE_BOUND('',#118,.F.);
#118 = EDGE_LOOP('',(#119,#120,#121,#129));
#119 = ORIENTED_EDGE('',*,*,#48,.F.);
#120 = ORIENTED_EDGE('',*,*,#82,.F.);
#121 = ORIENTED_EDGE('',*,*,#122,.T.);
#122 = EDGE_CURVE('',#83,#123,#125,.T.);
#123 = VERTEX_POINT('',#124);
#124 = CARTESIAN_POINT('',(-251.924838,76.60960729016,-3.));
#125 = LINE('',#126,#127);
#126 = CARTESIAN_POINT('',(-251.924838,111.784584,-3.));
#127 = VECTOR('',#128,1.);
#128 = DIRECTION('',(0.,-1.,0.));
#129 = ORIENTED_EDGE('',*,*,#130,.F.);
#130 = EDGE_CURVE('',#41,#123,#131,.T.);
#131 = LINE('',#132,#133);
#132 = CARTESIAN_POINT('',(-251.924838,76.60960729016,-2.5));
#133 = VECTOR('',#134,1.);
#134 = DIRECTION('',(0.,0.,-1.));
#135 = PLANE('',#136);
#136 = AXIS2_PLACEMENT_3D('',#137,#138,#139);
#137 = CARTESIAN_POINT('',(-251.924838,111.784584,0.));
#138 = DIRECTION('',(-1.,0.,0.));
#139 = DIRECTION('',(0.,-1.,0.));
#140 = ADVANCED_FACE('',(#141),#175,.T.);
#141 = FACE_BOUND('',#142,.T.);
#142 = EDGE_LOOP('',(#143,#153,#159,#160,#161,#169));
#143 = ORIENTED_EDGE('',*,*,#144,.F.);
#144 = EDGE_CURVE('',#145,#147,#149,.T.);
#145 = VERTEX_POINT('',#146);
#146 = CARTESIAN_POINT('',(-245.924838,76.584584,-3.));
#147 = VERTEX_POINT('',#148);
#148 = CARTESIAN_POINT('',(-245.924838,76.5845836773,-10.));
#149 = LINE('',#150,#151);
#150 = CARTESIAN_POINT('',(-245.924838,76.5845836773,0.));
#151 = VECTOR('',#152,1.);
#152 = DIRECTION('',(-0.,-0.,-1.));
#153 = ORIENTED_EDGE('',*,*,#154,.T.);
#154 = EDGE_CURVE('',#145,#123,#155,.T.);
#155 = LINE('',#156,#157);
#156 = CARTESIAN_POINT('',(-255.2115518599,76.623314866029,-3.));
#157 = VECTOR('',#158,1.);
#158 = DIRECTION('',(-0.999991303152,4.170565872235E-03,0.));
#159 = ORIENTED_EDGE('',*,*,#130,.F.);
#160 = ORIENTED_EDGE('',*,*,#40,.T.);
#161 = ORIENTED_EDGE('',*,*,#162,.T.);
#162 = EDGE_CURVE('',#32,#163,#165,.T.);
#163 = VERTEX_POINT('',#164);
#164 = CARTESIAN_POINT('',(-276.9249951567,76.713872999181,-10.));
#165 = LINE('',#166,#167);
#166 = CARTESIAN_POINT('',(-276.9249951567,76.713872999181,0.));
#167 = VECTOR('',#168,1.);
#168 = DIRECTION('',(-0.,-0.,-1.));
#169 = ORIENTED_EDGE('',*,*,#170,.T.);
#170 = EDGE_CURVE('',#163,#147,#171,.T.);
#171 = LINE('',#172,#173);
#172 = CARTESIAN_POINT('',(-276.9249951567,76.713872999181,-10.));
#173 = VECTOR('',#174,1.);
#174 = DIRECTION('',(0.999991303152,-4.170565872235E-03,0.));
#175 = PLANE('',#176);
#176 = AXIS2_PLACEMENT_3D('',#177,#178,#179);
#177 = CARTESIAN_POINT('',(-261.4249165783,76.649228338241,-5.));
#178 = DIRECTION('',(-4.170565872235E-03,-0.999991303152,-0.));
#179 = DIRECTION('',(-0.999991303152,4.170565872235E-03,0.));
#180 = ADVANCED_FACE('',(#181),#193,.T.);
#181 = FACE_BOUND('',#182,.T.);
#182 = EDGE_LOOP('',(#183,#190,#191,#192));
#183 = ORIENTED_EDGE('',*,*,#184,.F.);
#184 = EDGE_CURVE('',#163,#74,#185,.T.);
#185 = CIRCLE('',#186,17.500000001524);
#186 = AXIS2_PLACEMENT_3D('',#187,#188,#189);
#187 = CARTESIAN_POINT('',(-276.924838,94.213873,-10.));
#188 = DIRECTION('',(0.,0.,-1.));
#189 = DIRECTION('',(1.,0.,0.));
#190 = ORIENTED_EDGE('',*,*,#162,.F.);
#191 = ORIENTED_EDGE('',*,*,#31,.F.);
#192 = ORIENTED_EDGE('',*,*,#73,.T.);
#193 = CYLINDRICAL_SURFACE('',#194,17.500000000762);
#194 = AXIS2_PLACEMENT_3D('',#195,#196,#197);
#195 = CARTESIAN_POINT('',(-276.924838,94.213872999238,0.));
#196 = DIRECTION('',(0.,0.,1.));
#197 = DIRECTION('',(1.,0.,0.));
#198 = ADVANCED_FACE('',(#199),#218,.F.);
#199 = FACE_BOUND('',#200,.F.);
#200 = EDGE_LOOP('',(#201,#209,#216,#217));
#201 = ORIENTED_EDGE('',*,*,#202,.T.);
#202 = EDGE_CURVE('',#57,#203,#205,.T.);
#203 = VERTEX_POINT('',#204);
#204 = CARTESIAN_POINT('',(-267.174838,94.213873,-6.));
#205 = LINE('',#206,#207);
#206 = CARTESIAN_POINT('',(-267.174838,94.213873,0.));
#207 = VECTOR('',#208,1.);
#208 = DIRECTION('',(-0.,-0.,-1.));
#209 = ORIENTED_EDGE('',*,*,#210,.T.);
#210 = EDGE_CURVE('',#203,#203,#211,.T.);
#211 = CIRCLE('',#212,9.75);
#212 = AXIS2_PLACEMENT_3D('',#213,#214,#215);
#213 = CARTESIAN_POINT('',(-276.924838,94.213873,-6.));
#214 = DIRECTION('',(0.,0.,1.));
#215 = DIRECTION('',(1.,0.,0.));
#216 = ORIENTED_EDGE('',*,*,#202,.F.);
#217 = ORIENTED_EDGE('',*,*,#56,.F.);
#218 = CYLINDRICAL_SURFACE('',#219,9.75);
#219 = AXIS2_PLACEMENT_3D('',#220,#221,#222);
#220 = CARTESIAN_POINT('',(-276.924838,94.213873,0.));
#221 = DIRECTION('',(0.,0.,1.));
#222 = DIRECTION('',(1.,0.,0.));
#223 = ADVANCED_FACE('',(#224,#251,#262,#273,#284,#318),#329,.T.);
#224 = FACE_BOUND('',#225,.T.);
#225 = EDGE_LOOP('',(#226,#227,#228,#229,#237,#245));
#226 = ORIENTED_EDGE('',*,*,#170,.F.);
#227 = ORIENTED_EDGE('',*,*,#184,.T.);
#228 = ORIENTED_EDGE('',*,*,#106,.T.);
#229 = ORIENTED_EDGE('',*,*,#230,.T.);
#230 = EDGE_CURVE('',#99,#231,#233,.T.);
#231 = VERTEX_POINT('',#232);
#232 = CARTESIAN_POINT('',(-210.924838,111.7845836773,-10.));
#233 = LINE('',#234,#235);
#234 = CARTESIAN_POINT('',(-245.924838,111.7845836773,-10.));
#235 = VECTOR('',#236,1.);
#236 = DIRECTION('',(1.,0.,0.));
#237 = ORIENTED_EDGE('',*,*,#238,.T.);
#238 = EDGE_CURVE('',#231,#239,#241,.T.);
#239 = VERTEX_POINT('',#240);
#240 = CARTESIAN_POINT('',(-210.924838,76.5845836773,-10.));
#241 = LINE('',#242,#243);
#242 = CARTESIAN_POINT('',(-210.924838,111.7845836773,-10.));
#243 = VECTOR('',#244,1.);
#244 = DIRECTION('',(0.,-1.,0.));
#245 = ORIENTED_EDGE('',*,*,#246,.F.);
#246 = EDGE_CURVE('',#147,#239,#247,.T.);
#247 = LINE('',#248,#249);
#248 = CARTESIAN_POINT('',(-245.924838,76.5845836773,-10.));
#249 = VECTOR('',#250,1.);
#250 = DIRECTION('',(1.,0.,0.));
#251 = FACE_BOUND('',#252,.T.);
#252 = EDGE_LOOP('',(#253));
#253 = ORIENTED_EDGE('',*,*,#254,.T.);
#254 = EDGE_CURVE('',#255,#255,#257,.T.);
#255 = VERTEX_POINT('',#256);
#256 = CARTESIAN_POINT('',(-213.424838,85.384584,-10.));
#257 = CIRCLE('',#258,1.5);
#258 = AXIS2_PLACEMENT_3D('',#259,#260,#261);
#259 = CARTESIAN_POINT('',(-214.924838,85.384584,-10.));
#260 = DIRECTION('',(0.,0.,1.));
#261 = DIRECTION('',(1.,0.,0.));
#262 = FACE_BOUND('',#263,.T.);
#263 = EDGE_LOOP('',(#264));
#264 = ORIENTED_EDGE('',*,*,#265,.T.);
#265 = EDGE_CURVE('',#266,#266,#268,.T.);
#266 = VERTEX_POINT('',#267);
#267 = CARTESIAN_POINT('',(-244.424838,85.387418276123,-10.));
#268 = CIRCLE('',#269,1.5);
#269 = AXIS2_PLACEMENT_3D('',#270,#271,#272);
#270 = CARTESIAN_POINT('',(-245.924838,85.387418276123,-10.));
#271 = DIRECTION('',(0.,0.,1.));
#272 = DIRECTION('',(1.,0.,0.));
#273 = FACE_BOUND('',#274,.T.);
#274 = EDGE_LOOP('',(#275));
#275 = ORIENTED_EDGE('',*,*,#276,.T.);
#276 = EDGE_CURVE('',#277,#277,#279,.T.);
#277 = VERTEX_POINT('',#278);
#278 = CARTESIAN_POINT('',(-213.424838,102.984584,-10.));
#279 = CIRCLE('',#280,1.5);
#280 = AXIS2_PLACEMENT_3D('',#281,#282,#283);
#281 = CARTESIAN_POINT('',(-214.924838,102.984584,-10.));
#282 = DIRECTION('',(0.,0.,1.));
#283 = DIRECTION('',(1.,0.,0.));
#284 = FACE_BOUND('',#285,.T.);
#285 = EDGE_LOOP('',(#286,#296,#304,#312));
#286 = ORIENTED_EDGE('',*,*,#287,.F.);
#287 = EDGE_CURVE('',#288,#290,#292,.T.);
#288 = VERTEX_POINT('',#289);
#289 = CARTESIAN_POINT('',(-233.924838,96.784584,-10.));
#290 = VERTEX_POINT('',#291);
#291 = CARTESIAN_POINT('',(-233.924838,103.784584,-10.));
#292 = LINE('',#293,#294);
#293 = CARTESIAN_POINT('',(-233.924838,98.990142255704,-10.));
#294 = VECTOR('',#295,1.);
#295 = DIRECTION('',(0.,1.,-0.));
#296 = ORIENTED_EDGE('',*,*,#297,.F.);
#297 = EDGE_CURVE('',#298,#288,#300,.T.);
#298 = VERTEX_POINT('',#299);
#299 = CARTESIAN_POINT('',(-224.924838,96.784584,-10.));
#300 = LINE('',#301,#302);
#301 = CARTESIAN_POINT('',(-241.4313175397,96.784584,-10.));
#302 = VECTOR('',#303,1.);
#303 = DIRECTION('',(-1.,0.,0.));
#304 = ORIENTED_EDGE('',*,*,#305,.F.);
#305 = EDGE_CURVE('',#306,#298,#308,.T.);
#306 = VERTEX_POINT('',#307);
#307 = CARTESIAN_POINT('',(-224.924838,103.784584,-10.));
#308 = LINE('',#309,#310);
#309 = CARTESIAN_POINT('',(-224.924838,95.490142255704,-10.));
#310 = VECTOR('',#311,1.);
#311 = DIRECTION('',(0.,-1.,0.));
#312 = ORIENTED_EDGE('',*,*,#313,.F.);
#313 = EDGE_CURVE('',#290,#306,#314,.T.);
#314 = LINE('',#315,#316);
#315 = CARTESIAN_POINT('',(-236.9313175397,103.784584,-10.));
#316 = VECTOR('',#317,1.);
#317 = DIRECTION('',(1.,-0.,0.));
#318 = FACE_BOUND('',#319,.T.);
#319 = EDGE_LOOP('',(#320));
#320 = ORIENTED_EDGE('',*,*,#321,.T.);
#321 = EDGE_CURVE('',#322,#322,#324,.T.);
#322 = VERTEX_POINT('',#323);
#323 = CARTESIAN_POINT('',(-244.424838,102.99308682837,-10.));
#324 = CIRCLE('',#325,1.5);
#325 = AXIS2_PLACEMENT_3D('',#326,#327,#328);
#326 = CARTESIAN_POINT('',(-245.924838,102.99308682837,-10.));
#327 = DIRECTION('',(0.,0.,1.));
#328 = DIRECTION('',(1.,0.,0.));
#329 = PLANE('',#330);
#330 = AXIS2_PLACEMENT_3D('',#331,#332,#333);
#331 = CARTESIAN_POINT('',(-248.9377970794,94.195700511408,-10.));
#332 = DIRECTION('',(-0.,-0.,-1.));
#333 = DIRECTION('',(-1.,0.,0.));
#334 = ADVANCED_FACE('',(#335,#353,#364),#375,.T.);
#335 = FACE_BOUND('',#336,.T.);
#336 = EDGE_LOOP('',(#337,#345,#351,#352));
#337 = ORIENTED_EDGE('',*,*,#338,.T.);
#338 = EDGE_CURVE('',#91,#339,#341,.T.);
#339 = VERTEX_POINT('',#340);
#340 = CARTESIAN_POINT('',(-210.924838,111.784584,-3.));
#341 = LINE('',#342,#343);
#342 = CARTESIAN_POINT('',(-245.924838,111.784584,-3.));
#343 = VECTOR('',#344,1.);
#344 = DIRECTION('',(1.,0.,0.));
#345 = ORIENTED_EDGE('',*,*,#346,.T.);
#346 = EDGE_CURVE('',#339,#231,#347,.T.);
#347 = LINE('',#348,#349);
#348 = CARTESIAN_POINT('',(-210.924838,111.7845836773,0.));
#349 = VECTOR('',#350,1.);
#350 = DIRECTION('',(-0.,-0.,-1.));
#351 = ORIENTED_EDGE('',*,*,#230,.F.);
#352 = ORIENTED_EDGE('',*,*,#98,.F.);
#353 = FACE_BOUND('',#354,.T.);
#354 = EDGE_LOOP('',(#355));
#355 = ORIENTED_EDGE('',*,*,#356,.T.);
#356 = EDGE_CURVE('',#357,#357,#359,.T.);
#357 = VERTEX_POINT('',#358);
#358 = CARTESIAN_POINT('',(-223.274838,111.7845836773,-7.));
#359 = CIRCLE('',#360,1.4);
#360 = AXIS2_PLACEMENT_3D('',#361,#362,#363);
#361 = CARTESIAN_POINT('',(-224.674838,111.7845836773,-7.));
#362 = DIRECTION('',(0.,-1.,2.2E-16));
#363 = DIRECTION('',(1.,0.,0.));
#364 = FACE_BOUND('',#365,.T.);
#365 = EDGE_LOOP('',(#366));
#366 = ORIENTED_EDGE('',*,*,#367,.T.);
#367 = EDGE_CURVE('',#368,#368,#370,.T.);
#368 = VERTEX_POINT('',#369);
#369 = CARTESIAN_POINT('',(-232.774838,111.7845836773,-7.));
#370 = CIRCLE('',#371,1.4);
#371 = AXIS2_PLACEMENT_3D('',#372,#373,#374);
#372 = CARTESIAN_POINT('',(-234.174838,111.7845836773,-7.));
#373 = DIRECTION('',(0.,-1.,2.2E-16));
#374 = DIRECTION('',(1.,0.,0.));
#375 = PLANE('',#376);
#376 = AXIS2_PLACEMENT_3D('',#377,#378,#379);
#377 = CARTESIAN_POINT('',(-245.924838,111.7845836773,-3.));
#378 = DIRECTION('',(0.,1.,0.));
#379 = DIRECTION('',(0.,0.,-1.));
#380 = ADVANCED_FACE('',(#381,#401,#412,#423,#434,#468),#479,.T.);
#381 = FACE_BOUND('',#382,.T.);
#382 = EDGE_LOOP('',(#383,#384,#392,#398,#399,#400));
#383 = ORIENTED_EDGE('',*,*,#154,.F.);
#384 = ORIENTED_EDGE('',*,*,#385,.T.);
#385 = EDGE_CURVE('',#145,#386,#388,.T.);
#386 = VERTEX_POINT('',#387);
#387 = CARTESIAN_POINT('',(-210.924838,76.584584,-3.));
#388 = LINE('',#389,#390);
#389 = CARTESIAN_POINT('',(-245.924838,76.584584,-3.));
#390 = VECTOR('',#391,1.);
#391 = DIRECTION('',(1.,0.,0.));
#392 = ORIENTED_EDGE('',*,*,#393,.T.);
#393 = EDGE_CURVE('',#386,#339,#394,.T.);
#394 = LINE('',#395,#396);
#395 = CARTESIAN_POINT('',(-210.924838,76.584584,-3.));
#396 = VECTOR('',#397,1.);
#397 = DIRECTION('',(0.,1.,0.));
#398 = ORIENTED_EDGE('',*,*,#338,.F.);
#399 = ORIENTED_EDGE('',*,*,#90,.F.);
#400 = ORIENTED_EDGE('',*,*,#122,.T.);
#401 = FACE_BOUND('',#402,.T.);
#402 = EDGE_LOOP('',(#403));
#403 = ORIENTED_EDGE('',*,*,#404,.F.);
#404 = EDGE_CURVE('',#405,#405,#407,.T.);
#405 = VERTEX_POINT('',#406);
#406 = CARTESIAN_POINT('',(-244.424838,85.387418276123,-3.));
#407 = CIRCLE('',#408,1.5);
#408 = AXIS2_PLACEMENT_3D('',#409,#410,#411);
#409 = CARTESIAN_POINT('',(-245.924838,85.387418276123,-3.));
#410 = DIRECTION('',(0.,0.,1.));
#411 = DIRECTION('',(1.,0.,0.));
#412 = FACE_BOUND('',#413,.T.);
#413 = EDGE_LOOP('',(#414));
#414 = ORIENTED_EDGE('',*,*,#415,.F.);
#415 = EDGE_CURVE('',#416,#416,#418,.T.);
#416 = VERTEX_POINT('',#417);
#417 = CARTESIAN_POINT('',(-213.424838,85.384584,-3.));
#418 = CIRCLE('',#419,1.5);
#419 = AXIS2_PLACEMENT_3D('',#420,#421,#422);
#420 = CARTESIAN_POINT('',(-214.924838,85.384584,-3.));
#421 = DIRECTION('',(0.,0.,1.));
#422 = DIRECTION('',(1.,0.,0.));
#423 = FACE_BOUND('',#424,.T.);
#424 = EDGE_LOOP('',(#425));
#425 = ORIENTED_EDGE('',*,*,#426,.F.);
#426 = EDGE_CURVE('',#427,#427,#429,.T.);
#427 = VERTEX_POINT('',#428);
#428 = CARTESIAN_POINT('',(-244.424838,102.99308682837,-3.));
#429 = CIRCLE('',#430,1.5);
#430 = AXIS2_PLACEMENT_3D('',#431,#432,#433);
#431 = CARTESIAN_POINT('',(-245.924838,102.99308682837,-3.));
#432 = DIRECTION('',(0.,0.,1.));
#433 = DIRECTION('',(1.,0.,0.));
#434 = FACE_BOUND('',#435,.T.);
#435 = EDGE_LOOP('',(#436,#446,#454,#462));
#436 = ORIENTED_EDGE('',*,*,#437,.F.);
#437 = EDGE_CURVE('',#438,#440,#442,.T.);
#438 = VERTEX_POINT('',#439);
#439 = CARTESIAN_POINT('',(-233.924838,103.784584,-3.));
#440 = VERTEX_POINT('',#441);
#441 = CARTESIAN_POINT('',(-233.924838,96.784584,-3.));
#442 = LINE('',#443,#444);
#443 = CARTESIAN_POINT('',(-233.924838,103.784584,-3.));
#444 = VECTOR('',#445,1.);
#445 = DIRECTION('',(0.,-1.,0.));
#446 = ORIENTED_EDGE('',*,*,#447,.F.);
#447 = EDGE_CURVE('',#448,#438,#450,.T.);
#448 = VERTEX_POINT('',#449);
#449 = CARTESIAN_POINT('',(-224.924838,103.784584,-3.));
#450 = LINE('',#451,#452);
#451 = CARTESIAN_POINT('',(-224.924838,103.784584,-3.));
#452 = VECTOR('',#453,1.);
#453 = DIRECTION('',(-1.,0.,0.));
#454 = ORIENTED_EDGE('',*,*,#455,.F.);
#455 = EDGE_CURVE('',#456,#448,#458,.T.);
#456 = VERTEX_POINT('',#457);
#457 = CARTESIAN_POINT('',(-224.924838,96.784584,-3.));
#458 = LINE('',#459,#460);
#459 = CARTESIAN_POINT('',(-224.924838,96.784584,-3.));
#460 = VECTOR('',#461,1.);
#461 = DIRECTION('',(0.,1.,0.));
#462 = ORIENTED_EDGE('',*,*,#463,.F.);
#463 = EDGE_CURVE('',#440,#456,#464,.T.);
#464 = LINE('',#465,#466);
#465 = CARTESIAN_POINT('',(-233.924838,96.784584,-3.));
#466 = VECTOR('',#467,1.);
#467 = DIRECTION('',(1.,0.,0.));
#468 = FACE_BOUND('',#469,.T.);
#469 = EDGE_LOOP('',(#470));
#470 = ORIENTED_EDGE('',*,*,#471,.F.);
#471 = EDGE_CURVE('',#472,#472,#474,.T.);
#472 = VERTEX_POINT('',#473);
#473 = CARTESIAN_POINT('',(-213.424838,102.984584,-3.));
#474 = CIRCLE('',#475,1.5);
#475 = AXIS2_PLACEMENT_3D('',#476,#477,#478);
#476 = CARTESIAN_POINT('',(-214.924838,102.984584,-3.));
#477 = DIRECTION('',(0.,0.,1.));
#478 = DIRECTION('',(1.,0.,0.));
#479 = PLANE('',#480);
#480 = AXIS2_PLACEMENT_3D('',#481,#482,#483);
#481 = CARTESIAN_POINT('',(-231.4196374823,94.18611115789,-3.));
#482 = DIRECTION('',(0.,0.,1.));
#483 = DIRECTION('',(1.,0.,0.));
#484 = ADVANCED_FACE('',(#485,#496,#507),#518,.F.);
#485 = FACE_BOUND('',#486,.F.);
#486 = EDGE_LOOP('',(#487,#488,#494,#495));
#487 = ORIENTED_EDGE('',*,*,#385,.T.);
#488 = ORIENTED_EDGE('',*,*,#489,.T.);
#489 = EDGE_CURVE('',#386,#239,#490,.T.);
#490 = LINE('',#491,#492);
#491 = CARTESIAN_POINT('',(-210.924838,76.5845836773,0.));
#492 = VECTOR('',#493,1.);
#493 = DIRECTION('',(-0.,-0.,-1.));
#494 = ORIENTED_EDGE('',*,*,#246,.F.);
#495 = ORIENTED_EDGE('',*,*,#144,.F.);
#496 = FACE_BOUND('',#497,.F.);
#497 = EDGE_LOOP('',(#498));
#498 = ORIENTED_EDGE('',*,*,#499,.T.);
#499 = EDGE_CURVE('',#500,#500,#502,.T.);
#500 = VERTEX_POINT('',#501);
#501 = CARTESIAN_POINT('',(-223.274838,76.5845836773,-7.));
#502 = CIRCLE('',#503,1.4);
#503 = AXIS2_PLACEMENT_3D('',#504,#505,#506);
#504 = CARTESIAN_POINT('',(-224.674838,76.5845836773,-7.));
#505 = DIRECTION('',(0.,-1.,0.));
#506 = DIRECTION('',(1.,0.,0.));
#507 = FACE_BOUND('',#508,.F.);
#508 = EDGE_LOOP('',(#509));
#509 = ORIENTED_EDGE('',*,*,#510,.T.);
#510 = EDGE_CURVE('',#511,#511,#513,.T.);
#511 = VERTEX_POINT('',#512);
#512 = CARTESIAN_POINT('',(-232.774838,76.5845836773,-7.));
#513 = CIRCLE('',#514,1.4);
#514 = AXIS2_PLACEMENT_3D('',#515,#516,#517);
#515 = CARTESIAN_POINT('',(-234.174838,76.5845836773,-7.));
#516 = DIRECTION('',(0.,-1.,0.));
#517 = DIRECTION('',(1.,0.,0.));
#518 = PLANE('',#519);
#519 = AXIS2_PLACEMENT_3D('',#520,#521,#522);
#520 = CARTESIAN_POINT('',(-245.924838,76.5845836773,-3.));
#521 = DIRECTION('',(0.,1.,0.));
#522 = DIRECTION('',(0.,0.,-1.));
#523 = ADVANCED_FACE('',(#524,#527),#538,.T.);
#524 = FACE_BOUND('',#525,.T.);
#525 = EDGE_LOOP('',(#526));
#526 = ORIENTED_EDGE('',*,*,#210,.T.);
#527 = FACE_BOUND('',#528,.T.);
#528 = EDGE_LOOP('',(#529));
#529 = ORIENTED_EDGE('',*,*,#530,.F.);
#530 = EDGE_CURVE('',#531,#531,#533,.T.);
#531 = VERTEX_POINT('',#532);
#532 = CARTESIAN_POINT('',(-273.024838,94.213873,-6.));
#533 = CIRCLE('',#534,3.9);
#534 = AXIS2_PLACEMENT_3D('',#535,#536,#537);
#535 = CARTESIAN_POINT('',(-276.924838,94.213873,-6.));
#536 = DIRECTION('',(0.,0.,1.));
#537 = DIRECTION('',(1.,0.,0.));
#538 = PLANE('',#539);
#539 = AXIS2_PLACEMENT_3D('',#540,#541,#542);
#540 = CARTESIAN_POINT('',(-266.7594411277,94.200898750149,-6.));
#541 = DIRECTION('',(0.,0.,1.));
#542 = DIRECTION('',(1.,0.,0.));
#543 = ADVANCED_FACE('',(#544),#550,.T.);
#544 = FACE_BOUND('',#545,.T.);
#545 = EDGE_LOOP('',(#546,#547,#548,#549));
#546 = ORIENTED_EDGE('',*,*,#346,.F.);
#547 = ORIENTED_EDGE('',*,*,#393,.F.);
#548 = ORIENTED_EDGE('',*,*,#489,.T.);
#549 = ORIENTED_EDGE('',*,*,#238,.F.);
#550 = PLANE('',#551);
#551 = AXIS2_PLACEMENT_3D('',#552,#553,#554);
#552 = CARTESIAN_POINT('',(-210.924838,94.1845836773,-5.));
#553 = DIRECTION('',(1.,0.,0.));
#554 = DIRECTION('',(0.,0.,1.));
#555 = ADVANCED_FACE('',(#556),#567,.F.);
#556 = FACE_BOUND('',#557,.F.);
#557 = EDGE_LOOP('',(#558,#559,#565,#566));
#558 = ORIENTED_EDGE('',*,*,#415,.F.);
#559 = ORIENTED_EDGE('',*,*,#560,.T.);
#560 = EDGE_CURVE('',#416,#255,#561,.T.);
#561 = LINE('',#562,#563);
#562 = CARTESIAN_POINT('',(-213.424838,85.384584,-3.));
#563 = VECTOR('',#564,1.);
#564 = DIRECTION('',(-0.,-0.,-1.));
#565 = ORIENTED_EDGE('',*,*,#254,.T.);
#566 = ORIENTED_EDGE('',*,*,#560,.F.);
#567 = CYLINDRICAL_SURFACE('',#568,1.5);
#568 = AXIS2_PLACEMENT_3D('',#569,#570,#571);
#569 = CARTESIAN_POINT('',(-214.924838,85.384584,-3.));
#570 = DIRECTION('',(0.,0.,1.));
#571 = DIRECTION('',(1.,0.,0.));
#572 = ADVANCED_FACE('',(#573),#584,.F.);
#573 = FACE_BOUND('',#574,.F.);
#574 = EDGE_LOOP('',(#575,#576,#582,#583));
#575 = ORIENTED_EDGE('',*,*,#404,.F.);
#576 = ORIENTED_EDGE('',*,*,#577,.T.);
#577 = EDGE_CURVE('',#405,#266,#578,.T.);
#578 = LINE('',#579,#580);
#579 = CARTESIAN_POINT('',(-244.424838,85.387418276123,-3.));
#580 = VECTOR('',#581,1.);
#581 = DIRECTION('',(-0.,-0.,-1.));
#582 = ORIENTED_EDGE('',*,*,#265,.T.);
#583 = ORIENTED_EDGE('',*,*,#577,.F.);
#584 = CYLINDRICAL_SURFACE('',#585,1.5);
#585 = AXIS2_PLACEMENT_3D('',#586,#587,#588);
#586 = CARTESIAN_POINT('',(-245.924838,85.387418276123,-3.));
#587 = DIRECTION('',(0.,0.,1.));
#588 = DIRECTION('',(1.,0.,0.));
#589 = ADVANCED_FACE('',(#590),#601,.F.);
#590 = FACE_BOUND('',#591,.F.);
#591 = EDGE_LOOP('',(#592,#593,#599,#600));
#592 = ORIENTED_EDGE('',*,*,#471,.F.);
#593 = ORIENTED_EDGE('',*,*,#594,.T.);
#594 = EDGE_CURVE('',#472,#277,#595,.T.);
#595 = LINE('',#596,#597);
#596 = CARTESIAN_POINT('',(-213.424838,102.984584,-3.));
#597 = VECTOR('',#598,1.);
#598 = DIRECTION('',(-0.,-0.,-1.));
#599 = ORIENTED_EDGE('',*,*,#276,.T.);
#600 = ORIENTED_EDGE('',*,*,#594,.F.);
#601 = CYLINDRICAL_SURFACE('',#602,1.5);
#602 = AXIS2_PLACEMENT_3D('',#603,#604,#605);
#603 = CARTESIAN_POINT('',(-214.924838,102.984584,-3.));
#604 = DIRECTION('',(0.,0.,1.));
#605 = DIRECTION('',(1.,0.,0.));
#606 = ADVANCED_FACE('',(#607),#632,.F.);
#607 = FACE_BOUND('',#608,.F.);
#608 = EDGE_LOOP('',(#609,#619,#625,#626));
#609 = ORIENTED_EDGE('',*,*,#610,.F.);
#610 = EDGE_CURVE('',#611,#613,#615,.T.);
#611 = VERTEX_POINT('',#612);
#612 = CARTESIAN_POINT('',(-233.924838,103.784584,-8.377497731398));
#613 = VERTEX_POINT('',#614);
#614 = CARTESIAN_POINT('',(-233.924838,96.784584,-8.377497731398));
#615 = LINE('',#616,#617);
#616 = CARTESIAN_POINT('',(-233.924838,76.5845836773,-8.377497731396));
#617 = VECTOR('',#618,1.);
#618 = DIRECTION('',(0.,-1.,2.2E-16));
#619 = ORIENTED_EDGE('',*,*,#620,.T.);
#620 = EDGE_CURVE('',#611,#290,#621,.T.);
#621 = LINE('',#622,#623);
#622 = CARTESIAN_POINT('',(-233.924838,103.784584,-3.));
#623 = VECTOR('',#624,1.);
#624 = DIRECTION('',(-0.,-0.,-1.));
#625 = ORIENTED_EDGE('',*,*,#287,.F.);
#626 = ORIENTED_EDGE('',*,*,#627,.F.);
#627 = EDGE_CURVE('',#613,#288,#628,.T.);
#628 = LINE('',#629,#630);
#629 = CARTESIAN_POINT('',(-233.924838,96.784584,-3.));
#630 = VECTOR('',#631,1.);
#631 = DIRECTION('',(-0.,-0.,-1.));
#632 = PLANE('',#633);
#633 = AXIS2_PLACEMENT_3D('',#634,#635,#636);
#634 = CARTESIAN_POINT('',(-233.924838,103.784584,-3.));
#635 = DIRECTION('',(-1.,0.,0.));
#636 = DIRECTION('',(0.,-1.,0.));
#637 = ADVANCED_FACE('',(#638),#690,.F.);
#638 = FACE_BOUND('',#639,.F.);
#639 = EDGE_LOOP('',(#640,#641,#649,#658,#664,#665,#666,#675,#684));
#640 = ORIENTED_EDGE('',*,*,#447,.F.);
#641 = ORIENTED_EDGE('',*,*,#642,.T.);
#642 = EDGE_CURVE('',#448,#643,#645,.T.);
#643 = VERTEX_POINT('',#644);
#644 = CARTESIAN_POINT('',(-224.924838,103.784584,-5.622502268602));
#645 = LINE('',#646,#647);
#646 = CARTESIAN_POINT('',(-224.924838,103.784584,-3.));
#647 = VECTOR('',#648,1.);
#648 = DIRECTION('',(-0.,-0.,-1.));
#649 = ORIENTED_EDGE('',*,*,#650,.T.);
#650 = EDGE_CURVE('',#643,#651,#653,.T.);
#651 = VERTEX_POINT('',#652);
#652 = CARTESIAN_POINT('',(-224.924838,103.784584,-8.377497731398));
#653 = CIRCLE('',#654,1.4);
#654 = AXIS2_PLACEMENT_3D('',#655,#656,#657);
#655 = CARTESIAN_POINT('',(-224.674838,103.784584,-7.));
#656 = DIRECTION('',(0.,-1.,2.2E-16));
#657 = DIRECTION('',(1.,0.,0.));
#658 = ORIENTED_EDGE('',*,*,#659,.T.);
#659 = EDGE_CURVE('',#651,#306,#660,.T.);
#660 = LINE('',#661,#662);
#661 = CARTESIAN_POINT('',(-224.924838,103.784584,-3.));
#662 = VECTOR('',#663,1.);
#663 = DIRECTION('',(-0.,-0.,-1.));
#664 = ORIENTED_EDGE('',*,*,#313,.F.);
#665 = ORIENTED_EDGE('',*,*,#620,.F.);
#666 = ORIENTED_EDGE('',*,*,#667,.T.);
#667 = EDGE_CURVE('',#611,#668,#670,.T.);
#668 = VERTEX_POINT('',#669);
#669 = CARTESIAN_POINT('',(-232.774838,103.784584,-7.));
#670 = CIRCLE('',#671,1.4);
#671 = AXIS2_PLACEMENT_3D('',#672,#673,#674);
#672 = CARTESIAN_POINT('',(-234.174838,103.784584,-7.));
#673 = DIRECTION('',(0.,-1.,2.2E-16));
#674 = DIRECTION('',(1.,0.,0.));
#675 = ORIENTED_EDGE('',*,*,#676,.T.);
#676 = EDGE_CURVE('',#668,#677,#679,.T.);
#677 = VERTEX_POINT('',#678);
#678 = CARTESIAN_POINT('',(-233.924838,103.784584,-5.622502268602));
#679 = CIRCLE('',#680,1.4);
#680 = AXIS2_PLACEMENT_3D('',#681,#682,#683);
#681 = CARTESIAN_POINT('',(-234.174838,103.784584,-7.));
#682 = DIRECTION('',(0.,-1.,2.2E-16));
#683 = DIRECTION('',(1.,0.,0.));
#684 = ORIENTED_EDGE('',*,*,#685,.F.);
#685 = EDGE_CURVE('',#438,#677,#686,.T.);
#686 = LINE('',#687,#688);
#687 = CARTESIAN_POINT('',(-233.924838,103.784584,-3.));
#688 = VECTOR('',#689,1.);
#689 = DIRECTION('',(-0.,-0.,-1.));
#690 = PLANE('',#691);
#691 = AXIS2_PLACEMENT_3D('',#692,#693,#694);
#692 = CARTESIAN_POINT('',(-224.924838,103.784584,-3.));
#693 = DIRECTION('',(0.,1.,-0.));
#694 = DIRECTION('',(-1.,0.,0.));
#695 = ADVANCED_FACE('',(#696),#714,.F.);
#696 = FACE_BOUND('',#697,.F.);
#697 = EDGE_LOOP('',(#698,#706,#712,#713));
#698 = ORIENTED_EDGE('',*,*,#699,.T.);
#699 = EDGE_CURVE('',#651,#700,#702,.T.);
#700 = VERTEX_POINT('',#701);
#701 = CARTESIAN_POINT('',(-224.924838,96.784584,-8.377497731398));
#702 = LINE('',#703,#704);
#703 = CARTESIAN_POINT('',(-224.924838,76.5845836773,-8.377497731396));
#704 = VECTOR('',#705,1.);
#705 = DIRECTION('',(0.,-1.,2.2E-16));
#706 = ORIENTED_EDGE('',*,*,#707,.T.);
#707 = EDGE_CURVE('',#700,#298,#708,.T.);
#708 = LINE('',#709,#710);
#709 = CARTESIAN_POINT('',(-224.924838,96.784584,-3.));
#710 = VECTOR('',#711,1.);
#711 = DIRECTION('',(-0.,-0.,-1.));
#712 = ORIENTED_EDGE('',*,*,#305,.F.);
#713 = ORIENTED_EDGE('',*,*,#659,.F.);
#714 = PLANE('',#715);
#715 = AXIS2_PLACEMENT_3D('',#716,#717,#718);
#716 = CARTESIAN_POINT('',(-224.924838,96.784584,-3.));
#717 = DIRECTION('',(1.,0.,0.));
#718 = DIRECTION('',(-0.,1.,0.));
#719 = ADVANCED_FACE('',(#720),#765,.F.);
#720 = FACE_BOUND('',#721,.F.);
#721 = EDGE_LOOP('',(#722,#723,#731,#740,#747,#748,#749,#750,#759));
#722 = ORIENTED_EDGE('',*,*,#463,.F.);
#723 = ORIENTED_EDGE('',*,*,#724,.T.);
#724 = EDGE_CURVE('',#440,#725,#727,.T.);
#725 = VERTEX_POINT('',#726);
#726 = CARTESIAN_POINT('',(-233.924838,96.784584,-5.622502268602));
#727 = LINE('',#728,#729);
#728 = CARTESIAN_POINT('',(-233.924838,96.784584,-3.));
#729 = VECTOR('',#730,1.);
#730 = DIRECTION('',(-0.,-0.,-1.));
#731 = ORIENTED_EDGE('',*,*,#732,.F.);
#732 = EDGE_CURVE('',#733,#725,#735,.T.);
#733 = VERTEX_POINT('',#734);
#734 = CARTESIAN_POINT('',(-232.774838,96.784584,-7.));
#735 = CIRCLE('',#736,1.4);
#736 = AXIS2_PLACEMENT_3D('',#737,#738,#739);
#737 = CARTESIAN_POINT('',(-234.174838,96.784584,-7.));
#738 = DIRECTION('',(0.,-1.,2.2E-16));
#739 = DIRECTION('',(1.,0.,0.));
#740 = ORIENTED_EDGE('',*,*,#741,.F.);
#741 = EDGE_CURVE('',#613,#733,#742,.T.);
#742 = CIRCLE('',#743,1.4);
#743 = AXIS2_PLACEMENT_3D('',#744,#745,#746);
#744 = CARTESIAN_POINT('',(-234.174838,96.784584,-7.));
#745 = DIRECTION('',(0.,-1.,2.2E-16));
#746 = DIRECTION('',(1.,0.,0.));
#747 = ORIENTED_EDGE('',*,*,#627,.T.);
#748 = ORIENTED_EDGE('',*,*,#297,.F.);
#749 = ORIENTED_EDGE('',*,*,#707,.F.);
#750 = ORIENTED_EDGE('',*,*,#751,.F.);
#751 = EDGE_CURVE('',#752,#700,#754,.T.);
#752 = VERTEX_POINT('',#753);
#753 = CARTESIAN_POINT('',(-224.924838,96.784584,-5.622502268602));
#754 = CIRCLE('',#755,1.4);
#755 = AXIS2_PLACEMENT_3D('',#756,#757,#758);
#756 = CARTESIAN_POINT('',(-224.674838,96.784584,-7.));
#757 = DIRECTION('',(0.,-1.,2.2E-16));
#758 = DIRECTION('',(1.,0.,0.));
#759 = ORIENTED_EDGE('',*,*,#760,.F.);
#760 = EDGE_CURVE('',#456,#752,#761,.T.);
#761 = LINE('',#762,#763);
#762 = CARTESIAN_POINT('',(-224.924838,96.784584,-3.));
#763 = VECTOR('',#764,1.);
#764 = DIRECTION('',(-0.,-0.,-1.));
#765 = PLANE('',#766);
#766 = AXIS2_PLACEMENT_3D('',#767,#768,#769);
#767 = CARTESIAN_POINT('',(-233.924838,96.784584,-3.));
#768 = DIRECTION('',(0.,-1.,0.));
#769 = DIRECTION('',(1.,0.,0.));
#770 = ADVANCED_FACE('',(#771),#782,.F.);
#771 = FACE_BOUND('',#772,.F.);
#772 = EDGE_LOOP('',(#773,#774,#780,#781));
#773 = ORIENTED_EDGE('',*,*,#426,.F.);
#774 = ORIENTED_EDGE('',*,*,#775,.T.);
#775 = EDGE_CURVE('',#427,#322,#776,.T.);
#776 = LINE('',#777,#778);
#777 = CARTESIAN_POINT('',(-244.424838,102.99308682837,-3.));
#778 = VECTOR('',#779,1.);
#779 = DIRECTION('',(-0.,-0.,-1.));
#780 = ORIENTED_EDGE('',*,*,#321,.T.);
#781 = ORIENTED_EDGE('',*,*,#775,.F.);
#782 = CYLINDRICAL_SURFACE('',#783,1.5);
#783 = AXIS2_PLACEMENT_3D('',#784,#785,#786);
#784 = CARTESIAN_POINT('',(-245.924838,102.99308682837,-3.));
#785 = DIRECTION('',(0.,0.,1.));
#786 = DIRECTION('',(1.,0.,0.));
#787 = ADVANCED_FACE('',(#788,#799),#810,.F.);
#788 = FACE_BOUND('',#789,.F.);
#789 = EDGE_LOOP('',(#790,#796,#797,#798));
#790 = ORIENTED_EDGE('',*,*,#791,.F.);
#791 = EDGE_CURVE('',#500,#357,#792,.T.);
#792 = LINE('',#793,#794);
#793 = CARTESIAN_POINT('',(-223.274838,76.5845836773,-7.));
#794 = VECTOR('',#795,1.);
#795 = DIRECTION('',(0.,1.,-2.2E-16));
#796 = ORIENTED_EDGE('',*,*,#499,.F.);
#797 = ORIENTED_EDGE('',*,*,#791,.T.);
#798 = ORIENTED_EDGE('',*,*,#356,.T.);
#799 = FACE_BOUND('',#800,.F.);
#800 = EDGE_LOOP('',(#801,#807,#808,#809));
#801 = ORIENTED_EDGE('',*,*,#802,.T.);
#802 = EDGE_CURVE('',#643,#752,#803,.T.);
#803 = LINE('',#804,#805);
#804 = CARTESIAN_POINT('',(-224.924838,76.5845836773,-5.622502268604));
#805 = VECTOR('',#806,1.);
#806 = DIRECTION('',(0.,-1.,2.2E-16));
#807 = ORIENTED_EDGE('',*,*,#751,.T.);
#808 = ORIENTED_EDGE('',*,*,#699,.F.);
#809 = ORIENTED_EDGE('',*,*,#650,.F.);
#810 = CYLINDRICAL_SURFACE('',#811,1.4);
#811 = AXIS2_PLACEMENT_3D('',#812,#813,#814);
#812 = CARTESIAN_POINT('',(-224.674838,76.5845836773,-7.));
#813 = DIRECTION('',(0.,-1.,2.2E-16));
#814 = DIRECTION('',(1.,0.,0.));
#815 = ADVANCED_FACE('',(#816),#845,.F.);
#816 = FACE_BOUND('',#817,.F.);
#817 = EDGE_LOOP('',(#818,#824,#825,#826,#827,#833,#834,#840,#841,#842,
    #843,#844));
#818 = ORIENTED_EDGE('',*,*,#819,.F.);
#819 = EDGE_CURVE('',#511,#733,#820,.T.);
#820 = LINE('',#821,#822);
#821 = CARTESIAN_POINT('',(-232.774838,76.5845836773,-7.));
#822 = VECTOR('',#823,1.);
#823 = DIRECTION('',(0.,1.,-2.2E-16));
#824 = ORIENTED_EDGE('',*,*,#510,.F.);
#825 = ORIENTED_EDGE('',*,*,#819,.T.);
#826 = ORIENTED_EDGE('',*,*,#732,.T.);
#827 = ORIENTED_EDGE('',*,*,#828,.F.);
#828 = EDGE_CURVE('',#677,#725,#829,.T.);
#829 = LINE('',#830,#831);
#830 = CARTESIAN_POINT('',(-233.924838,76.5845836773,-5.622502268604));
#831 = VECTOR('',#832,1.);
#832 = DIRECTION('',(0.,-1.,2.2E-16));
#833 = ORIENTED_EDGE('',*,*,#676,.F.);
#834 = ORIENTED_EDGE('',*,*,#835,.T.);
#835 = EDGE_CURVE('',#668,#368,#836,.T.);
#836 = LINE('',#837,#838);
#837 = CARTESIAN_POINT('',(-232.774838,76.5845836773,-7.));
#838 = VECTOR('',#839,1.);
#839 = DIRECTION('',(0.,1.,-2.2E-16));
#840 = ORIENTED_EDGE('',*,*,#367,.T.);
#841 = ORIENTED_EDGE('',*,*,#835,.F.);
#842 = ORIENTED_EDGE('',*,*,#667,.F.);
#843 = ORIENTED_EDGE('',*,*,#610,.T.);
#844 = ORIENTED_EDGE('',*,*,#741,.T.);
#845 = CYLINDRICAL_SURFACE('',#846,1.4);
#846 = AXIS2_PLACEMENT_3D('',#847,#848,#849);
#847 = CARTESIAN_POINT('',(-234.174838,76.5845836773,-7.));
#848 = DIRECTION('',(0.,-1.,2.2E-16));
#849 = DIRECTION('',(1.,0.,0.));
#850 = ADVANCED_FACE('',(#851),#857,.F.);
#851 = FACE_BOUND('',#852,.F.);
#852 = EDGE_LOOP('',(#853,#854,#855,#856));
#853 = ORIENTED_EDGE('',*,*,#437,.F.);
#854 = ORIENTED_EDGE('',*,*,#685,.T.);
#855 = ORIENTED_EDGE('',*,*,#828,.T.);
#856 = ORIENTED_EDGE('',*,*,#724,.F.);
#857 = PLANE('',#858);
#858 = AXIS2_PLACEMENT_3D('',#859,#860,#861);
#859 = CARTESIAN_POINT('',(-233.924838,103.784584,-3.));
#860 = DIRECTION('',(-1.,0.,0.));
#861 = DIRECTION('',(0.,-1.,0.));
#862 = ADVANCED_FACE('',(#863),#869,.F.);
#863 = FACE_BOUND('',#864,.F.);
#864 = EDGE_LOOP('',(#865,#866,#867,#868));
#865 = ORIENTED_EDGE('',*,*,#455,.F.);
#866 = ORIENTED_EDGE('',*,*,#760,.T.);
#867 = ORIENTED_EDGE('',*,*,#802,.F.);
#868 = ORIENTED_EDGE('',*,*,#642,.F.);
#869 = PLANE('',#870);
#870 = AXIS2_PLACEMENT_3D('',#871,#872,#873);
#871 = CARTESIAN_POINT('',(-224.924838,96.784584,-3.));
#872 = DIRECTION('',(1.,0.,0.));
#873 = DIRECTION('',(-0.,1.,0.));
#874 = ADVANCED_FACE('',(#875),#894,.F.);
#875 = FACE_BOUND('',#876,.F.);
#876 = EDGE_LOOP('',(#877,#885,#892,#893));
#877 = ORIENTED_EDGE('',*,*,#878,.T.);
#878 = EDGE_CURVE('',#531,#879,#881,.T.);
#879 = VERTEX_POINT('',#880);
#880 = CARTESIAN_POINT('',(-273.024838,94.213873,-7.5));
#881 = LINE('',#882,#883);
#882 = CARTESIAN_POINT('',(-273.024838,94.213873,-6.));
#883 = VECTOR('',#884,1.);
#884 = DIRECTION('',(-0.,-0.,-1.));
#885 = ORIENTED_EDGE('',*,*,#886,.T.);
#886 = EDGE_CURVE('',#879,#879,#887,.T.);
#887 = CIRCLE('',#888,3.9);
#888 = AXIS2_PLACEMENT_3D('',#889,#890,#891);
#889 = CARTESIAN_POINT('',(-276.924838,94.213873,-7.5));
#890 = DIRECTION('',(0.,0.,1.));
#891 = DIRECTION('',(1.,0.,0.));
#892 = ORIENTED_EDGE('',*,*,#878,.F.);
#893 = ORIENTED_EDGE('',*,*,#530,.F.);
#894 = CYLINDRICAL_SURFACE('',#895,3.9);
#895 = AXIS2_PLACEMENT_3D('',#896,#897,#898);
#896 = CARTESIAN_POINT('',(-276.924838,94.213873,-6.));
#897 = DIRECTION('',(0.,0.,1.));
#898 = DIRECTION('',(1.,0.,0.));
#899 = ADVANCED_FACE('',(#900),#903,.T.);
#900 = FACE_BOUND('',#901,.T.);
#901 = EDGE_LOOP('',(#902));
#902 = ORIENTED_EDGE('',*,*,#886,.T.);
#903 = PLANE('',#904);
#904 = AXIS2_PLACEMENT_3D('',#905,#906,#907);
#905 = CARTESIAN_POINT('',(-276.924838,94.213873,-7.5));
#906 = DIRECTION('',(0.,0.,1.));
#907 = DIRECTION('',(1.,0.,0.));
#908 = ( GEOMETRIC_REPRESENTATION_CONTEXT(3) 
GLOBAL_UNCERTAINTY_ASSIGNED_CONTEXT((#912)) GLOBAL_UNIT_ASSIGNED_CONTEXT
((#909,#910,#911)) REPRESENTATION_CONTEXT('Context #1',
  '3D Context with UNIT and UNCERTAINTY') );
#909 = ( LENGTH_UNIT() NAMED_UNIT(*) SI_UNIT(.MILLI.,.METRE.) );
#910 = ( NAMED_UNIT(*) PLANE_ANGLE_UNIT() SI_UNIT($,.RADIAN.) );
#911 = ( NAMED_UNIT(*) SI_UNIT($,.STERADIAN.) SOLID_ANGLE_UNIT() );
#912 = UNCERTAINTY_MEASURE_WITH_UNIT(LENGTH_MEASURE(2.E-05),#909,
  'distance_accuracy_value','confusion accuracy');
#913 = PRODUCT_RELATED_PRODUCT_CATEGORY('part',$,(#7));
#914 = MECHANICAL_DESIGN_GEOMETRIC_PRESENTATION_REPRESENTATION('',(#915)
  ,#908);
#915 = STYLED_ITEM('color',(#916),#15);
#916 = PRESENTATION_STYLE_ASSIGNMENT((#917,#923));
#917 = SURFACE_STYLE_USAGE(.BOTH.,#918);
#918 = SURFACE_SIDE_STYLE('',(#919));
#919 = SURFACE_STYLE_FILL_AREA(#920);
#920 = FILL_AREA_STYLE('',(#921));
#921 = FILL_AREA_STYLE_COLOUR('',#922);
#922 = COLOUR_RGB('',0.447058818107,0.474509808674,0.501960817233);
#923 = CURVE_STYLE('',#924,POSITIVE_LENGTH_MEASURE(0.1),#925);
#924 = DRAUGHTING_PRE_DEFINED_CURVE_FONT('continuous');
#925 = COLOUR_RGB('',9.803921802644E-02,9.803921802644E-02,
  9.803921802644E-02);
ENDSEC;
END-ISO-10303-21;
