ISO-10303-21;
HEADER;
FILE_DESCRIPTION(('FreeCAD Model'),'2;1');
FILE_NAME('Open CASCADE Shape Model','2026-08-27T17:53:37',(''),(''),
  'Open CASCADE STEP processor 7.8','FreeCAD','Unknown');
FILE_SCHEMA(('AUTOMOTIVE_DESIGN { 1 0 10303 214 1 1 1 1 }'));
ENDSEC;
DATA;
#1 = APPLICATION_PROTOCOL_DEFINITION('international standard',
  'automotive_design',2000,#2);
#2 = APPLICATION_CONTEXT(
  'core data for automotive mechanical design processes');
#3 = SHAPE_DEFINITION_REPRESENTATION(#4,#10);
#4 = PRODUCT_DEFINITION_SHAPE('','',#5);
#5 = PRODUCT_DEFINITION('design','',#6,#9);
#6 = PRODUCT_DEFINITION_FORMATION('','',#7);
#7 = PRODUCT('Pocket011','Pocket011','',(#8));
#8 = PRODUCT_CONTEXT('',#2,'mechanical');
#9 = PRODUCT_DEFINITION_CONTEXT('part definition',#2,'design');
#10 = ADVANCED_BREP_SHAPE_REPRESENTATION('',(#11,#15),#2031);
#11 = AXIS2_PLACEMENT_3D('',#12,#13,#14);
#12 = CARTESIAN_POINT('',(0.,0.,0.));
#13 = DIRECTION('',(0.,0.,1.));
#14 = DIRECTION('',(1.,0.,-0.));
#15 = MANIFOLD_SOLID_BREP('',#16);
#16 = CLOSED_SHELL('',(#17,#65,#130,#164,#244,#267,#369,#394,#418,#443,
    #468,#493,#630,#655,#680,#705,#730,#755,#779,#907,#991,#1117,#1243,
    #1260,#1284,#1308,#1345,#1356,#1365,#1389,#1398,#1420,#1437,#1449,
    #1482,#1499,#1511,#1533,#1550,#1562,#1613,#1630,#1653,#1670,#1693,
    #1715,#1732,#1744,#1766,#1783,#1795,#1828,#1845,#1857,#1874,#1891,
    #1908,#1925,#1950,#1970,#1995,#2015));
#17 = ADVANCED_FACE('',(#18),#60,.T.);
#18 = FACE_BOUND('',#19,.T.);
#19 = EDGE_LOOP('',(#20,#30,#38,#46,#54));
#20 = ORIENTED_EDGE('',*,*,#21,.F.);
#21 = EDGE_CURVE('',#22,#24,#26,.T.);
#22 = VERTEX_POINT('',#23);
#23 = CARTESIAN_POINT('',(-276.9249951567,76.713873000706,10.));
#24 = VERTEX_POINT('',#25);
#25 = CARTESIAN_POINT('',(-245.924838,76.613873,10.));
#26 = LINE('',#27,#28);
#27 = CARTESIAN_POINT('',(-276.9249951567,76.713873000706,10.));
#28 = VECTOR('',#29,1.);
#29 = DIRECTION('',(0.99999479718,-3.225773337795E-03,0.));
#30 = ORIENTED_EDGE('',*,*,#31,.F.);
#31 = EDGE_CURVE('',#32,#22,#34,.T.);
#32 = VERTEX_POINT('',#33);
#33 = CARTESIAN_POINT('',(-276.9249951567,76.713873000706,5.));
#34 = LINE('',#35,#36);
#35 = CARTESIAN_POINT('',(-276.9249951567,76.713873000706,5.));
#36 = VECTOR('',#37,1.);
#37 = DIRECTION('',(0.,0.,1.));
#38 = ORIENTED_EDGE('',*,*,#39,.T.);
#39 = EDGE_CURVE('',#32,#40,#42,.T.);
#40 = VERTEX_POINT('',#41);
#41 = CARTESIAN_POINT('',(-251.924838,76.633227740726,5.));
#42 = LINE('',#43,#44);
#43 = CARTESIAN_POINT('',(-276.9249951567,76.713873000706,5.));
#44 = VECTOR('',#45,1.);
#45 = DIRECTION('',(0.99999479718,-3.225773337795E-03,0.));
#46 = ORIENTED_EDGE('',*,*,#47,.T.);
#47 = EDGE_CURVE('',#40,#48,#50,.T.);
#48 = VERTEX_POINT('',#49);
#49 = CARTESIAN_POINT('',(-245.9248379376,76.613873,5.));
#50 = LINE('',#51,#52);
#51 = CARTESIAN_POINT('',(-276.9249951567,76.713873000706,5.));
#52 = VECTOR('',#53,1.);
#53 = DIRECTION('',(0.99999479718,-3.225773337795E-03,0.));
#54 = ORIENTED_EDGE('',*,*,#55,.F.);
#55 = EDGE_CURVE('',#24,#48,#56,.T.);
#56 = LINE('',#57,#58);
#57 = CARTESIAN_POINT('',(-245.9248379376,76.613873,7.));
#58 = VECTOR('',#59,1.);
#59 = DIRECTION('',(-0.,-0.,-1.));
#60 = PLANE('',#61);
#61 = AXIS2_PLACEMENT_3D('',#62,#63,#64);
#62 = CARTESIAN_POINT('',(-261.4249165766,76.663873000353,7.5));
#63 = DIRECTION('',(-3.225773337434E-03,-0.99999479718,-1.43714E-12));
#64 = DIRECTION('',(-0.99999479718,3.225773337434E-03,0.));
#65 = ADVANCED_FACE('',(#66,#92,#103,#114),#125,.T.);
#66 = FACE_BOUND('',#67,.T.);
#67 = EDGE_LOOP('',(#68,#77,#78,#86));
#68 = ORIENTED_EDGE('',*,*,#69,.T.);
#69 = EDGE_CURVE('',#70,#22,#72,.T.);
#70 = VERTEX_POINT('',#71);
#71 = CARTESIAN_POINT('',(-276.925007281,111.71387299918,10.));
#72 = CIRCLE('',#73,17.5);
#73 = AXIS2_PLACEMENT_3D('',#74,#75,#76);
#74 = CARTESIAN_POINT('',(-276.924838,94.213873,10.));
#75 = DIRECTION('',(0.,0.,1.));
#76 = DIRECTION('',(1.,0.,0.));
#77 = ORIENTED_EDGE('',*,*,#21,.T.);
#78 = ORIENTED_EDGE('',*,*,#79,.F.);
#79 = EDGE_CURVE('',#80,#24,#82,.T.);
#80 = VERTEX_POINT('',#81);
#81 = CARTESIAN_POINT('',(-245.924838,111.813873,10.));
#82 = LINE('',#83,#84);
#83 = CARTESIAN_POINT('',(-245.924838,111.813873,10.));
#84 = VECTOR('',#85,1.);
#85 = DIRECTION('',(0.,-1.,0.));
#86 = ORIENTED_EDGE('',*,*,#87,.F.);
#87 = EDGE_CURVE('',#70,#80,#88,.T.);
#88 = LINE('',#89,#90);
#89 = CARTESIAN_POINT('',(-276.925007281,111.71387299918,10.));
#90 = VECTOR('',#91,1.);
#91 = DIRECTION('',(0.999994797184,3.225772079835E-03,0.));
#92 = FACE_BOUND('',#93,.T.);
#93 = EDGE_LOOP('',(#94));
#94 = ORIENTED_EDGE('',*,*,#95,.F.);
#95 = EDGE_CURVE('',#96,#96,#98,.T.);
#96 = VERTEX_POINT('',#97);
#97 = CARTESIAN_POINT('',(-247.924838,85.4187465,10.));
#98 = CIRCLE('',#99,1.);
#99 = AXIS2_PLACEMENT_3D('',#100,#101,#102);
#100 = CARTESIAN_POINT('',(-248.924838,85.4187465,10.));
#101 = DIRECTION('',(0.,0.,1.));
#102 = DIRECTION('',(1.,0.,0.));
#103 = FACE_BOUND('',#104,.T.);
#104 = EDGE_LOOP('',(#105));
#105 = ORIENTED_EDGE('',*,*,#106,.F.);
#106 = EDGE_CURVE('',#107,#107,#109,.T.);
#107 = VERTEX_POINT('',#108);
#108 = CARTESIAN_POINT('',(-265.924838,94.213873,10.));
#109 = CIRCLE('',#110,11.);
#110 = AXIS2_PLACEMENT_3D('',#111,#112,#113);
#111 = CARTESIAN_POINT('',(-276.924838,94.213873,10.));
#112 = DIRECTION('',(0.,0.,1.));
#113 = DIRECTION('',(1.,0.,0.));
#114 = FACE_BOUND('',#115,.T.);
#115 = EDGE_LOOP('',(#116));
#116 = ORIENTED_EDGE('',*,*,#117,.F.);
#117 = EDGE_CURVE('',#118,#118,#120,.T.);
#118 = VERTEX_POINT('',#119);
#119 = CARTESIAN_POINT('',(-247.924838,103.0090675,10.));
#120 = CIRCLE('',#121,1.);
#121 = AXIS2_PLACEMENT_3D('',#122,#123,#124);
#122 = CARTESIAN_POINT('',(-248.924838,103.0090675,10.));
#123 = DIRECTION('',(0.,0.,1.));
#124 = DIRECTION('',(1.,0.,0.));
#125 = PLANE('',#126);
#126 = AXIS2_PLACEMENT_3D('',#127,#128,#129);
#127 = CARTESIAN_POINT('',(-266.7594421129,94.213873193916,10.));
#128 = DIRECTION('',(0.,0.,1.));
#129 = DIRECTION('',(1.,0.,0.));
#130 = ADVANCED_FACE('',(#131),#159,.T.);
#131 = FACE_BOUND('',#132,.F.);
#132 = EDGE_LOOP('',(#133,#141,#142,#143,#152));
#133 = ORIENTED_EDGE('',*,*,#134,.F.);
#134 = EDGE_CURVE('',#70,#135,#137,.T.);
#135 = VERTEX_POINT('',#136);
#136 = CARTESIAN_POINT('',(-276.925007281,111.71387299918,5.));
#137 = LINE('',#138,#139);
#138 = CARTESIAN_POINT('',(-276.925007281,111.71387299918,7.));
#139 = VECTOR('',#140,1.);
#140 = DIRECTION('',(-0.,-0.,-1.));
#141 = ORIENTED_EDGE('',*,*,#69,.T.);
#142 = ORIENTED_EDGE('',*,*,#31,.F.);
#143 = ORIENTED_EDGE('',*,*,#144,.F.);
#144 = EDGE_CURVE('',#145,#32,#147,.T.);
#145 = VERTEX_POINT('',#146);
#146 = CARTESIAN_POINT('',(-294.4248379376,94.213873,5.));
#147 = CIRCLE('',#148,17.5);
#148 = AXIS2_PLACEMENT_3D('',#149,#150,#151);
#149 = CARTESIAN_POINT('',(-276.924838,94.213873,5.));
#150 = DIRECTION('',(0.,0.,1.));
#151 = DIRECTION('',(1.,0.,0.));
#152 = ORIENTED_EDGE('',*,*,#153,.F.);
#153 = EDGE_CURVE('',#135,#145,#154,.T.);
#154 = CIRCLE('',#155,17.5);
#155 = AXIS2_PLACEMENT_3D('',#156,#157,#158);
#156 = CARTESIAN_POINT('',(-276.924838,94.213873,5.));
#157 = DIRECTION('',(0.,0.,1.));
#158 = DIRECTION('',(1.,0.,0.));
#159 = CYLINDRICAL_SURFACE('',#160,17.5);
#160 = AXIS2_PLACEMENT_3D('',#161,#162,#163);
#161 = CARTESIAN_POINT('',(-276.924838,94.213873,5.));
#162 = DIRECTION('',(-0.,-0.,-1.));
#163 = DIRECTION('',(1.,0.,0.));
#164 = ADVANCED_FACE('',(#165,#184,#195,#206,#217,#228),#239,.T.);
#165 = FACE_BOUND('',#166,.T.);
#166 = EDGE_LOOP('',(#167,#168,#176,#182,#183));
#167 = ORIENTED_EDGE('',*,*,#153,.F.);
#168 = ORIENTED_EDGE('',*,*,#169,.T.);
#169 = EDGE_CURVE('',#135,#170,#172,.T.);
#170 = VERTEX_POINT('',#171);
#171 = CARTESIAN_POINT('',(-251.924838,111.79451826682,5.));
#172 = LINE('',#173,#174);
#173 = CARTESIAN_POINT('',(-276.925007281,111.71387299918,5.));
#174 = VECTOR('',#175,1.);
#175 = DIRECTION('',(0.999994797184,3.225772079835E-03,0.));
#176 = ORIENTED_EDGE('',*,*,#177,.F.);
#177 = EDGE_CURVE('',#40,#170,#178,.T.);
#178 = LINE('',#179,#180);
#179 = CARTESIAN_POINT('',(-251.924838,76.613873,5.));
#180 = VECTOR('',#181,1.);
#181 = DIRECTION('',(0.,1.,0.));
#182 = ORIENTED_EDGE('',*,*,#39,.F.);
#183 = ORIENTED_EDGE('',*,*,#144,.F.);
#184 = FACE_BOUND('',#185,.T.);
#185 = EDGE_LOOP('',(#186));
#186 = ORIENTED_EDGE('',*,*,#187,.T.);
#187 = EDGE_CURVE('',#188,#188,#190,.T.);
#188 = VERTEX_POINT('',#189);
#189 = CARTESIAN_POINT('',(-276.024838,86.963873,5.));
#190 = CIRCLE('',#191,0.9);
#191 = AXIS2_PLACEMENT_3D('',#192,#193,#194);
#192 = CARTESIAN_POINT('',(-276.924838,86.963873,5.));
#193 = DIRECTION('',(0.,0.,1.));
#194 = DIRECTION('',(1.,0.,0.));
#195 = FACE_BOUND('',#196,.T.);
#196 = EDGE_LOOP('',(#197));
#197 = ORIENTED_EDGE('',*,*,#198,.T.);
#198 = EDGE_CURVE('',#199,#199,#201,.T.);
#199 = VERTEX_POINT('',#200);
#200 = CARTESIAN_POINT('',(-268.774838,94.213873,5.));
#201 = CIRCLE('',#202,0.9);
#202 = AXIS2_PLACEMENT_3D('',#203,#204,#205);
#203 = CARTESIAN_POINT('',(-269.674838,94.213873,5.));
#204 = DIRECTION('',(0.,0.,1.));
#205 = DIRECTION('',(1.,0.,0.));
#206 = FACE_BOUND('',#207,.T.);
#207 = EDGE_LOOP('',(#208));
#208 = ORIENTED_EDGE('',*,*,#209,.T.);
#209 = EDGE_CURVE('',#210,#210,#212,.T.);
#210 = VERTEX_POINT('',#211);
#211 = CARTESIAN_POINT('',(-272.549838,94.213873,5.));
#212 = CIRCLE('',#213,4.375);
#213 = AXIS2_PLACEMENT_3D('',#214,#215,#216);
#214 = CARTESIAN_POINT('',(-276.924838,94.213873,5.));
#215 = DIRECTION('',(0.,0.,1.));
#216 = DIRECTION('',(1.,0.,0.));
#217 = FACE_BOUND('',#218,.T.);
#218 = EDGE_LOOP('',(#219));
#219 = ORIENTED_EDGE('',*,*,#220,.T.);
#220 = EDGE_CURVE('',#221,#221,#223,.T.);
#221 = VERTEX_POINT('',#222);
#222 = CARTESIAN_POINT('',(-283.274838,94.213873,5.));
#223 = CIRCLE('',#224,0.9);
#224 = AXIS2_PLACEMENT_3D('',#225,#226,#227);
#225 = CARTESIAN_POINT('',(-284.174838,94.213873,5.));
#226 = DIRECTION('',(0.,0.,1.));
#227 = DIRECTION('',(1.,0.,0.));
#228 = FACE_BOUND('',#229,.T.);
#229 = EDGE_LOOP('',(#230));
#230 = ORIENTED_EDGE('',*,*,#231,.T.);
#231 = EDGE_CURVE('',#232,#232,#234,.T.);
#232 = VERTEX_POINT('',#233);
#233 = CARTESIAN_POINT('',(-276.024838,101.463873,5.));
#234 = CIRCLE('',#235,0.9);
#235 = AXIS2_PLACEMENT_3D('',#236,#237,#238);
#236 = CARTESIAN_POINT('',(-276.924838,101.463873,5.));
#237 = DIRECTION('',(0.,0.,1.));
#238 = DIRECTION('',(1.,0.,0.));
#239 = PLANE('',#240);
#240 = AXIS2_PLACEMENT_3D('',#241,#242,#243);
#241 = CARTESIAN_POINT('',(-267.287406766,94.213873112076,5.));
#242 = DIRECTION('',(-0.,-0.,-1.));
#243 = DIRECTION('',(-1.,0.,0.));
#244 = ADVANCED_FACE('',(#245),#262,.T.);
#245 = FACE_BOUND('',#246,.T.);
#246 = EDGE_LOOP('',(#247,#255,#256));
#247 = ORIENTED_EDGE('',*,*,#248,.F.);
#248 = EDGE_CURVE('',#48,#249,#251,.T.);
#249 = VERTEX_POINT('',#250);
#250 = CARTESIAN_POINT('',(-251.924838,76.613873,5.));
#251 = LINE('',#252,#253);
#252 = CARTESIAN_POINT('',(-245.924838,76.613873,5.));
#253 = VECTOR('',#254,1.);
#254 = DIRECTION('',(-1.,0.,0.));
#255 = ORIENTED_EDGE('',*,*,#47,.F.);
#256 = ORIENTED_EDGE('',*,*,#257,.F.);
#257 = EDGE_CURVE('',#249,#40,#258,.T.);
#258 = LINE('',#259,#260);
#259 = CARTESIAN_POINT('',(-251.924838,76.613873,5.));
#260 = VECTOR('',#261,1.);
#261 = DIRECTION('',(0.,1.,0.));
#262 = PLANE('',#263);
#263 = AXIS2_PLACEMENT_3D('',#264,#265,#266);
#264 = CARTESIAN_POINT('',(-248.924838,94.213873,5.));
#265 = DIRECTION('',(0.,0.,1.));
#266 = DIRECTION('',(1.,0.,0.));
#267 = ADVANCED_FACE('',(#268,#342,#353),#364,.T.);
#268 = FACE_BOUND('',#269,.T.);
#269 = EDGE_LOOP('',(#270,#278,#279,#280,#288,#296,#304,#312,#320,#328,
    #336));
#270 = ORIENTED_EDGE('',*,*,#271,.F.);
#271 = EDGE_CURVE('',#24,#272,#274,.T.);
#272 = VERTEX_POINT('',#273);
#273 = CARTESIAN_POINT('',(-236.424838,76.613873,0.5));
#274 = LINE('',#275,#276);
#275 = CARTESIAN_POINT('',(-245.924838,76.613873,10.));
#276 = VECTOR('',#277,1.);
#277 = DIRECTION('',(0.707106781187,0.,-0.707106781187));
#278 = ORIENTED_EDGE('',*,*,#55,.T.);
#279 = ORIENTED_EDGE('',*,*,#248,.T.);
#280 = ORIENTED_EDGE('',*,*,#281,.T.);
#281 = EDGE_CURVE('',#249,#282,#284,.T.);
#282 = VERTEX_POINT('',#283);
#283 = CARTESIAN_POINT('',(-251.924838,76.613873,-48.));
#284 = LINE('',#285,#286);
#285 = CARTESIAN_POINT('',(-251.924838,76.613873,5.));
#286 = VECTOR('',#287,1.);
#287 = DIRECTION('',(0.,0.,-1.));
#288 = ORIENTED_EDGE('',*,*,#289,.F.);
#289 = EDGE_CURVE('',#290,#282,#292,.T.);
#290 = VERTEX_POINT('',#291);
#291 = CARTESIAN_POINT('',(-239.924838,76.613873,-48.));
#292 = LINE('',#293,#294);
#293 = CARTESIAN_POINT('',(-245.924838,76.613873,-48.));
#294 = VECTOR('',#295,1.);
#295 = DIRECTION('',(-1.,0.,0.));
#296 = ORIENTED_EDGE('',*,*,#297,.F.);
#297 = EDGE_CURVE('',#298,#290,#300,.T.);
#298 = VERTEX_POINT('',#299);
#299 = CARTESIAN_POINT('',(-239.924838,76.613873,-6.5));
#300 = LINE('',#301,#302);
#301 = CARTESIAN_POINT('',(-239.924838,76.613873,0.5));
#302 = VECTOR('',#303,1.);
#303 = DIRECTION('',(0.,0.,-1.));
#304 = ORIENTED_EDGE('',*,*,#305,.T.);
#305 = EDGE_CURVE('',#298,#306,#308,.T.);
#306 = VERTEX_POINT('',#307);
#307 = CARTESIAN_POINT('',(-218.924838,76.613873,-6.5));
#308 = LINE('',#309,#310);
#309 = CARTESIAN_POINT('',(-239.924838,76.613873,-6.5));
#310 = VECTOR('',#311,1.);
#311 = DIRECTION('',(1.,0.,0.));
#312 = ORIENTED_EDGE('',*,*,#313,.T.);
#313 = EDGE_CURVE('',#306,#314,#316,.T.);
#314 = VERTEX_POINT('',#315);
#315 = CARTESIAN_POINT('',(-218.924838,76.613873,-48.));
#316 = LINE('',#317,#318);
#317 = CARTESIAN_POINT('',(-218.924838,76.613873,0.5));
#318 = VECTOR('',#319,1.);
#319 = DIRECTION('',(0.,0.,-1.));
#320 = ORIENTED_EDGE('',*,*,#321,.T.);
#321 = EDGE_CURVE('',#314,#322,#324,.T.);
#322 = VERTEX_POINT('',#323);
#323 = CARTESIAN_POINT('',(-210.924838,76.613873,-48.));
#324 = LINE('',#325,#326);
#325 = CARTESIAN_POINT('',(-218.924838,76.613873,-48.));
#326 = VECTOR('',#327,1.);
#327 = DIRECTION('',(1.,0.,0.));
#328 = ORIENTED_EDGE('',*,*,#329,.F.);
#329 = EDGE_CURVE('',#330,#322,#332,.T.);
#330 = VERTEX_POINT('',#331);
#331 = CARTESIAN_POINT('',(-210.924838,76.613873,0.5));
#332 = LINE('',#333,#334);
#333 = CARTESIAN_POINT('',(-210.924838,76.613873,0.5));
#334 = VECTOR('',#335,1.);
#335 = DIRECTION('',(0.,0.,-1.));
#336 = ORIENTED_EDGE('',*,*,#337,.F.);
#337 = EDGE_CURVE('',#272,#330,#338,.T.);
#338 = LINE('',#339,#340);
#339 = CARTESIAN_POINT('',(-218.924838,76.613873,0.5));
#340 = VECTOR('',#341,1.);
#341 = DIRECTION('',(1.,0.,0.));
#342 = FACE_BOUND('',#343,.T.);
#343 = EDGE_LOOP('',(#344));
#344 = ORIENTED_EDGE('',*,*,#345,.F.);
#345 = EDGE_CURVE('',#346,#346,#348,.T.);
#346 = VERTEX_POINT('',#347);
#347 = CARTESIAN_POINT('',(-232.774838,76.613873,-2.5));
#348 = CIRCLE('',#349,1.4);
#349 = AXIS2_PLACEMENT_3D('',#350,#351,#352);
#350 = CARTESIAN_POINT('',(-234.174838,76.613873,-2.5));
#351 = DIRECTION('',(0.,-1.,0.));
#352 = DIRECTION('',(1.,0.,0.));
#353 = FACE_BOUND('',#354,.T.);
#354 = EDGE_LOOP('',(#355));
#355 = ORIENTED_EDGE('',*,*,#356,.F.);
#356 = EDGE_CURVE('',#357,#357,#359,.T.);
#357 = VERTEX_POINT('',#358);
#358 = CARTESIAN_POINT('',(-223.274838,76.613873,-2.5));
#359 = CIRCLE('',#360,1.4);
#360 = AXIS2_PLACEMENT_3D('',#361,#362,#363);
#361 = CARTESIAN_POINT('',(-224.674838,76.613873,-2.5));
#362 = DIRECTION('',(0.,-1.,0.));
#363 = DIRECTION('',(1.,0.,0.));
#364 = PLANE('',#365);
#365 = AXIS2_PLACEMENT_3D('',#366,#367,#368);
#366 = CARTESIAN_POINT('',(-231.5595940296,76.613873,-19.96420397828));
#367 = DIRECTION('',(-0.,-1.,-0.));
#368 = DIRECTION('',(0.,0.,-1.));
#369 = ADVANCED_FACE('',(#370),#389,.T.);
#370 = FACE_BOUND('',#371,.T.);
#371 = EDGE_LOOP('',(#372,#380,#386,#387,#388));
#372 = ORIENTED_EDGE('',*,*,#373,.F.);
#373 = EDGE_CURVE('',#374,#80,#376,.T.);
#374 = VERTEX_POINT('',#375);
#375 = CARTESIAN_POINT('',(-245.9248379376,111.813873,5.));
#376 = LINE('',#377,#378);
#377 = CARTESIAN_POINT('',(-245.924838,111.813873,5.));
#378 = VECTOR('',#379,1.);
#379 = DIRECTION('',(0.,0.,1.));
#380 = ORIENTED_EDGE('',*,*,#381,.F.);
#381 = EDGE_CURVE('',#170,#374,#382,.T.);
#382 = LINE('',#383,#384);
#383 = CARTESIAN_POINT('',(-276.925007281,111.71387299918,5.));
#384 = VECTOR('',#385,1.);
#385 = DIRECTION('',(0.999994797184,3.225772079835E-03,0.));
#386 = ORIENTED_EDGE('',*,*,#169,.F.);
#387 = ORIENTED_EDGE('',*,*,#134,.F.);
#388 = ORIENTED_EDGE('',*,*,#87,.T.);
#389 = PLANE('',#390);
#390 = AXIS2_PLACEMENT_3D('',#391,#392,#393);
#391 = CARTESIAN_POINT('',(-261.4249226388,111.76387299959,7.5));
#392 = DIRECTION('',(-3.225772079475E-03,0.999994797184,-1.43714E-12));
#393 = DIRECTION('',(0.999994797184,3.225772079475E-03,7.88860905221E-31
    ));
#394 = ADVANCED_FACE('',(#395),#413,.F.);
#395 = FACE_BOUND('',#396,.F.);
#396 = EDGE_LOOP('',(#397,#398,#406,#412));
#397 = ORIENTED_EDGE('',*,*,#79,.F.);
#398 = ORIENTED_EDGE('',*,*,#399,.T.);
#399 = EDGE_CURVE('',#80,#400,#402,.T.);
#400 = VERTEX_POINT('',#401);
#401 = CARTESIAN_POINT('',(-236.424838,111.813873,0.5));
#402 = LINE('',#403,#404);
#403 = CARTESIAN_POINT('',(-245.924838,111.813873,10.));
#404 = VECTOR('',#405,1.);
#405 = DIRECTION('',(0.707106781187,0.,-0.707106781187));
#406 = ORIENTED_EDGE('',*,*,#407,.F.);
#407 = EDGE_CURVE('',#272,#400,#408,.T.);
#408 = LINE('',#409,#410);
#409 = CARTESIAN_POINT('',(-236.424838,76.613873,0.5));
#410 = VECTOR('',#411,1.);
#411 = DIRECTION('',(0.,1.,-2.2E-16));
#412 = ORIENTED_EDGE('',*,*,#271,.F.);
#413 = PLANE('',#414);
#414 = AXIS2_PLACEMENT_3D('',#415,#416,#417);
#415 = CARTESIAN_POINT('',(-245.924838,76.613873,10.));
#416 = DIRECTION('',(-0.707106781187,-1.6E-16,-0.707106781187));
#417 = DIRECTION('',(0.707106781187,-1.6E-16,-0.707106781187));
#418 = ADVANCED_FACE('',(#419),#438,.F.);
#419 = FACE_BOUND('',#420,.F.);
#420 = EDGE_LOOP('',(#421,#429,#436,#437));
#421 = ORIENTED_EDGE('',*,*,#422,.T.);
#422 = EDGE_CURVE('',#96,#423,#425,.T.);
#423 = VERTEX_POINT('',#424);
#424 = CARTESIAN_POINT('',(-247.924838,85.4187465,-15.));
#425 = LINE('',#426,#427);
#426 = CARTESIAN_POINT('',(-247.924838,85.4187465,10.));
#427 = VECTOR('',#428,1.);
#428 = DIRECTION('',(-0.,-0.,-1.));
#429 = ORIENTED_EDGE('',*,*,#430,.T.);
#430 = EDGE_CURVE('',#423,#423,#431,.T.);
#431 = CIRCLE('',#432,1.);
#432 = AXIS2_PLACEMENT_3D('',#433,#434,#435);
#433 = CARTESIAN_POINT('',(-248.924838,85.4187465,-15.));
#434 = DIRECTION('',(0.,0.,1.));
#435 = DIRECTION('',(1.,0.,0.));
#436 = ORIENTED_EDGE('',*,*,#422,.F.);
#437 = ORIENTED_EDGE('',*,*,#95,.F.);
#438 = CYLINDRICAL_SURFACE('',#439,1.);
#439 = AXIS2_PLACEMENT_3D('',#440,#441,#442);
#440 = CARTESIAN_POINT('',(-248.924838,85.4187465,10.));
#441 = DIRECTION('',(0.,0.,1.));
#442 = DIRECTION('',(1.,0.,0.));
#443 = ADVANCED_FACE('',(#444),#463,.F.);
#444 = FACE_BOUND('',#445,.F.);
#445 = EDGE_LOOP('',(#446,#454,#461,#462));
#446 = ORIENTED_EDGE('',*,*,#447,.T.);
#447 = EDGE_CURVE('',#107,#448,#450,.T.);
#448 = VERTEX_POINT('',#449);
#449 = CARTESIAN_POINT('',(-265.924838,94.213873,7.25));
#450 = LINE('',#451,#452);
#451 = CARTESIAN_POINT('',(-265.924838,94.213873,10.));
#452 = VECTOR('',#453,1.);
#453 = DIRECTION('',(-0.,-0.,-1.));
#454 = ORIENTED_EDGE('',*,*,#455,.T.);
#455 = EDGE_CURVE('',#448,#448,#456,.T.);
#456 = CIRCLE('',#457,11.);
#457 = AXIS2_PLACEMENT_3D('',#458,#459,#460);
#458 = CARTESIAN_POINT('',(-276.924838,94.213873,7.25));
#459 = DIRECTION('',(0.,0.,1.));
#460 = DIRECTION('',(1.,0.,0.));
#461 = ORIENTED_EDGE('',*,*,#447,.F.);
#462 = ORIENTED_EDGE('',*,*,#106,.F.);
#463 = CYLINDRICAL_SURFACE('',#464,11.);
#464 = AXIS2_PLACEMENT_3D('',#465,#466,#467);
#465 = CARTESIAN_POINT('',(-276.924838,94.213873,10.));
#466 = DIRECTION('',(0.,0.,1.));
#467 = DIRECTION('',(1.,0.,0.));
#468 = ADVANCED_FACE('',(#469),#488,.F.);
#469 = FACE_BOUND('',#470,.F.);
#470 = EDGE_LOOP('',(#471,#479,#486,#487));
#471 = ORIENTED_EDGE('',*,*,#472,.T.);
#472 = EDGE_CURVE('',#118,#473,#475,.T.);
#473 = VERTEX_POINT('',#474);
#474 = CARTESIAN_POINT('',(-247.924838,103.0090675,-15.));
#475 = LINE('',#476,#477);
#476 = CARTESIAN_POINT('',(-247.924838,103.0090675,10.));
#477 = VECTOR('',#478,1.);
#478 = DIRECTION('',(-0.,-0.,-1.));
#479 = ORIENTED_EDGE('',*,*,#480,.T.);
#480 = EDGE_CURVE('',#473,#473,#481,.T.);
#481 = CIRCLE('',#482,1.);
#482 = AXIS2_PLACEMENT_3D('',#483,#484,#485);
#483 = CARTESIAN_POINT('',(-248.924838,103.0090675,-15.));
#484 = DIRECTION('',(0.,0.,1.));
#485 = DIRECTION('',(1.,0.,0.));
#486 = ORIENTED_EDGE('',*,*,#472,.F.);
#487 = ORIENTED_EDGE('',*,*,#117,.F.);
#488 = CYLINDRICAL_SURFACE('',#489,1.);
#489 = AXIS2_PLACEMENT_3D('',#490,#491,#492);
#490 = CARTESIAN_POINT('',(-248.924838,103.0090675,10.));
#491 = DIRECTION('',(0.,0.,1.));
#492 = DIRECTION('',(1.,0.,0.));
#493 = ADVANCED_FACE('',(#494,#521,#547,#573,#599),#625,.F.);
#494 = FACE_BOUND('',#495,.F.);
#495 = EDGE_LOOP('',(#496,#497,#505,#513,#519,#520));
#496 = ORIENTED_EDGE('',*,*,#281,.T.);
#497 = ORIENTED_EDGE('',*,*,#498,.T.);
#498 = EDGE_CURVE('',#282,#499,#501,.T.);
#499 = VERTEX_POINT('',#500);
#500 = CARTESIAN_POINT('',(-251.924838,111.813873,-48.));
#501 = LINE('',#502,#503);
#502 = CARTESIAN_POINT('',(-251.924838,76.613873,-48.));
#503 = VECTOR('',#504,1.);
#504 = DIRECTION('',(0.,1.,0.));
#505 = ORIENTED_EDGE('',*,*,#506,.F.);
#506 = EDGE_CURVE('',#507,#499,#509,.T.);
#507 = VERTEX_POINT('',#508);
#508 = CARTESIAN_POINT('',(-251.924838,111.813873,5.));
#509 = LINE('',#510,#511);
#510 = CARTESIAN_POINT('',(-251.924838,111.813873,5.));
#511 = VECTOR('',#512,1.);
#512 = DIRECTION('',(0.,0.,-1.));
#513 = ORIENTED_EDGE('',*,*,#514,.F.);
#514 = EDGE_CURVE('',#170,#507,#515,.T.);
#515 = LINE('',#516,#517);
#516 = CARTESIAN_POINT('',(-251.924838,76.613873,5.));
#517 = VECTOR('',#518,1.);
#518 = DIRECTION('',(0.,1.,0.));
#519 = ORIENTED_EDGE('',*,*,#177,.F.);
#520 = ORIENTED_EDGE('',*,*,#257,.F.);
#521 = FACE_BOUND('',#522,.F.);
#522 = EDGE_LOOP('',(#523,#533,#541));
#523 = ORIENTED_EDGE('',*,*,#524,.F.);
#524 = EDGE_CURVE('',#525,#527,#529,.T.);
#525 = VERTEX_POINT('',#526);
#526 = CARTESIAN_POINT('',(-251.924838,88.613873,-40.));
#527 = VERTEX_POINT('',#528);
#528 = CARTESIAN_POINT('',(-251.924838,99.813873,-40.));
#529 = LINE('',#530,#531);
#530 = CARTESIAN_POINT('',(-251.924838,82.613873,-40.));
#531 = VECTOR('',#532,1.);
#532 = DIRECTION('',(0.,1.,0.));
#533 = ORIENTED_EDGE('',*,*,#534,.F.);
#534 = EDGE_CURVE('',#535,#525,#537,.T.);
#535 = VERTEX_POINT('',#536);
#536 = CARTESIAN_POINT('',(-251.924838,94.213972932661,-31.37224698927)
  );
#537 = LINE('',#538,#539);
#538 = CARTESIAN_POINT('',(-251.924838,99.910671642398,-22.59566977901)
  );
#539 = VECTOR('',#540,1.);
#540 = DIRECTION('',(0.,-0.544445610048,-0.838796147881));
#541 = ORIENTED_EDGE('',*,*,#542,.F.);
#542 = EDGE_CURVE('',#527,#535,#543,.T.);
#543 = LINE('',#544,#545);
#544 = CARTESIAN_POINT('',(-251.924838,86.100436335972,-18.87174002344)
  );
#545 = VECTOR('',#546,1.);
#546 = DIRECTION('',(0.,-0.544431938555,0.838805021612));
#547 = FACE_BOUND('',#548,.F.);
#548 = EDGE_LOOP('',(#549,#559,#567));
#549 = ORIENTED_EDGE('',*,*,#550,.F.);
#550 = EDGE_CURVE('',#551,#553,#555,.T.);
#551 = VERTEX_POINT('',#552);
#552 = CARTESIAN_POINT('',(-251.924838,82.613873,-34.));
#553 = VERTEX_POINT('',#554);
#554 = CARTESIAN_POINT('',(-251.924838,89.267724157527,-23.74842699567)
  );
#555 = LINE('',#556,#557);
#556 = CARTESIAN_POINT('',(-251.924838,90.62976335057,-21.64993637848));
#557 = VECTOR('',#558,1.);
#558 = DIRECTION('',(0.,0.544431938555,0.838805021612));
#559 = ORIENTED_EDGE('',*,*,#560,.T.);
#560 = EDGE_CURVE('',#551,#561,#563,.T.);
#561 = VERTEX_POINT('',#562);
#562 = CARTESIAN_POINT('',(-251.924838,82.613873,-13.5));
#563 = LINE('',#564,#565);
#564 = CARTESIAN_POINT('',(-251.924838,82.613873,-14.5));
#565 = VECTOR('',#566,1.);
#566 = DIRECTION('',(0.,0.,1.));
#567 = ORIENTED_EDGE('',*,*,#568,.F.);
#568 = EDGE_CURVE('',#553,#561,#569,.T.);
#569 = LINE('',#570,#571);
#570 = CARTESIAN_POINT('',(-251.924838,80.826450011116,-10.74696666963)
  );
#571 = VECTOR('',#572,1.);
#572 = DIRECTION('',(0.,-0.544549511952,0.83872869811));
#573 = FACE_BOUND('',#574,.F.);
#574 = EDGE_LOOP('',(#575,#585,#593));
#575 = ORIENTED_EDGE('',*,*,#576,.F.);
#576 = EDGE_CURVE('',#577,#579,#581,.T.);
#577 = VERTEX_POINT('',#578);
#578 = CARTESIAN_POINT('',(-251.924838,88.613873,-7.5));
#579 = VERTEX_POINT('',#580);
#580 = CARTESIAN_POINT('',(-251.924838,94.214369764744,-16.12867234103)
  );
#581 = LINE('',#582,#583);
#582 = CARTESIAN_POINT('',(-251.924838,83.981234660772,-0.362504884329)
  );
#583 = VECTOR('',#584,1.);
#584 = DIRECTION('',(0.,0.544431938555,-0.838805021612));
#585 = ORIENTED_EDGE('',*,*,#586,.T.);
#586 = EDGE_CURVE('',#577,#587,#589,.T.);
#587 = VERTEX_POINT('',#588);
#588 = CARTESIAN_POINT('',(-251.924838,99.813873,-7.5));
#589 = LINE('',#590,#591);
#590 = CARTESIAN_POINT('',(-251.924838,82.613873,-7.5));
#591 = VECTOR('',#592,1.);
#592 = DIRECTION('',(0.,1.,0.));
#593 = ORIENTED_EDGE('',*,*,#594,.F.);
#594 = EDGE_CURVE('',#579,#587,#595,.T.);
#595 = LINE('',#596,#597);
#596 = CARTESIAN_POINT('',(-251.924838,96.430663849275,-12.71342733387)
  );
#597 = VECTOR('',#598,1.);
#598 = DIRECTION('',(0.,0.544363978441,0.83884912766));
#599 = FACE_BOUND('',#600,.F.);
#600 = EDGE_LOOP('',(#601,#611,#619));
#601 = ORIENTED_EDGE('',*,*,#602,.F.);
#602 = EDGE_CURVE('',#603,#605,#607,.T.);
#603 = VERTEX_POINT('',#604);
#604 = CARTESIAN_POINT('',(-251.924838,105.813873,-34.));
#605 = VERTEX_POINT('',#606);
#606 = CARTESIAN_POINT('',(-251.924838,105.813873,-13.5));
#607 = LINE('',#608,#609);
#608 = CARTESIAN_POINT('',(-251.924838,105.813873,-14.5));
#609 = VECTOR('',#610,1.);
#610 = DIRECTION('',(0.,0.,1.));
#611 = ORIENTED_EDGE('',*,*,#612,.T.);
#612 = EDGE_CURVE('',#603,#613,#615,.T.);
#613 = VERTEX_POINT('',#614);
#614 = CARTESIAN_POINT('',(-251.924838,99.161162427385,-23.75018429219)
  );
#615 = LINE('',#616,#617);
#616 = CARTESIAN_POINT('',(-251.924838,92.581234660772,-13.61250488432)
  );
#617 = VECTOR('',#618,1.);
#618 = DIRECTION('',(0.,-0.544431938555,0.838805021612));
#619 = ORIENTED_EDGE('',*,*,#620,.T.);
#620 = EDGE_CURVE('',#613,#605,#621,.T.);
#621 = LINE('',#622,#623);
#622 = CARTESIAN_POINT('',(-251.924838,102.38436351233,-18.78402729935)
  );
#623 = VECTOR('',#624,1.);
#624 = DIRECTION('',(0.,0.544418163992,0.838813961922));
#625 = PLANE('',#626);
#626 = AXIS2_PLACEMENT_3D('',#627,#628,#629);
#627 = CARTESIAN_POINT('',(-251.924838,76.613873,5.));
#628 = DIRECTION('',(1.,0.,0.));
#629 = DIRECTION('',(0.,1.,0.));
#630 = ADVANCED_FACE('',(#631),#650,.F.);
#631 = FACE_BOUND('',#632,.F.);
#632 = EDGE_LOOP('',(#633,#642,#648,#649));
#633 = ORIENTED_EDGE('',*,*,#634,.F.);
#634 = EDGE_CURVE('',#635,#635,#637,.T.);
#635 = VERTEX_POINT('',#636);
#636 = CARTESIAN_POINT('',(-276.024838,86.963873,7.25));
#637 = CIRCLE('',#638,0.9);
#638 = AXIS2_PLACEMENT_3D('',#639,#640,#641);
#639 = CARTESIAN_POINT('',(-276.924838,86.963873,7.25));
#640 = DIRECTION('',(0.,0.,1.));
#641 = DIRECTION('',(1.,0.,0.));
#642 = ORIENTED_EDGE('',*,*,#643,.T.);
#643 = EDGE_CURVE('',#635,#188,#644,.T.);
#644 = LINE('',#645,#646);
#645 = CARTESIAN_POINT('',(-276.024838,86.963873,10.));
#646 = VECTOR('',#647,1.);
#647 = DIRECTION('',(-0.,-0.,-1.));
#648 = ORIENTED_EDGE('',*,*,#187,.T.);
#649 = ORIENTED_EDGE('',*,*,#643,.F.);
#650 = CYLINDRICAL_SURFACE('',#651,0.9);
#651 = AXIS2_PLACEMENT_3D('',#652,#653,#654);
#652 = CARTESIAN_POINT('',(-276.924838,86.963873,10.));
#653 = DIRECTION('',(0.,0.,1.));
#654 = DIRECTION('',(1.,0.,0.));
#655 = ADVANCED_FACE('',(#656),#675,.F.);
#656 = FACE_BOUND('',#657,.F.);
#657 = EDGE_LOOP('',(#658,#667,#673,#674));
#658 = ORIENTED_EDGE('',*,*,#659,.F.);
#659 = EDGE_CURVE('',#660,#660,#662,.T.);
#660 = VERTEX_POINT('',#661);
#661 = CARTESIAN_POINT('',(-268.774838,94.213873,7.25));
#662 = CIRCLE('',#663,0.9);
#663 = AXIS2_PLACEMENT_3D('',#664,#665,#666);
#664 = CARTESIAN_POINT('',(-269.674838,94.213873,7.25));
#665 = DIRECTION('',(0.,0.,1.));
#666 = DIRECTION('',(1.,0.,0.));
#667 = ORIENTED_EDGE('',*,*,#668,.T.);
#668 = EDGE_CURVE('',#660,#199,#669,.T.);
#669 = LINE('',#670,#671);
#670 = CARTESIAN_POINT('',(-268.774838,94.213873,10.));
#671 = VECTOR('',#672,1.);
#672 = DIRECTION('',(-0.,-0.,-1.));
#673 = ORIENTED_EDGE('',*,*,#198,.T.);
#674 = ORIENTED_EDGE('',*,*,#668,.F.);
#675 = CYLINDRICAL_SURFACE('',#676,0.9);
#676 = AXIS2_PLACEMENT_3D('',#677,#678,#679);
#677 = CARTESIAN_POINT('',(-269.674838,94.213873,10.));
#678 = DIRECTION('',(0.,0.,1.));
#679 = DIRECTION('',(1.,0.,0.));
#680 = ADVANCED_FACE('',(#681),#700,.F.);
#681 = FACE_BOUND('',#682,.F.);
#682 = EDGE_LOOP('',(#683,#692,#698,#699));
#683 = ORIENTED_EDGE('',*,*,#684,.F.);
#684 = EDGE_CURVE('',#685,#685,#687,.T.);
#685 = VERTEX_POINT('',#686);
#686 = CARTESIAN_POINT('',(-272.549838,94.213873,7.25));
#687 = CIRCLE('',#688,4.375);
#688 = AXIS2_PLACEMENT_3D('',#689,#690,#691);
#689 = CARTESIAN_POINT('',(-276.924838,94.213873,7.25));
#690 = DIRECTION('',(0.,0.,1.));
#691 = DIRECTION('',(1.,0.,0.));
#692 = ORIENTED_EDGE('',*,*,#693,.T.);
#693 = EDGE_CURVE('',#685,#210,#694,.T.);
#694 = LINE('',#695,#696);
#695 = CARTESIAN_POINT('',(-272.549838,94.213873,10.));
#696 = VECTOR('',#697,1.);
#697 = DIRECTION('',(-0.,-0.,-1.));
#698 = ORIENTED_EDGE('',*,*,#209,.T.);
#699 = ORIENTED_EDGE('',*,*,#693,.F.);
#700 = CYLINDRICAL_SURFACE('',#701,4.375);
#701 = AXIS2_PLACEMENT_3D('',#702,#703,#704);
#702 = CARTESIAN_POINT('',(-276.924838,94.213873,10.));
#703 = DIRECTION('',(0.,0.,1.));
#704 = DIRECTION('',(1.,0.,0.));
#705 = ADVANCED_FACE('',(#706),#725,.F.);
#706 = FACE_BOUND('',#707,.F.);
#707 = EDGE_LOOP('',(#708,#717,#723,#724));
#708 = ORIENTED_EDGE('',*,*,#709,.F.);
#709 = EDGE_CURVE('',#710,#710,#712,.T.);
#710 = VERTEX_POINT('',#711);
#711 = CARTESIAN_POINT('',(-283.274838,94.213873,7.25));
#712 = CIRCLE('',#713,0.9);
#713 = AXIS2_PLACEMENT_3D('',#714,#715,#716);
#714 = CARTESIAN_POINT('',(-284.174838,94.213873,7.25));
#715 = DIRECTION('',(0.,0.,1.));
#716 = DIRECTION('',(1.,0.,0.));
#717 = ORIENTED_EDGE('',*,*,#718,.T.);
#718 = EDGE_CURVE('',#710,#221,#719,.T.);
#719 = LINE('',#720,#721);
#720 = CARTESIAN_POINT('',(-283.274838,94.213873,10.));
#721 = VECTOR('',#722,1.);
#722 = DIRECTION('',(-0.,-0.,-1.));
#723 = ORIENTED_EDGE('',*,*,#220,.T.);
#724 = ORIENTED_EDGE('',*,*,#718,.F.);
#725 = CYLINDRICAL_SURFACE('',#726,0.9);
#726 = AXIS2_PLACEMENT_3D('',#727,#728,#729);
#727 = CARTESIAN_POINT('',(-284.174838,94.213873,10.));
#728 = DIRECTION('',(0.,0.,1.));
#729 = DIRECTION('',(1.,0.,0.));
#730 = ADVANCED_FACE('',(#731),#750,.F.);
#731 = FACE_BOUND('',#732,.F.);
#732 = EDGE_LOOP('',(#733,#742,#748,#749));
#733 = ORIENTED_EDGE('',*,*,#734,.F.);
#734 = EDGE_CURVE('',#735,#735,#737,.T.);
#735 = VERTEX_POINT('',#736);
#736 = CARTESIAN_POINT('',(-276.024838,101.463873,7.25));
#737 = CIRCLE('',#738,0.9);
#738 = AXIS2_PLACEMENT_3D('',#739,#740,#741);
#739 = CARTESIAN_POINT('',(-276.924838,101.463873,7.25));
#740 = DIRECTION('',(0.,0.,1.));
#741 = DIRECTION('',(1.,0.,0.));
#742 = ORIENTED_EDGE('',*,*,#743,.T.);
#743 = EDGE_CURVE('',#735,#232,#744,.T.);
#744 = LINE('',#745,#746);
#745 = CARTESIAN_POINT('',(-276.024838,101.463873,10.));
#746 = VECTOR('',#747,1.);
#747 = DIRECTION('',(-0.,-0.,-1.));
#748 = ORIENTED_EDGE('',*,*,#231,.T.);
#749 = ORIENTED_EDGE('',*,*,#743,.F.);
#750 = CYLINDRICAL_SURFACE('',#751,0.9);
#751 = AXIS2_PLACEMENT_3D('',#752,#753,#754);
#752 = CARTESIAN_POINT('',(-276.924838,101.463873,10.));
#753 = DIRECTION('',(0.,0.,1.));
#754 = DIRECTION('',(1.,0.,0.));
#755 = ADVANCED_FACE('',(#756),#774,.T.);
#756 = FACE_BOUND('',#757,.T.);
#757 = EDGE_LOOP('',(#758,#759,#760,#768));
#758 = ORIENTED_EDGE('',*,*,#407,.F.);
#759 = ORIENTED_EDGE('',*,*,#337,.T.);
#760 = ORIENTED_EDGE('',*,*,#761,.F.);
#761 = EDGE_CURVE('',#762,#330,#764,.T.);
#762 = VERTEX_POINT('',#763);
#763 = CARTESIAN_POINT('',(-210.924838,111.813873,0.5));
#764 = LINE('',#765,#766);
#765 = CARTESIAN_POINT('',(-210.924838,111.813873,0.5));
#766 = VECTOR('',#767,1.);
#767 = DIRECTION('',(0.,-1.,0.));
#768 = ORIENTED_EDGE('',*,*,#769,.F.);
#769 = EDGE_CURVE('',#400,#762,#770,.T.);
#770 = LINE('',#771,#772);
#771 = CARTESIAN_POINT('',(-218.924838,111.813873,0.5));
#772 = VECTOR('',#773,1.);
#773 = DIRECTION('',(1.,0.,0.));
#774 = PLANE('',#775);
#775 = AXIS2_PLACEMENT_3D('',#776,#777,#778);
#776 = CARTESIAN_POINT('',(-223.674838,94.213873,0.5));
#777 = DIRECTION('',(0.,0.,1.));
#778 = DIRECTION('',(1.,0.,0.));
#779 = ADVANCED_FACE('',(#780,#798,#824,#850,#876),#902,.T.);
#780 = FACE_BOUND('',#781,.T.);
#781 = EDGE_LOOP('',(#782,#783,#791,#797));
#782 = ORIENTED_EDGE('',*,*,#329,.T.);
#783 = ORIENTED_EDGE('',*,*,#784,.T.);
#784 = EDGE_CURVE('',#322,#785,#787,.T.);
#785 = VERTEX_POINT('',#786);
#786 = CARTESIAN_POINT('',(-210.924838,111.813873,-48.));
#787 = LINE('',#788,#789);
#788 = CARTESIAN_POINT('',(-210.924838,76.613873,-48.));
#789 = VECTOR('',#790,1.);
#790 = DIRECTION('',(0.,1.,0.));
#791 = ORIENTED_EDGE('',*,*,#792,.T.);
#792 = EDGE_CURVE('',#785,#762,#793,.T.);
#793 = LINE('',#794,#795);
#794 = CARTESIAN_POINT('',(-210.924838,111.813873,-48.));
#795 = VECTOR('',#796,1.);
#796 = DIRECTION('',(0.,0.,1.));
#797 = ORIENTED_EDGE('',*,*,#761,.T.);
#798 = FACE_BOUND('',#799,.T.);
#799 = EDGE_LOOP('',(#800,#810,#818));
#800 = ORIENTED_EDGE('',*,*,#801,.F.);
#801 = EDGE_CURVE('',#802,#804,#806,.T.);
#802 = VERTEX_POINT('',#803);
#803 = CARTESIAN_POINT('',(-210.924838,105.813873,-34.));
#804 = VERTEX_POINT('',#805);
#805 = CARTESIAN_POINT('',(-210.924838,105.813873,-13.5));
#806 = LINE('',#807,#808);
#807 = CARTESIAN_POINT('',(-210.924838,105.813873,-34.));
#808 = VECTOR('',#809,1.);
#809 = DIRECTION('',(0.,0.,1.));
#810 = ORIENTED_EDGE('',*,*,#811,.T.);
#811 = EDGE_CURVE('',#802,#812,#814,.T.);
#812 = VERTEX_POINT('',#813);
#813 = CARTESIAN_POINT('',(-210.924838,99.161162427385,-23.75018429219)
  );
#814 = LINE('',#815,#816);
#815 = CARTESIAN_POINT('',(-210.924838,105.813873,-34.));
#816 = VECTOR('',#817,1.);
#817 = DIRECTION('',(0.,-0.544431938555,0.838805021612));
#818 = ORIENTED_EDGE('',*,*,#819,.T.);
#819 = EDGE_CURVE('',#812,#804,#820,.T.);
#820 = LINE('',#821,#822);
#821 = CARTESIAN_POINT('',(-210.924838,99.161162427385,-23.75018429219)
  );
#822 = VECTOR('',#823,1.);
#823 = DIRECTION('',(0.,0.544418163992,0.838813961922));
#824 = FACE_BOUND('',#825,.T.);
#825 = EDGE_LOOP('',(#826,#836,#844));
#826 = ORIENTED_EDGE('',*,*,#827,.F.);
#827 = EDGE_CURVE('',#828,#830,#832,.T.);
#828 = VERTEX_POINT('',#829);
#829 = CARTESIAN_POINT('',(-210.924838,88.613873,-40.));
#830 = VERTEX_POINT('',#831);
#831 = CARTESIAN_POINT('',(-210.924838,99.813873,-40.));
#832 = LINE('',#833,#834);
#833 = CARTESIAN_POINT('',(-210.924838,88.613873,-40.));
#834 = VECTOR('',#835,1.);
#835 = DIRECTION('',(0.,1.,0.));
#836 = ORIENTED_EDGE('',*,*,#837,.F.);
#837 = EDGE_CURVE('',#838,#828,#840,.T.);
#838 = VERTEX_POINT('',#839);
#839 = CARTESIAN_POINT('',(-210.924838,94.213972932661,-31.37224698927)
  );
#840 = LINE('',#841,#842);
#841 = CARTESIAN_POINT('',(-210.924838,94.213972932661,-31.37224698927)
  );
#842 = VECTOR('',#843,1.);
#843 = DIRECTION('',(0.,-0.544445610048,-0.838796147881));
#844 = ORIENTED_EDGE('',*,*,#845,.F.);
#845 = EDGE_CURVE('',#830,#838,#846,.T.);
#846 = LINE('',#847,#848);
#847 = CARTESIAN_POINT('',(-210.924838,99.813873,-40.));
#848 = VECTOR('',#849,1.);
#849 = DIRECTION('',(0.,-0.544431938555,0.838805021612));
#850 = FACE_BOUND('',#851,.T.);
#851 = EDGE_LOOP('',(#852,#862,#870));
#852 = ORIENTED_EDGE('',*,*,#853,.F.);
#853 = EDGE_CURVE('',#854,#856,#858,.T.);
#854 = VERTEX_POINT('',#855);
#855 = CARTESIAN_POINT('',(-210.924838,88.613873,-7.5));
#856 = VERTEX_POINT('',#857);
#857 = CARTESIAN_POINT('',(-210.924838,94.214369764744,-16.12867234103)
  );
#858 = LINE('',#859,#860);
#859 = CARTESIAN_POINT('',(-210.924838,88.613873,-7.5));
#860 = VECTOR('',#861,1.);
#861 = DIRECTION('',(0.,0.544431938555,-0.838805021612));
#862 = ORIENTED_EDGE('',*,*,#863,.T.);
#863 = EDGE_CURVE('',#854,#864,#866,.T.);
#864 = VERTEX_POINT('',#865);
#865 = CARTESIAN_POINT('',(-210.924838,99.813873,-7.5));
#866 = LINE('',#867,#868);
#867 = CARTESIAN_POINT('',(-210.924838,88.613873,-7.5));
#868 = VECTOR('',#869,1.);
#869 = DIRECTION('',(0.,1.,0.));
#870 = ORIENTED_EDGE('',*,*,#871,.F.);
#871 = EDGE_CURVE('',#856,#864,#872,.T.);
#872 = LINE('',#873,#874);
#873 = CARTESIAN_POINT('',(-210.924838,94.214369764744,-16.12867234103)
  );
#874 = VECTOR('',#875,1.);
#875 = DIRECTION('',(0.,0.544363978441,0.83884912766));
#876 = FACE_BOUND('',#877,.T.);
#877 = EDGE_LOOP('',(#878,#888,#896));
#878 = ORIENTED_EDGE('',*,*,#879,.F.);
#879 = EDGE_CURVE('',#880,#882,#884,.T.);
#880 = VERTEX_POINT('',#881);
#881 = CARTESIAN_POINT('',(-210.924838,82.613873,-34.));
#882 = VERTEX_POINT('',#883);
#883 = CARTESIAN_POINT('',(-210.924838,89.267724157527,-23.74842699567)
  );
#884 = LINE('',#885,#886);
#885 = CARTESIAN_POINT('',(-210.924838,82.613873,-34.));
#886 = VECTOR('',#887,1.);
#887 = DIRECTION('',(0.,0.544431938555,0.838805021612));
#888 = ORIENTED_EDGE('',*,*,#889,.T.);
#889 = EDGE_CURVE('',#880,#890,#892,.T.);
#890 = VERTEX_POINT('',#891);
#891 = CARTESIAN_POINT('',(-210.924838,82.613873,-13.5));
#892 = LINE('',#893,#894);
#893 = CARTESIAN_POINT('',(-210.924838,82.613873,-34.));
#894 = VECTOR('',#895,1.);
#895 = DIRECTION('',(0.,0.,1.));
#896 = ORIENTED_EDGE('',*,*,#897,.F.);
#897 = EDGE_CURVE('',#882,#890,#898,.T.);
#898 = LINE('',#899,#900);
#899 = CARTESIAN_POINT('',(-210.924838,89.267724157527,-23.74842699567)
  );
#900 = VECTOR('',#901,1.);
#901 = DIRECTION('',(0.,-0.544549511952,0.83872869811));
#902 = PLANE('',#903);
#903 = AXIS2_PLACEMENT_3D('',#904,#905,#906);
#904 = CARTESIAN_POINT('',(-210.924838,94.213873,-23.75));
#905 = DIRECTION('',(1.,0.,0.));
#906 = DIRECTION('',(0.,0.,1.));
#907 = ADVANCED_FACE('',(#908,#942,#953,#964,#975),#986,.T.);
#908 = FACE_BOUND('',#909,.T.);
#909 = EDGE_LOOP('',(#910,#911,#912,#918,#919,#920,#928,#936));
#910 = ORIENTED_EDGE('',*,*,#289,.T.);
#911 = ORIENTED_EDGE('',*,*,#498,.T.);
#912 = ORIENTED_EDGE('',*,*,#913,.T.);
#913 = EDGE_CURVE('',#499,#785,#914,.T.);
#914 = LINE('',#915,#916);
#915 = CARTESIAN_POINT('',(-239.924838,111.813873,-48.));
#916 = VECTOR('',#917,1.);
#917 = DIRECTION('',(1.,0.,0.));
#918 = ORIENTED_EDGE('',*,*,#784,.F.);
#919 = ORIENTED_EDGE('',*,*,#321,.F.);
#920 = ORIENTED_EDGE('',*,*,#921,.T.);
#921 = EDGE_CURVE('',#314,#922,#924,.T.);
#922 = VERTEX_POINT('',#923);
#923 = CARTESIAN_POINT('',(-218.924838,105.813873,-48.));
#924 = LINE('',#925,#926);
#925 = CARTESIAN_POINT('',(-218.924838,76.613873,-48.));
#926 = VECTOR('',#927,1.);
#927 = DIRECTION('',(0.,1.,0.));
#928 = ORIENTED_EDGE('',*,*,#929,.F.);
#929 = EDGE_CURVE('',#930,#922,#932,.T.);
#930 = VERTEX_POINT('',#931);
#931 = CARTESIAN_POINT('',(-239.924838,105.813873,-48.));
#932 = LINE('',#933,#934);
#933 = CARTESIAN_POINT('',(-239.924838,105.813873,-48.));
#934 = VECTOR('',#935,1.);
#935 = DIRECTION('',(1.,0.,0.));
#936 = ORIENTED_EDGE('',*,*,#937,.F.);
#937 = EDGE_CURVE('',#290,#930,#938,.T.);
#938 = LINE('',#939,#940);
#939 = CARTESIAN_POINT('',(-239.924838,76.613873,-48.));
#940 = VECTOR('',#941,1.);
#941 = DIRECTION('',(0.,1.,0.));
#942 = FACE_BOUND('',#943,.T.);
#943 = EDGE_LOOP('',(#944));
#944 = ORIENTED_EDGE('',*,*,#945,.F.);
#945 = EDGE_CURVE('',#946,#946,#948,.T.);
#946 = VERTEX_POINT('',#947);
#947 = CARTESIAN_POINT('',(-213.524838,85.413873,-48.));
#948 = CIRCLE('',#949,1.4);
#949 = AXIS2_PLACEMENT_3D('',#950,#951,#952);
#950 = CARTESIAN_POINT('',(-214.924838,85.413873,-48.));
#951 = DIRECTION('',(0.,0.,-1.));
#952 = DIRECTION('',(1.,0.,0.));
#953 = FACE_BOUND('',#954,.T.);
#954 = EDGE_LOOP('',(#955));
#955 = ORIENTED_EDGE('',*,*,#956,.F.);
#956 = EDGE_CURVE('',#957,#957,#959,.T.);
#957 = VERTEX_POINT('',#958);
#958 = CARTESIAN_POINT('',(-244.524838,85.413873,-48.));
#959 = CIRCLE('',#960,1.4);
#960 = AXIS2_PLACEMENT_3D('',#961,#962,#963);
#961 = CARTESIAN_POINT('',(-245.924838,85.413873,-48.));
#962 = DIRECTION('',(0.,0.,-1.));
#963 = DIRECTION('',(1.,0.,0.));
#964 = FACE_BOUND('',#965,.T.);
#965 = EDGE_LOOP('',(#966));
#966 = ORIENTED_EDGE('',*,*,#967,.F.);
#967 = EDGE_CURVE('',#968,#968,#970,.T.);
#968 = VERTEX_POINT('',#969);
#969 = CARTESIAN_POINT('',(-213.524838,103.0150295,-48.));
#970 = CIRCLE('',#971,1.4);
#971 = AXIS2_PLACEMENT_3D('',#972,#973,#974);
#972 = CARTESIAN_POINT('',(-214.924838,103.0150295,-48.));
#973 = DIRECTION('',(0.,0.,-1.));
#974 = DIRECTION('',(1.,0.,0.));
#975 = FACE_BOUND('',#976,.T.);
#976 = EDGE_LOOP('',(#977));
#977 = ORIENTED_EDGE('',*,*,#978,.F.);
#978 = EDGE_CURVE('',#979,#979,#981,.T.);
#979 = VERTEX_POINT('',#980);
#980 = CARTESIAN_POINT('',(-244.524838,103.013873,-48.));
#981 = CIRCLE('',#982,1.4);
#982 = AXIS2_PLACEMENT_3D('',#983,#984,#985);
#983 = CARTESIAN_POINT('',(-245.924838,103.013873,-48.));
#984 = DIRECTION('',(0.,0.,-1.));
#985 = DIRECTION('',(1.,0.,0.));
#986 = PLANE('',#987);
#987 = AXIS2_PLACEMENT_3D('',#988,#989,#990);
#988 = CARTESIAN_POINT('',(-230.8707583036,96.29167186148,-48.));
#989 = DIRECTION('',(-0.,-0.,-1.));
#990 = DIRECTION('',(-1.,0.,0.));
#991 = ADVANCED_FACE('',(#992,#1034,#1060,#1086),#1112,.F.);
#992 = FACE_BOUND('',#993,.F.);
#993 = EDGE_LOOP('',(#994,#1004,#1010,#1011,#1012,#1020,#1028));
#994 = ORIENTED_EDGE('',*,*,#995,.T.);
#995 = EDGE_CURVE('',#996,#998,#1000,.T.);
#996 = VERTEX_POINT('',#997);
#997 = CARTESIAN_POINT('',(-218.924838,105.813873,-13.5));
#998 = VERTEX_POINT('',#999);
#999 = CARTESIAN_POINT('',(-218.924838,105.813873,-6.5));
#1000 = LINE('',#1001,#1002);
#1001 = CARTESIAN_POINT('',(-218.924838,105.813873,-48.));
#1002 = VECTOR('',#1003,1.);
#1003 = DIRECTION('',(0.,0.,1.));
#1004 = ORIENTED_EDGE('',*,*,#1005,.T.);
#1005 = EDGE_CURVE('',#998,#306,#1006,.T.);
#1006 = LINE('',#1007,#1008);
#1007 = CARTESIAN_POINT('',(-218.924838,105.813873,-6.5));
#1008 = VECTOR('',#1009,1.);
#1009 = DIRECTION('',(0.,-1.,0.));
#1010 = ORIENTED_EDGE('',*,*,#313,.T.);
#1011 = ORIENTED_EDGE('',*,*,#921,.T.);
#1012 = ORIENTED_EDGE('',*,*,#1013,.T.);
#1013 = EDGE_CURVE('',#922,#1014,#1016,.T.);
#1014 = VERTEX_POINT('',#1015);
#1015 = CARTESIAN_POINT('',(-218.924838,105.813873,-34.));
#1016 = LINE('',#1017,#1018);
#1017 = CARTESIAN_POINT('',(-218.924838,105.813873,-48.));
#1018 = VECTOR('',#1019,1.);
#1019 = DIRECTION('',(0.,0.,1.));
#1020 = ORIENTED_EDGE('',*,*,#1021,.T.);
#1021 = EDGE_CURVE('',#1014,#1022,#1024,.T.);
#1022 = VERTEX_POINT('',#1023);
#1023 = CARTESIAN_POINT('',(-218.924838,99.161162427385,-23.75018429219)
  );
#1024 = LINE('',#1025,#1026);
#1025 = CARTESIAN_POINT('',(-218.924838,101.7542721624,-27.74538243044)
  );
#1026 = VECTOR('',#1027,1.);
#1027 = DIRECTION('',(0.,-0.544431938555,0.838805021612));
#1028 = ORIENTED_EDGE('',*,*,#1029,.T.);
#1029 = EDGE_CURVE('',#1022,#996,#1030,.T.);
#1030 = LINE('',#1031,#1032);
#1031 = CARTESIAN_POINT('',(-218.924838,98.428038137404,-24.87974779858)
  );
#1032 = VECTOR('',#1033,1.);
#1033 = DIRECTION('',(0.,0.544418163992,0.838813961922));
#1034 = FACE_BOUND('',#1035,.F.);
#1035 = EDGE_LOOP('',(#1036,#1046,#1054));
#1036 = ORIENTED_EDGE('',*,*,#1037,.F.);
#1037 = EDGE_CURVE('',#1038,#1040,#1042,.T.);
#1038 = VERTEX_POINT('',#1039);
#1039 = CARTESIAN_POINT('',(-218.924838,88.613873,-40.));
#1040 = VERTEX_POINT('',#1041);
#1041 = CARTESIAN_POINT('',(-218.924838,99.813873,-40.));
#1042 = LINE('',#1043,#1044);
#1043 = CARTESIAN_POINT('',(-218.924838,91.413873,-40.));
#1044 = VECTOR('',#1045,1.);
#1045 = DIRECTION('',(0.,1.,0.));
#1046 = ORIENTED_EDGE('',*,*,#1047,.F.);
#1047 = EDGE_CURVE('',#1048,#1038,#1050,.T.);
#1048 = VERTEX_POINT('',#1049);
#1049 = CARTESIAN_POINT('',(-218.924838,94.213972932661,-31.37224698927)
  );
#1050 = LINE('',#1051,#1052);
#1051 = CARTESIAN_POINT('',(-218.924838,95.954417732334,-28.69084343559)
  );
#1052 = VECTOR('',#1053,1.);
#1053 = DIRECTION('',(0.,-0.544445610048,-0.838796147881));
#1054 = ORIENTED_EDGE('',*,*,#1055,.F.);
#1055 = EDGE_CURVE('',#1040,#1048,#1056,.T.);
#1056 = LINE('',#1057,#1058);
#1057 = CARTESIAN_POINT('',(-218.924838,95.2734738376,-33.00461756955));
#1058 = VECTOR('',#1059,1.);
#1059 = DIRECTION('',(0.,-0.544431938555,0.838805021612));
#1060 = FACE_BOUND('',#1061,.F.);
#1061 = EDGE_LOOP('',(#1062,#1072,#1080));
#1062 = ORIENTED_EDGE('',*,*,#1063,.F.);
#1063 = EDGE_CURVE('',#1064,#1066,#1068,.T.);
#1064 = VERTEX_POINT('',#1065);
#1065 = CARTESIAN_POINT('',(-218.924838,88.613873,-7.5));
#1066 = VERTEX_POINT('',#1067);
#1067 = CARTESIAN_POINT('',(-218.924838,94.214369764744,-16.12867234103)
  );
#1068 = LINE('',#1069,#1070);
#1069 = CARTESIAN_POINT('',(-218.924838,93.1542721624,-14.49538243044));
#1070 = VECTOR('',#1071,1.);
#1071 = DIRECTION('',(0.,0.544431938555,-0.838805021612));
#1072 = ORIENTED_EDGE('',*,*,#1073,.T.);
#1073 = EDGE_CURVE('',#1064,#1074,#1076,.T.);
#1074 = VERTEX_POINT('',#1075);
#1075 = CARTESIAN_POINT('',(-218.924838,99.813873,-7.5));
#1076 = LINE('',#1077,#1078);
#1077 = CARTESIAN_POINT('',(-218.924838,91.413873,-7.5));
#1078 = VECTOR('',#1079,1.);
#1079 = DIRECTION('',(0.,1.,0.));
#1080 = ORIENTED_EDGE('',*,*,#1081,.F.);
#1081 = EDGE_CURVE('',#1066,#1074,#1082,.T.);
#1082 = LINE('',#1083,#1084);
#1083 = CARTESIAN_POINT('',(-218.924838,92.474197493893,-18.81022742034)
  );
#1084 = VECTOR('',#1085,1.);
#1085 = DIRECTION('',(0.,0.544363978441,0.83884912766));
#1086 = FACE_BOUND('',#1087,.F.);
#1087 = EDGE_LOOP('',(#1088,#1098,#1106));
#1088 = ORIENTED_EDGE('',*,*,#1089,.F.);
#1089 = EDGE_CURVE('',#1090,#1092,#1094,.T.);
#1090 = VERTEX_POINT('',#1091);
#1091 = CARTESIAN_POINT('',(-218.924838,82.613873,-34.));
#1092 = VERTEX_POINT('',#1093);
#1093 = CARTESIAN_POINT('',(-218.924838,89.267724157527,-23.74842699567)
  );
#1094 = LINE('',#1095,#1096);
#1095 = CARTESIAN_POINT('',(-218.924838,86.6734738376,-27.74538243044));
#1096 = VECTOR('',#1097,1.);
#1097 = DIRECTION('',(0.,0.544431938555,0.838805021612));
#1098 = ORIENTED_EDGE('',*,*,#1099,.T.);
#1099 = EDGE_CURVE('',#1090,#1100,#1102,.T.);
#1100 = VERTEX_POINT('',#1101);
#1101 = CARTESIAN_POINT('',(-218.924838,82.613873,-13.5));
#1102 = LINE('',#1103,#1104);
#1103 = CARTESIAN_POINT('',(-218.924838,82.613873,-28.875));
#1104 = VECTOR('',#1105,1.);
#1105 = DIRECTION('',(0.,0.,1.));
#1106 = ORIENTED_EDGE('',*,*,#1107,.F.);
#1107 = EDGE_CURVE('',#1092,#1100,#1108,.T.);
#1108 = LINE('',#1109,#1110);
#1109 = CARTESIAN_POINT('',(-218.924838,90.001434449354,-24.87850583028)
  );
#1110 = VECTOR('',#1111,1.);
#1111 = DIRECTION('',(0.,-0.544549511952,0.83872869811));
#1112 = PLANE('',#1113);
#1113 = AXIS2_PLACEMENT_3D('',#1114,#1115,#1116);
#1114 = CARTESIAN_POINT('',(-218.924838,94.213873,-23.75));
#1115 = DIRECTION('',(1.,0.,0.));
#1116 = DIRECTION('',(0.,0.,1.));
#1117 = ADVANCED_FACE('',(#1118,#1160,#1186,#1212),#1238,.T.);
#1118 = FACE_BOUND('',#1119,.T.);
#1119 = EDGE_LOOP('',(#1120,#1128,#1129,#1130,#1138,#1146,#1154));
#1120 = ORIENTED_EDGE('',*,*,#1121,.T.);
#1121 = EDGE_CURVE('',#1122,#298,#1124,.T.);
#1122 = VERTEX_POINT('',#1123);
#1123 = CARTESIAN_POINT('',(-239.924838,105.813873,-6.5));
#1124 = LINE('',#1125,#1126);
#1125 = CARTESIAN_POINT('',(-239.924838,105.813873,-6.5));
#1126 = VECTOR('',#1127,1.);
#1127 = DIRECTION('',(0.,-1.,0.));
#1128 = ORIENTED_EDGE('',*,*,#297,.T.);
#1129 = ORIENTED_EDGE('',*,*,#937,.T.);
#1130 = ORIENTED_EDGE('',*,*,#1131,.T.);
#1131 = EDGE_CURVE('',#930,#1132,#1134,.T.);
#1132 = VERTEX_POINT('',#1133);
#1133 = CARTESIAN_POINT('',(-239.924838,105.813873,-34.));
#1134 = LINE('',#1135,#1136);
#1135 = CARTESIAN_POINT('',(-239.924838,105.813873,-48.));
#1136 = VECTOR('',#1137,1.);
#1137 = DIRECTION('',(0.,0.,1.));
#1138 = ORIENTED_EDGE('',*,*,#1139,.T.);
#1139 = EDGE_CURVE('',#1132,#1140,#1142,.T.);
#1140 = VERTEX_POINT('',#1141);
#1141 = CARTESIAN_POINT('',(-239.924838,99.161162427385,-23.75018429219)
  );
#1142 = LINE('',#1143,#1144);
#1143 = CARTESIAN_POINT('',(-239.924838,101.7542721624,-27.74538243044)
  );
#1144 = VECTOR('',#1145,1.);
#1145 = DIRECTION('',(0.,-0.544431938555,0.838805021612));
#1146 = ORIENTED_EDGE('',*,*,#1147,.T.);
#1147 = EDGE_CURVE('',#1140,#1148,#1150,.T.);
#1148 = VERTEX_POINT('',#1149);
#1149 = CARTESIAN_POINT('',(-239.924838,105.813873,-13.5));
#1150 = LINE('',#1151,#1152);
#1151 = CARTESIAN_POINT('',(-239.924838,98.428038137404,-24.87974779858)
  );
#1152 = VECTOR('',#1153,1.);
#1153 = DIRECTION('',(0.,0.544418163992,0.838813961922));
#1154 = ORIENTED_EDGE('',*,*,#1155,.T.);
#1155 = EDGE_CURVE('',#1148,#1122,#1156,.T.);
#1156 = LINE('',#1157,#1158);
#1157 = CARTESIAN_POINT('',(-239.924838,105.813873,-48.));
#1158 = VECTOR('',#1159,1.);
#1159 = DIRECTION('',(0.,0.,1.));
#1160 = FACE_BOUND('',#1161,.T.);
#1161 = EDGE_LOOP('',(#1162,#1172,#1180));
#1162 = ORIENTED_EDGE('',*,*,#1163,.F.);
#1163 = EDGE_CURVE('',#1164,#1166,#1168,.T.);
#1164 = VERTEX_POINT('',#1165);
#1165 = CARTESIAN_POINT('',(-239.924838,88.613873,-40.));
#1166 = VERTEX_POINT('',#1167);
#1167 = CARTESIAN_POINT('',(-239.924838,99.813873,-40.));
#1168 = LINE('',#1169,#1170);
#1169 = CARTESIAN_POINT('',(-239.924838,91.413873,-40.));
#1170 = VECTOR('',#1171,1.);
#1171 = DIRECTION('',(0.,1.,0.));
#1172 = ORIENTED_EDGE('',*,*,#1173,.F.);
#1173 = EDGE_CURVE('',#1174,#1164,#1176,.T.);
#1174 = VERTEX_POINT('',#1175);
#1175 = CARTESIAN_POINT('',(-239.924838,94.213972932661,-31.37224698927)
  );
#1176 = LINE('',#1177,#1178);
#1177 = CARTESIAN_POINT('',(-239.924838,95.954417732334,-28.69084343559)
  );
#1178 = VECTOR('',#1179,1.);
#1179 = DIRECTION('',(0.,-0.544445610048,-0.838796147881));
#1180 = ORIENTED_EDGE('',*,*,#1181,.F.);
#1181 = EDGE_CURVE('',#1166,#1174,#1182,.T.);
#1182 = LINE('',#1183,#1184);
#1183 = CARTESIAN_POINT('',(-239.924838,95.2734738376,-33.00461756955));
#1184 = VECTOR('',#1185,1.);
#1185 = DIRECTION('',(0.,-0.544431938555,0.838805021612));
#1186 = FACE_BOUND('',#1187,.T.);
#1187 = EDGE_LOOP('',(#1188,#1198,#1206));
#1188 = ORIENTED_EDGE('',*,*,#1189,.F.);
#1189 = EDGE_CURVE('',#1190,#1192,#1194,.T.);
#1190 = VERTEX_POINT('',#1191);
#1191 = CARTESIAN_POINT('',(-239.924838,88.613873,-7.5));
#1192 = VERTEX_POINT('',#1193);
#1193 = CARTESIAN_POINT('',(-239.924838,94.214369764744,-16.12867234103)
  );
#1194 = LINE('',#1195,#1196);
#1195 = CARTESIAN_POINT('',(-239.924838,93.1542721624,-14.49538243044));
#1196 = VECTOR('',#1197,1.);
#1197 = DIRECTION('',(0.,0.544431938555,-0.838805021612));
#1198 = ORIENTED_EDGE('',*,*,#1199,.T.);
#1199 = EDGE_CURVE('',#1190,#1200,#1202,.T.);
#1200 = VERTEX_POINT('',#1201);
#1201 = CARTESIAN_POINT('',(-239.924838,99.813873,-7.5));
#1202 = LINE('',#1203,#1204);
#1203 = CARTESIAN_POINT('',(-239.924838,91.413873,-7.5));
#1204 = VECTOR('',#1205,1.);
#1205 = DIRECTION('',(0.,1.,0.));
#1206 = ORIENTED_EDGE('',*,*,#1207,.F.);
#1207 = EDGE_CURVE('',#1192,#1200,#1208,.T.);
#1208 = LINE('',#1209,#1210);
#1209 = CARTESIAN_POINT('',(-239.924838,92.474197493893,-18.81022742034)
  );
#1210 = VECTOR('',#1211,1.);
#1211 = DIRECTION('',(0.,0.544363978441,0.83884912766));
#1212 = FACE_BOUND('',#1213,.T.);
#1213 = EDGE_LOOP('',(#1214,#1224,#1232));
#1214 = ORIENTED_EDGE('',*,*,#1215,.F.);
#1215 = EDGE_CURVE('',#1216,#1218,#1220,.T.);
#1216 = VERTEX_POINT('',#1217);
#1217 = CARTESIAN_POINT('',(-239.924838,82.613873,-34.));
#1218 = VERTEX_POINT('',#1219);
#1219 = CARTESIAN_POINT('',(-239.924838,89.267724157527,-23.74842699567)
  );
#1220 = LINE('',#1221,#1222);
#1221 = CARTESIAN_POINT('',(-239.924838,86.6734738376,-27.74538243044));
#1222 = VECTOR('',#1223,1.);
#1223 = DIRECTION('',(0.,0.544431938555,0.838805021612));
#1224 = ORIENTED_EDGE('',*,*,#1225,.T.);
#1225 = EDGE_CURVE('',#1216,#1226,#1228,.T.);
#1226 = VERTEX_POINT('',#1227);
#1227 = CARTESIAN_POINT('',(-239.924838,82.613873,-13.5));
#1228 = LINE('',#1229,#1230);
#1229 = CARTESIAN_POINT('',(-239.924838,82.613873,-28.875));
#1230 = VECTOR('',#1231,1.);
#1231 = DIRECTION('',(0.,0.,1.));
#1232 = ORIENTED_EDGE('',*,*,#1233,.F.);
#1233 = EDGE_CURVE('',#1218,#1226,#1234,.T.);
#1234 = LINE('',#1235,#1236);
#1235 = CARTESIAN_POINT('',(-239.924838,90.001434449354,-24.87850583028)
  );
#1236 = VECTOR('',#1237,1.);
#1237 = DIRECTION('',(0.,-0.544549511952,0.83872869811));
#1238 = PLANE('',#1239);
#1239 = AXIS2_PLACEMENT_3D('',#1240,#1241,#1242);
#1240 = CARTESIAN_POINT('',(-239.924838,94.213873,-23.75));
#1241 = DIRECTION('',(1.,0.,0.));
#1242 = DIRECTION('',(0.,0.,1.));
#1243 = ADVANCED_FACE('',(#1244),#1255,.T.);
#1244 = FACE_BOUND('',#1245,.T.);
#1245 = EDGE_LOOP('',(#1246,#1252,#1253,#1254));
#1246 = ORIENTED_EDGE('',*,*,#1247,.T.);
#1247 = EDGE_CURVE('',#1122,#998,#1248,.T.);
#1248 = LINE('',#1249,#1250);
#1249 = CARTESIAN_POINT('',(-239.924838,105.813873,-6.5));
#1250 = VECTOR('',#1251,1.);
#1251 = DIRECTION('',(1.,0.,0.));
#1252 = ORIENTED_EDGE('',*,*,#1005,.T.);
#1253 = ORIENTED_EDGE('',*,*,#305,.F.);
#1254 = ORIENTED_EDGE('',*,*,#1121,.F.);
#1255 = PLANE('',#1256);
#1256 = AXIS2_PLACEMENT_3D('',#1257,#1258,#1259);
#1257 = CARTESIAN_POINT('',(-239.924838,105.813873,-6.5));
#1258 = DIRECTION('',(0.,0.,-1.));
#1259 = DIRECTION('',(0.,-1.,0.));
#1260 = ADVANCED_FACE('',(#1261),#1279,.F.);
#1261 = FACE_BOUND('',#1262,.F.);
#1262 = EDGE_LOOP('',(#1263,#1264,#1271,#1278));
#1263 = ORIENTED_EDGE('',*,*,#345,.F.);
#1264 = ORIENTED_EDGE('',*,*,#1265,.F.);
#1265 = EDGE_CURVE('',#1266,#346,#1268,.T.);
#1266 = VERTEX_POINT('',#1267);
#1267 = CARTESIAN_POINT('',(-232.774838,111.813873,-2.5));
#1268 = B_SPLINE_CURVE_WITH_KNOTS('',1,(#1269,#1270),.UNSPECIFIED.,.F.,
  .F.,(2,2),(-35.2,0.),.PIECEWISE_BEZIER_KNOTS.);
#1269 = CARTESIAN_POINT('',(-232.774838,111.813873,-2.5));
#1270 = CARTESIAN_POINT('',(-232.774838,76.613873,-2.5));
#1271 = ORIENTED_EDGE('',*,*,#1272,.T.);
#1272 = EDGE_CURVE('',#1266,#1266,#1273,.T.);
#1273 = CIRCLE('',#1274,1.4);
#1274 = AXIS2_PLACEMENT_3D('',#1275,#1276,#1277);
#1275 = CARTESIAN_POINT('',(-234.174838,111.813873,-2.5));
#1276 = DIRECTION('',(0.,-1.,0.));
#1277 = DIRECTION('',(1.,0.,0.));
#1278 = ORIENTED_EDGE('',*,*,#1265,.T.);
#1279 = CYLINDRICAL_SURFACE('',#1280,1.4);
#1280 = AXIS2_PLACEMENT_3D('',#1281,#1282,#1283);
#1281 = CARTESIAN_POINT('',(-234.174838,76.613873,-2.5));
#1282 = DIRECTION('',(0.,-1.,2.2E-16));
#1283 = DIRECTION('',(1.,0.,0.));
#1284 = ADVANCED_FACE('',(#1285),#1303,.F.);
#1285 = FACE_BOUND('',#1286,.F.);
#1286 = EDGE_LOOP('',(#1287,#1288,#1295,#1302));
#1287 = ORIENTED_EDGE('',*,*,#356,.F.);
#1288 = ORIENTED_EDGE('',*,*,#1289,.F.);
#1289 = EDGE_CURVE('',#1290,#357,#1292,.T.);
#1290 = VERTEX_POINT('',#1291);
#1291 = CARTESIAN_POINT('',(-223.274838,111.813873,-2.5));
#1292 = B_SPLINE_CURVE_WITH_KNOTS('',1,(#1293,#1294),.UNSPECIFIED.,.F.,
  .F.,(2,2),(-35.2,0.),.PIECEWISE_BEZIER_KNOTS.);
#1293 = CARTESIAN_POINT('',(-223.274838,111.813873,-2.5));
#1294 = CARTESIAN_POINT('',(-223.274838,76.613873,-2.5));
#1295 = ORIENTED_EDGE('',*,*,#1296,.T.);
#1296 = EDGE_CURVE('',#1290,#1290,#1297,.T.);
#1297 = CIRCLE('',#1298,1.4);
#1298 = AXIS2_PLACEMENT_3D('',#1299,#1300,#1301);
#1299 = CARTESIAN_POINT('',(-224.674838,111.813873,-2.5));
#1300 = DIRECTION('',(0.,-1.,0.));
#1301 = DIRECTION('',(1.,0.,0.));
#1302 = ORIENTED_EDGE('',*,*,#1289,.T.);
#1303 = CYLINDRICAL_SURFACE('',#1304,1.4);
#1304 = AXIS2_PLACEMENT_3D('',#1305,#1306,#1307);
#1305 = CARTESIAN_POINT('',(-224.674838,76.613873,-2.5));
#1306 = DIRECTION('',(0.,-1.,2.2E-16));
#1307 = DIRECTION('',(1.,0.,0.));
#1308 = ADVANCED_FACE('',(#1309,#1323,#1326,#1337),#1340,.T.);
#1309 = FACE_BOUND('',#1310,.T.);
#1310 = EDGE_LOOP('',(#1311,#1312,#1313,#1314,#1315,#1316,#1322));
#1311 = ORIENTED_EDGE('',*,*,#399,.T.);
#1312 = ORIENTED_EDGE('',*,*,#769,.T.);
#1313 = ORIENTED_EDGE('',*,*,#792,.F.);
#1314 = ORIENTED_EDGE('',*,*,#913,.F.);
#1315 = ORIENTED_EDGE('',*,*,#506,.F.);
#1316 = ORIENTED_EDGE('',*,*,#1317,.T.);
#1317 = EDGE_CURVE('',#507,#374,#1318,.T.);
#1318 = LINE('',#1319,#1320);
#1319 = CARTESIAN_POINT('',(-251.924838,111.813873,5.));
#1320 = VECTOR('',#1321,1.);
#1321 = DIRECTION('',(1.,0.,0.));
#1322 = ORIENTED_EDGE('',*,*,#373,.T.);
#1323 = FACE_BOUND('',#1324,.T.);
#1324 = EDGE_LOOP('',(#1325));
#1325 = ORIENTED_EDGE('',*,*,#1272,.T.);
#1326 = FACE_BOUND('',#1327,.T.);
#1327 = EDGE_LOOP('',(#1328));
#1328 = ORIENTED_EDGE('',*,*,#1329,.F.);
#1329 = EDGE_CURVE('',#1330,#1330,#1332,.T.);
#1330 = VERTEX_POINT('',#1331);
#1331 = CARTESIAN_POINT('',(-233.299838,111.813873,-37.5));
#1332 = CIRCLE('',#1333,3.875);
#1333 = AXIS2_PLACEMENT_3D('',#1334,#1335,#1336);
#1334 = CARTESIAN_POINT('',(-229.424838,111.813873,-37.5));
#1335 = DIRECTION('',(0.,1.,-0.));
#1336 = DIRECTION('',(-1.,0.,0.));
#1337 = FACE_BOUND('',#1338,.T.);
#1338 = EDGE_LOOP('',(#1339));
#1339 = ORIENTED_EDGE('',*,*,#1296,.T.);
#1340 = PLANE('',#1341);
#1341 = AXIS2_PLACEMENT_3D('',#1342,#1343,#1344);
#1342 = CARTESIAN_POINT('',(-232.4803450583,111.813873,-21.35053645528)
  );
#1343 = DIRECTION('',(0.,1.,0.));
#1344 = DIRECTION('',(0.,0.,1.));
#1345 = ADVANCED_FACE('',(#1346),#1351,.T.);
#1346 = FACE_BOUND('',#1347,.T.);
#1347 = EDGE_LOOP('',(#1348,#1349,#1350));
#1348 = ORIENTED_EDGE('',*,*,#381,.T.);
#1349 = ORIENTED_EDGE('',*,*,#1317,.F.);
#1350 = ORIENTED_EDGE('',*,*,#514,.F.);
#1351 = PLANE('',#1352);
#1352 = AXIS2_PLACEMENT_3D('',#1353,#1354,#1355);
#1353 = CARTESIAN_POINT('',(-248.924838,94.213873,5.));
#1354 = DIRECTION('',(0.,0.,1.));
#1355 = DIRECTION('',(1.,0.,0.));
#1356 = ADVANCED_FACE('',(#1357),#1360,.T.);
#1357 = FACE_BOUND('',#1358,.T.);
#1358 = EDGE_LOOP('',(#1359));
#1359 = ORIENTED_EDGE('',*,*,#430,.T.);
#1360 = PLANE('',#1361);
#1361 = AXIS2_PLACEMENT_3D('',#1362,#1363,#1364);
#1362 = CARTESIAN_POINT('',(-248.924838,94.213907,-15.));
#1363 = DIRECTION('',(0.,0.,1.));
#1364 = DIRECTION('',(1.,0.,0.));
#1365 = ADVANCED_FACE('',(#1366,#1369,#1372,#1375,#1378,#1381),#1384,.T.
  );
#1366 = FACE_BOUND('',#1367,.T.);
#1367 = EDGE_LOOP('',(#1368));
#1368 = ORIENTED_EDGE('',*,*,#455,.T.);
#1369 = FACE_BOUND('',#1370,.T.);
#1370 = EDGE_LOOP('',(#1371));
#1371 = ORIENTED_EDGE('',*,*,#634,.F.);
#1372 = FACE_BOUND('',#1373,.T.);
#1373 = EDGE_LOOP('',(#1374));
#1374 = ORIENTED_EDGE('',*,*,#709,.F.);
#1375 = FACE_BOUND('',#1376,.T.);
#1376 = EDGE_LOOP('',(#1377));
#1377 = ORIENTED_EDGE('',*,*,#684,.F.);
#1378 = FACE_BOUND('',#1379,.T.);
#1379 = EDGE_LOOP('',(#1380));
#1380 = ORIENTED_EDGE('',*,*,#659,.F.);
#1381 = FACE_BOUND('',#1382,.T.);
#1382 = EDGE_LOOP('',(#1383));
#1383 = ORIENTED_EDGE('',*,*,#734,.F.);
#1384 = PLANE('',#1385);
#1385 = AXIS2_PLACEMENT_3D('',#1386,#1387,#1388);
#1386 = CARTESIAN_POINT('',(-276.924838,94.213873,7.25));
#1387 = DIRECTION('',(0.,0.,1.));
#1388 = DIRECTION('',(1.,0.,0.));
#1389 = ADVANCED_FACE('',(#1390),#1393,.T.);
#1390 = FACE_BOUND('',#1391,.T.);
#1391 = EDGE_LOOP('',(#1392));
#1392 = ORIENTED_EDGE('',*,*,#480,.T.);
#1393 = PLANE('',#1394);
#1394 = AXIS2_PLACEMENT_3D('',#1395,#1396,#1397);
#1395 = CARTESIAN_POINT('',(-248.924838,94.213907,-15.));
#1396 = DIRECTION('',(0.,0.,1.));
#1397 = DIRECTION('',(1.,0.,0.));
#1398 = ADVANCED_FACE('',(#1399),#1415,.F.);
#1399 = FACE_BOUND('',#1400,.F.);
#1400 = EDGE_LOOP('',(#1401,#1402,#1408,#1409));
#1401 = ORIENTED_EDGE('',*,*,#1163,.F.);
#1402 = ORIENTED_EDGE('',*,*,#1403,.T.);
#1403 = EDGE_CURVE('',#1164,#525,#1404,.T.);
#1404 = LINE('',#1405,#1406);
#1405 = CARTESIAN_POINT('',(-210.924838,88.613873,-40.));
#1406 = VECTOR('',#1407,1.);
#1407 = DIRECTION('',(-1.,-0.,-0.));
#1408 = ORIENTED_EDGE('',*,*,#524,.T.);
#1409 = ORIENTED_EDGE('',*,*,#1410,.F.);
#1410 = EDGE_CURVE('',#1166,#527,#1411,.T.);
#1411 = LINE('',#1412,#1413);
#1412 = CARTESIAN_POINT('',(-210.924838,99.813873,-40.));
#1413 = VECTOR('',#1414,1.);
#1414 = DIRECTION('',(-1.,-0.,-0.));
#1415 = PLANE('',#1416);
#1416 = AXIS2_PLACEMENT_3D('',#1417,#1418,#1419);
#1417 = CARTESIAN_POINT('',(-210.924838,88.613873,-40.));
#1418 = DIRECTION('',(0.,0.,-1.));
#1419 = DIRECTION('',(0.,1.,0.));
#1420 = ADVANCED_FACE('',(#1421),#1432,.F.);
#1421 = FACE_BOUND('',#1422,.F.);
#1422 = EDGE_LOOP('',(#1423,#1424,#1425,#1426));
#1423 = ORIENTED_EDGE('',*,*,#1181,.F.);
#1424 = ORIENTED_EDGE('',*,*,#1410,.T.);
#1425 = ORIENTED_EDGE('',*,*,#542,.T.);
#1426 = ORIENTED_EDGE('',*,*,#1427,.F.);
#1427 = EDGE_CURVE('',#1174,#535,#1428,.T.);
#1428 = LINE('',#1429,#1430);
#1429 = CARTESIAN_POINT('',(-210.924838,94.213972932661,-31.37224698927)
  );
#1430 = VECTOR('',#1431,1.);
#1431 = DIRECTION('',(-1.,-0.,-0.));
#1432 = PLANE('',#1433);
#1433 = AXIS2_PLACEMENT_3D('',#1434,#1435,#1436);
#1434 = CARTESIAN_POINT('',(-210.924838,99.813873,-40.));
#1435 = DIRECTION('',(0.,0.838805021612,0.544431938555));
#1436 = DIRECTION('',(0.,-0.544431938555,0.838805021612));
#1437 = ADVANCED_FACE('',(#1438),#1444,.F.);
#1438 = FACE_BOUND('',#1439,.F.);
#1439 = EDGE_LOOP('',(#1440,#1441,#1442,#1443));
#1440 = ORIENTED_EDGE('',*,*,#1173,.F.);
#1441 = ORIENTED_EDGE('',*,*,#1427,.T.);
#1442 = ORIENTED_EDGE('',*,*,#534,.T.);
#1443 = ORIENTED_EDGE('',*,*,#1403,.F.);
#1444 = PLANE('',#1445);
#1445 = AXIS2_PLACEMENT_3D('',#1446,#1447,#1448);
#1446 = CARTESIAN_POINT('',(-210.924838,94.213972932661,-31.37224698927)
  );
#1447 = DIRECTION('',(0.,-0.838796147881,0.544445610048));
#1448 = DIRECTION('',(0.,-0.544445610048,-0.838796147881));
#1449 = ADVANCED_FACE('',(#1450,#1466),#1477,.F.);
#1450 = FACE_BOUND('',#1451,.F.);
#1451 = EDGE_LOOP('',(#1452,#1453,#1459,#1460));
#1452 = ORIENTED_EDGE('',*,*,#1215,.F.);
#1453 = ORIENTED_EDGE('',*,*,#1454,.T.);
#1454 = EDGE_CURVE('',#1216,#551,#1455,.T.);
#1455 = LINE('',#1456,#1457);
#1456 = CARTESIAN_POINT('',(-210.924838,82.613873,-34.));
#1457 = VECTOR('',#1458,1.);
#1458 = DIRECTION('',(-1.,-0.,-0.));
#1459 = ORIENTED_EDGE('',*,*,#550,.T.);
#1460 = ORIENTED_EDGE('',*,*,#1461,.F.);
#1461 = EDGE_CURVE('',#1218,#553,#1462,.T.);
#1462 = LINE('',#1463,#1464);
#1463 = CARTESIAN_POINT('',(-210.924838,89.267724157527,-23.74842699567)
  );
#1464 = VECTOR('',#1465,1.);
#1465 = DIRECTION('',(-1.,-0.,-0.));
#1466 = FACE_BOUND('',#1467,.F.);
#1467 = EDGE_LOOP('',(#1468));
#1468 = ORIENTED_EDGE('',*,*,#1469,.F.);
#1469 = EDGE_CURVE('',#1470,#1470,#1472,.T.);
#1470 = VERTEX_POINT('',#1471);
#1471 = CARTESIAN_POINT('',(-244.524838,85.413873,-29.68604651162));
#1472 = ELLIPSE('',#1473,2.5714876385,1.4);
#1473 = AXIS2_PLACEMENT_3D('',#1474,#1475,#1476);
#1474 = CARTESIAN_POINT('',(-245.924838,85.413873,-29.68604651162));
#1475 = DIRECTION('',(0.,0.838805021612,-0.544431938555));
#1476 = DIRECTION('',(0.,-0.544431938555,-0.838805021612));
#1477 = PLANE('',#1478);
#1478 = AXIS2_PLACEMENT_3D('',#1479,#1480,#1481);
#1479 = CARTESIAN_POINT('',(-210.924838,82.613873,-34.));
#1480 = DIRECTION('',(0.,0.838805021612,-0.544431938555));
#1481 = DIRECTION('',(0.,0.544431938555,0.838805021612));
#1482 = ADVANCED_FACE('',(#1483),#1494,.F.);
#1483 = FACE_BOUND('',#1484,.F.);
#1484 = EDGE_LOOP('',(#1485,#1486,#1487,#1488));
#1485 = ORIENTED_EDGE('',*,*,#1233,.F.);
#1486 = ORIENTED_EDGE('',*,*,#1461,.T.);
#1487 = ORIENTED_EDGE('',*,*,#568,.T.);
#1488 = ORIENTED_EDGE('',*,*,#1489,.F.);
#1489 = EDGE_CURVE('',#1226,#561,#1490,.T.);
#1490 = LINE('',#1491,#1492);
#1491 = CARTESIAN_POINT('',(-210.924838,82.613873,-13.5));
#1492 = VECTOR('',#1493,1.);
#1493 = DIRECTION('',(-1.,-0.,-0.));
#1494 = PLANE('',#1495);
#1495 = AXIS2_PLACEMENT_3D('',#1496,#1497,#1498);
#1496 = CARTESIAN_POINT('',(-210.924838,89.267724157527,-23.74842699567)
  );
#1497 = DIRECTION('',(0.,0.83872869811,0.544549511952));
#1498 = DIRECTION('',(0.,-0.544549511952,0.83872869811));
#1499 = ADVANCED_FACE('',(#1500),#1506,.T.);
#1500 = FACE_BOUND('',#1501,.T.);
#1501 = EDGE_LOOP('',(#1502,#1503,#1504,#1505));
#1502 = ORIENTED_EDGE('',*,*,#1225,.F.);
#1503 = ORIENTED_EDGE('',*,*,#1454,.T.);
#1504 = ORIENTED_EDGE('',*,*,#560,.T.);
#1505 = ORIENTED_EDGE('',*,*,#1489,.F.);
#1506 = PLANE('',#1507);
#1507 = AXIS2_PLACEMENT_3D('',#1508,#1509,#1510);
#1508 = CARTESIAN_POINT('',(-210.924838,82.613873,-34.));
#1509 = DIRECTION('',(0.,1.,0.));
#1510 = DIRECTION('',(0.,0.,1.));
#1511 = ADVANCED_FACE('',(#1512),#1528,.F.);
#1512 = FACE_BOUND('',#1513,.F.);
#1513 = EDGE_LOOP('',(#1514,#1515,#1521,#1522));
#1514 = ORIENTED_EDGE('',*,*,#1189,.F.);
#1515 = ORIENTED_EDGE('',*,*,#1516,.T.);
#1516 = EDGE_CURVE('',#1190,#577,#1517,.T.);
#1517 = LINE('',#1518,#1519);
#1518 = CARTESIAN_POINT('',(-210.924838,88.613873,-7.5));
#1519 = VECTOR('',#1520,1.);
#1520 = DIRECTION('',(-1.,-0.,-0.));
#1521 = ORIENTED_EDGE('',*,*,#576,.T.);
#1522 = ORIENTED_EDGE('',*,*,#1523,.F.);
#1523 = EDGE_CURVE('',#1192,#579,#1524,.T.);
#1524 = LINE('',#1525,#1526);
#1525 = CARTESIAN_POINT('',(-210.924838,94.214369764744,-16.12867234103)
  );
#1526 = VECTOR('',#1527,1.);
#1527 = DIRECTION('',(-1.,-0.,-0.));
#1528 = PLANE('',#1529);
#1529 = AXIS2_PLACEMENT_3D('',#1530,#1531,#1532);
#1530 = CARTESIAN_POINT('',(-210.924838,88.613873,-7.5));
#1531 = DIRECTION('',(0.,-0.838805021612,-0.544431938555));
#1532 = DIRECTION('',(0.,0.544431938555,-0.838805021612));
#1533 = ADVANCED_FACE('',(#1534),#1545,.F.);
#1534 = FACE_BOUND('',#1535,.F.);
#1535 = EDGE_LOOP('',(#1536,#1537,#1538,#1539));
#1536 = ORIENTED_EDGE('',*,*,#1207,.F.);
#1537 = ORIENTED_EDGE('',*,*,#1523,.T.);
#1538 = ORIENTED_EDGE('',*,*,#594,.T.);
#1539 = ORIENTED_EDGE('',*,*,#1540,.F.);
#1540 = EDGE_CURVE('',#1200,#587,#1541,.T.);
#1541 = LINE('',#1542,#1543);
#1542 = CARTESIAN_POINT('',(-210.924838,99.813873,-7.5));
#1543 = VECTOR('',#1544,1.);
#1544 = DIRECTION('',(-1.,-0.,-0.));
#1545 = PLANE('',#1546);
#1546 = AXIS2_PLACEMENT_3D('',#1547,#1548,#1549);
#1547 = CARTESIAN_POINT('',(-210.924838,94.214369764744,-16.12867234103)
  );
#1548 = DIRECTION('',(0.,0.83884912766,-0.544363978441));
#1549 = DIRECTION('',(0.,0.544363978441,0.83884912766));
#1550 = ADVANCED_FACE('',(#1551),#1557,.T.);
#1551 = FACE_BOUND('',#1552,.T.);
#1552 = EDGE_LOOP('',(#1553,#1554,#1555,#1556));
#1553 = ORIENTED_EDGE('',*,*,#1199,.F.);
#1554 = ORIENTED_EDGE('',*,*,#1516,.T.);
#1555 = ORIENTED_EDGE('',*,*,#586,.T.);
#1556 = ORIENTED_EDGE('',*,*,#1540,.F.);
#1557 = PLANE('',#1558);
#1558 = AXIS2_PLACEMENT_3D('',#1559,#1560,#1561);
#1559 = CARTESIAN_POINT('',(-210.924838,88.613873,-7.5));
#1560 = DIRECTION('',(0.,0.,-1.));
#1561 = DIRECTION('',(0.,1.,0.));
#1562 = ADVANCED_FACE('',(#1563,#1597),#1608,.T.);
#1563 = FACE_BOUND('',#1564,.T.);
#1564 = EDGE_LOOP('',(#1565,#1571,#1572,#1578,#1579,#1580,#1581,#1587,
    #1588,#1594,#1595,#1596));
#1565 = ORIENTED_EDGE('',*,*,#1566,.T.);
#1566 = EDGE_CURVE('',#1148,#605,#1567,.T.);
#1567 = LINE('',#1568,#1569);
#1568 = CARTESIAN_POINT('',(-210.924838,105.813873,-13.5));
#1569 = VECTOR('',#1570,1.);
#1570 = DIRECTION('',(-1.,-0.,-0.));
#1571 = ORIENTED_EDGE('',*,*,#602,.F.);
#1572 = ORIENTED_EDGE('',*,*,#1573,.F.);
#1573 = EDGE_CURVE('',#1132,#603,#1574,.T.);
#1574 = LINE('',#1575,#1576);
#1575 = CARTESIAN_POINT('',(-210.924838,105.813873,-34.));
#1576 = VECTOR('',#1577,1.);
#1577 = DIRECTION('',(-1.,-0.,-0.));
#1578 = ORIENTED_EDGE('',*,*,#1131,.F.);
#1579 = ORIENTED_EDGE('',*,*,#929,.T.);
#1580 = ORIENTED_EDGE('',*,*,#1013,.T.);
#1581 = ORIENTED_EDGE('',*,*,#1582,.F.);
#1582 = EDGE_CURVE('',#802,#1014,#1583,.T.);
#1583 = LINE('',#1584,#1585);
#1584 = CARTESIAN_POINT('',(-210.924838,105.813873,-34.));
#1585 = VECTOR('',#1586,1.);
#1586 = DIRECTION('',(-1.,-0.,-0.));
#1587 = ORIENTED_EDGE('',*,*,#801,.T.);
#1588 = ORIENTED_EDGE('',*,*,#1589,.T.);
#1589 = EDGE_CURVE('',#804,#996,#1590,.T.);
#1590 = LINE('',#1591,#1592);
#1591 = CARTESIAN_POINT('',(-210.924838,105.813873,-13.5));
#1592 = VECTOR('',#1593,1.);
#1593 = DIRECTION('',(-1.,-0.,-0.));
#1594 = ORIENTED_EDGE('',*,*,#995,.T.);
#1595 = ORIENTED_EDGE('',*,*,#1247,.F.);
#1596 = ORIENTED_EDGE('',*,*,#1155,.F.);
#1597 = FACE_BOUND('',#1598,.T.);
#1598 = EDGE_LOOP('',(#1599));
#1599 = ORIENTED_EDGE('',*,*,#1600,.T.);
#1600 = EDGE_CURVE('',#1601,#1601,#1603,.T.);
#1601 = VERTEX_POINT('',#1602);
#1602 = CARTESIAN_POINT('',(-230.424838,105.813873,-37.5));
#1603 = CIRCLE('',#1604,1.);
#1604 = AXIS2_PLACEMENT_3D('',#1605,#1606,#1607);
#1605 = CARTESIAN_POINT('',(-229.424838,105.813873,-37.5));
#1606 = DIRECTION('',(0.,1.,-2.2E-16));
#1607 = DIRECTION('',(-1.,0.,0.));
#1608 = PLANE('',#1609);
#1609 = AXIS2_PLACEMENT_3D('',#1610,#1611,#1612);
#1610 = CARTESIAN_POINT('',(-230.9157470909,105.813873,-26.40151515151)
  );
#1611 = DIRECTION('',(-0.,-1.,-0.));
#1612 = DIRECTION('',(0.,0.,-1.));
#1613 = ADVANCED_FACE('',(#1614),#1625,.T.);
#1614 = FACE_BOUND('',#1615,.T.);
#1615 = EDGE_LOOP('',(#1616,#1617,#1623,#1624));
#1616 = ORIENTED_EDGE('',*,*,#1147,.F.);
#1617 = ORIENTED_EDGE('',*,*,#1618,.T.);
#1618 = EDGE_CURVE('',#1140,#613,#1619,.T.);
#1619 = LINE('',#1620,#1621);
#1620 = CARTESIAN_POINT('',(-210.924838,99.161162427385,-23.75018429219)
  );
#1621 = VECTOR('',#1622,1.);
#1622 = DIRECTION('',(-1.,-0.,-0.));
#1623 = ORIENTED_EDGE('',*,*,#620,.T.);
#1624 = ORIENTED_EDGE('',*,*,#1566,.F.);
#1625 = PLANE('',#1626);
#1626 = AXIS2_PLACEMENT_3D('',#1627,#1628,#1629);
#1627 = CARTESIAN_POINT('',(-210.924838,99.161162427385,-23.75018429219)
  );
#1628 = DIRECTION('',(0.,0.838813961922,-0.544418163992));
#1629 = DIRECTION('',(0.,0.544418163992,0.838813961922));
#1630 = ADVANCED_FACE('',(#1631,#1637),#1648,.T.);
#1631 = FACE_BOUND('',#1632,.T.);
#1632 = EDGE_LOOP('',(#1633,#1634,#1635,#1636));
#1633 = ORIENTED_EDGE('',*,*,#1139,.F.);
#1634 = ORIENTED_EDGE('',*,*,#1573,.T.);
#1635 = ORIENTED_EDGE('',*,*,#612,.T.);
#1636 = ORIENTED_EDGE('',*,*,#1618,.F.);
#1637 = FACE_BOUND('',#1638,.T.);
#1638 = EDGE_LOOP('',(#1639));
#1639 = ORIENTED_EDGE('',*,*,#1640,.F.);
#1640 = EDGE_CURVE('',#1641,#1641,#1643,.T.);
#1641 = VERTEX_POINT('',#1642);
#1642 = CARTESIAN_POINT('',(-244.524838,103.013873,-29.68604651162));
#1643 = ELLIPSE('',#1644,2.5714876385,1.4);
#1644 = AXIS2_PLACEMENT_3D('',#1645,#1646,#1647);
#1645 = CARTESIAN_POINT('',(-245.924838,103.013873,-29.68604651162));
#1646 = DIRECTION('',(0.,0.838805021612,0.544431938555));
#1647 = DIRECTION('',(0.,0.544431938555,-0.838805021612));
#1648 = PLANE('',#1649);
#1649 = AXIS2_PLACEMENT_3D('',#1650,#1651,#1652);
#1650 = CARTESIAN_POINT('',(-210.924838,105.813873,-34.));
#1651 = DIRECTION('',(0.,0.838805021612,0.544431938555));
#1652 = DIRECTION('',(0.,-0.544431938555,0.838805021612));
#1653 = ADVANCED_FACE('',(#1654),#1665,.T.);
#1654 = FACE_BOUND('',#1655,.T.);
#1655 = EDGE_LOOP('',(#1656,#1657,#1663,#1664));
#1656 = ORIENTED_EDGE('',*,*,#819,.F.);
#1657 = ORIENTED_EDGE('',*,*,#1658,.T.);
#1658 = EDGE_CURVE('',#812,#1022,#1659,.T.);
#1659 = LINE('',#1660,#1661);
#1660 = CARTESIAN_POINT('',(-210.924838,99.161162427385,-23.75018429219)
  );
#1661 = VECTOR('',#1662,1.);
#1662 = DIRECTION('',(-1.,-0.,-0.));
#1663 = ORIENTED_EDGE('',*,*,#1029,.T.);
#1664 = ORIENTED_EDGE('',*,*,#1589,.F.);
#1665 = PLANE('',#1666);
#1666 = AXIS2_PLACEMENT_3D('',#1667,#1668,#1669);
#1667 = CARTESIAN_POINT('',(-210.924838,99.161162427385,-23.75018429219)
  );
#1668 = DIRECTION('',(0.,0.838813961922,-0.544418163992));
#1669 = DIRECTION('',(0.,0.544418163992,0.838813961922));
#1670 = ADVANCED_FACE('',(#1671,#1677),#1688,.T.);
#1671 = FACE_BOUND('',#1672,.T.);
#1672 = EDGE_LOOP('',(#1673,#1674,#1675,#1676));
#1673 = ORIENTED_EDGE('',*,*,#811,.F.);
#1674 = ORIENTED_EDGE('',*,*,#1582,.T.);
#1675 = ORIENTED_EDGE('',*,*,#1021,.T.);
#1676 = ORIENTED_EDGE('',*,*,#1658,.F.);
#1677 = FACE_BOUND('',#1678,.T.);
#1678 = EDGE_LOOP('',(#1679));
#1679 = ORIENTED_EDGE('',*,*,#1680,.F.);
#1680 = EDGE_CURVE('',#1681,#1681,#1683,.T.);
#1681 = VERTEX_POINT('',#1682);
#1682 = CARTESIAN_POINT('',(-213.524838,103.0150295,-29.68782832848));
#1683 = ELLIPSE('',#1684,2.5714876385,1.4);
#1684 = AXIS2_PLACEMENT_3D('',#1685,#1686,#1687);
#1685 = CARTESIAN_POINT('',(-214.924838,103.0150295,-29.68782832848));
#1686 = DIRECTION('',(0.,0.838805021612,0.544431938555));
#1687 = DIRECTION('',(0.,0.544431938555,-0.838805021612));
#1688 = PLANE('',#1689);
#1689 = AXIS2_PLACEMENT_3D('',#1690,#1691,#1692);
#1690 = CARTESIAN_POINT('',(-210.924838,105.813873,-34.));
#1691 = DIRECTION('',(0.,0.838805021612,0.544431938555));
#1692 = DIRECTION('',(0.,-0.544431938555,0.838805021612));
#1693 = ADVANCED_FACE('',(#1694),#1710,.F.);
#1694 = FACE_BOUND('',#1695,.F.);
#1695 = EDGE_LOOP('',(#1696,#1697,#1703,#1704));
#1696 = ORIENTED_EDGE('',*,*,#827,.F.);
#1697 = ORIENTED_EDGE('',*,*,#1698,.T.);
#1698 = EDGE_CURVE('',#828,#1038,#1699,.T.);
#1699 = LINE('',#1700,#1701);
#1700 = CARTESIAN_POINT('',(-210.924838,88.613873,-40.));
#1701 = VECTOR('',#1702,1.);
#1702 = DIRECTION('',(-1.,-0.,-0.));
#1703 = ORIENTED_EDGE('',*,*,#1037,.T.);
#1704 = ORIENTED_EDGE('',*,*,#1705,.F.);
#1705 = EDGE_CURVE('',#830,#1040,#1706,.T.);
#1706 = LINE('',#1707,#1708);
#1707 = CARTESIAN_POINT('',(-210.924838,99.813873,-40.));
#1708 = VECTOR('',#1709,1.);
#1709 = DIRECTION('',(-1.,-0.,-0.));
#1710 = PLANE('',#1711);
#1711 = AXIS2_PLACEMENT_3D('',#1712,#1713,#1714);
#1712 = CARTESIAN_POINT('',(-210.924838,88.613873,-40.));
#1713 = DIRECTION('',(0.,0.,-1.));
#1714 = DIRECTION('',(0.,1.,0.));
#1715 = ADVANCED_FACE('',(#1716),#1727,.F.);
#1716 = FACE_BOUND('',#1717,.F.);
#1717 = EDGE_LOOP('',(#1718,#1719,#1720,#1721));
#1718 = ORIENTED_EDGE('',*,*,#845,.F.);
#1719 = ORIENTED_EDGE('',*,*,#1705,.T.);
#1720 = ORIENTED_EDGE('',*,*,#1055,.T.);
#1721 = ORIENTED_EDGE('',*,*,#1722,.F.);
#1722 = EDGE_CURVE('',#838,#1048,#1723,.T.);
#1723 = LINE('',#1724,#1725);
#1724 = CARTESIAN_POINT('',(-210.924838,94.213972932661,-31.37224698927)
  );
#1725 = VECTOR('',#1726,1.);
#1726 = DIRECTION('',(-1.,-0.,-0.));
#1727 = PLANE('',#1728);
#1728 = AXIS2_PLACEMENT_3D('',#1729,#1730,#1731);
#1729 = CARTESIAN_POINT('',(-210.924838,99.813873,-40.));
#1730 = DIRECTION('',(0.,0.838805021612,0.544431938555));
#1731 = DIRECTION('',(0.,-0.544431938555,0.838805021612));
#1732 = ADVANCED_FACE('',(#1733),#1739,.F.);
#1733 = FACE_BOUND('',#1734,.F.);
#1734 = EDGE_LOOP('',(#1735,#1736,#1737,#1738));
#1735 = ORIENTED_EDGE('',*,*,#837,.F.);
#1736 = ORIENTED_EDGE('',*,*,#1722,.T.);
#1737 = ORIENTED_EDGE('',*,*,#1047,.T.);
#1738 = ORIENTED_EDGE('',*,*,#1698,.F.);
#1739 = PLANE('',#1740);
#1740 = AXIS2_PLACEMENT_3D('',#1741,#1742,#1743);
#1741 = CARTESIAN_POINT('',(-210.924838,94.213972932661,-31.37224698927)
  );
#1742 = DIRECTION('',(0.,-0.838796147881,0.544445610048));
#1743 = DIRECTION('',(0.,-0.544445610048,-0.838796147881));
#1744 = ADVANCED_FACE('',(#1745),#1761,.F.);
#1745 = FACE_BOUND('',#1746,.F.);
#1746 = EDGE_LOOP('',(#1747,#1748,#1754,#1755));
#1747 = ORIENTED_EDGE('',*,*,#853,.F.);
#1748 = ORIENTED_EDGE('',*,*,#1749,.T.);
#1749 = EDGE_CURVE('',#854,#1064,#1750,.T.);
#1750 = LINE('',#1751,#1752);
#1751 = CARTESIAN_POINT('',(-210.924838,88.613873,-7.5));
#1752 = VECTOR('',#1753,1.);
#1753 = DIRECTION('',(-1.,-0.,-0.));
#1754 = ORIENTED_EDGE('',*,*,#1063,.T.);
#1755 = ORIENTED_EDGE('',*,*,#1756,.F.);
#1756 = EDGE_CURVE('',#856,#1066,#1757,.T.);
#1757 = LINE('',#1758,#1759);
#1758 = CARTESIAN_POINT('',(-210.924838,94.214369764744,-16.12867234103)
  );
#1759 = VECTOR('',#1760,1.);
#1760 = DIRECTION('',(-1.,-0.,-0.));
#1761 = PLANE('',#1762);
#1762 = AXIS2_PLACEMENT_3D('',#1763,#1764,#1765);
#1763 = CARTESIAN_POINT('',(-210.924838,88.613873,-7.5));
#1764 = DIRECTION('',(0.,-0.838805021612,-0.544431938555));
#1765 = DIRECTION('',(0.,0.544431938555,-0.838805021612));
#1766 = ADVANCED_FACE('',(#1767),#1778,.F.);
#1767 = FACE_BOUND('',#1768,.F.);
#1768 = EDGE_LOOP('',(#1769,#1770,#1771,#1772));
#1769 = ORIENTED_EDGE('',*,*,#871,.F.);
#1770 = ORIENTED_EDGE('',*,*,#1756,.T.);
#1771 = ORIENTED_EDGE('',*,*,#1081,.T.);
#1772 = ORIENTED_EDGE('',*,*,#1773,.F.);
#1773 = EDGE_CURVE('',#864,#1074,#1774,.T.);
#1774 = LINE('',#1775,#1776);
#1775 = CARTESIAN_POINT('',(-210.924838,99.813873,-7.5));
#1776 = VECTOR('',#1777,1.);
#1777 = DIRECTION('',(-1.,-0.,-0.));
#1778 = PLANE('',#1779);
#1779 = AXIS2_PLACEMENT_3D('',#1780,#1781,#1782);
#1780 = CARTESIAN_POINT('',(-210.924838,94.214369764744,-16.12867234103)
  );
#1781 = DIRECTION('',(0.,0.83884912766,-0.544363978441));
#1782 = DIRECTION('',(0.,0.544363978441,0.83884912766));
#1783 = ADVANCED_FACE('',(#1784),#1790,.T.);
#1784 = FACE_BOUND('',#1785,.T.);
#1785 = EDGE_LOOP('',(#1786,#1787,#1788,#1789));
#1786 = ORIENTED_EDGE('',*,*,#863,.F.);
#1787 = ORIENTED_EDGE('',*,*,#1749,.T.);
#1788 = ORIENTED_EDGE('',*,*,#1073,.T.);
#1789 = ORIENTED_EDGE('',*,*,#1773,.F.);
#1790 = PLANE('',#1791);
#1791 = AXIS2_PLACEMENT_3D('',#1792,#1793,#1794);
#1792 = CARTESIAN_POINT('',(-210.924838,88.613873,-7.5));
#1793 = DIRECTION('',(0.,0.,-1.));
#1794 = DIRECTION('',(0.,1.,0.));
#1795 = ADVANCED_FACE('',(#1796,#1812),#1823,.F.);
#1796 = FACE_BOUND('',#1797,.F.);
#1797 = EDGE_LOOP('',(#1798,#1799,#1805,#1806));
#1798 = ORIENTED_EDGE('',*,*,#879,.F.);
#1799 = ORIENTED_EDGE('',*,*,#1800,.T.);
#1800 = EDGE_CURVE('',#880,#1090,#1801,.T.);
#1801 = LINE('',#1802,#1803);
#1802 = CARTESIAN_POINT('',(-210.924838,82.613873,-34.));
#1803 = VECTOR('',#1804,1.);
#1804 = DIRECTION('',(-1.,-0.,-0.));
#1805 = ORIENTED_EDGE('',*,*,#1089,.T.);
#1806 = ORIENTED_EDGE('',*,*,#1807,.F.);
#1807 = EDGE_CURVE('',#882,#1092,#1808,.T.);
#1808 = LINE('',#1809,#1810);
#1809 = CARTESIAN_POINT('',(-210.924838,89.267724157527,-23.74842699567)
  );
#1810 = VECTOR('',#1811,1.);
#1811 = DIRECTION('',(-1.,-0.,-0.));
#1812 = FACE_BOUND('',#1813,.F.);
#1813 = EDGE_LOOP('',(#1814));
#1814 = ORIENTED_EDGE('',*,*,#1815,.F.);
#1815 = EDGE_CURVE('',#1816,#1816,#1818,.T.);
#1816 = VERTEX_POINT('',#1817);
#1817 = CARTESIAN_POINT('',(-213.524838,85.413873,-29.68604651162));
#1818 = ELLIPSE('',#1819,2.5714876385,1.4);
#1819 = AXIS2_PLACEMENT_3D('',#1820,#1821,#1822);
#1820 = CARTESIAN_POINT('',(-214.924838,85.413873,-29.68604651162));
#1821 = DIRECTION('',(0.,0.838805021612,-0.544431938555));
#1822 = DIRECTION('',(0.,-0.544431938555,-0.838805021612));
#1823 = PLANE('',#1824);
#1824 = AXIS2_PLACEMENT_3D('',#1825,#1826,#1827);
#1825 = CARTESIAN_POINT('',(-210.924838,82.613873,-34.));
#1826 = DIRECTION('',(0.,0.838805021612,-0.544431938555));
#1827 = DIRECTION('',(0.,0.544431938555,0.838805021612));
#1828 = ADVANCED_FACE('',(#1829),#1840,.F.);
#1829 = FACE_BOUND('',#1830,.F.);
#1830 = EDGE_LOOP('',(#1831,#1832,#1833,#1834));
#1831 = ORIENTED_EDGE('',*,*,#897,.F.);
#1832 = ORIENTED_EDGE('',*,*,#1807,.T.);
#1833 = ORIENTED_EDGE('',*,*,#1107,.T.);
#1834 = ORIENTED_EDGE('',*,*,#1835,.F.);
#1835 = EDGE_CURVE('',#890,#1100,#1836,.T.);
#1836 = LINE('',#1837,#1838);
#1837 = CARTESIAN_POINT('',(-210.924838,82.613873,-13.5));
#1838 = VECTOR('',#1839,1.);
#1839 = DIRECTION('',(-1.,-0.,-0.));
#1840 = PLANE('',#1841);
#1841 = AXIS2_PLACEMENT_3D('',#1842,#1843,#1844);
#1842 = CARTESIAN_POINT('',(-210.924838,89.267724157527,-23.74842699567)
  );
#1843 = DIRECTION('',(0.,0.83872869811,0.544549511952));
#1844 = DIRECTION('',(0.,-0.544549511952,0.83872869811));
#1845 = ADVANCED_FACE('',(#1846),#1852,.T.);
#1846 = FACE_BOUND('',#1847,.T.);
#1847 = EDGE_LOOP('',(#1848,#1849,#1850,#1851));
#1848 = ORIENTED_EDGE('',*,*,#889,.F.);
#1849 = ORIENTED_EDGE('',*,*,#1800,.T.);
#1850 = ORIENTED_EDGE('',*,*,#1099,.T.);
#1851 = ORIENTED_EDGE('',*,*,#1835,.F.);
#1852 = PLANE('',#1853);
#1853 = AXIS2_PLACEMENT_3D('',#1854,#1855,#1856);
#1854 = CARTESIAN_POINT('',(-210.924838,82.613873,-34.));
#1855 = DIRECTION('',(0.,1.,0.));
#1856 = DIRECTION('',(0.,0.,1.));
#1857 = ADVANCED_FACE('',(#1858),#1869,.F.);
#1858 = FACE_BOUND('',#1859,.F.);
#1859 = EDGE_LOOP('',(#1860,#1861,#1867,#1868));
#1860 = ORIENTED_EDGE('',*,*,#945,.F.);
#1861 = ORIENTED_EDGE('',*,*,#1862,.T.);
#1862 = EDGE_CURVE('',#946,#1816,#1863,.T.);
#1863 = LINE('',#1864,#1865);
#1864 = CARTESIAN_POINT('',(-213.524838,85.413873,-48.));
#1865 = VECTOR('',#1866,1.);
#1866 = DIRECTION('',(0.,0.,1.));
#1867 = ORIENTED_EDGE('',*,*,#1815,.T.);
#1868 = ORIENTED_EDGE('',*,*,#1862,.F.);
#1869 = CYLINDRICAL_SURFACE('',#1870,1.4);
#1870 = AXIS2_PLACEMENT_3D('',#1871,#1872,#1873);
#1871 = CARTESIAN_POINT('',(-214.924838,85.413873,-48.));
#1872 = DIRECTION('',(0.,0.,-1.));
#1873 = DIRECTION('',(1.,0.,0.));
#1874 = ADVANCED_FACE('',(#1875),#1886,.F.);
#1875 = FACE_BOUND('',#1876,.F.);
#1876 = EDGE_LOOP('',(#1877,#1878,#1884,#1885));
#1877 = ORIENTED_EDGE('',*,*,#956,.F.);
#1878 = ORIENTED_EDGE('',*,*,#1879,.T.);
#1879 = EDGE_CURVE('',#957,#1470,#1880,.T.);
#1880 = LINE('',#1881,#1882);
#1881 = CARTESIAN_POINT('',(-244.524838,85.413873,-48.));
#1882 = VECTOR('',#1883,1.);
#1883 = DIRECTION('',(0.,0.,1.));
#1884 = ORIENTED_EDGE('',*,*,#1469,.T.);
#1885 = ORIENTED_EDGE('',*,*,#1879,.F.);
#1886 = CYLINDRICAL_SURFACE('',#1887,1.4);
#1887 = AXIS2_PLACEMENT_3D('',#1888,#1889,#1890);
#1888 = CARTESIAN_POINT('',(-245.924838,85.413873,-48.));
#1889 = DIRECTION('',(0.,0.,-1.));
#1890 = DIRECTION('',(1.,0.,0.));
#1891 = ADVANCED_FACE('',(#1892),#1903,.F.);
#1892 = FACE_BOUND('',#1893,.F.);
#1893 = EDGE_LOOP('',(#1894,#1895,#1901,#1902));
#1894 = ORIENTED_EDGE('',*,*,#967,.F.);
#1895 = ORIENTED_EDGE('',*,*,#1896,.T.);
#1896 = EDGE_CURVE('',#968,#1681,#1897,.T.);
#1897 = LINE('',#1898,#1899);
#1898 = CARTESIAN_POINT('',(-213.524838,103.0150295,-48.));
#1899 = VECTOR('',#1900,1.);
#1900 = DIRECTION('',(0.,0.,1.));
#1901 = ORIENTED_EDGE('',*,*,#1680,.F.);
#1902 = ORIENTED_EDGE('',*,*,#1896,.F.);
#1903 = CYLINDRICAL_SURFACE('',#1904,1.4);
#1904 = AXIS2_PLACEMENT_3D('',#1905,#1906,#1907);
#1905 = CARTESIAN_POINT('',(-214.924838,103.0150295,-48.));
#1906 = DIRECTION('',(0.,0.,-1.));
#1907 = DIRECTION('',(1.,0.,0.));
#1908 = ADVANCED_FACE('',(#1909),#1920,.F.);
#1909 = FACE_BOUND('',#1910,.F.);
#1910 = EDGE_LOOP('',(#1911,#1912,#1918,#1919));
#1911 = ORIENTED_EDGE('',*,*,#978,.F.);
#1912 = ORIENTED_EDGE('',*,*,#1913,.T.);
#1913 = EDGE_CURVE('',#979,#1641,#1914,.T.);
#1914 = LINE('',#1915,#1916);
#1915 = CARTESIAN_POINT('',(-244.524838,103.013873,-48.));
#1916 = VECTOR('',#1917,1.);
#1917 = DIRECTION('',(0.,0.,1.));
#1918 = ORIENTED_EDGE('',*,*,#1640,.F.);
#1919 = ORIENTED_EDGE('',*,*,#1913,.F.);
#1920 = CYLINDRICAL_SURFACE('',#1921,1.4);
#1921 = AXIS2_PLACEMENT_3D('',#1922,#1923,#1924);
#1922 = CARTESIAN_POINT('',(-245.924838,103.013873,-48.));
#1923 = DIRECTION('',(0.,0.,-1.));
#1924 = DIRECTION('',(1.,0.,0.));
#1925 = ADVANCED_FACE('',(#1926),#1945,.T.);
#1926 = FACE_BOUND('',#1927,.F.);
#1927 = EDGE_LOOP('',(#1928,#1936,#1943,#1944));
#1928 = ORIENTED_EDGE('',*,*,#1929,.T.);
#1929 = EDGE_CURVE('',#1330,#1930,#1932,.T.);
#1930 = VERTEX_POINT('',#1931);
#1931 = CARTESIAN_POINT('',(-233.299838,113.563873,-37.5));
#1932 = LINE('',#1933,#1934);
#1933 = CARTESIAN_POINT('',(-233.299838,111.813873,-37.5));
#1934 = VECTOR('',#1935,1.);
#1935 = DIRECTION('',(0.,1.,-2.2E-16));
#1936 = ORIENTED_EDGE('',*,*,#1937,.T.);
#1937 = EDGE_CURVE('',#1930,#1930,#1938,.T.);
#1938 = CIRCLE('',#1939,3.875);
#1939 = AXIS2_PLACEMENT_3D('',#1940,#1941,#1942);
#1940 = CARTESIAN_POINT('',(-229.424838,113.563873,-37.5));
#1941 = DIRECTION('',(0.,1.,-0.));
#1942 = DIRECTION('',(-1.,0.,0.));
#1943 = ORIENTED_EDGE('',*,*,#1929,.F.);
#1944 = ORIENTED_EDGE('',*,*,#1329,.F.);
#1945 = CYLINDRICAL_SURFACE('',#1946,3.875);
#1946 = AXIS2_PLACEMENT_3D('',#1947,#1948,#1949);
#1947 = CARTESIAN_POINT('',(-229.424838,111.813873,-37.5));
#1948 = DIRECTION('',(0.,-1.,2.2E-16));
#1949 = DIRECTION('',(-1.,0.,0.));
#1950 = ADVANCED_FACE('',(#1951,#1954),#1965,.T.);
#1951 = FACE_BOUND('',#1952,.T.);
#1952 = EDGE_LOOP('',(#1953));
#1953 = ORIENTED_EDGE('',*,*,#1937,.T.);
#1954 = FACE_BOUND('',#1955,.T.);
#1955 = EDGE_LOOP('',(#1956));
#1956 = ORIENTED_EDGE('',*,*,#1957,.F.);
#1957 = EDGE_CURVE('',#1958,#1958,#1960,.T.);
#1958 = VERTEX_POINT('',#1959);
#1959 = CARTESIAN_POINT('',(-232.149838,113.563873,-37.5));
#1960 = CIRCLE('',#1961,2.725);
#1961 = AXIS2_PLACEMENT_3D('',#1962,#1963,#1964);
#1962 = CARTESIAN_POINT('',(-229.424838,113.563873,-37.5));
#1963 = DIRECTION('',(0.,1.,-2.2E-16));
#1964 = DIRECTION('',(-1.,0.,0.));
#1965 = PLANE('',#1966);
#1966 = AXIS2_PLACEMENT_3D('',#1967,#1968,#1969);
#1967 = CARTESIAN_POINT('',(-229.424838,113.563873,-37.5));
#1968 = DIRECTION('',(0.,1.,0.));
#1969 = DIRECTION('',(0.,0.,1.));
#1970 = ADVANCED_FACE('',(#1971),#1990,.T.);
#1971 = FACE_BOUND('',#1972,.T.);
#1972 = EDGE_LOOP('',(#1973,#1982,#1988,#1989));
#1973 = ORIENTED_EDGE('',*,*,#1974,.F.);
#1974 = EDGE_CURVE('',#1975,#1975,#1977,.T.);
#1975 = VERTEX_POINT('',#1976);
#1976 = CARTESIAN_POINT('',(-232.149838,119.163873,-37.5));
#1977 = CIRCLE('',#1978,2.725);
#1978 = AXIS2_PLACEMENT_3D('',#1979,#1980,#1981);
#1979 = CARTESIAN_POINT('',(-229.424838,119.163873,-37.5));
#1980 = DIRECTION('',(0.,1.,-0.));
#1981 = DIRECTION('',(-1.,0.,0.));
#1982 = ORIENTED_EDGE('',*,*,#1983,.T.);
#1983 = EDGE_CURVE('',#1975,#1958,#1984,.T.);
#1984 = LINE('',#1985,#1986);
#1985 = CARTESIAN_POINT('',(-232.149838,119.163873,-37.5));
#1986 = VECTOR('',#1987,1.);
#1987 = DIRECTION('',(0.,-1.,2.2E-16));
#1988 = ORIENTED_EDGE('',*,*,#1957,.T.);
#1989 = ORIENTED_EDGE('',*,*,#1983,.F.);
#1990 = CYLINDRICAL_SURFACE('',#1991,2.725);
#1991 = AXIS2_PLACEMENT_3D('',#1992,#1993,#1994);
#1992 = CARTESIAN_POINT('',(-229.424838,119.163873,-37.5));
#1993 = DIRECTION('',(0.,1.,-2.2E-16));
#1994 = DIRECTION('',(-1.,0.,0.));
#1995 = ADVANCED_FACE('',(#1996,#1999),#2010,.T.);
#1996 = FACE_BOUND('',#1997,.T.);
#1997 = EDGE_LOOP('',(#1998));
#1998 = ORIENTED_EDGE('',*,*,#1974,.T.);
#1999 = FACE_BOUND('',#2000,.T.);
#2000 = EDGE_LOOP('',(#2001));
#2001 = ORIENTED_EDGE('',*,*,#2002,.T.);
#2002 = EDGE_CURVE('',#2003,#2003,#2005,.T.);
#2003 = VERTEX_POINT('',#2004);
#2004 = CARTESIAN_POINT('',(-230.424838,119.163873,-37.5));
#2005 = CIRCLE('',#2006,1.);
#2006 = AXIS2_PLACEMENT_3D('',#2007,#2008,#2009);
#2007 = CARTESIAN_POINT('',(-229.424838,119.163873,-37.5));
#2008 = DIRECTION('',(0.,-1.,2.2E-16));
#2009 = DIRECTION('',(-1.,0.,0.));
#2010 = PLANE('',#2011);
#2011 = AXIS2_PLACEMENT_3D('',#2012,#2013,#2014);
#2012 = CARTESIAN_POINT('',(-229.424838,119.163873,-37.5));
#2013 = DIRECTION('',(0.,1.,0.));
#2014 = DIRECTION('',(0.,0.,1.));
#2015 = ADVANCED_FACE('',(#2016),#2026,.F.);
#2016 = FACE_BOUND('',#2017,.F.);
#2017 = EDGE_LOOP('',(#2018,#2019,#2024,#2025));
#2018 = ORIENTED_EDGE('',*,*,#1600,.T.);
#2019 = ORIENTED_EDGE('',*,*,#2020,.T.);
#2020 = EDGE_CURVE('',#1601,#2003,#2021,.T.);
#2021 = B_SPLINE_CURVE_WITH_KNOTS('',1,(#2022,#2023),.UNSPECIFIED.,.F.,
  .F.,(2,2),(-13.35,1.421E-14),.PIECEWISE_BEZIER_KNOTS.);
#2022 = CARTESIAN_POINT('',(-230.424838,105.813873,-37.5));
#2023 = CARTESIAN_POINT('',(-230.424838,119.163873,-37.5));
#2024 = ORIENTED_EDGE('',*,*,#2002,.T.);
#2025 = ORIENTED_EDGE('',*,*,#2020,.F.);
#2026 = CYLINDRICAL_SURFACE('',#2027,1.);
#2027 = AXIS2_PLACEMENT_3D('',#2028,#2029,#2030);
#2028 = CARTESIAN_POINT('',(-229.424838,119.163873,-37.5));
#2029 = DIRECTION('',(0.,1.,-2.2E-16));
#2030 = DIRECTION('',(-1.,0.,0.));
#2031 = ( GEOMETRIC_REPRESENTATION_CONTEXT(3) 
GLOBAL_UNCERTAINTY_ASSIGNED_CONTEXT((#2035)) 
GLOBAL_UNIT_ASSIGNED_CONTEXT((#2032,#2033,#2034)) REPRESENTATION_CONTEXT
('Context #1','3D Context with UNIT and UNCERTAINTY') );
#2032 = ( LENGTH_UNIT() NAMED_UNIT(*) SI_UNIT(.MILLI.,.METRE.) );
#2033 = ( NAMED_UNIT(*) PLANE_ANGLE_UNIT() SI_UNIT($,.RADIAN.) );
#2034 = ( NAMED_UNIT(*) SI_UNIT($,.STERADIAN.) SOLID_ANGLE_UNIT() );
#2035 = UNCERTAINTY_MEASURE_WITH_UNIT(LENGTH_MEASURE(5.E-05),#2032,
  'distance_accuracy_value','confusion accuracy');
#2036 = PRODUCT_RELATED_PRODUCT_CATEGORY('part',$,(#7));
#2037 = MECHANICAL_DESIGN_GEOMETRIC_PRESENTATION_REPRESENTATION('',(
    #2038),#2031);
#2038 = STYLED_ITEM('color',(#2039),#15);
#2039 = PRESENTATION_STYLE_ASSIGNMENT((#2040,#2046));
#2040 = SURFACE_STYLE_USAGE(.BOTH.,#2041);
#2041 = SURFACE_SIDE_STYLE('',(#2042));
#2042 = SURFACE_STYLE_FILL_AREA(#2043);
#2043 = FILL_AREA_STYLE('',(#2044));
#2044 = FILL_AREA_STYLE_COLOUR('',#2045);
#2045 = COLOUR_RGB('',0.447058818107,0.474509808674,0.501960817233);
#2046 = CURVE_STYLE('',#2047,POSITIVE_LENGTH_MEASURE(0.1),#2048);
#2047 = DRAUGHTING_PRE_DEFINED_CURVE_FONT('continuous');
#2048 = COLOUR_RGB('',9.803921802644E-02,9.803921802644E-02,
  9.803921802644E-02);
ENDSEC;
END-ISO-10303-21;
