ISO-10303-21;
HEADER;
FILE_DESCRIPTION(('FreeCAD Model'),'2;1');
FILE_NAME('Open CASCADE Shape Model','2026-08-27T17:54:26',(''),(''),
  'Open CASCADE STEP processor 7.8','FreeCAD','Unknown');
FILE_SCHEMA(('AUTOMOTIVE_DESIGN { 1 0 10303 214 1 1 1 1 }'));
ENDSEC;
DATA;
#1 = APPLICATION_PROTOCOL_DEFINITION('international standard',
  'automotive_design',2000,#2);
#2 = APPLICATION_CONTEXT(
  'core data for automotive mechanical design processes');
#3 = SHAPE_DEFINITION_REPRESENTATION(#4,#10);
#4 = PRODUCT_DEFINITION_SHAPE('','',#5);
#5 = PRODUCT_DEFINITION('design','',#6,#9);
#6 = PRODUCT_DEFINITION_FORMATION('','',#7);
#7 = PRODUCT('Pocket008','Pocket008','',(#8));
#8 = PRODUCT_CONTEXT('',#2,'mechanical');
#9 = PRODUCT_DEFINITION_CONTEXT('part definition',#2,'design');
#10 = ADVANCED_BREP_SHAPE_REPRESENTATION('',(#11,#15),#722);
#11 = AXIS2_PLACEMENT_3D('',#12,#13,#14);
#12 = CARTESIAN_POINT('',(0.,0.,0.));
#13 = DIRECTION('',(0.,0.,1.));
#14 = DIRECTION('',(1.,0.,-0.));
#15 = MANIFOLD_SOLID_BREP('',#16);
#16 = CLOSED_SHELL('',(#17,#65,#96,#127,#173,#229,#253,#289,#346,#363,
    #386,#411,#436,#470,#492,#526,#543,#559,#571,#596,#613,#635,#646,
    #657,#668,#688,#713));
#17 = ADVANCED_FACE('',(#18),#60,.T.);
#18 = FACE_BOUND('',#19,.T.);
#19 = EDGE_LOOP('',(#20,#30,#38,#46,#54));
#20 = ORIENTED_EDGE('',*,*,#21,.F.);
#21 = EDGE_CURVE('',#22,#24,#26,.T.);
#22 = VERTEX_POINT('',#23);
#23 = CARTESIAN_POINT('',(-244.924838,-111.684584,-7.));
#24 = VERTEX_POINT('',#25);
#25 = CARTESIAN_POINT('',(-244.924838,-111.684584,3.));
#26 = LINE('',#27,#28);
#27 = CARTESIAN_POINT('',(-244.924838,-111.684584,0.));
#28 = VECTOR('',#29,1.);
#29 = DIRECTION('',(0.,0.,1.));
#30 = ORIENTED_EDGE('',*,*,#31,.T.);
#31 = EDGE_CURVE('',#22,#32,#34,.T.);
#32 = VERTEX_POINT('',#33);
#33 = CARTESIAN_POINT('',(-230.924838,-111.684584,0.));
#34 = LINE('',#35,#36);
#35 = CARTESIAN_POINT('',(-244.924838,-111.684584,-7.));
#36 = VECTOR('',#37,1.);
#37 = DIRECTION('',(0.894427191,0.,0.4472135955));
#38 = ORIENTED_EDGE('',*,*,#39,.T.);
#39 = EDGE_CURVE('',#32,#40,#42,.T.);
#40 = VERTEX_POINT('',#41);
#41 = CARTESIAN_POINT('',(-230.924838,-111.684584,6.));
#42 = LINE('',#43,#44);
#43 = CARTESIAN_POINT('',(-230.924838,-111.684584,0.));
#44 = VECTOR('',#45,1.);
#45 = DIRECTION('',(0.,0.,1.));
#46 = ORIENTED_EDGE('',*,*,#47,.F.);
#47 = EDGE_CURVE('',#48,#40,#50,.T.);
#48 = VERTEX_POINT('',#49);
#49 = CARTESIAN_POINT('',(-244.924838,-111.684584,6.));
#50 = LINE('',#51,#52);
#51 = CARTESIAN_POINT('',(-244.924838,-111.684584,6.));
#52 = VECTOR('',#53,1.);
#53 = DIRECTION('',(1.,0.,0.));
#54 = ORIENTED_EDGE('',*,*,#55,.F.);
#55 = EDGE_CURVE('',#24,#48,#56,.T.);
#56 = LINE('',#57,#58);
#57 = CARTESIAN_POINT('',(-244.924838,-111.684584,0.));
#58 = VECTOR('',#59,1.);
#59 = DIRECTION('',(0.,0.,1.));
#60 = PLANE('',#61);
#61 = AXIS2_PLACEMENT_3D('',#62,#63,#64);
#62 = CARTESIAN_POINT('',(-238.8922142078,-111.684584,1.336881039375));
#63 = DIRECTION('',(1.24E-15,-1.,-3.5E-15));
#64 = DIRECTION('',(0.,3.5E-15,-1.));
#65 = ADVANCED_FACE('',(#66),#91,.T.);
#66 = FACE_BOUND('',#67,.T.);
#67 = EDGE_LOOP('',(#68,#76,#84,#90));
#68 = ORIENTED_EDGE('',*,*,#69,.T.);
#69 = EDGE_CURVE('',#24,#70,#72,.T.);
#70 = VERTEX_POINT('',#71);
#71 = CARTESIAN_POINT('',(-291.9248376567,-111.584584,3.));
#72 = LINE('',#73,#74);
#73 = CARTESIAN_POINT('',(-285.3588527783,-111.5985541806,3.));
#74 = VECTOR('',#75,1.);
#75 = DIRECTION('',(-0.99999773654,2.127654774135E-03,0.));
#76 = ORIENTED_EDGE('',*,*,#77,.T.);
#77 = EDGE_CURVE('',#70,#78,#80,.T.);
#78 = VERTEX_POINT('',#79);
#79 = CARTESIAN_POINT('',(-291.9248376567,-111.584584,-7.));
#80 = LINE('',#81,#82);
#81 = CARTESIAN_POINT('',(-291.9248376567,-111.584584,6.));
#82 = VECTOR('',#83,1.);
#83 = DIRECTION('',(-0.,-0.,-1.));
#84 = ORIENTED_EDGE('',*,*,#85,.T.);
#85 = EDGE_CURVE('',#78,#22,#86,.T.);
#86 = LINE('',#87,#88);
#87 = CARTESIAN_POINT('',(-291.9248376567,-111.584584,-7.));
#88 = VECTOR('',#89,1.);
#89 = DIRECTION('',(0.99999773654,-2.127654774135E-03,0.));
#90 = ORIENTED_EDGE('',*,*,#21,.T.);
#91 = PLANE('',#92);
#92 = AXIS2_PLACEMENT_3D('',#93,#94,#95);
#93 = CARTESIAN_POINT('',(-291.9248376567,-111.584584,6.));
#94 = DIRECTION('',(-2.127654774135E-03,-0.99999773654,0.));
#95 = DIRECTION('',(0.99999773654,-2.127654774135E-03,0.));
#96 = ADVANCED_FACE('',(#97),#122,.F.);
#97 = FACE_BOUND('',#98,.F.);
#98 = EDGE_LOOP('',(#99,#100,#108,#116));
#99 = ORIENTED_EDGE('',*,*,#55,.F.);
#100 = ORIENTED_EDGE('',*,*,#101,.T.);
#101 = EDGE_CURVE('',#24,#102,#104,.T.);
#102 = VERTEX_POINT('',#103);
#103 = CARTESIAN_POINT('',(-244.924838,-76.484584,3.));
#104 = LINE('',#105,#106);
#105 = CARTESIAN_POINT('',(-244.924838,-111.684584,3.));
#106 = VECTOR('',#107,1.);
#107 = DIRECTION('',(0.,1.,0.));
#108 = ORIENTED_EDGE('',*,*,#109,.F.);
#109 = EDGE_CURVE('',#110,#102,#112,.T.);
#110 = VERTEX_POINT('',#111);
#111 = CARTESIAN_POINT('',(-244.924838,-76.484584,6.));
#112 = LINE('',#113,#114);
#113 = CARTESIAN_POINT('',(-244.924838,-76.484584,3.));
#114 = VECTOR('',#115,1.);
#115 = DIRECTION('',(-0.,-0.,-1.));
#116 = ORIENTED_EDGE('',*,*,#117,.F.);
#117 = EDGE_CURVE('',#48,#110,#118,.T.);
#118 = LINE('',#119,#120);
#119 = CARTESIAN_POINT('',(-244.924838,-111.684584,6.));
#120 = VECTOR('',#121,1.);
#121 = DIRECTION('',(0.,1.,0.));
#122 = PLANE('',#123);
#123 = AXIS2_PLACEMENT_3D('',#124,#125,#126);
#124 = CARTESIAN_POINT('',(-244.924838,-111.684584,6.));
#125 = DIRECTION('',(1.,0.,0.));
#126 = DIRECTION('',(0.,1.,0.));
#127 = ADVANCED_FACE('',(#128,#146,#157),#168,.T.);
#128 = FACE_BOUND('',#129,.T.);
#129 = EDGE_LOOP('',(#130,#131,#132,#140));
#130 = ORIENTED_EDGE('',*,*,#117,.F.);
#131 = ORIENTED_EDGE('',*,*,#47,.T.);
#132 = ORIENTED_EDGE('',*,*,#133,.T.);
#133 = EDGE_CURVE('',#40,#134,#136,.T.);
#134 = VERTEX_POINT('',#135);
#135 = CARTESIAN_POINT('',(-230.924838,-76.484584,6.));
#136 = LINE('',#137,#138);
#137 = CARTESIAN_POINT('',(-230.924838,-111.684584,6.));
#138 = VECTOR('',#139,1.);
#139 = DIRECTION('',(0.,1.,0.));
#140 = ORIENTED_EDGE('',*,*,#141,.T.);
#141 = EDGE_CURVE('',#134,#110,#142,.T.);
#142 = LINE('',#143,#144);
#143 = CARTESIAN_POINT('',(-230.924838,-76.484584,6.));
#144 = VECTOR('',#145,1.);
#145 = DIRECTION('',(-1.,0.,0.));
#146 = FACE_BOUND('',#147,.T.);
#147 = EDGE_LOOP('',(#148));
#148 = ORIENTED_EDGE('',*,*,#149,.F.);
#149 = EDGE_CURVE('',#150,#150,#152,.T.);
#150 = VERTEX_POINT('',#151);
#151 = CARTESIAN_POINT('',(-236.424838,-102.884584,6.));
#152 = CIRCLE('',#153,1.5);
#153 = AXIS2_PLACEMENT_3D('',#154,#155,#156);
#154 = CARTESIAN_POINT('',(-237.924838,-102.884584,6.));
#155 = DIRECTION('',(0.,0.,1.));
#156 = DIRECTION('',(1.,0.,0.));
#157 = FACE_BOUND('',#158,.T.);
#158 = EDGE_LOOP('',(#159));
#159 = ORIENTED_EDGE('',*,*,#160,.F.);
#160 = EDGE_CURVE('',#161,#161,#163,.T.);
#161 = VERTEX_POINT('',#162);
#162 = CARTESIAN_POINT('',(-236.424838,-85.284584,6.));
#163 = CIRCLE('',#164,1.5);
#164 = AXIS2_PLACEMENT_3D('',#165,#166,#167);
#165 = CARTESIAN_POINT('',(-237.924838,-85.284584,6.));
#166 = DIRECTION('',(0.,0.,1.));
#167 = DIRECTION('',(1.,0.,0.));
#168 = PLANE('',#169);
#169 = AXIS2_PLACEMENT_3D('',#170,#171,#172);
#170 = CARTESIAN_POINT('',(-266.4705744676,-94.08458406138,6.));
#171 = DIRECTION('',(0.,0.,1.));
#172 = DIRECTION('',(1.,0.,0.));
#173 = ADVANCED_FACE('',(#174),#224,.F.);
#174 = FACE_BOUND('',#175,.F.);
#175 = EDGE_LOOP('',(#176,#184,#185,#186,#194,#202,#210,#218));
#176 = ORIENTED_EDGE('',*,*,#177,.F.);
#177 = EDGE_CURVE('',#32,#178,#180,.T.);
#178 = VERTEX_POINT('',#179);
#179 = CARTESIAN_POINT('',(-230.924838,-106.884584,0.));
#180 = LINE('',#181,#182);
#181 = CARTESIAN_POINT('',(-230.924838,-111.684584,0.));
#182 = VECTOR('',#183,1.);
#183 = DIRECTION('',(0.,1.,0.));
#184 = ORIENTED_EDGE('',*,*,#39,.T.);
#185 = ORIENTED_EDGE('',*,*,#133,.T.);
#186 = ORIENTED_EDGE('',*,*,#187,.F.);
#187 = EDGE_CURVE('',#188,#134,#190,.T.);
#188 = VERTEX_POINT('',#189);
#189 = CARTESIAN_POINT('',(-230.924838,-76.484584,-3.E-15));
#190 = LINE('',#191,#192);
#191 = CARTESIAN_POINT('',(-230.924838,-76.484584,0.));
#192 = VECTOR('',#193,1.);
#193 = DIRECTION('',(0.,0.,1.));
#194 = ORIENTED_EDGE('',*,*,#195,.F.);
#195 = EDGE_CURVE('',#196,#188,#198,.T.);
#196 = VERTEX_POINT('',#197);
#197 = CARTESIAN_POINT('',(-230.924838,-81.284584,0.));
#198 = LINE('',#199,#200);
#199 = CARTESIAN_POINT('',(-230.924838,-111.684584,0.));
#200 = VECTOR('',#201,1.);
#201 = DIRECTION('',(0.,1.,0.));
#202 = ORIENTED_EDGE('',*,*,#203,.F.);
#203 = EDGE_CURVE('',#204,#196,#206,.T.);
#204 = VERTEX_POINT('',#205);
#205 = CARTESIAN_POINT('',(-230.924838,-89.284584,0.));
#206 = LINE('',#207,#208);
#207 = CARTESIAN_POINT('',(-230.924838,-111.684584,0.));
#208 = VECTOR('',#209,1.);
#209 = DIRECTION('',(0.,1.,0.));
#210 = ORIENTED_EDGE('',*,*,#211,.F.);
#211 = EDGE_CURVE('',#212,#204,#214,.T.);
#212 = VERTEX_POINT('',#213);
#213 = CARTESIAN_POINT('',(-230.924838,-98.884584,0.));
#214 = LINE('',#215,#216);
#215 = CARTESIAN_POINT('',(-230.924838,-111.684584,0.));
#216 = VECTOR('',#217,1.);
#217 = DIRECTION('',(0.,1.,0.));
#218 = ORIENTED_EDGE('',*,*,#219,.F.);
#219 = EDGE_CURVE('',#178,#212,#220,.T.);
#220 = LINE('',#221,#222);
#221 = CARTESIAN_POINT('',(-230.924838,-111.684584,0.));
#222 = VECTOR('',#223,1.);
#223 = DIRECTION('',(0.,1.,0.));
#224 = PLANE('',#225);
#225 = AXIS2_PLACEMENT_3D('',#226,#227,#228);
#226 = CARTESIAN_POINT('',(-230.924838,-111.684584,0.));
#227 = DIRECTION('',(-1.,0.,0.));
#228 = DIRECTION('',(0.,1.,0.));
#229 = ADVANCED_FACE('',(#230),#248,.T.);
#230 = FACE_BOUND('',#231,.T.);
#231 = EDGE_LOOP('',(#232,#233,#241,#247));
#232 = ORIENTED_EDGE('',*,*,#31,.F.);
#233 = ORIENTED_EDGE('',*,*,#234,.T.);
#234 = EDGE_CURVE('',#22,#235,#237,.T.);
#235 = VERTEX_POINT('',#236);
#236 = CARTESIAN_POINT('',(-244.924838,-106.884584,-7.));
#237 = LINE('',#238,#239);
#238 = CARTESIAN_POINT('',(-244.924838,-111.684584,-7.));
#239 = VECTOR('',#240,1.);
#240 = DIRECTION('',(0.,1.,-2.2E-16));
#241 = ORIENTED_EDGE('',*,*,#242,.F.);
#242 = EDGE_CURVE('',#178,#235,#243,.T.);
#243 = LINE('',#244,#245);
#244 = CARTESIAN_POINT('',(-237.924838,-106.884584,-3.5));
#245 = VECTOR('',#246,1.);
#246 = DIRECTION('',(-0.894427191,-0.,-0.4472135955));
#247 = ORIENTED_EDGE('',*,*,#177,.F.);
#248 = PLANE('',#249);
#249 = AXIS2_PLACEMENT_3D('',#250,#251,#252);
#250 = CARTESIAN_POINT('',(-244.924838,-111.684584,-7.));
#251 = DIRECTION('',(0.4472135955,-2.E-16,-0.894427191));
#252 = DIRECTION('',(0.894427191,1.E-16,0.4472135955));
#253 = ADVANCED_FACE('',(#254,#273),#284,.T.);
#254 = FACE_BOUND('',#255,.T.);
#255 = EDGE_LOOP('',(#256,#257,#258,#266));
#256 = ORIENTED_EDGE('',*,*,#69,.F.);
#257 = ORIENTED_EDGE('',*,*,#101,.T.);
#258 = ORIENTED_EDGE('',*,*,#259,.T.);
#259 = EDGE_CURVE('',#102,#260,#262,.T.);
#260 = VERTEX_POINT('',#261);
#261 = CARTESIAN_POINT('',(-291.924832281,-76.584584,3.));
#262 = LINE('',#263,#264);
#263 = CARTESIAN_POINT('',(-285.3556576973,-76.5706070311,3.));
#264 = VECTOR('',#265,1.);
#265 = DIRECTION('',(-0.99999773654,-2.127655017506E-03,0.));
#266 = ORIENTED_EDGE('',*,*,#267,.T.);
#267 = EDGE_CURVE('',#260,#70,#268,.T.);
#268 = CIRCLE('',#269,17.5);
#269 = AXIS2_PLACEMENT_3D('',#270,#271,#272);
#270 = CARTESIAN_POINT('',(-291.924838,-94.084584,3.));
#271 = DIRECTION('',(0.,0.,1.));
#272 = DIRECTION('',(1.,0.,0.));
#273 = FACE_BOUND('',#274,.T.);
#274 = EDGE_LOOP('',(#275));
#275 = ORIENTED_EDGE('',*,*,#276,.F.);
#276 = EDGE_CURVE('',#277,#277,#279,.T.);
#277 = VERTEX_POINT('',#278);
#278 = CARTESIAN_POINT('',(-282.174838,-94.084584,3.));
#279 = CIRCLE('',#280,9.75);
#280 = AXIS2_PLACEMENT_3D('',#281,#282,#283);
#281 = CARTESIAN_POINT('',(-291.924838,-94.084584,3.));
#282 = DIRECTION('',(0.,0.,1.));
#283 = DIRECTION('',(1.,0.,0.));
#284 = PLANE('',#285);
#285 = AXIS2_PLACEMENT_3D('',#286,#287,#288);
#286 = CARTESIAN_POINT('',(-278.752382,-92.5841515,3.));
#287 = DIRECTION('',(0.,0.,1.));
#288 = DIRECTION('',(1.,0.,0.));
#289 = ADVANCED_FACE('',(#290),#341,.F.);
#290 = FACE_BOUND('',#291,.F.);
#291 = EDGE_LOOP('',(#292,#301,#302,#303,#311,#319,#327,#335));
#292 = ORIENTED_EDGE('',*,*,#293,.T.);
#293 = EDGE_CURVE('',#294,#78,#296,.T.);
#294 = VERTEX_POINT('',#295);
#295 = CARTESIAN_POINT('',(-291.924832281,-76.584584,-7.));
#296 = CIRCLE('',#297,17.5);
#297 = AXIS2_PLACEMENT_3D('',#298,#299,#300);
#298 = CARTESIAN_POINT('',(-291.924838,-94.084584,-7.));
#299 = DIRECTION('',(0.,0.,1.));
#300 = DIRECTION('',(1.,0.,0.));
#301 = ORIENTED_EDGE('',*,*,#85,.T.);
#302 = ORIENTED_EDGE('',*,*,#234,.T.);
#303 = ORIENTED_EDGE('',*,*,#304,.T.);
#304 = EDGE_CURVE('',#235,#305,#307,.T.);
#305 = VERTEX_POINT('',#306);
#306 = CARTESIAN_POINT('',(-244.924838,-98.884584,-7.));
#307 = LINE('',#308,#309);
#308 = CARTESIAN_POINT('',(-244.924838,-111.684584,-7.));
#309 = VECTOR('',#310,1.);
#310 = DIRECTION('',(0.,1.,0.));
#311 = ORIENTED_EDGE('',*,*,#312,.T.);
#312 = EDGE_CURVE('',#305,#313,#315,.T.);
#313 = VERTEX_POINT('',#314);
#314 = CARTESIAN_POINT('',(-244.924838,-89.284584,-7.));
#315 = LINE('',#316,#317);
#316 = CARTESIAN_POINT('',(-244.924838,-111.684584,-7.));
#317 = VECTOR('',#318,1.);
#318 = DIRECTION('',(0.,1.,-2.2E-16));
#319 = ORIENTED_EDGE('',*,*,#320,.T.);
#320 = EDGE_CURVE('',#313,#321,#323,.T.);
#321 = VERTEX_POINT('',#322);
#322 = CARTESIAN_POINT('',(-244.924838,-81.284584,-7.));
#323 = LINE('',#324,#325);
#324 = CARTESIAN_POINT('',(-244.924838,-111.684584,-7.));
#325 = VECTOR('',#326,1.);
#326 = DIRECTION('',(0.,1.,0.));
#327 = ORIENTED_EDGE('',*,*,#328,.T.);
#328 = EDGE_CURVE('',#321,#329,#331,.T.);
#329 = VERTEX_POINT('',#330);
#330 = CARTESIAN_POINT('',(-244.924838,-76.484584,-7.));
#331 = LINE('',#332,#333);
#332 = CARTESIAN_POINT('',(-244.924838,-111.684584,-7.));
#333 = VECTOR('',#334,1.);
#334 = DIRECTION('',(0.,1.,-2.2E-16));
#335 = ORIENTED_EDGE('',*,*,#336,.F.);
#336 = EDGE_CURVE('',#294,#329,#337,.T.);
#337 = LINE('',#338,#339);
#338 = CARTESIAN_POINT('',(-291.924832281,-76.584584,-7.));
#339 = VECTOR('',#340,1.);
#340 = DIRECTION('',(0.99999773654,2.127655017506E-03,0.));
#341 = PLANE('',#342);
#342 = AXIS2_PLACEMENT_3D('',#343,#344,#345);
#343 = CARTESIAN_POINT('',(-273.5816317812,-94.08458407084,-7.));
#344 = DIRECTION('',(0.,0.,1.));
#345 = DIRECTION('',(1.,0.,0.));
#346 = ADVANCED_FACE('',(#347),#358,.T.);
#347 = FACE_BOUND('',#348,.T.);
#348 = EDGE_LOOP('',(#349,#350,#356,#357));
#349 = ORIENTED_EDGE('',*,*,#267,.F.);
#350 = ORIENTED_EDGE('',*,*,#351,.T.);
#351 = EDGE_CURVE('',#260,#294,#352,.T.);
#352 = LINE('',#353,#354);
#353 = CARTESIAN_POINT('',(-291.924832281,-76.584584,6.));
#354 = VECTOR('',#355,1.);
#355 = DIRECTION('',(-0.,-0.,-1.));
#356 = ORIENTED_EDGE('',*,*,#293,.T.);
#357 = ORIENTED_EDGE('',*,*,#77,.F.);
#358 = CYLINDRICAL_SURFACE('',#359,17.5);
#359 = AXIS2_PLACEMENT_3D('',#360,#361,#362);
#360 = CARTESIAN_POINT('',(-291.924838,-94.084584,6.));
#361 = DIRECTION('',(0.,0.,1.));
#362 = DIRECTION('',(1.,0.,0.));
#363 = ADVANCED_FACE('',(#364),#381,.T.);
#364 = FACE_BOUND('',#365,.T.);
#365 = EDGE_LOOP('',(#366,#367,#373,#379,#380));
#366 = ORIENTED_EDGE('',*,*,#187,.F.);
#367 = ORIENTED_EDGE('',*,*,#368,.F.);
#368 = EDGE_CURVE('',#329,#188,#369,.T.);
#369 = LINE('',#370,#371);
#370 = CARTESIAN_POINT('',(-244.924838,-76.484584,-7.));
#371 = VECTOR('',#372,1.);
#372 = DIRECTION('',(0.894427191,0.,0.4472135955));
#373 = ORIENTED_EDGE('',*,*,#374,.F.);
#374 = EDGE_CURVE('',#102,#329,#375,.T.);
#375 = LINE('',#376,#377);
#376 = CARTESIAN_POINT('',(-244.924838,-76.484584,3.));
#377 = VECTOR('',#378,1.);
#378 = DIRECTION('',(-0.,-0.,-1.));
#379 = ORIENTED_EDGE('',*,*,#109,.F.);
#380 = ORIENTED_EDGE('',*,*,#141,.F.);
#381 = PLANE('',#382);
#382 = AXIS2_PLACEMENT_3D('',#383,#384,#385);
#383 = CARTESIAN_POINT('',(-238.8922142078,-76.484584,1.336881039375));
#384 = DIRECTION('',(-1.24E-15,1.,3.5E-15));
#385 = DIRECTION('',(0.,-3.5E-15,1.));
#386 = ADVANCED_FACE('',(#387),#406,.F.);
#387 = FACE_BOUND('',#388,.T.);
#388 = EDGE_LOOP('',(#389,#398,#404,#405));
#389 = ORIENTED_EDGE('',*,*,#390,.F.);
#390 = EDGE_CURVE('',#391,#391,#393,.T.);
#391 = VERTEX_POINT('',#392);
#392 = CARTESIAN_POINT('',(-236.424838,-102.884584,0.));
#393 = CIRCLE('',#394,1.5);
#394 = AXIS2_PLACEMENT_3D('',#395,#396,#397);
#395 = CARTESIAN_POINT('',(-237.924838,-102.884584,0.));
#396 = DIRECTION('',(0.,0.,1.));
#397 = DIRECTION('',(1.,0.,0.));
#398 = ORIENTED_EDGE('',*,*,#399,.T.);
#399 = EDGE_CURVE('',#391,#150,#400,.T.);
#400 = LINE('',#401,#402);
#401 = CARTESIAN_POINT('',(-236.424838,-102.884584,0.));
#402 = VECTOR('',#403,1.);
#403 = DIRECTION('',(0.,0.,1.));
#404 = ORIENTED_EDGE('',*,*,#149,.T.);
#405 = ORIENTED_EDGE('',*,*,#399,.F.);
#406 = CYLINDRICAL_SURFACE('',#407,1.5);
#407 = AXIS2_PLACEMENT_3D('',#408,#409,#410);
#408 = CARTESIAN_POINT('',(-237.924838,-102.884584,0.));
#409 = DIRECTION('',(-0.,-0.,-1.));
#410 = DIRECTION('',(1.,0.,0.));
#411 = ADVANCED_FACE('',(#412),#431,.F.);
#412 = FACE_BOUND('',#413,.T.);
#413 = EDGE_LOOP('',(#414,#423,#429,#430));
#414 = ORIENTED_EDGE('',*,*,#415,.F.);
#415 = EDGE_CURVE('',#416,#416,#418,.T.);
#416 = VERTEX_POINT('',#417);
#417 = CARTESIAN_POINT('',(-236.424838,-85.284584,0.));
#418 = CIRCLE('',#419,1.5);
#419 = AXIS2_PLACEMENT_3D('',#420,#421,#422);
#420 = CARTESIAN_POINT('',(-237.924838,-85.284584,0.));
#421 = DIRECTION('',(0.,0.,1.));
#422 = DIRECTION('',(1.,0.,0.));
#423 = ORIENTED_EDGE('',*,*,#424,.T.);
#424 = EDGE_CURVE('',#416,#161,#425,.T.);
#425 = LINE('',#426,#427);
#426 = CARTESIAN_POINT('',(-236.424838,-85.284584,0.));
#427 = VECTOR('',#428,1.);
#428 = DIRECTION('',(0.,0.,1.));
#429 = ORIENTED_EDGE('',*,*,#160,.T.);
#430 = ORIENTED_EDGE('',*,*,#424,.F.);
#431 = CYLINDRICAL_SURFACE('',#432,1.5);
#432 = AXIS2_PLACEMENT_3D('',#433,#434,#435);
#433 = CARTESIAN_POINT('',(-237.924838,-85.284584,0.));
#434 = DIRECTION('',(-0.,-0.,-1.));
#435 = DIRECTION('',(1.,0.,0.));
#436 = ADVANCED_FACE('',(#437,#462),#465,.F.);
#437 = FACE_BOUND('',#438,.F.);
#438 = EDGE_LOOP('',(#439,#447,#455,#461));
#439 = ORIENTED_EDGE('',*,*,#440,.T.);
#440 = EDGE_CURVE('',#212,#441,#443,.T.);
#441 = VERTEX_POINT('',#442);
#442 = CARTESIAN_POINT('',(-244.924838,-98.884584,0.));
#443 = LINE('',#444,#445);
#444 = CARTESIAN_POINT('',(-230.924838,-98.884584,0.));
#445 = VECTOR('',#446,1.);
#446 = DIRECTION('',(-1.,-0.,-0.));
#447 = ORIENTED_EDGE('',*,*,#448,.T.);
#448 = EDGE_CURVE('',#441,#449,#451,.T.);
#449 = VERTEX_POINT('',#450);
#450 = CARTESIAN_POINT('',(-244.924838,-106.884584,0.));
#451 = LINE('',#452,#453);
#452 = CARTESIAN_POINT('',(-244.924838,-98.884584,0.));
#453 = VECTOR('',#454,1.);
#454 = DIRECTION('',(0.,-1.,0.));
#455 = ORIENTED_EDGE('',*,*,#456,.F.);
#456 = EDGE_CURVE('',#178,#449,#457,.T.);
#457 = LINE('',#458,#459);
#458 = CARTESIAN_POINT('',(-230.924838,-106.884584,0.));
#459 = VECTOR('',#460,1.);
#460 = DIRECTION('',(-1.,-0.,-0.));
#461 = ORIENTED_EDGE('',*,*,#219,.T.);
#462 = FACE_BOUND('',#463,.F.);
#463 = EDGE_LOOP('',(#464));
#464 = ORIENTED_EDGE('',*,*,#390,.F.);
#465 = PLANE('',#466);
#466 = AXIS2_PLACEMENT_3D('',#467,#468,#469);
#467 = CARTESIAN_POINT('',(-230.924838,-98.884584,0.));
#468 = DIRECTION('',(0.,0.,1.));
#469 = DIRECTION('',(0.,-1.,0.));
#470 = ADVANCED_FACE('',(#471),#487,.T.);
#471 = FACE_BOUND('',#472,.T.);
#472 = EDGE_LOOP('',(#473,#479,#480,#486));
#473 = ORIENTED_EDGE('',*,*,#474,.F.);
#474 = EDGE_CURVE('',#305,#212,#475,.T.);
#475 = LINE('',#476,#477);
#476 = CARTESIAN_POINT('',(-239.324838,-98.884584,-4.2));
#477 = VECTOR('',#478,1.);
#478 = DIRECTION('',(0.894427191,0.,0.4472135955));
#479 = ORIENTED_EDGE('',*,*,#312,.T.);
#480 = ORIENTED_EDGE('',*,*,#481,.F.);
#481 = EDGE_CURVE('',#204,#313,#482,.T.);
#482 = LINE('',#483,#484);
#483 = CARTESIAN_POINT('',(-237.924838,-89.284584,-3.5));
#484 = VECTOR('',#485,1.);
#485 = DIRECTION('',(-0.894427191,-0.,-0.4472135955));
#486 = ORIENTED_EDGE('',*,*,#211,.F.);
#487 = PLANE('',#488);
#488 = AXIS2_PLACEMENT_3D('',#489,#490,#491);
#489 = CARTESIAN_POINT('',(-244.924838,-111.684584,-7.));
#490 = DIRECTION('',(0.4472135955,-2.E-16,-0.894427191));
#491 = DIRECTION('',(0.894427191,1.E-16,0.4472135955));
#492 = ADVANCED_FACE('',(#493,#518),#521,.F.);
#493 = FACE_BOUND('',#494,.F.);
#494 = EDGE_LOOP('',(#495,#503,#511,#517));
#495 = ORIENTED_EDGE('',*,*,#496,.T.);
#496 = EDGE_CURVE('',#196,#497,#499,.T.);
#497 = VERTEX_POINT('',#498);
#498 = CARTESIAN_POINT('',(-244.924838,-81.284584,0.));
#499 = LINE('',#500,#501);
#500 = CARTESIAN_POINT('',(-230.924838,-81.284584,0.));
#501 = VECTOR('',#502,1.);
#502 = DIRECTION('',(-1.,-0.,-0.));
#503 = ORIENTED_EDGE('',*,*,#504,.T.);
#504 = EDGE_CURVE('',#497,#505,#507,.T.);
#505 = VERTEX_POINT('',#506);
#506 = CARTESIAN_POINT('',(-244.924838,-89.284584,0.));
#507 = LINE('',#508,#509);
#508 = CARTESIAN_POINT('',(-244.924838,-81.284584,0.));
#509 = VECTOR('',#510,1.);
#510 = DIRECTION('',(0.,-1.,0.));
#511 = ORIENTED_EDGE('',*,*,#512,.F.);
#512 = EDGE_CURVE('',#204,#505,#513,.T.);
#513 = LINE('',#514,#515);
#514 = CARTESIAN_POINT('',(-230.924838,-89.284584,0.));
#515 = VECTOR('',#516,1.);
#516 = DIRECTION('',(-1.,-0.,-0.));
#517 = ORIENTED_EDGE('',*,*,#203,.T.);
#518 = FACE_BOUND('',#519,.F.);
#519 = EDGE_LOOP('',(#520));
#520 = ORIENTED_EDGE('',*,*,#415,.F.);
#521 = PLANE('',#522);
#522 = AXIS2_PLACEMENT_3D('',#523,#524,#525);
#523 = CARTESIAN_POINT('',(-230.924838,-81.284584,0.));
#524 = DIRECTION('',(0.,0.,1.));
#525 = DIRECTION('',(0.,-1.,0.));
#526 = ADVANCED_FACE('',(#527),#538,.T.);
#527 = FACE_BOUND('',#528,.T.);
#528 = EDGE_LOOP('',(#529,#535,#536,#537));
#529 = ORIENTED_EDGE('',*,*,#530,.F.);
#530 = EDGE_CURVE('',#321,#196,#531,.T.);
#531 = LINE('',#532,#533);
#532 = CARTESIAN_POINT('',(-239.324838,-81.284584,-4.2));
#533 = VECTOR('',#534,1.);
#534 = DIRECTION('',(0.894427191,0.,0.4472135955));
#535 = ORIENTED_EDGE('',*,*,#328,.T.);
#536 = ORIENTED_EDGE('',*,*,#368,.T.);
#537 = ORIENTED_EDGE('',*,*,#195,.F.);
#538 = PLANE('',#539);
#539 = AXIS2_PLACEMENT_3D('',#540,#541,#542);
#540 = CARTESIAN_POINT('',(-244.924838,-111.684584,-7.));
#541 = DIRECTION('',(0.4472135955,-2.E-16,-0.894427191));
#542 = DIRECTION('',(0.894427191,1.E-16,0.4472135955));
#543 = ADVANCED_FACE('',(#544),#554,.F.);
#544 = FACE_BOUND('',#545,.F.);
#545 = EDGE_LOOP('',(#546,#547,#548));
#546 = ORIENTED_EDGE('',*,*,#242,.F.);
#547 = ORIENTED_EDGE('',*,*,#456,.T.);
#548 = ORIENTED_EDGE('',*,*,#549,.T.);
#549 = EDGE_CURVE('',#449,#235,#550,.T.);
#550 = LINE('',#551,#552);
#551 = CARTESIAN_POINT('',(-244.924838,-106.884584,0.));
#552 = VECTOR('',#553,1.);
#553 = DIRECTION('',(0.,0.,-1.));
#554 = PLANE('',#555);
#555 = AXIS2_PLACEMENT_3D('',#556,#557,#558);
#556 = CARTESIAN_POINT('',(-230.924838,-106.884584,0.));
#557 = DIRECTION('',(0.,-1.,0.));
#558 = DIRECTION('',(0.,0.,-1.));
#559 = ADVANCED_FACE('',(#560),#566,.F.);
#560 = FACE_BOUND('',#561,.F.);
#561 = EDGE_LOOP('',(#562,#563,#564,#565));
#562 = ORIENTED_EDGE('',*,*,#259,.T.);
#563 = ORIENTED_EDGE('',*,*,#351,.T.);
#564 = ORIENTED_EDGE('',*,*,#336,.T.);
#565 = ORIENTED_EDGE('',*,*,#374,.F.);
#566 = PLANE('',#567);
#567 = AXIS2_PLACEMENT_3D('',#568,#569,#570);
#568 = CARTESIAN_POINT('',(-291.924832281,-76.584584,6.));
#569 = DIRECTION('',(2.127655017506E-03,-0.99999773654,0.));
#570 = DIRECTION('',(0.99999773654,2.127655017506E-03,0.));
#571 = ADVANCED_FACE('',(#572),#591,.F.);
#572 = FACE_BOUND('',#573,.F.);
#573 = EDGE_LOOP('',(#574,#582,#589,#590));
#574 = ORIENTED_EDGE('',*,*,#575,.T.);
#575 = EDGE_CURVE('',#277,#576,#578,.T.);
#576 = VERTEX_POINT('',#577);
#577 = CARTESIAN_POINT('',(-282.174838,-94.084584,-3.));
#578 = LINE('',#579,#580);
#579 = CARTESIAN_POINT('',(-282.174838,-94.084584,3.));
#580 = VECTOR('',#581,1.);
#581 = DIRECTION('',(-0.,-0.,-1.));
#582 = ORIENTED_EDGE('',*,*,#583,.T.);
#583 = EDGE_CURVE('',#576,#576,#584,.T.);
#584 = CIRCLE('',#585,9.75);
#585 = AXIS2_PLACEMENT_3D('',#586,#587,#588);
#586 = CARTESIAN_POINT('',(-291.924838,-94.084584,-3.));
#587 = DIRECTION('',(0.,0.,1.));
#588 = DIRECTION('',(1.,0.,0.));
#589 = ORIENTED_EDGE('',*,*,#575,.F.);
#590 = ORIENTED_EDGE('',*,*,#276,.F.);
#591 = CYLINDRICAL_SURFACE('',#592,9.75);
#592 = AXIS2_PLACEMENT_3D('',#593,#594,#595);
#593 = CARTESIAN_POINT('',(-291.924838,-94.084584,3.));
#594 = DIRECTION('',(0.,0.,1.));
#595 = DIRECTION('',(1.,0.,0.));
#596 = ADVANCED_FACE('',(#597),#608,.T.);
#597 = FACE_BOUND('',#598,.T.);
#598 = EDGE_LOOP('',(#599,#600,#601,#607));
#599 = ORIENTED_EDGE('',*,*,#549,.T.);
#600 = ORIENTED_EDGE('',*,*,#304,.T.);
#601 = ORIENTED_EDGE('',*,*,#602,.T.);
#602 = EDGE_CURVE('',#305,#441,#603,.T.);
#603 = LINE('',#604,#605);
#604 = CARTESIAN_POINT('',(-244.924838,-98.884584,-7.));
#605 = VECTOR('',#606,1.);
#606 = DIRECTION('',(0.,0.,1.));
#607 = ORIENTED_EDGE('',*,*,#448,.T.);
#608 = PLANE('',#609);
#609 = AXIS2_PLACEMENT_3D('',#610,#611,#612);
#610 = CARTESIAN_POINT('',(-244.924838,-111.684584,6.));
#611 = DIRECTION('',(1.,0.,0.));
#612 = DIRECTION('',(0.,1.,0.));
#613 = ADVANCED_FACE('',(#614),#630,.T.);
#614 = FACE_BOUND('',#615,.T.);
#615 = EDGE_LOOP('',(#616,#622,#623,#629));
#616 = ORIENTED_EDGE('',*,*,#617,.T.);
#617 = EDGE_CURVE('',#505,#313,#618,.T.);
#618 = LINE('',#619,#620);
#619 = CARTESIAN_POINT('',(-244.924838,-89.284584,0.));
#620 = VECTOR('',#621,1.);
#621 = DIRECTION('',(0.,0.,-1.));
#622 = ORIENTED_EDGE('',*,*,#320,.T.);
#623 = ORIENTED_EDGE('',*,*,#624,.T.);
#624 = EDGE_CURVE('',#321,#497,#625,.T.);
#625 = LINE('',#626,#627);
#626 = CARTESIAN_POINT('',(-244.924838,-81.284584,-7.));
#627 = VECTOR('',#628,1.);
#628 = DIRECTION('',(0.,0.,1.));
#629 = ORIENTED_EDGE('',*,*,#504,.T.);
#630 = PLANE('',#631);
#631 = AXIS2_PLACEMENT_3D('',#632,#633,#634);
#632 = CARTESIAN_POINT('',(-244.924838,-111.684584,6.));
#633 = DIRECTION('',(1.,0.,0.));
#634 = DIRECTION('',(0.,1.,0.));
#635 = ADVANCED_FACE('',(#636),#641,.F.);
#636 = FACE_BOUND('',#637,.F.);
#637 = EDGE_LOOP('',(#638,#639,#640));
#638 = ORIENTED_EDGE('',*,*,#474,.F.);
#639 = ORIENTED_EDGE('',*,*,#602,.T.);
#640 = ORIENTED_EDGE('',*,*,#440,.F.);
#641 = PLANE('',#642);
#642 = AXIS2_PLACEMENT_3D('',#643,#644,#645);
#643 = CARTESIAN_POINT('',(-230.924838,-98.884584,-7.));
#644 = DIRECTION('',(0.,1.,0.));
#645 = DIRECTION('',(0.,0.,1.));
#646 = ADVANCED_FACE('',(#647),#652,.F.);
#647 = FACE_BOUND('',#648,.F.);
#648 = EDGE_LOOP('',(#649,#650,#651));
#649 = ORIENTED_EDGE('',*,*,#481,.F.);
#650 = ORIENTED_EDGE('',*,*,#512,.T.);
#651 = ORIENTED_EDGE('',*,*,#617,.T.);
#652 = PLANE('',#653);
#653 = AXIS2_PLACEMENT_3D('',#654,#655,#656);
#654 = CARTESIAN_POINT('',(-230.924838,-89.284584,0.));
#655 = DIRECTION('',(0.,-1.,0.));
#656 = DIRECTION('',(0.,0.,-1.));
#657 = ADVANCED_FACE('',(#658),#663,.F.);
#658 = FACE_BOUND('',#659,.F.);
#659 = EDGE_LOOP('',(#660,#661,#662));
#660 = ORIENTED_EDGE('',*,*,#530,.F.);
#661 = ORIENTED_EDGE('',*,*,#624,.T.);
#662 = ORIENTED_EDGE('',*,*,#496,.F.);
#663 = PLANE('',#664);
#664 = AXIS2_PLACEMENT_3D('',#665,#666,#667);
#665 = CARTESIAN_POINT('',(-230.924838,-81.284584,-7.));
#666 = DIRECTION('',(0.,1.,0.));
#667 = DIRECTION('',(0.,0.,1.));
#668 = ADVANCED_FACE('',(#669,#672),#683,.T.);
#669 = FACE_BOUND('',#670,.T.);
#670 = EDGE_LOOP('',(#671));
#671 = ORIENTED_EDGE('',*,*,#583,.T.);
#672 = FACE_BOUND('',#673,.T.);
#673 = EDGE_LOOP('',(#674));
#674 = ORIENTED_EDGE('',*,*,#675,.F.);
#675 = EDGE_CURVE('',#676,#676,#678,.T.);
#676 = VERTEX_POINT('',#677);
#677 = CARTESIAN_POINT('',(-288.024838,-94.084584,-3.));
#678 = CIRCLE('',#679,3.9);
#679 = AXIS2_PLACEMENT_3D('',#680,#681,#682);
#680 = CARTESIAN_POINT('',(-291.924838,-94.084584,-3.));
#681 = DIRECTION('',(0.,0.,1.));
#682 = DIRECTION('',(1.,0.,0.));
#683 = PLANE('',#684);
#684 = AXIS2_PLACEMENT_3D('',#685,#686,#687);
#685 = CARTESIAN_POINT('',(-291.924838,-94.084584,-3.));
#686 = DIRECTION('',(0.,0.,1.));
#687 = DIRECTION('',(1.,0.,0.));
#688 = ADVANCED_FACE('',(#689),#708,.F.);
#689 = FACE_BOUND('',#690,.F.);
#690 = EDGE_LOOP('',(#691,#699,#706,#707));
#691 = ORIENTED_EDGE('',*,*,#692,.T.);
#692 = EDGE_CURVE('',#676,#693,#695,.T.);
#693 = VERTEX_POINT('',#694);
#694 = CARTESIAN_POINT('',(-288.024838,-94.084584,-4.5));
#695 = LINE('',#696,#697);
#696 = CARTESIAN_POINT('',(-288.024838,-94.084584,-3.));
#697 = VECTOR('',#698,1.);
#698 = DIRECTION('',(-0.,-0.,-1.));
#699 = ORIENTED_EDGE('',*,*,#700,.T.);
#700 = EDGE_CURVE('',#693,#693,#701,.T.);
#701 = CIRCLE('',#702,3.9);
#702 = AXIS2_PLACEMENT_3D('',#703,#704,#705);
#703 = CARTESIAN_POINT('',(-291.924838,-94.084584,-4.5));
#704 = DIRECTION('',(0.,0.,1.));
#705 = DIRECTION('',(1.,0.,0.));
#706 = ORIENTED_EDGE('',*,*,#692,.F.);
#707 = ORIENTED_EDGE('',*,*,#675,.F.);
#708 = CYLINDRICAL_SURFACE('',#709,3.9);
#709 = AXIS2_PLACEMENT_3D('',#710,#711,#712);
#710 = CARTESIAN_POINT('',(-291.924838,-94.084584,-3.));
#711 = DIRECTION('',(0.,0.,1.));
#712 = DIRECTION('',(1.,0.,-0.));
#713 = ADVANCED_FACE('',(#714),#717,.T.);
#714 = FACE_BOUND('',#715,.T.);
#715 = EDGE_LOOP('',(#716));
#716 = ORIENTED_EDGE('',*,*,#700,.T.);
#717 = PLANE('',#718);
#718 = AXIS2_PLACEMENT_3D('',#719,#720,#721);
#719 = CARTESIAN_POINT('',(-291.924838,-94.084584,-4.5));
#720 = DIRECTION('',(0.,0.,1.));
#721 = DIRECTION('',(1.,0.,0.));
#722 = ( GEOMETRIC_REPRESENTATION_CONTEXT(3) 
GLOBAL_UNCERTAINTY_ASSIGNED_CONTEXT((#726)) GLOBAL_UNIT_ASSIGNED_CONTEXT
((#723,#724,#725)) REPRESENTATION_CONTEXT('Context #1',
  '3D Context with UNIT and UNCERTAINTY') );
#723 = ( LENGTH_UNIT() NAMED_UNIT(*) SI_UNIT(.MILLI.,.METRE.) );
#724 = ( NAMED_UNIT(*) PLANE_ANGLE_UNIT() SI_UNIT($,.RADIAN.) );
#725 = ( NAMED_UNIT(*) SI_UNIT($,.STERADIAN.) SOLID_ANGLE_UNIT() );
#726 = UNCERTAINTY_MEASURE_WITH_UNIT(LENGTH_MEASURE(2.E-05),#723,
  'distance_accuracy_value','confusion accuracy');
#727 = PRODUCT_RELATED_PRODUCT_CATEGORY('part',$,(#7));
#728 = MECHANICAL_DESIGN_GEOMETRIC_PRESENTATION_REPRESENTATION('',(#729)
  ,#722);
#729 = STYLED_ITEM('color',(#730),#15);
#730 = PRESENTATION_STYLE_ASSIGNMENT((#731,#737));
#731 = SURFACE_STYLE_USAGE(.BOTH.,#732);
#732 = SURFACE_SIDE_STYLE('',(#733));
#733 = SURFACE_STYLE_FILL_AREA(#734);
#734 = FILL_AREA_STYLE('',(#735));
#735 = FILL_AREA_STYLE_COLOUR('',#736);
#736 = COLOUR_RGB('',0.447058818107,0.474509808674,0.501960817233);
#737 = CURVE_STYLE('',#738,POSITIVE_LENGTH_MEASURE(0.1),#739);
#738 = DRAUGHTING_PRE_DEFINED_CURVE_FONT('continuous');
#739 = COLOUR_RGB('',9.803921802644E-02,9.803921802644E-02,
  9.803921802644E-02);
ENDSEC;
END-ISO-10303-21;
