ISO-10303-21;
HEADER;
FILE_DESCRIPTION(('FreeCAD Model'),'2;1');
FILE_NAME('Open CASCADE Shape Model','2026-08-27T18:06:39',(''),(''),
  'Open CASCADE STEP processor 7.8','FreeCAD','Unknown');
FILE_SCHEMA(('AUTOMOTIVE_DESIGN { 1 0 10303 214 1 1 1 1 }'));
ENDSEC;
DATA;
#1 = APPLICATION_PROTOCOL_DEFINITION('international standard',
  'automotive_design',2000,#2);
#2 = APPLICATION_CONTEXT(
  'core data for automotive mechanical design processes');
#3 = SHAPE_DEFINITION_REPRESENTATION(#4,#10);
#4 = PRODUCT_DEFINITION_SHAPE('','',#5);
#5 = PRODUCT_DEFINITION('design','',#6,#9);
#6 = PRODUCT_DEFINITION_FORMATION('','',#7);
#7 = PRODUCT('Pocket001','Pocket001','',(#8));
#8 = PRODUCT_CONTEXT('',#2,'mechanical');
#9 = PRODUCT_DEFINITION_CONTEXT('part definition',#2,'design');
#10 = ADVANCED_BREP_SHAPE_REPRESENTATION('',(#11,#15),#429);
#11 = AXIS2_PLACEMENT_3D('',#12,#13,#14);
#12 = CARTESIAN_POINT('',(0.,0.,0.));
#13 = DIRECTION('',(0.,0.,1.));
#14 = DIRECTION('',(1.,0.,-0.));
#15 = MANIFOLD_SOLID_BREP('',#16);
#16 = CLOSED_SHELL('',(#17,#57,#88,#119,#200,#281,#298,#315,#332,#349,
    #366,#383,#400,#417));
#17 = ADVANCED_FACE('',(#18),#52,.F.);
#18 = FACE_BOUND('',#19,.F.);
#19 = EDGE_LOOP('',(#20,#30,#38,#46));
#20 = ORIENTED_EDGE('',*,*,#21,.T.);
#21 = EDGE_CURVE('',#22,#24,#26,.T.);
#22 = VERTEX_POINT('',#23);
#23 = CARTESIAN_POINT('',(-48.239353,27.897503,0.));
#24 = VERTEX_POINT('',#25);
#25 = CARTESIAN_POINT('',(-48.239353,27.897503,14.));
#26 = LINE('',#27,#28);
#27 = CARTESIAN_POINT('',(-48.239353,27.897503,0.));
#28 = VECTOR('',#29,1.);
#29 = DIRECTION('',(0.,0.,1.));
#30 = ORIENTED_EDGE('',*,*,#31,.T.);
#31 = EDGE_CURVE('',#24,#32,#34,.T.);
#32 = VERTEX_POINT('',#33);
#33 = CARTESIAN_POINT('',(-48.239353,22.897503,14.));
#34 = LINE('',#35,#36);
#35 = CARTESIAN_POINT('',(-48.239353,27.897503,14.));
#36 = VECTOR('',#37,1.);
#37 = DIRECTION('',(0.,-1.,0.));
#38 = ORIENTED_EDGE('',*,*,#39,.F.);
#39 = EDGE_CURVE('',#40,#32,#42,.T.);
#40 = VERTEX_POINT('',#41);
#41 = CARTESIAN_POINT('',(-48.239353,22.897503,0.));
#42 = LINE('',#43,#44);
#43 = CARTESIAN_POINT('',(-48.239353,22.897503,0.));
#44 = VECTOR('',#45,1.);
#45 = DIRECTION('',(0.,0.,1.));
#46 = ORIENTED_EDGE('',*,*,#47,.F.);
#47 = EDGE_CURVE('',#22,#40,#48,.T.);
#48 = LINE('',#49,#50);
#49 = CARTESIAN_POINT('',(-48.239353,27.897503,0.));
#50 = VECTOR('',#51,1.);
#51 = DIRECTION('',(0.,-1.,0.));
#52 = PLANE('',#53);
#53 = AXIS2_PLACEMENT_3D('',#54,#55,#56);
#54 = CARTESIAN_POINT('',(-48.239353,27.897503,0.));
#55 = DIRECTION('',(1.,0.,0.));
#56 = DIRECTION('',(0.,-1.,0.));
#57 = ADVANCED_FACE('',(#58),#83,.F.);
#58 = FACE_BOUND('',#59,.F.);
#59 = EDGE_LOOP('',(#60,#70,#76,#77));
#60 = ORIENTED_EDGE('',*,*,#61,.T.);
#61 = EDGE_CURVE('',#62,#64,#66,.T.);
#62 = VERTEX_POINT('',#63);
#63 = CARTESIAN_POINT('',(-37.739353,27.897503,0.));
#64 = VERTEX_POINT('',#65);
#65 = CARTESIAN_POINT('',(-37.739353,27.897503,14.));
#66 = LINE('',#67,#68);
#67 = CARTESIAN_POINT('',(-37.739353,27.897503,0.));
#68 = VECTOR('',#69,1.);
#69 = DIRECTION('',(0.,0.,1.));
#70 = ORIENTED_EDGE('',*,*,#71,.T.);
#71 = EDGE_CURVE('',#64,#24,#72,.T.);
#72 = LINE('',#73,#74);
#73 = CARTESIAN_POINT('',(-37.739353,27.897503,14.));
#74 = VECTOR('',#75,1.);
#75 = DIRECTION('',(-1.,0.,0.));
#76 = ORIENTED_EDGE('',*,*,#21,.F.);
#77 = ORIENTED_EDGE('',*,*,#78,.F.);
#78 = EDGE_CURVE('',#62,#22,#79,.T.);
#79 = LINE('',#80,#81);
#80 = CARTESIAN_POINT('',(-37.739353,27.897503,0.));
#81 = VECTOR('',#82,1.);
#82 = DIRECTION('',(-1.,0.,0.));
#83 = PLANE('',#84);
#84 = AXIS2_PLACEMENT_3D('',#85,#86,#87);
#85 = CARTESIAN_POINT('',(-37.739353,27.897503,0.));
#86 = DIRECTION('',(0.,-1.,0.));
#87 = DIRECTION('',(-1.,0.,0.));
#88 = ADVANCED_FACE('',(#89),#114,.F.);
#89 = FACE_BOUND('',#90,.F.);
#90 = EDGE_LOOP('',(#91,#99,#100,#108));
#91 = ORIENTED_EDGE('',*,*,#92,.F.);
#92 = EDGE_CURVE('',#40,#93,#95,.T.);
#93 = VERTEX_POINT('',#94);
#94 = CARTESIAN_POINT('',(-45.239353,22.897503,0.));
#95 = LINE('',#96,#97);
#96 = CARTESIAN_POINT('',(-48.239353,22.897503,0.));
#97 = VECTOR('',#98,1.);
#98 = DIRECTION('',(1.,0.,0.));
#99 = ORIENTED_EDGE('',*,*,#39,.T.);
#100 = ORIENTED_EDGE('',*,*,#101,.T.);
#101 = EDGE_CURVE('',#32,#102,#104,.T.);
#102 = VERTEX_POINT('',#103);
#103 = CARTESIAN_POINT('',(-45.239353,22.897503,14.));
#104 = LINE('',#105,#106);
#105 = CARTESIAN_POINT('',(-48.239353,22.897503,14.));
#106 = VECTOR('',#107,1.);
#107 = DIRECTION('',(1.,0.,0.));
#108 = ORIENTED_EDGE('',*,*,#109,.T.);
#109 = EDGE_CURVE('',#102,#93,#110,.T.);
#110 = LINE('',#111,#112);
#111 = CARTESIAN_POINT('',(-45.239353,22.897503,14.));
#112 = VECTOR('',#113,1.);
#113 = DIRECTION('',(-0.,-0.,-1.));
#114 = PLANE('',#115);
#115 = AXIS2_PLACEMENT_3D('',#116,#117,#118);
#116 = CARTESIAN_POINT('',(-48.239353,22.897503,0.));
#117 = DIRECTION('',(0.,1.,0.));
#118 = DIRECTION('',(1.,0.,0.));
#119 = ADVANCED_FACE('',(#120),#195,.T.);
#120 = FACE_BOUND('',#121,.T.);
#121 = EDGE_LOOP('',(#122,#123,#124,#132,#140,#148,#156,#164,#172,#180,
    #188,#194));
#122 = ORIENTED_EDGE('',*,*,#47,.F.);
#123 = ORIENTED_EDGE('',*,*,#78,.F.);
#124 = ORIENTED_EDGE('',*,*,#125,.F.);
#125 = EDGE_CURVE('',#126,#62,#128,.T.);
#126 = VERTEX_POINT('',#127);
#127 = CARTESIAN_POINT('',(-37.739353,22.897503,0.));
#128 = LINE('',#129,#130);
#129 = CARTESIAN_POINT('',(-37.739353,22.897503,0.));
#130 = VECTOR('',#131,1.);
#131 = DIRECTION('',(0.,1.,0.));
#132 = ORIENTED_EDGE('',*,*,#133,.F.);
#133 = EDGE_CURVE('',#134,#126,#136,.T.);
#134 = VERTEX_POINT('',#135);
#135 = CARTESIAN_POINT('',(-40.739353,22.897503,0.));
#136 = LINE('',#137,#138);
#137 = CARTESIAN_POINT('',(-48.239353,22.897503,0.));
#138 = VECTOR('',#139,1.);
#139 = DIRECTION('',(1.,0.,0.));
#140 = ORIENTED_EDGE('',*,*,#141,.F.);
#141 = EDGE_CURVE('',#142,#134,#144,.T.);
#142 = VERTEX_POINT('',#143);
#143 = CARTESIAN_POINT('',(-40.739353,18.897503,0.));
#144 = LINE('',#145,#146);
#145 = CARTESIAN_POINT('',(-40.739353,17.897503,0.));
#146 = VECTOR('',#147,1.);
#147 = DIRECTION('',(0.,1.,0.));
#148 = ORIENTED_EDGE('',*,*,#149,.T.);
#149 = EDGE_CURVE('',#142,#150,#152,.T.);
#150 = VERTEX_POINT('',#151);
#151 = CARTESIAN_POINT('',(-40.239353,18.897503,0.));
#152 = LINE('',#153,#154);
#153 = CARTESIAN_POINT('',(-45.739353,18.897503,0.));
#154 = VECTOR('',#155,1.);
#155 = DIRECTION('',(1.,0.,0.));
#156 = ORIENTED_EDGE('',*,*,#157,.T.);
#157 = EDGE_CURVE('',#150,#158,#160,.T.);
#158 = VERTEX_POINT('',#159);
#159 = CARTESIAN_POINT('',(-40.239353,-47.102497,1.5E-14));
#160 = LINE('',#161,#162);
#161 = CARTESIAN_POINT('',(-40.239353,18.897503,0.));
#162 = VECTOR('',#163,1.);
#163 = DIRECTION('',(0.,-1.,2.2E-16));
#164 = ORIENTED_EDGE('',*,*,#165,.F.);
#165 = EDGE_CURVE('',#166,#158,#168,.T.);
#166 = VERTEX_POINT('',#167);
#167 = CARTESIAN_POINT('',(-45.739353,-47.102497,1.5E-14));
#168 = LINE('',#169,#170);
#169 = CARTESIAN_POINT('',(-45.739353,-47.102497,1.4E-14));
#170 = VECTOR('',#171,1.);
#171 = DIRECTION('',(1.,0.,0.));
#172 = ORIENTED_EDGE('',*,*,#173,.F.);
#173 = EDGE_CURVE('',#174,#166,#176,.T.);
#174 = VERTEX_POINT('',#175);
#175 = CARTESIAN_POINT('',(-45.739353,18.897503,0.));
#176 = LINE('',#177,#178);
#177 = CARTESIAN_POINT('',(-45.739353,18.897503,0.));
#178 = VECTOR('',#179,1.);
#179 = DIRECTION('',(0.,-1.,2.2E-16));
#180 = ORIENTED_EDGE('',*,*,#181,.T.);
#181 = EDGE_CURVE('',#174,#182,#184,.T.);
#182 = VERTEX_POINT('',#183);
#183 = CARTESIAN_POINT('',(-45.239353,18.897503,0.));
#184 = LINE('',#185,#186);
#185 = CARTESIAN_POINT('',(-45.739353,18.897503,0.));
#186 = VECTOR('',#187,1.);
#187 = DIRECTION('',(1.,0.,0.));
#188 = ORIENTED_EDGE('',*,*,#189,.F.);
#189 = EDGE_CURVE('',#93,#182,#190,.T.);
#190 = LINE('',#191,#192);
#191 = CARTESIAN_POINT('',(-45.239353,22.897503,0.));
#192 = VECTOR('',#193,1.);
#193 = DIRECTION('',(0.,-1.,0.));
#194 = ORIENTED_EDGE('',*,*,#92,.F.);
#195 = PLANE('',#196);
#196 = AXIS2_PLACEMENT_3D('',#197,#198,#199);
#197 = CARTESIAN_POINT('',(-42.989353,-12.16208249222,7.13E-15));
#198 = DIRECTION('',(-0.,-0.,-1.));
#199 = DIRECTION('',(-1.,0.,0.));
#200 = ADVANCED_FACE('',(#201),#276,.T.);
#201 = FACE_BOUND('',#202,.T.);
#202 = EDGE_LOOP('',(#203,#213,#219,#220,#221,#222,#230,#238,#246,#254,
    #262,#270));
#203 = ORIENTED_EDGE('',*,*,#204,.T.);
#204 = EDGE_CURVE('',#205,#207,#209,.T.);
#205 = VERTEX_POINT('',#206);
#206 = CARTESIAN_POINT('',(-40.739353,22.897503,14.));
#207 = VERTEX_POINT('',#208);
#208 = CARTESIAN_POINT('',(-37.739353,22.897503,14.));
#209 = LINE('',#210,#211);
#210 = CARTESIAN_POINT('',(-48.239353,22.897503,14.));
#211 = VECTOR('',#212,1.);
#212 = DIRECTION('',(1.,0.,0.));
#213 = ORIENTED_EDGE('',*,*,#214,.T.);
#214 = EDGE_CURVE('',#207,#64,#215,.T.);
#215 = LINE('',#216,#217);
#216 = CARTESIAN_POINT('',(-37.739353,22.897503,14.));
#217 = VECTOR('',#218,1.);
#218 = DIRECTION('',(0.,1.,0.));
#219 = ORIENTED_EDGE('',*,*,#71,.T.);
#220 = ORIENTED_EDGE('',*,*,#31,.T.);
#221 = ORIENTED_EDGE('',*,*,#101,.T.);
#222 = ORIENTED_EDGE('',*,*,#223,.T.);
#223 = EDGE_CURVE('',#102,#224,#226,.T.);
#224 = VERTEX_POINT('',#225);
#225 = CARTESIAN_POINT('',(-45.239353,18.897503,14.));
#226 = LINE('',#227,#228);
#227 = CARTESIAN_POINT('',(-45.239353,22.897503,14.));
#228 = VECTOR('',#229,1.);
#229 = DIRECTION('',(0.,-1.,0.));
#230 = ORIENTED_EDGE('',*,*,#231,.T.);
#231 = EDGE_CURVE('',#224,#232,#234,.T.);
#232 = VERTEX_POINT('',#233);
#233 = CARTESIAN_POINT('',(-45.739353,18.897503,14.));
#234 = LINE('',#235,#236);
#235 = CARTESIAN_POINT('',(-40.239353,18.897503,14.));
#236 = VECTOR('',#237,1.);
#237 = DIRECTION('',(-1.,0.,0.));
#238 = ORIENTED_EDGE('',*,*,#239,.T.);
#239 = EDGE_CURVE('',#232,#240,#242,.T.);
#240 = VERTEX_POINT('',#241);
#241 = CARTESIAN_POINT('',(-45.739353,-47.102497,14.));
#242 = LINE('',#243,#244);
#243 = CARTESIAN_POINT('',(-45.739353,18.897503,14.));
#244 = VECTOR('',#245,1.);
#245 = DIRECTION('',(0.,-1.,2.2E-16));
#246 = ORIENTED_EDGE('',*,*,#247,.F.);
#247 = EDGE_CURVE('',#248,#240,#250,.T.);
#248 = VERTEX_POINT('',#249);
#249 = CARTESIAN_POINT('',(-40.239353,-47.102497,14.));
#250 = LINE('',#251,#252);
#251 = CARTESIAN_POINT('',(-40.239353,-47.102497,14.));
#252 = VECTOR('',#253,1.);
#253 = DIRECTION('',(-1.,0.,0.));
#254 = ORIENTED_EDGE('',*,*,#255,.F.);
#255 = EDGE_CURVE('',#256,#248,#258,.T.);
#256 = VERTEX_POINT('',#257);
#257 = CARTESIAN_POINT('',(-40.239353,18.897503,14.));
#258 = LINE('',#259,#260);
#259 = CARTESIAN_POINT('',(-40.239353,18.897503,14.));
#260 = VECTOR('',#261,1.);
#261 = DIRECTION('',(0.,-1.,2.2E-16));
#262 = ORIENTED_EDGE('',*,*,#263,.T.);
#263 = EDGE_CURVE('',#256,#264,#266,.T.);
#264 = VERTEX_POINT('',#265);
#265 = CARTESIAN_POINT('',(-40.739353,18.897503,14.));
#266 = LINE('',#267,#268);
#267 = CARTESIAN_POINT('',(-40.239353,18.897503,14.));
#268 = VECTOR('',#269,1.);
#269 = DIRECTION('',(-1.,0.,0.));
#270 = ORIENTED_EDGE('',*,*,#271,.T.);
#271 = EDGE_CURVE('',#264,#205,#272,.T.);
#272 = LINE('',#273,#274);
#273 = CARTESIAN_POINT('',(-40.739353,17.897503,14.));
#274 = VECTOR('',#275,1.);
#275 = DIRECTION('',(0.,1.,0.));
#276 = PLANE('',#277);
#277 = AXIS2_PLACEMENT_3D('',#278,#279,#280);
#278 = CARTESIAN_POINT('',(-42.989353,-12.16208249222,14.));
#279 = DIRECTION('',(0.,2.3E-16,1.));
#280 = DIRECTION('',(0.,1.,-2.3E-16));
#281 = ADVANCED_FACE('',(#282),#293,.F.);
#282 = FACE_BOUND('',#283,.F.);
#283 = EDGE_LOOP('',(#284,#290,#291,#292));
#284 = ORIENTED_EDGE('',*,*,#285,.T.);
#285 = EDGE_CURVE('',#126,#207,#286,.T.);
#286 = LINE('',#287,#288);
#287 = CARTESIAN_POINT('',(-37.739353,22.897503,0.));
#288 = VECTOR('',#289,1.);
#289 = DIRECTION('',(0.,0.,1.));
#290 = ORIENTED_EDGE('',*,*,#214,.T.);
#291 = ORIENTED_EDGE('',*,*,#61,.F.);
#292 = ORIENTED_EDGE('',*,*,#125,.F.);
#293 = PLANE('',#294);
#294 = AXIS2_PLACEMENT_3D('',#295,#296,#297);
#295 = CARTESIAN_POINT('',(-37.739353,22.897503,0.));
#296 = DIRECTION('',(-1.,0.,0.));
#297 = DIRECTION('',(0.,1.,0.));
#298 = ADVANCED_FACE('',(#299),#310,.T.);
#299 = FACE_BOUND('',#300,.T.);
#300 = EDGE_LOOP('',(#301,#302,#303,#304));
#301 = ORIENTED_EDGE('',*,*,#223,.F.);
#302 = ORIENTED_EDGE('',*,*,#109,.T.);
#303 = ORIENTED_EDGE('',*,*,#189,.T.);
#304 = ORIENTED_EDGE('',*,*,#305,.F.);
#305 = EDGE_CURVE('',#224,#182,#306,.T.);
#306 = LINE('',#307,#308);
#307 = CARTESIAN_POINT('',(-45.239353,18.897503,10.5));
#308 = VECTOR('',#309,1.);
#309 = DIRECTION('',(-0.,-2.5E-16,-1.));
#310 = PLANE('',#311);
#311 = AXIS2_PLACEMENT_3D('',#312,#313,#314);
#312 = CARTESIAN_POINT('',(-45.239353,22.897503,14.));
#313 = DIRECTION('',(-1.,0.,0.));
#314 = DIRECTION('',(0.,-1.,0.));
#315 = ADVANCED_FACE('',(#316),#327,.T.);
#316 = FACE_BOUND('',#317,.T.);
#317 = EDGE_LOOP('',(#318,#324,#325,#326));
#318 = ORIENTED_EDGE('',*,*,#319,.F.);
#319 = EDGE_CURVE('',#232,#174,#320,.T.);
#320 = LINE('',#321,#322);
#321 = CARTESIAN_POINT('',(-45.739353,18.897503,14.));
#322 = VECTOR('',#323,1.);
#323 = DIRECTION('',(0.,0.,-1.));
#324 = ORIENTED_EDGE('',*,*,#231,.F.);
#325 = ORIENTED_EDGE('',*,*,#305,.T.);
#326 = ORIENTED_EDGE('',*,*,#181,.F.);
#327 = PLANE('',#328);
#328 = AXIS2_PLACEMENT_3D('',#329,#330,#331);
#329 = CARTESIAN_POINT('',(-42.989353,18.897503,7.));
#330 = DIRECTION('',(0.,1.,-2.5E-16));
#331 = DIRECTION('',(0.,2.5E-16,1.));
#332 = ADVANCED_FACE('',(#333),#344,.F.);
#333 = FACE_BOUND('',#334,.F.);
#334 = EDGE_LOOP('',(#335,#336,#337,#343));
#335 = ORIENTED_EDGE('',*,*,#319,.F.);
#336 = ORIENTED_EDGE('',*,*,#239,.T.);
#337 = ORIENTED_EDGE('',*,*,#338,.T.);
#338 = EDGE_CURVE('',#240,#166,#339,.T.);
#339 = LINE('',#340,#341);
#340 = CARTESIAN_POINT('',(-45.739353,-47.102497,14.));
#341 = VECTOR('',#342,1.);
#342 = DIRECTION('',(0.,0.,-1.));
#343 = ORIENTED_EDGE('',*,*,#173,.F.);
#344 = PLANE('',#345);
#345 = AXIS2_PLACEMENT_3D('',#346,#347,#348);
#346 = CARTESIAN_POINT('',(-45.739353,18.897503,14.));
#347 = DIRECTION('',(1.,0.,0.));
#348 = DIRECTION('',(0.,-2.2E-16,-1.));
#349 = ADVANCED_FACE('',(#350),#361,.F.);
#350 = FACE_BOUND('',#351,.T.);
#351 = EDGE_LOOP('',(#352,#353,#354,#360));
#352 = ORIENTED_EDGE('',*,*,#338,.T.);
#353 = ORIENTED_EDGE('',*,*,#165,.T.);
#354 = ORIENTED_EDGE('',*,*,#355,.T.);
#355 = EDGE_CURVE('',#158,#248,#356,.T.);
#356 = LINE('',#357,#358);
#357 = CARTESIAN_POINT('',(-40.239353,-47.102497,1.4E-14));
#358 = VECTOR('',#359,1.);
#359 = DIRECTION('',(0.,0.,1.));
#360 = ORIENTED_EDGE('',*,*,#247,.T.);
#361 = PLANE('',#362);
#362 = AXIS2_PLACEMENT_3D('',#363,#364,#365);
#363 = CARTESIAN_POINT('',(-42.989353,-47.102497,7.));
#364 = DIRECTION('',(0.,1.,-2.5E-16));
#365 = DIRECTION('',(0.,2.5E-16,1.));
#366 = ADVANCED_FACE('',(#367),#378,.F.);
#367 = FACE_BOUND('',#368,.F.);
#368 = EDGE_LOOP('',(#369,#375,#376,#377));
#369 = ORIENTED_EDGE('',*,*,#370,.F.);
#370 = EDGE_CURVE('',#150,#256,#371,.T.);
#371 = LINE('',#372,#373);
#372 = CARTESIAN_POINT('',(-40.239353,18.897503,0.));
#373 = VECTOR('',#374,1.);
#374 = DIRECTION('',(0.,0.,1.));
#375 = ORIENTED_EDGE('',*,*,#157,.T.);
#376 = ORIENTED_EDGE('',*,*,#355,.T.);
#377 = ORIENTED_EDGE('',*,*,#255,.F.);
#378 = PLANE('',#379);
#379 = AXIS2_PLACEMENT_3D('',#380,#381,#382);
#380 = CARTESIAN_POINT('',(-40.239353,18.897503,0.));
#381 = DIRECTION('',(-1.,0.,0.));
#382 = DIRECTION('',(0.,2.2E-16,1.));
#383 = ADVANCED_FACE('',(#384),#395,.T.);
#384 = FACE_BOUND('',#385,.T.);
#385 = EDGE_LOOP('',(#386,#392,#393,#394));
#386 = ORIENTED_EDGE('',*,*,#387,.T.);
#387 = EDGE_CURVE('',#142,#264,#388,.T.);
#388 = LINE('',#389,#390);
#389 = CARTESIAN_POINT('',(-40.739353,18.897503,10.5));
#390 = VECTOR('',#391,1.);
#391 = DIRECTION('',(0.,2.5E-16,1.));
#392 = ORIENTED_EDGE('',*,*,#263,.F.);
#393 = ORIENTED_EDGE('',*,*,#370,.F.);
#394 = ORIENTED_EDGE('',*,*,#149,.F.);
#395 = PLANE('',#396);
#396 = AXIS2_PLACEMENT_3D('',#397,#398,#399);
#397 = CARTESIAN_POINT('',(-42.989353,18.897503,7.));
#398 = DIRECTION('',(0.,1.,-2.5E-16));
#399 = DIRECTION('',(0.,2.5E-16,1.));
#400 = ADVANCED_FACE('',(#401),#412,.T.);
#401 = FACE_BOUND('',#402,.T.);
#402 = EDGE_LOOP('',(#403,#404,#405,#406));
#403 = ORIENTED_EDGE('',*,*,#271,.F.);
#404 = ORIENTED_EDGE('',*,*,#387,.F.);
#405 = ORIENTED_EDGE('',*,*,#141,.T.);
#406 = ORIENTED_EDGE('',*,*,#407,.F.);
#407 = EDGE_CURVE('',#205,#134,#408,.T.);
#408 = LINE('',#409,#410);
#409 = CARTESIAN_POINT('',(-40.739353,22.897503,14.));
#410 = VECTOR('',#411,1.);
#411 = DIRECTION('',(-0.,-0.,-1.));
#412 = PLANE('',#413);
#413 = AXIS2_PLACEMENT_3D('',#414,#415,#416);
#414 = CARTESIAN_POINT('',(-40.739353,17.897503,14.));
#415 = DIRECTION('',(1.,0.,0.));
#416 = DIRECTION('',(0.,1.,0.));
#417 = ADVANCED_FACE('',(#418),#424,.F.);
#418 = FACE_BOUND('',#419,.F.);
#419 = EDGE_LOOP('',(#420,#421,#422,#423));
#420 = ORIENTED_EDGE('',*,*,#133,.F.);
#421 = ORIENTED_EDGE('',*,*,#407,.F.);
#422 = ORIENTED_EDGE('',*,*,#204,.T.);
#423 = ORIENTED_EDGE('',*,*,#285,.F.);
#424 = PLANE('',#425);
#425 = AXIS2_PLACEMENT_3D('',#426,#427,#428);
#426 = CARTESIAN_POINT('',(-48.239353,22.897503,0.));
#427 = DIRECTION('',(0.,1.,0.));
#428 = DIRECTION('',(1.,0.,0.));
#429 = ( GEOMETRIC_REPRESENTATION_CONTEXT(3) 
GLOBAL_UNCERTAINTY_ASSIGNED_CONTEXT((#433)) GLOBAL_UNIT_ASSIGNED_CONTEXT
((#430,#431,#432)) REPRESENTATION_CONTEXT('Context #1',
  '3D Context with UNIT and UNCERTAINTY') );
#430 = ( LENGTH_UNIT() NAMED_UNIT(*) SI_UNIT(.MILLI.,.METRE.) );
#431 = ( NAMED_UNIT(*) PLANE_ANGLE_UNIT() SI_UNIT($,.RADIAN.) );
#432 = ( NAMED_UNIT(*) SI_UNIT($,.STERADIAN.) SOLID_ANGLE_UNIT() );
#433 = UNCERTAINTY_MEASURE_WITH_UNIT(LENGTH_MEASURE(1.E-06),#430,
  'distance_accuracy_value','confusion accuracy');
#434 = PRODUCT_RELATED_PRODUCT_CATEGORY('part',$,(#7));
#435 = MECHANICAL_DESIGN_GEOMETRIC_PRESENTATION_REPRESENTATION('',(#436)
  ,#429);
#436 = STYLED_ITEM('color',(#437),#15);
#437 = PRESENTATION_STYLE_ASSIGNMENT((#438,#444));
#438 = SURFACE_STYLE_USAGE(.BOTH.,#439);
#439 = SURFACE_SIDE_STYLE('',(#440));
#440 = SURFACE_STYLE_FILL_AREA(#441);
#441 = FILL_AREA_STYLE('',(#442));
#442 = FILL_AREA_STYLE_COLOUR('',#443);
#443 = COLOUR_RGB('',0.447058818107,0.474509808674,0.501960817233);
#444 = CURVE_STYLE('',#445,POSITIVE_LENGTH_MEASURE(0.1),#446);
#445 = DRAUGHTING_PRE_DEFINED_CURVE_FONT('continuous');
#446 = COLOUR_RGB('',9.803921802644E-02,9.803921802644E-02,
  9.803921802644E-02);
ENDSEC;
END-ISO-10303-21;
