ISO-10303-21;
HEADER;
FILE_DESCRIPTION(('FreeCAD Model'),'2;1');
FILE_NAME('Open CASCADE Shape Model','2026-08-27T18:09:03',(''),(''),
  'Open CASCADE STEP processor 7.8','FreeCAD','Unknown');
FILE_SCHEMA(('AUTOMOTIVE_DESIGN { 1 0 10303 214 1 1 1 1 }'));
ENDSEC;
DATA;
#1 = APPLICATION_PROTOCOL_DEFINITION('international standard',
  'automotive_design',2000,#2);
#2 = APPLICATION_CONTEXT(
  'core data for automotive mechanical design processes');
#3 = SHAPE_DEFINITION_REPRESENTATION(#4,#10);
#4 = PRODUCT_DEFINITION_SHAPE('','',#5);
#5 = PRODUCT_DEFINITION('design','',#6,#9);
#6 = PRODUCT_DEFINITION_FORMATION('','',#7);
#7 = PRODUCT('Pocket016','Pocket016','',(#8));
#8 = PRODUCT_CONTEXT('',#2,'mechanical');
#9 = PRODUCT_DEFINITION_CONTEXT('part definition',#2,'design');
#10 = ADVANCED_BREP_SHAPE_REPRESENTATION('',(#11,#15),#2169);
#11 = AXIS2_PLACEMENT_3D('',#12,#13,#14);
#12 = CARTESIAN_POINT('',(0.,0.,0.));
#13 = DIRECTION('',(0.,0.,1.));
#14 = DIRECTION('',(1.,0.,-0.));
#15 = MANIFOLD_SOLID_BREP('',#16);
#16 = CLOSED_SHELL('',(#17,#79,#174,#198,#286,#464,#489,#514,#531,#548,
    #565,#582,#621,#799,#845,#1002,#1025,#1042,#1059,#1076,#1109,#1148,
    #1194,#1234,#1258,#1282,#1306,#1376,#1400,#1424,#1448,#1472,#1496,
    #1513,#1538,#1555,#1572,#1589,#1606,#1659,#1685,#1709,#1733,#1757,
    #1781,#1805,#1829,#1846,#1870,#1904,#1921,#1938,#1955,#1972,#1997,
    #2014,#2031,#2051,#2068,#2085,#2097,#2117,#2126,#2143,#2160));
#17 = ADVANCED_FACE('',(#18,#52,#63),#74,.F.);
#18 = FACE_BOUND('',#19,.F.);
#19 = EDGE_LOOP('',(#20,#30,#38,#46));
#20 = ORIENTED_EDGE('',*,*,#21,.F.);
#21 = EDGE_CURVE('',#22,#24,#26,.T.);
#22 = VERTEX_POINT('',#23);
#23 = CARTESIAN_POINT('',(21.122066,-15.709016,76.));
#24 = VERTEX_POINT('',#25);
#25 = CARTESIAN_POINT('',(21.122066,-0.709016,76.));
#26 = LINE('',#27,#28);
#27 = CARTESIAN_POINT('',(21.122066,-15.709016,76.));
#28 = VECTOR('',#29,1.);
#29 = DIRECTION('',(0.,1.,0.));
#30 = ORIENTED_EDGE('',*,*,#31,.T.);
#31 = EDGE_CURVE('',#22,#32,#34,.T.);
#32 = VERTEX_POINT('',#33);
#33 = CARTESIAN_POINT('',(21.122066,-15.709016,60.));
#34 = LINE('',#35,#36);
#35 = CARTESIAN_POINT('',(21.122066,-15.709016,76.));
#36 = VECTOR('',#37,1.);
#37 = DIRECTION('',(-0.,-0.,-1.));
#38 = ORIENTED_EDGE('',*,*,#39,.F.);
#39 = EDGE_CURVE('',#40,#32,#42,.T.);
#40 = VERTEX_POINT('',#41);
#41 = CARTESIAN_POINT('',(21.122066,-0.709016,60.));
#42 = LINE('',#43,#44);
#43 = CARTESIAN_POINT('',(21.122066,-15.709016,60.));
#44 = VECTOR('',#45,1.);
#45 = DIRECTION('',(0.,-1.,2.2E-16));
#46 = ORIENTED_EDGE('',*,*,#47,.F.);
#47 = EDGE_CURVE('',#24,#40,#48,.T.);
#48 = LINE('',#49,#50);
#49 = CARTESIAN_POINT('',(21.122066,-0.709016,76.));
#50 = VECTOR('',#51,1.);
#51 = DIRECTION('',(-0.,-0.,-1.));
#52 = FACE_BOUND('',#53,.F.);
#53 = EDGE_LOOP('',(#54));
#54 = ORIENTED_EDGE('',*,*,#55,.F.);
#55 = EDGE_CURVE('',#56,#56,#58,.T.);
#56 = VERTEX_POINT('',#57);
#57 = CARTESIAN_POINT('',(21.122066,-10.334016,72.));
#58 = CIRCLE('',#59,0.875);
#59 = AXIS2_PLACEMENT_3D('',#60,#61,#62);
#60 = CARTESIAN_POINT('',(21.122066,-11.209016,72.));
#61 = DIRECTION('',(1.,0.,0.));
#62 = DIRECTION('',(0.,1.,0.));
#63 = FACE_BOUND('',#64,.F.);
#64 = EDGE_LOOP('',(#65));
#65 = ORIENTED_EDGE('',*,*,#66,.F.);
#66 = EDGE_CURVE('',#67,#67,#69,.T.);
#67 = VERTEX_POINT('',#68);
#68 = CARTESIAN_POINT('',(21.122066,-4.334016,72.));
#69 = CIRCLE('',#70,0.875);
#70 = AXIS2_PLACEMENT_3D('',#71,#72,#73);
#71 = CARTESIAN_POINT('',(21.122066,-5.209016,72.));
#72 = DIRECTION('',(1.,0.,0.));
#73 = DIRECTION('',(0.,1.,0.));
#74 = PLANE('',#75);
#75 = AXIS2_PLACEMENT_3D('',#76,#77,#78);
#76 = CARTESIAN_POINT('',(21.122066,-15.709016,76.));
#77 = DIRECTION('',(1.,0.,0.));
#78 = DIRECTION('',(0.,1.,0.));
#79 = ADVANCED_FACE('',(#80),#169,.T.);
#80 = FACE_BOUND('',#81,.T.);
#81 = EDGE_LOOP('',(#82,#83,#91,#99,#107,#115,#123,#131,#139,#147,#155,
    #163));
#82 = ORIENTED_EDGE('',*,*,#21,.F.);
#83 = ORIENTED_EDGE('',*,*,#84,.T.);
#84 = EDGE_CURVE('',#22,#85,#87,.T.);
#85 = VERTEX_POINT('',#86);
#86 = CARTESIAN_POINT('',(23.782066,-15.709016,76.));
#87 = LINE('',#88,#89);
#88 = CARTESIAN_POINT('',(12.212066,-15.709016,76.));
#89 = VECTOR('',#90,1.);
#90 = DIRECTION('',(1.,0.,0.));
#91 = ORIENTED_EDGE('',*,*,#92,.T.);
#92 = EDGE_CURVE('',#85,#93,#95,.T.);
#93 = VERTEX_POINT('',#94);
#94 = CARTESIAN_POINT('',(23.782066,3.290984,76.));
#95 = LINE('',#96,#97);
#96 = CARTESIAN_POINT('',(23.782066,-15.709016,76.));
#97 = VECTOR('',#98,1.);
#98 = DIRECTION('',(0.,1.,-2.2E-16));
#99 = ORIENTED_EDGE('',*,*,#100,.T.);
#100 = EDGE_CURVE('',#93,#101,#103,.T.);
#101 = VERTEX_POINT('',#102);
#102 = CARTESIAN_POINT('',(12.212066,3.290984,76.));
#103 = LINE('',#104,#105);
#104 = CARTESIAN_POINT('',(23.782066,3.290984,76.));
#105 = VECTOR('',#106,1.);
#106 = DIRECTION('',(-1.,0.,0.));
#107 = ORIENTED_EDGE('',*,*,#108,.T.);
#108 = EDGE_CURVE('',#101,#109,#111,.T.);
#109 = VERTEX_POINT('',#110);
#110 = CARTESIAN_POINT('',(12.212066,-15.709016,76.));
#111 = LINE('',#112,#113);
#112 = CARTESIAN_POINT('',(12.212066,3.290984,76.));
#113 = VECTOR('',#114,1.);
#114 = DIRECTION('',(0.,-1.,0.));
#115 = ORIENTED_EDGE('',*,*,#116,.T.);
#116 = EDGE_CURVE('',#109,#117,#119,.T.);
#117 = VERTEX_POINT('',#118);
#118 = CARTESIAN_POINT('',(14.872066,-15.709016,76.));
#119 = LINE('',#120,#121);
#120 = CARTESIAN_POINT('',(12.212066,-15.709016,76.));
#121 = VECTOR('',#122,1.);
#122 = DIRECTION('',(1.,0.,0.));
#123 = ORIENTED_EDGE('',*,*,#124,.F.);
#124 = EDGE_CURVE('',#125,#117,#127,.T.);
#125 = VERTEX_POINT('',#126);
#126 = CARTESIAN_POINT('',(14.872066,-0.709016,76.));
#127 = LINE('',#128,#129);
#128 = CARTESIAN_POINT('',(14.872066,-0.709016,76.));
#129 = VECTOR('',#130,1.);
#130 = DIRECTION('',(0.,-1.,0.));
#131 = ORIENTED_EDGE('',*,*,#132,.F.);
#132 = EDGE_CURVE('',#133,#125,#135,.T.);
#133 = VERTEX_POINT('',#134);
#134 = CARTESIAN_POINT('',(16.247066,-0.709016,76.));
#135 = LINE('',#136,#137);
#136 = CARTESIAN_POINT('',(21.122066,-0.709016,76.));
#137 = VECTOR('',#138,1.);
#138 = DIRECTION('',(-1.,0.,0.));
#139 = ORIENTED_EDGE('',*,*,#140,.F.);
#140 = EDGE_CURVE('',#141,#133,#143,.T.);
#141 = VERTEX_POINT('',#142);
#142 = CARTESIAN_POINT('',(16.247066,1.290984,76.));
#143 = LINE('',#144,#145);
#144 = CARTESIAN_POINT('',(16.247066,0.290984,76.));
#145 = VECTOR('',#146,1.);
#146 = DIRECTION('',(0.,-1.,0.));
#147 = ORIENTED_EDGE('',*,*,#148,.F.);
#148 = EDGE_CURVE('',#149,#141,#151,.T.);
#149 = VERTEX_POINT('',#150);
#150 = CARTESIAN_POINT('',(19.747066,1.290984,76.));
#151 = LINE('',#152,#153);
#152 = CARTESIAN_POINT('',(19.747066,1.290984,76.));
#153 = VECTOR('',#154,1.);
#154 = DIRECTION('',(-1.,0.,0.));
#155 = ORIENTED_EDGE('',*,*,#156,.F.);
#156 = EDGE_CURVE('',#157,#149,#159,.T.);
#157 = VERTEX_POINT('',#158);
#158 = CARTESIAN_POINT('',(19.747066,-0.709016,76.));
#159 = LINE('',#160,#161);
#160 = CARTESIAN_POINT('',(19.747066,0.290984,76.));
#161 = VECTOR('',#162,1.);
#162 = DIRECTION('',(0.,1.,0.));
#163 = ORIENTED_EDGE('',*,*,#164,.F.);
#164 = EDGE_CURVE('',#24,#157,#165,.T.);
#165 = LINE('',#166,#167);
#166 = CARTESIAN_POINT('',(21.122066,-0.709016,76.));
#167 = VECTOR('',#168,1.);
#168 = DIRECTION('',(-1.,0.,0.));
#169 = PLANE('',#170);
#170 = AXIS2_PLACEMENT_3D('',#171,#172,#173);
#171 = CARTESIAN_POINT('',(17.997066,-8.209016,76.));
#172 = DIRECTION('',(0.,0.,1.));
#173 = DIRECTION('',(1.,0.,0.));
#174 = ADVANCED_FACE('',(#175),#193,.F.);
#175 = FACE_BOUND('',#176,.F.);
#176 = EDGE_LOOP('',(#177,#178,#179,#187));
#177 = ORIENTED_EDGE('',*,*,#164,.F.);
#178 = ORIENTED_EDGE('',*,*,#47,.T.);
#179 = ORIENTED_EDGE('',*,*,#180,.F.);
#180 = EDGE_CURVE('',#181,#40,#183,.T.);
#181 = VERTEX_POINT('',#182);
#182 = CARTESIAN_POINT('',(19.747066,-0.709016,60.));
#183 = LINE('',#184,#185);
#184 = CARTESIAN_POINT('',(16.059566,-0.709016,60.));
#185 = VECTOR('',#186,1.);
#186 = DIRECTION('',(1.,0.,0.));
#187 = ORIENTED_EDGE('',*,*,#188,.F.);
#188 = EDGE_CURVE('',#157,#181,#189,.T.);
#189 = LINE('',#190,#191);
#190 = CARTESIAN_POINT('',(19.747066,-0.709016,76.));
#191 = VECTOR('',#192,1.);
#192 = DIRECTION('',(0.,0.,-1.));
#193 = PLANE('',#194);
#194 = AXIS2_PLACEMENT_3D('',#195,#196,#197);
#195 = CARTESIAN_POINT('',(21.122066,-0.709016,76.));
#196 = DIRECTION('',(0.,1.,0.));
#197 = DIRECTION('',(-1.,0.,0.));
#198 = ADVANCED_FACE('',(#199),#281,.T.);
#199 = FACE_BOUND('',#200,.T.);
#200 = EDGE_LOOP('',(#201,#211,#219,#227,#235,#241,#242,#243,#251,#259,
    #267,#275));
#201 = ORIENTED_EDGE('',*,*,#202,.F.);
#202 = EDGE_CURVE('',#203,#205,#207,.T.);
#203 = VERTEX_POINT('',#204);
#204 = CARTESIAN_POINT('',(10.997066,-15.709016,60.));
#205 = VERTEX_POINT('',#206);
#206 = CARTESIAN_POINT('',(14.872066,-15.709016,60.));
#207 = LINE('',#208,#209);
#208 = CARTESIAN_POINT('',(10.997066,-15.709016,60.));
#209 = VECTOR('',#210,1.);
#210 = DIRECTION('',(1.,0.,0.));
#211 = ORIENTED_EDGE('',*,*,#212,.T.);
#212 = EDGE_CURVE('',#203,#213,#215,.T.);
#213 = VERTEX_POINT('',#214);
#214 = CARTESIAN_POINT('',(10.997066,3.290984,60.));
#215 = LINE('',#216,#217);
#216 = CARTESIAN_POINT('',(10.997066,-15.709016,60.));
#217 = VECTOR('',#218,1.);
#218 = DIRECTION('',(0.,1.,-2.2E-16));
#219 = ORIENTED_EDGE('',*,*,#220,.T.);
#220 = EDGE_CURVE('',#213,#221,#223,.T.);
#221 = VERTEX_POINT('',#222);
#222 = CARTESIAN_POINT('',(24.997066,3.290984,60.));
#223 = LINE('',#224,#225);
#224 = CARTESIAN_POINT('',(10.997066,3.290984,60.));
#225 = VECTOR('',#226,1.);
#226 = DIRECTION('',(1.,0.,0.));
#227 = ORIENTED_EDGE('',*,*,#228,.F.);
#228 = EDGE_CURVE('',#229,#221,#231,.T.);
#229 = VERTEX_POINT('',#230);
#230 = CARTESIAN_POINT('',(24.997066,-15.709016,60.));
#231 = LINE('',#232,#233);
#232 = CARTESIAN_POINT('',(24.997066,-15.709016,60.));
#233 = VECTOR('',#234,1.);
#234 = DIRECTION('',(0.,1.,-2.2E-16));
#235 = ORIENTED_EDGE('',*,*,#236,.F.);
#236 = EDGE_CURVE('',#32,#229,#237,.T.);
#237 = LINE('',#238,#239);
#238 = CARTESIAN_POINT('',(10.997066,-15.709016,60.));
#239 = VECTOR('',#240,1.);
#240 = DIRECTION('',(1.,0.,0.));
#241 = ORIENTED_EDGE('',*,*,#39,.F.);
#242 = ORIENTED_EDGE('',*,*,#180,.F.);
#243 = ORIENTED_EDGE('',*,*,#244,.F.);
#244 = EDGE_CURVE('',#245,#181,#247,.T.);
#245 = VERTEX_POINT('',#246);
#246 = CARTESIAN_POINT('',(19.747066,1.290984,60.));
#247 = LINE('',#248,#249);
#248 = CARTESIAN_POINT('',(19.747066,-16.209016,60.));
#249 = VECTOR('',#250,1.);
#250 = DIRECTION('',(0.,-1.,2.2E-16));
#251 = ORIENTED_EDGE('',*,*,#252,.F.);
#252 = EDGE_CURVE('',#253,#245,#255,.T.);
#253 = VERTEX_POINT('',#254);
#254 = CARTESIAN_POINT('',(16.247066,1.290984,60.));
#255 = LINE('',#256,#257);
#256 = CARTESIAN_POINT('',(15.372066,1.290984,60.));
#257 = VECTOR('',#258,1.);
#258 = DIRECTION('',(1.,0.,0.));
#259 = ORIENTED_EDGE('',*,*,#260,.F.);
#260 = EDGE_CURVE('',#261,#253,#263,.T.);
#261 = VERTEX_POINT('',#262);
#262 = CARTESIAN_POINT('',(16.247066,-0.709016,60.));
#263 = LINE('',#264,#265);
#264 = CARTESIAN_POINT('',(16.247066,0.290984,60.));
#265 = VECTOR('',#266,1.);
#266 = DIRECTION('',(0.,1.,0.));
#267 = ORIENTED_EDGE('',*,*,#268,.F.);
#268 = EDGE_CURVE('',#269,#261,#271,.T.);
#269 = VERTEX_POINT('',#270);
#270 = CARTESIAN_POINT('',(14.872066,-0.709016,60.));
#271 = LINE('',#272,#273);
#272 = CARTESIAN_POINT('',(16.059566,-0.709016,60.));
#273 = VECTOR('',#274,1.);
#274 = DIRECTION('',(1.,0.,0.));
#275 = ORIENTED_EDGE('',*,*,#276,.F.);
#276 = EDGE_CURVE('',#205,#269,#277,.T.);
#277 = LINE('',#278,#279);
#278 = CARTESIAN_POINT('',(14.872066,-8.209016,60.));
#279 = VECTOR('',#280,1.);
#280 = DIRECTION('',(0.,1.,-2.2E-16));
#281 = PLANE('',#282);
#282 = AXIS2_PLACEMENT_3D('',#283,#284,#285);
#283 = CARTESIAN_POINT('',(10.997066,-15.709016,60.));
#284 = DIRECTION('',(0.,-2.2E-16,-1.));
#285 = DIRECTION('',(1.,0.,0.));
#286 = ADVANCED_FACE('',(#287,#426,#437,#448),#459,.T.);
#287 = FACE_BOUND('',#288,.T.);
#288 = EDGE_LOOP('',(#289,#290,#291,#299,#307,#315,#323,#331,#339,#347,
    #355,#363,#371,#379,#387,#395,#403,#411,#419,#425));
#289 = ORIENTED_EDGE('',*,*,#31,.T.);
#290 = ORIENTED_EDGE('',*,*,#236,.T.);
#291 = ORIENTED_EDGE('',*,*,#292,.T.);
#292 = EDGE_CURVE('',#229,#293,#295,.T.);
#293 = VERTEX_POINT('',#294);
#294 = CARTESIAN_POINT('',(24.997066,-15.709016,62.));
#295 = LINE('',#296,#297);
#296 = CARTESIAN_POINT('',(24.997066,-15.709016,60.));
#297 = VECTOR('',#298,1.);
#298 = DIRECTION('',(0.,0.,1.));
#299 = ORIENTED_EDGE('',*,*,#300,.T.);
#300 = EDGE_CURVE('',#293,#301,#303,.T.);
#301 = VERTEX_POINT('',#302);
#302 = CARTESIAN_POINT('',(41.872066,-15.709016,62.));
#303 = LINE('',#304,#305);
#304 = CARTESIAN_POINT('',(-10.877934,-15.709016,62.));
#305 = VECTOR('',#306,1.);
#306 = DIRECTION('',(1.,0.,0.));
#307 = ORIENTED_EDGE('',*,*,#308,.T.);
#308 = EDGE_CURVE('',#301,#309,#311,.T.);
#309 = VERTEX_POINT('',#310);
#310 = CARTESIAN_POINT('',(41.872066,-15.709016,12.));
#311 = LINE('',#312,#313);
#312 = CARTESIAN_POINT('',(41.872066,-15.709016,62.));
#313 = VECTOR('',#314,1.);
#314 = DIRECTION('',(-0.,-0.,-1.));
#315 = ORIENTED_EDGE('',*,*,#316,.F.);
#316 = EDGE_CURVE('',#317,#309,#319,.T.);
#317 = VERTEX_POINT('',#318);
#318 = CARTESIAN_POINT('',(34.997066,-15.709016,12.));
#319 = LINE('',#320,#321);
#320 = CARTESIAN_POINT('',(39.872066,-15.709016,12.));
#321 = VECTOR('',#322,1.);
#322 = DIRECTION('',(1.,0.,0.));
#323 = ORIENTED_EDGE('',*,*,#324,.T.);
#324 = EDGE_CURVE('',#317,#325,#327,.T.);
#325 = VERTEX_POINT('',#326);
#326 = CARTESIAN_POINT('',(34.997066,-15.709016,8.5));
#327 = LINE('',#328,#329);
#328 = CARTESIAN_POINT('',(34.997066,-15.709016,35.25));
#329 = VECTOR('',#330,1.);
#330 = DIRECTION('',(0.,0.,-1.));
#331 = ORIENTED_EDGE('',*,*,#332,.T.);
#332 = EDGE_CURVE('',#325,#333,#335,.T.);
#333 = VERTEX_POINT('',#334);
#334 = CARTESIAN_POINT('',(37.497066,-15.709016,8.5));
#335 = LINE('',#336,#337);
#336 = CARTESIAN_POINT('',(42.184566,-15.709016,8.5));
#337 = VECTOR('',#338,1.);
#338 = DIRECTION('',(1.,0.,0.));
#339 = ORIENTED_EDGE('',*,*,#340,.T.);
#340 = EDGE_CURVE('',#333,#341,#343,.T.);
#341 = VERTEX_POINT('',#342);
#342 = CARTESIAN_POINT('',(37.497066,-15.709016,3.));
#343 = LINE('',#344,#345);
#344 = CARTESIAN_POINT('',(37.497066,-15.709016,32.5));
#345 = VECTOR('',#346,1.);
#346 = DIRECTION('',(0.,0.,-1.));
#347 = ORIENTED_EDGE('',*,*,#348,.F.);
#348 = EDGE_CURVE('',#349,#341,#351,.T.);
#349 = VERTEX_POINT('',#350);
#350 = CARTESIAN_POINT('',(26.497066,-15.709016,3.));
#351 = LINE('',#352,#353);
#352 = CARTESIAN_POINT('',(22.247066,-15.709016,3.));
#353 = VECTOR('',#354,1.);
#354 = DIRECTION('',(1.,0.,0.));
#355 = ORIENTED_EDGE('',*,*,#356,.F.);
#356 = EDGE_CURVE('',#357,#349,#359,.T.);
#357 = VERTEX_POINT('',#358);
#358 = CARTESIAN_POINT('',(26.497066,-15.709016,8.5));
#359 = LINE('',#360,#361);
#360 = CARTESIAN_POINT('',(26.497066,-15.709016,7.25));
#361 = VECTOR('',#362,1.);
#362 = DIRECTION('',(0.,-3.E-16,-1.));
#363 = ORIENTED_EDGE('',*,*,#364,.F.);
#364 = EDGE_CURVE('',#365,#357,#367,.T.);
#365 = VERTEX_POINT('',#366);
#366 = CARTESIAN_POINT('',(28.997066,-15.709016,8.5));
#367 = LINE('',#368,#369);
#368 = CARTESIAN_POINT('',(23.497066,-15.709016,8.5));
#369 = VECTOR('',#370,1.);
#370 = DIRECTION('',(-1.,0.,0.));
#371 = ORIENTED_EDGE('',*,*,#372,.F.);
#372 = EDGE_CURVE('',#373,#365,#375,.T.);
#373 = VERTEX_POINT('',#374);
#374 = CARTESIAN_POINT('',(28.997066,-15.709016,12.));
#375 = LINE('',#376,#377);
#376 = CARTESIAN_POINT('',(28.997066,-15.709016,9.));
#377 = VECTOR('',#378,1.);
#378 = DIRECTION('',(0.,-3.E-16,-1.));
#379 = ORIENTED_EDGE('',*,*,#380,.T.);
#380 = EDGE_CURVE('',#373,#381,#383,.T.);
#381 = VERTEX_POINT('',#382);
#382 = CARTESIAN_POINT('',(20.997066,-15.709016,12.));
#383 = LINE('',#384,#385);
#384 = CARTESIAN_POINT('',(34.872066,-15.709016,12.));
#385 = VECTOR('',#386,1.);
#386 = DIRECTION('',(-1.,0.,0.));
#387 = ORIENTED_EDGE('',*,*,#388,.F.);
#388 = EDGE_CURVE('',#389,#381,#391,.T.);
#389 = VERTEX_POINT('',#390);
#390 = CARTESIAN_POINT('',(20.997066,-15.709016,-1.E-15));
#391 = LINE('',#392,#393);
#392 = CARTESIAN_POINT('',(20.997066,-15.709016,3.));
#393 = VECTOR('',#394,1.);
#394 = DIRECTION('',(0.,3.E-16,1.));
#395 = ORIENTED_EDGE('',*,*,#396,.T.);
#396 = EDGE_CURVE('',#389,#397,#399,.T.);
#397 = VERTEX_POINT('',#398);
#398 = CARTESIAN_POINT('',(46.872066,-15.709016,0.));
#399 = LINE('',#400,#401);
#400 = CARTESIAN_POINT('',(32.434566,-15.709016,-3.3E-16));
#401 = VECTOR('',#402,1.);
#402 = DIRECTION('',(1.,0.,0.));
#403 = ORIENTED_EDGE('',*,*,#404,.T.);
#404 = EDGE_CURVE('',#397,#405,#407,.T.);
#405 = VERTEX_POINT('',#406);
#406 = CARTESIAN_POINT('',(46.872066,-15.709016,70.));
#407 = LINE('',#408,#409);
#408 = CARTESIAN_POINT('',(46.872066,-15.709016,62.));
#409 = VECTOR('',#410,1.);
#410 = DIRECTION('',(0.,0.,1.));
#411 = ORIENTED_EDGE('',*,*,#412,.F.);
#412 = EDGE_CURVE('',#413,#405,#415,.T.);
#413 = VERTEX_POINT('',#414);
#414 = CARTESIAN_POINT('',(23.782066,-15.709016,70.));
#415 = LINE('',#416,#417);
#416 = CARTESIAN_POINT('',(23.782066,-15.709016,70.));
#417 = VECTOR('',#418,1.);
#418 = DIRECTION('',(1.,0.,0.));
#419 = ORIENTED_EDGE('',*,*,#420,.F.);
#420 = EDGE_CURVE('',#85,#413,#421,.T.);
#421 = LINE('',#422,#423);
#422 = CARTESIAN_POINT('',(23.782066,-15.709016,76.));
#423 = VECTOR('',#424,1.);
#424 = DIRECTION('',(-0.,-0.,-1.));
#425 = ORIENTED_EDGE('',*,*,#84,.F.);
#426 = FACE_BOUND('',#427,.T.);
#427 = EDGE_LOOP('',(#428));
#428 = ORIENTED_EDGE('',*,*,#429,.F.);
#429 = EDGE_CURVE('',#430,#430,#432,.T.);
#430 = VERTEX_POINT('',#431);
#431 = CARTESIAN_POINT('',(26.647066,-15.709016,9.75));
#432 = CIRCLE('',#433,0.9);
#433 = AXIS2_PLACEMENT_3D('',#434,#435,#436);
#434 = CARTESIAN_POINT('',(25.747066,-15.709016,9.75));
#435 = DIRECTION('',(0.,-1.,0.));
#436 = DIRECTION('',(1.,0.,0.));
#437 = FACE_BOUND('',#438,.T.);
#438 = EDGE_LOOP('',(#439));
#439 = ORIENTED_EDGE('',*,*,#440,.F.);
#440 = EDGE_CURVE('',#441,#441,#443,.T.);
#441 = VERTEX_POINT('',#442);
#442 = CARTESIAN_POINT('',(39.722066,-15.709016,65.));
#443 = CIRCLE('',#444,0.85);
#444 = AXIS2_PLACEMENT_3D('',#445,#446,#447);
#445 = CARTESIAN_POINT('',(38.872066,-15.709016,65.));
#446 = DIRECTION('',(0.,-1.,0.));
#447 = DIRECTION('',(1.,0.,0.));
#448 = FACE_BOUND('',#449,.T.);
#449 = EDGE_LOOP('',(#450));
#450 = ORIENTED_EDGE('',*,*,#451,.F.);
#451 = EDGE_CURVE('',#452,#452,#454,.T.);
#452 = VERTEX_POINT('',#453);
#453 = CARTESIAN_POINT('',(42.722066,-15.709016,8.));
#454 = CIRCLE('',#455,0.85);
#455 = AXIS2_PLACEMENT_3D('',#456,#457,#458);
#456 = CARTESIAN_POINT('',(41.872066,-15.709016,8.));
#457 = DIRECTION('',(0.,-1.,0.));
#458 = DIRECTION('',(1.,0.,0.));
#459 = PLANE('',#460);
#460 = AXIS2_PLACEMENT_3D('',#461,#462,#463);
#461 = CARTESIAN_POINT('',(36.488411807033,-15.709016,34.287502254283));
#462 = DIRECTION('',(-0.,-1.,-0.));
#463 = DIRECTION('',(0.,0.,-1.));
#464 = ADVANCED_FACE('',(#465),#484,.F.);
#465 = FACE_BOUND('',#466,.F.);
#466 = EDGE_LOOP('',(#467,#475,#482,#483));
#467 = ORIENTED_EDGE('',*,*,#468,.F.);
#468 = EDGE_CURVE('',#469,#56,#471,.T.);
#469 = VERTEX_POINT('',#470);
#470 = CARTESIAN_POINT('',(23.782066,-10.334016,72.));
#471 = LINE('',#472,#473);
#472 = CARTESIAN_POINT('',(23.782066,-10.334016,72.));
#473 = VECTOR('',#474,1.);
#474 = DIRECTION('',(-1.,-0.,-0.));
#475 = ORIENTED_EDGE('',*,*,#476,.F.);
#476 = EDGE_CURVE('',#469,#469,#477,.T.);
#477 = CIRCLE('',#478,0.875);
#478 = AXIS2_PLACEMENT_3D('',#479,#480,#481);
#479 = CARTESIAN_POINT('',(23.782066,-11.209016,72.));
#480 = DIRECTION('',(1.,0.,0.));
#481 = DIRECTION('',(0.,1.,0.));
#482 = ORIENTED_EDGE('',*,*,#468,.T.);
#483 = ORIENTED_EDGE('',*,*,#55,.T.);
#484 = CYLINDRICAL_SURFACE('',#485,0.875);
#485 = AXIS2_PLACEMENT_3D('',#486,#487,#488);
#486 = CARTESIAN_POINT('',(23.782066,-11.209016,72.));
#487 = DIRECTION('',(1.,0.,0.));
#488 = DIRECTION('',(0.,1.,0.));
#489 = ADVANCED_FACE('',(#490),#509,.F.);
#490 = FACE_BOUND('',#491,.F.);
#491 = EDGE_LOOP('',(#492,#500,#507,#508));
#492 = ORIENTED_EDGE('',*,*,#493,.F.);
#493 = EDGE_CURVE('',#494,#67,#496,.T.);
#494 = VERTEX_POINT('',#495);
#495 = CARTESIAN_POINT('',(23.782066,-4.334016,72.));
#496 = LINE('',#497,#498);
#497 = CARTESIAN_POINT('',(23.782066,-4.334016,72.));
#498 = VECTOR('',#499,1.);
#499 = DIRECTION('',(-1.,-0.,-0.));
#500 = ORIENTED_EDGE('',*,*,#501,.F.);
#501 = EDGE_CURVE('',#494,#494,#502,.T.);
#502 = CIRCLE('',#503,0.875);
#503 = AXIS2_PLACEMENT_3D('',#504,#505,#506);
#504 = CARTESIAN_POINT('',(23.782066,-5.209016,72.));
#505 = DIRECTION('',(1.,0.,0.));
#506 = DIRECTION('',(0.,1.,0.));
#507 = ORIENTED_EDGE('',*,*,#493,.T.);
#508 = ORIENTED_EDGE('',*,*,#66,.T.);
#509 = CYLINDRICAL_SURFACE('',#510,0.875);
#510 = AXIS2_PLACEMENT_3D('',#511,#512,#513);
#511 = CARTESIAN_POINT('',(23.782066,-5.209016,72.));
#512 = DIRECTION('',(1.,0.,0.));
#513 = DIRECTION('',(0.,1.,0.));
#514 = ADVANCED_FACE('',(#515),#526,.T.);
#515 = FACE_BOUND('',#516,.T.);
#516 = EDGE_LOOP('',(#517,#518,#524,#525));
#517 = ORIENTED_EDGE('',*,*,#156,.T.);
#518 = ORIENTED_EDGE('',*,*,#519,.T.);
#519 = EDGE_CURVE('',#149,#245,#520,.T.);
#520 = LINE('',#521,#522);
#521 = CARTESIAN_POINT('',(19.747066,1.290984,76.));
#522 = VECTOR('',#523,1.);
#523 = DIRECTION('',(-0.,-0.,-1.));
#524 = ORIENTED_EDGE('',*,*,#244,.T.);
#525 = ORIENTED_EDGE('',*,*,#188,.F.);
#526 = PLANE('',#527);
#527 = AXIS2_PLACEMENT_3D('',#528,#529,#530);
#528 = CARTESIAN_POINT('',(19.747066,0.290984,68.));
#529 = DIRECTION('',(-1.,-0.,-0.));
#530 = DIRECTION('',(0.,0.,-1.));
#531 = ADVANCED_FACE('',(#532),#543,.F.);
#532 = FACE_BOUND('',#533,.F.);
#533 = EDGE_LOOP('',(#534,#535,#536,#537));
#534 = ORIENTED_EDGE('',*,*,#148,.F.);
#535 = ORIENTED_EDGE('',*,*,#519,.T.);
#536 = ORIENTED_EDGE('',*,*,#252,.F.);
#537 = ORIENTED_EDGE('',*,*,#538,.F.);
#538 = EDGE_CURVE('',#141,#253,#539,.T.);
#539 = LINE('',#540,#541);
#540 = CARTESIAN_POINT('',(16.247066,1.290984,76.));
#541 = VECTOR('',#542,1.);
#542 = DIRECTION('',(-0.,-0.,-1.));
#543 = PLANE('',#544);
#544 = AXIS2_PLACEMENT_3D('',#545,#546,#547);
#545 = CARTESIAN_POINT('',(19.747066,1.290984,76.));
#546 = DIRECTION('',(0.,1.,0.));
#547 = DIRECTION('',(-1.,0.,0.));
#548 = ADVANCED_FACE('',(#549),#560,.T.);
#549 = FACE_BOUND('',#550,.T.);
#550 = EDGE_LOOP('',(#551,#552,#558,#559));
#551 = ORIENTED_EDGE('',*,*,#140,.T.);
#552 = ORIENTED_EDGE('',*,*,#553,.F.);
#553 = EDGE_CURVE('',#261,#133,#554,.T.);
#554 = LINE('',#555,#556);
#555 = CARTESIAN_POINT('',(16.247066,-0.709016,76.));
#556 = VECTOR('',#557,1.);
#557 = DIRECTION('',(0.,0.,1.));
#558 = ORIENTED_EDGE('',*,*,#260,.T.);
#559 = ORIENTED_EDGE('',*,*,#538,.F.);
#560 = PLANE('',#561);
#561 = AXIS2_PLACEMENT_3D('',#562,#563,#564);
#562 = CARTESIAN_POINT('',(16.247066,0.290984,68.));
#563 = DIRECTION('',(1.,0.,0.));
#564 = DIRECTION('',(0.,0.,1.));
#565 = ADVANCED_FACE('',(#566),#577,.F.);
#566 = FACE_BOUND('',#567,.F.);
#567 = EDGE_LOOP('',(#568,#569,#570,#571));
#568 = ORIENTED_EDGE('',*,*,#132,.F.);
#569 = ORIENTED_EDGE('',*,*,#553,.F.);
#570 = ORIENTED_EDGE('',*,*,#268,.F.);
#571 = ORIENTED_EDGE('',*,*,#572,.F.);
#572 = EDGE_CURVE('',#125,#269,#573,.T.);
#573 = LINE('',#574,#575);
#574 = CARTESIAN_POINT('',(14.872066,-0.709016,76.));
#575 = VECTOR('',#576,1.);
#576 = DIRECTION('',(-0.,-0.,-1.));
#577 = PLANE('',#578);
#578 = AXIS2_PLACEMENT_3D('',#579,#580,#581);
#579 = CARTESIAN_POINT('',(21.122066,-0.709016,76.));
#580 = DIRECTION('',(0.,1.,0.));
#581 = DIRECTION('',(-1.,0.,0.));
#582 = ADVANCED_FACE('',(#583,#594,#605),#616,.F.);
#583 = FACE_BOUND('',#584,.F.);
#584 = EDGE_LOOP('',(#585,#586,#587,#588));
#585 = ORIENTED_EDGE('',*,*,#124,.F.);
#586 = ORIENTED_EDGE('',*,*,#572,.T.);
#587 = ORIENTED_EDGE('',*,*,#276,.F.);
#588 = ORIENTED_EDGE('',*,*,#589,.F.);
#589 = EDGE_CURVE('',#117,#205,#590,.T.);
#590 = LINE('',#591,#592);
#591 = CARTESIAN_POINT('',(14.872066,-15.709016,76.));
#592 = VECTOR('',#593,1.);
#593 = DIRECTION('',(-0.,-0.,-1.));
#594 = FACE_BOUND('',#595,.F.);
#595 = EDGE_LOOP('',(#596));
#596 = ORIENTED_EDGE('',*,*,#597,.T.);
#597 = EDGE_CURVE('',#598,#598,#600,.T.);
#598 = VERTEX_POINT('',#599);
#599 = CARTESIAN_POINT('',(14.872066,-4.334016,72.));
#600 = CIRCLE('',#601,0.875);
#601 = AXIS2_PLACEMENT_3D('',#602,#603,#604);
#602 = CARTESIAN_POINT('',(14.872066,-5.209016,72.));
#603 = DIRECTION('',(1.,0.,0.));
#604 = DIRECTION('',(0.,1.,0.));
#605 = FACE_BOUND('',#606,.F.);
#606 = EDGE_LOOP('',(#607));
#607 = ORIENTED_EDGE('',*,*,#608,.T.);
#608 = EDGE_CURVE('',#609,#609,#611,.T.);
#609 = VERTEX_POINT('',#610);
#610 = CARTESIAN_POINT('',(14.872066,-10.334016,72.));
#611 = CIRCLE('',#612,0.875);
#612 = AXIS2_PLACEMENT_3D('',#613,#614,#615);
#613 = CARTESIAN_POINT('',(14.872066,-11.209016,72.));
#614 = DIRECTION('',(1.,0.,0.));
#615 = DIRECTION('',(0.,1.,0.));
#616 = PLANE('',#617);
#617 = AXIS2_PLACEMENT_3D('',#618,#619,#620);
#618 = CARTESIAN_POINT('',(14.872066,-0.709016,76.));
#619 = DIRECTION('',(-1.,0.,0.));
#620 = DIRECTION('',(0.,-1.,0.));
#621 = ADVANCED_FACE('',(#622,#761,#772,#783),#794,.T.);
#622 = FACE_BOUND('',#623,.T.);
#623 = EDGE_LOOP('',(#624,#634,#642,#648,#649,#650,#651,#659,#667,#675,
    #683,#691,#699,#707,#715,#723,#731,#739,#747,#755));
#624 = ORIENTED_EDGE('',*,*,#625,.F.);
#625 = EDGE_CURVE('',#626,#628,#630,.T.);
#626 = VERTEX_POINT('',#627);
#627 = CARTESIAN_POINT('',(-5.877934,-15.709016,62.));
#628 = VERTEX_POINT('',#629);
#629 = CARTESIAN_POINT('',(-5.877934,-15.709016,12.));
#630 = LINE('',#631,#632);
#631 = CARTESIAN_POINT('',(-5.877934,-15.709016,62.));
#632 = VECTOR('',#633,1.);
#633 = DIRECTION('',(-0.,-0.,-1.));
#634 = ORIENTED_EDGE('',*,*,#635,.T.);
#635 = EDGE_CURVE('',#626,#636,#638,.T.);
#636 = VERTEX_POINT('',#637);
#637 = CARTESIAN_POINT('',(10.997066,-15.709016,62.));
#638 = LINE('',#639,#640);
#639 = CARTESIAN_POINT('',(-10.877934,-15.709016,62.));
#640 = VECTOR('',#641,1.);
#641 = DIRECTION('',(1.,0.,0.));
#642 = ORIENTED_EDGE('',*,*,#643,.T.);
#643 = EDGE_CURVE('',#636,#203,#644,.T.);
#644 = LINE('',#645,#646);
#645 = CARTESIAN_POINT('',(10.997066,-15.709016,64.));
#646 = VECTOR('',#647,1.);
#647 = DIRECTION('',(0.,0.,-1.));
#648 = ORIENTED_EDGE('',*,*,#202,.T.);
#649 = ORIENTED_EDGE('',*,*,#589,.F.);
#650 = ORIENTED_EDGE('',*,*,#116,.F.);
#651 = ORIENTED_EDGE('',*,*,#652,.T.);
#652 = EDGE_CURVE('',#109,#653,#655,.T.);
#653 = VERTEX_POINT('',#654);
#654 = CARTESIAN_POINT('',(12.212066,-15.709016,70.));
#655 = LINE('',#656,#657);
#656 = CARTESIAN_POINT('',(12.212066,-15.709016,76.));
#657 = VECTOR('',#658,1.);
#658 = DIRECTION('',(-0.,-0.,-1.));
#659 = ORIENTED_EDGE('',*,*,#660,.F.);
#660 = EDGE_CURVE('',#661,#653,#663,.T.);
#661 = VERTEX_POINT('',#662);
#662 = CARTESIAN_POINT('',(-10.877934,-15.709016,70.));
#663 = LINE('',#664,#665);
#664 = CARTESIAN_POINT('',(-10.877934,-15.709016,70.));
#665 = VECTOR('',#666,1.);
#666 = DIRECTION('',(1.,0.,0.));
#667 = ORIENTED_EDGE('',*,*,#668,.F.);
#668 = EDGE_CURVE('',#669,#661,#671,.T.);
#669 = VERTEX_POINT('',#670);
#670 = CARTESIAN_POINT('',(-10.877934,-15.709016,0.));
#671 = LINE('',#672,#673);
#672 = CARTESIAN_POINT('',(-10.877934,-15.709016,62.));
#673 = VECTOR('',#674,1.);
#674 = DIRECTION('',(0.,0.,1.));
#675 = ORIENTED_EDGE('',*,*,#676,.T.);
#676 = EDGE_CURVE('',#669,#677,#679,.T.);
#677 = VERTEX_POINT('',#678);
#678 = CARTESIAN_POINT('',(14.997066,-15.709016,-1.E-15));
#679 = LINE('',#680,#681);
#680 = CARTESIAN_POINT('',(1.122066,-15.709016,-1.E-15));
#681 = VECTOR('',#682,1.);
#682 = DIRECTION('',(1.,0.,0.));
#683 = ORIENTED_EDGE('',*,*,#684,.F.);
#684 = EDGE_CURVE('',#685,#677,#687,.T.);
#685 = VERTEX_POINT('',#686);
#686 = CARTESIAN_POINT('',(14.997066,-15.709016,12.));
#687 = LINE('',#688,#689);
#688 = CARTESIAN_POINT('',(14.997066,-15.709016,9.));
#689 = VECTOR('',#690,1.);
#690 = DIRECTION('',(-0.,-3.E-16,-1.));
#691 = ORIENTED_EDGE('',*,*,#692,.T.);
#692 = EDGE_CURVE('',#685,#693,#695,.T.);
#693 = VERTEX_POINT('',#694);
#694 = CARTESIAN_POINT('',(6.997066,-15.709016,12.));
#695 = LINE('',#696,#697);
#696 = CARTESIAN_POINT('',(34.872066,-15.709016,12.));
#697 = VECTOR('',#698,1.);
#698 = DIRECTION('',(-1.,0.,0.));
#699 = ORIENTED_EDGE('',*,*,#700,.T.);
#700 = EDGE_CURVE('',#693,#701,#703,.T.);
#701 = VERTEX_POINT('',#702);
#702 = CARTESIAN_POINT('',(6.997066,-15.709016,8.5));
#703 = LINE('',#704,#705);
#704 = CARTESIAN_POINT('',(6.997066,-15.709016,9.));
#705 = VECTOR('',#706,1.);
#706 = DIRECTION('',(0.,-3.E-16,-1.));
#707 = ORIENTED_EDGE('',*,*,#708,.T.);
#708 = EDGE_CURVE('',#701,#709,#711,.T.);
#709 = VERTEX_POINT('',#710);
#710 = CARTESIAN_POINT('',(9.497066,-15.709016,8.5));
#711 = LINE('',#712,#713);
#712 = CARTESIAN_POINT('',(12.497066,-15.709016,8.5));
#713 = VECTOR('',#714,1.);
#714 = DIRECTION('',(1.,0.,0.));
#715 = ORIENTED_EDGE('',*,*,#716,.T.);
#716 = EDGE_CURVE('',#709,#717,#719,.T.);
#717 = VERTEX_POINT('',#718);
#718 = CARTESIAN_POINT('',(9.497066,-15.709016,3.));
#719 = LINE('',#720,#721);
#720 = CARTESIAN_POINT('',(9.497066,-15.709016,7.25));
#721 = VECTOR('',#722,1.);
#722 = DIRECTION('',(0.,-3.E-16,-1.));
#723 = ORIENTED_EDGE('',*,*,#724,.T.);
#724 = EDGE_CURVE('',#717,#725,#727,.T.);
#725 = VERTEX_POINT('',#726);
#726 = CARTESIAN_POINT('',(-1.502934,-15.709016,3.));
#727 = LINE('',#728,#729);
#728 = CARTESIAN_POINT('',(22.684566,-15.709016,3.));
#729 = VECTOR('',#730,1.);
#730 = DIRECTION('',(-1.,0.,0.));
#731 = ORIENTED_EDGE('',*,*,#732,.F.);
#732 = EDGE_CURVE('',#733,#725,#735,.T.);
#733 = VERTEX_POINT('',#734);
#734 = CARTESIAN_POINT('',(-1.502934,-15.709016,8.5));
#735 = LINE('',#736,#737);
#736 = CARTESIAN_POINT('',(-1.502934,-15.709016,32.5));
#737 = VECTOR('',#738,1.);
#738 = DIRECTION('',(0.,0.,-1.));
#739 = ORIENTED_EDGE('',*,*,#740,.F.);
#740 = EDGE_CURVE('',#741,#733,#743,.T.);
#741 = VERTEX_POINT('',#742);
#742 = CARTESIAN_POINT('',(0.997066,-15.709016,8.5));
#743 = LINE('',#744,#745);
#744 = CARTESIAN_POINT('',(22.684566,-15.709016,8.5));
#745 = VECTOR('',#746,1.);
#746 = DIRECTION('',(-1.,0.,0.));
#747 = ORIENTED_EDGE('',*,*,#748,.F.);
#748 = EDGE_CURVE('',#749,#741,#751,.T.);
#749 = VERTEX_POINT('',#750);
#750 = CARTESIAN_POINT('',(0.997066,-15.709016,12.));
#751 = LINE('',#752,#753);
#752 = CARTESIAN_POINT('',(0.997066,-15.709016,35.25));
#753 = VECTOR('',#754,1.);
#754 = DIRECTION('',(0.,0.,-1.));
#755 = ORIENTED_EDGE('',*,*,#756,.T.);
#756 = EDGE_CURVE('',#749,#628,#757,.T.);
#757 = LINE('',#758,#759);
#758 = CARTESIAN_POINT('',(1.122066,-15.709016,12.));
#759 = VECTOR('',#760,1.);
#760 = DIRECTION('',(-1.,0.,0.));
#761 = FACE_BOUND('',#762,.T.);
#762 = EDGE_LOOP('',(#763));
#763 = ORIENTED_EDGE('',*,*,#764,.F.);
#764 = EDGE_CURVE('',#765,#765,#767,.T.);
#765 = VERTEX_POINT('',#766);
#766 = CARTESIAN_POINT('',(-2.027934,-15.709016,65.));
#767 = CIRCLE('',#768,0.85);
#768 = AXIS2_PLACEMENT_3D('',#769,#770,#771);
#769 = CARTESIAN_POINT('',(-2.877934,-15.709016,65.));
#770 = DIRECTION('',(0.,-1.,0.));
#771 = DIRECTION('',(1.,0.,0.));
#772 = FACE_BOUND('',#773,.T.);
#773 = EDGE_LOOP('',(#774));
#774 = ORIENTED_EDGE('',*,*,#775,.F.);
#775 = EDGE_CURVE('',#776,#776,#778,.T.);
#776 = VERTEX_POINT('',#777);
#777 = CARTESIAN_POINT('',(-5.027934,-15.709016,8.));
#778 = CIRCLE('',#779,0.85);
#779 = AXIS2_PLACEMENT_3D('',#780,#781,#782);
#780 = CARTESIAN_POINT('',(-5.877934,-15.709016,8.));
#781 = DIRECTION('',(0.,-1.,0.));
#782 = DIRECTION('',(1.,0.,0.));
#783 = FACE_BOUND('',#784,.T.);
#784 = EDGE_LOOP('',(#785));
#785 = ORIENTED_EDGE('',*,*,#786,.F.);
#786 = EDGE_CURVE('',#787,#787,#789,.T.);
#787 = VERTEX_POINT('',#788);
#788 = CARTESIAN_POINT('',(11.147066,-15.709016,9.75));
#789 = CIRCLE('',#790,0.9);
#790 = AXIS2_PLACEMENT_3D('',#791,#792,#793);
#791 = CARTESIAN_POINT('',(10.247066,-15.709016,9.75));
#792 = DIRECTION('',(0.,-1.,0.));
#793 = DIRECTION('',(1.,0.,0.));
#794 = PLANE('',#795);
#795 = AXIS2_PLACEMENT_3D('',#796,#797,#798);
#796 = CARTESIAN_POINT('',(-0.494279807033,-15.709016,34.287502254283));
#797 = DIRECTION('',(-0.,-1.,-0.));
#798 = DIRECTION('',(0.,0.,-1.));
#799 = ADVANCED_FACE('',(#800,#818,#829),#840,.T.);
#800 = FACE_BOUND('',#801,.T.);
#801 = EDGE_LOOP('',(#802,#810,#811,#812));
#802 = ORIENTED_EDGE('',*,*,#803,.F.);
#803 = EDGE_CURVE('',#653,#804,#806,.T.);
#804 = VERTEX_POINT('',#805);
#805 = CARTESIAN_POINT('',(12.212066,3.290984,70.));
#806 = LINE('',#807,#808);
#807 = CARTESIAN_POINT('',(12.212066,-15.709016,70.));
#808 = VECTOR('',#809,1.);
#809 = DIRECTION('',(0.,1.,-2.2E-16));
#810 = ORIENTED_EDGE('',*,*,#652,.F.);
#811 = ORIENTED_EDGE('',*,*,#108,.F.);
#812 = ORIENTED_EDGE('',*,*,#813,.T.);
#813 = EDGE_CURVE('',#101,#804,#814,.T.);
#814 = LINE('',#815,#816);
#815 = CARTESIAN_POINT('',(12.212066,3.290984,56.524734133791));
#816 = VECTOR('',#817,1.);
#817 = DIRECTION('',(0.,0.,-1.));
#818 = FACE_BOUND('',#819,.T.);
#819 = EDGE_LOOP('',(#820));
#820 = ORIENTED_EDGE('',*,*,#821,.T.);
#821 = EDGE_CURVE('',#822,#822,#824,.T.);
#822 = VERTEX_POINT('',#823);
#823 = CARTESIAN_POINT('',(12.212066,-4.334016,72.));
#824 = CIRCLE('',#825,0.875);
#825 = AXIS2_PLACEMENT_3D('',#826,#827,#828);
#826 = CARTESIAN_POINT('',(12.212066,-5.209016,72.));
#827 = DIRECTION('',(1.,0.,0.));
#828 = DIRECTION('',(0.,1.,0.));
#829 = FACE_BOUND('',#830,.T.);
#830 = EDGE_LOOP('',(#831));
#831 = ORIENTED_EDGE('',*,*,#832,.T.);
#832 = EDGE_CURVE('',#833,#833,#835,.T.);
#833 = VERTEX_POINT('',#834);
#834 = CARTESIAN_POINT('',(12.212066,-10.334016,72.));
#835 = CIRCLE('',#836,0.875);
#836 = AXIS2_PLACEMENT_3D('',#837,#838,#839);
#837 = CARTESIAN_POINT('',(12.212066,-11.209016,72.));
#838 = DIRECTION('',(1.,0.,0.));
#839 = DIRECTION('',(0.,1.,0.));
#840 = PLANE('',#841);
#841 = AXIS2_PLACEMENT_3D('',#842,#843,#844);
#842 = CARTESIAN_POINT('',(12.212066,-8.209016,73.));
#843 = DIRECTION('',(-1.,-0.,-0.));
#844 = DIRECTION('',(0.,0.,-1.));
#845 = ADVANCED_FACE('',(#846,#896,#907,#918,#975,#986),#997,.T.);
#846 = FACE_BOUND('',#847,.T.);
#847 = EDGE_LOOP('',(#848,#858,#866,#874,#880,#881,#882,#890));
#848 = ORIENTED_EDGE('',*,*,#849,.F.);
#849 = EDGE_CURVE('',#850,#852,#854,.T.);
#850 = VERTEX_POINT('',#851);
#851 = CARTESIAN_POINT('',(46.872066,3.290984,0.));
#852 = VERTEX_POINT('',#853);
#853 = CARTESIAN_POINT('',(46.872066,3.290984,70.));
#854 = LINE('',#855,#856);
#855 = CARTESIAN_POINT('',(46.872066,3.290984,12.));
#856 = VECTOR('',#857,1.);
#857 = DIRECTION('',(0.,0.,1.));
#858 = ORIENTED_EDGE('',*,*,#859,.T.);
#859 = EDGE_CURVE('',#850,#860,#862,.T.);
#860 = VERTEX_POINT('',#861);
#861 = CARTESIAN_POINT('',(-10.877934,3.290984,0.));
#862 = LINE('',#863,#864);
#863 = CARTESIAN_POINT('',(46.872066,3.290984,0.));
#864 = VECTOR('',#865,1.);
#865 = DIRECTION('',(-1.,0.,0.));
#866 = ORIENTED_EDGE('',*,*,#867,.T.);
#867 = EDGE_CURVE('',#860,#868,#870,.T.);
#868 = VERTEX_POINT('',#869);
#869 = CARTESIAN_POINT('',(-10.877934,3.290984,70.));
#870 = LINE('',#871,#872);
#871 = CARTESIAN_POINT('',(-10.877934,3.290984,12.));
#872 = VECTOR('',#873,1.);
#873 = DIRECTION('',(0.,0.,1.));
#874 = ORIENTED_EDGE('',*,*,#875,.F.);
#875 = EDGE_CURVE('',#804,#868,#876,.T.);
#876 = LINE('',#877,#878);
#877 = CARTESIAN_POINT('',(3.559566,3.290984,70.));
#878 = VECTOR('',#879,1.);
#879 = DIRECTION('',(-1.,0.,0.));
#880 = ORIENTED_EDGE('',*,*,#813,.F.);
#881 = ORIENTED_EDGE('',*,*,#100,.F.);
#882 = ORIENTED_EDGE('',*,*,#883,.F.);
#883 = EDGE_CURVE('',#884,#93,#886,.T.);
#884 = VERTEX_POINT('',#885);
#885 = CARTESIAN_POINT('',(23.782066,3.290984,70.));
#886 = LINE('',#887,#888);
#887 = CARTESIAN_POINT('',(23.782066,3.290984,76.));
#888 = VECTOR('',#889,1.);
#889 = DIRECTION('',(0.,2.2E-16,1.));
#890 = ORIENTED_EDGE('',*,*,#891,.F.);
#891 = EDGE_CURVE('',#852,#884,#892,.T.);
#892 = LINE('',#893,#894);
#893 = CARTESIAN_POINT('',(20.889566,3.290984,70.));
#894 = VECTOR('',#895,1.);
#895 = DIRECTION('',(-1.,0.,0.));
#896 = FACE_BOUND('',#897,.T.);
#897 = EDGE_LOOP('',(#898));
#898 = ORIENTED_EDGE('',*,*,#899,.T.);
#899 = EDGE_CURVE('',#900,#900,#902,.T.);
#900 = VERTEX_POINT('',#901);
#901 = CARTESIAN_POINT('',(-5.027934,3.290984,8.));
#902 = CIRCLE('',#903,0.85);
#903 = AXIS2_PLACEMENT_3D('',#904,#905,#906);
#904 = CARTESIAN_POINT('',(-5.877934,3.290984,8.));
#905 = DIRECTION('',(0.,-1.,2.2E-16));
#906 = DIRECTION('',(1.,0.,0.));
#907 = FACE_BOUND('',#908,.T.);
#908 = EDGE_LOOP('',(#909));
#909 = ORIENTED_EDGE('',*,*,#910,.T.);
#910 = EDGE_CURVE('',#911,#911,#913,.T.);
#911 = VERTEX_POINT('',#912);
#912 = CARTESIAN_POINT('',(-2.027934,3.290984,65.));
#913 = CIRCLE('',#914,0.85);
#914 = AXIS2_PLACEMENT_3D('',#915,#916,#917);
#915 = CARTESIAN_POINT('',(-2.877934,3.290984,65.));
#916 = DIRECTION('',(0.,-1.,2.2E-16));
#917 = DIRECTION('',(1.,0.,0.));
#918 = FACE_BOUND('',#919,.T.);
#919 = EDGE_LOOP('',(#920,#930,#938,#946,#954,#960,#961,#969));
#920 = ORIENTED_EDGE('',*,*,#921,.F.);
#921 = EDGE_CURVE('',#922,#924,#926,.T.);
#922 = VERTEX_POINT('',#923);
#923 = CARTESIAN_POINT('',(1.122066,3.290984,12.));
#924 = VERTEX_POINT('',#925);
#925 = CARTESIAN_POINT('',(1.122066,3.290984,62.));
#926 = LINE('',#927,#928);
#927 = CARTESIAN_POINT('',(1.122066,3.290984,12.));
#928 = VECTOR('',#929,1.);
#929 = DIRECTION('',(0.,0.,1.));
#930 = ORIENTED_EDGE('',*,*,#931,.F.);
#931 = EDGE_CURVE('',#932,#922,#934,.T.);
#932 = VERTEX_POINT('',#933);
#933 = CARTESIAN_POINT('',(34.872066,3.290984,12.));
#934 = LINE('',#935,#936);
#935 = CARTESIAN_POINT('',(46.872066,3.290984,12.));
#936 = VECTOR('',#937,1.);
#937 = DIRECTION('',(-1.,0.,0.));
#938 = ORIENTED_EDGE('',*,*,#939,.T.);
#939 = EDGE_CURVE('',#932,#940,#942,.T.);
#940 = VERTEX_POINT('',#941);
#941 = CARTESIAN_POINT('',(34.872066,3.290984,62.));
#942 = LINE('',#943,#944);
#943 = CARTESIAN_POINT('',(34.872066,3.290984,12.));
#944 = VECTOR('',#945,1.);
#945 = DIRECTION('',(0.,0.,1.));
#946 = ORIENTED_EDGE('',*,*,#947,.F.);
#947 = EDGE_CURVE('',#948,#940,#950,.T.);
#948 = VERTEX_POINT('',#949);
#949 = CARTESIAN_POINT('',(24.997066,3.290984,62.));
#950 = LINE('',#951,#952);
#951 = CARTESIAN_POINT('',(-10.877934,3.290984,62.));
#952 = VECTOR('',#953,1.);
#953 = DIRECTION('',(1.,0.,0.));
#954 = ORIENTED_EDGE('',*,*,#955,.F.);
#955 = EDGE_CURVE('',#221,#948,#956,.T.);
#956 = LINE('',#957,#958);
#957 = CARTESIAN_POINT('',(24.997066,3.290984,60.));
#958 = VECTOR('',#959,1.);
#959 = DIRECTION('',(0.,2.2E-16,1.));
#960 = ORIENTED_EDGE('',*,*,#220,.F.);
#961 = ORIENTED_EDGE('',*,*,#962,.F.);
#962 = EDGE_CURVE('',#963,#213,#965,.T.);
#963 = VERTEX_POINT('',#964);
#964 = CARTESIAN_POINT('',(10.997066,3.290984,62.));
#965 = LINE('',#966,#967);
#966 = CARTESIAN_POINT('',(10.997066,3.290984,64.));
#967 = VECTOR('',#968,1.);
#968 = DIRECTION('',(0.,-2.2E-16,-1.));
#969 = ORIENTED_EDGE('',*,*,#970,.F.);
#970 = EDGE_CURVE('',#924,#963,#971,.T.);
#971 = LINE('',#972,#973);
#972 = CARTESIAN_POINT('',(-10.877934,3.290984,62.));
#973 = VECTOR('',#974,1.);
#974 = DIRECTION('',(1.,0.,0.));
#975 = FACE_BOUND('',#976,.T.);
#976 = EDGE_LOOP('',(#977));
#977 = ORIENTED_EDGE('',*,*,#978,.T.);
#978 = EDGE_CURVE('',#979,#979,#981,.T.);
#979 = VERTEX_POINT('',#980);
#980 = CARTESIAN_POINT('',(42.722066,3.290984,8.));
#981 = CIRCLE('',#982,0.85);
#982 = AXIS2_PLACEMENT_3D('',#983,#984,#985);
#983 = CARTESIAN_POINT('',(41.872066,3.290984,8.));
#984 = DIRECTION('',(0.,-1.,2.2E-16));
#985 = DIRECTION('',(1.,0.,0.));
#986 = FACE_BOUND('',#987,.T.);
#987 = EDGE_LOOP('',(#988));
#988 = ORIENTED_EDGE('',*,*,#989,.T.);
#989 = EDGE_CURVE('',#990,#990,#992,.T.);
#990 = VERTEX_POINT('',#991);
#991 = CARTESIAN_POINT('',(39.722066,3.290984,65.));
#992 = CIRCLE('',#993,0.85);
#993 = AXIS2_PLACEMENT_3D('',#994,#995,#996);
#994 = CARTESIAN_POINT('',(38.872066,3.290984,65.));
#995 = DIRECTION('',(0.,-1.,2.2E-16));
#996 = DIRECTION('',(1.,0.,0.));
#997 = PLANE('',#998);
#998 = AXIS2_PLACEMENT_3D('',#999,#1000,#1001);
#999 = CARTESIAN_POINT('',(17.997066,3.290984,36.964186915888));
#1000 = DIRECTION('',(0.,1.,0.));
#1001 = DIRECTION('',(0.,0.,1.));
#1002 = ADVANCED_FACE('',(#1003,#1014,#1017),#1020,.T.);
#1003 = FACE_BOUND('',#1004,.T.);
#1004 = EDGE_LOOP('',(#1005,#1006,#1007,#1013));
#1005 = ORIENTED_EDGE('',*,*,#92,.F.);
#1006 = ORIENTED_EDGE('',*,*,#420,.T.);
#1007 = ORIENTED_EDGE('',*,*,#1008,.T.);
#1008 = EDGE_CURVE('',#413,#884,#1009,.T.);
#1009 = LINE('',#1010,#1011);
#1010 = CARTESIAN_POINT('',(23.782066,-15.709016,70.));
#1011 = VECTOR('',#1012,1.);
#1012 = DIRECTION('',(0.,1.,-2.2E-16));
#1013 = ORIENTED_EDGE('',*,*,#883,.T.);
#1014 = FACE_BOUND('',#1015,.T.);
#1015 = EDGE_LOOP('',(#1016));
#1016 = ORIENTED_EDGE('',*,*,#501,.F.);
#1017 = FACE_BOUND('',#1018,.T.);
#1018 = EDGE_LOOP('',(#1019));
#1019 = ORIENTED_EDGE('',*,*,#476,.F.);
#1020 = PLANE('',#1021);
#1021 = AXIS2_PLACEMENT_3D('',#1022,#1023,#1024);
#1022 = CARTESIAN_POINT('',(23.782066,-8.209016,73.));
#1023 = DIRECTION('',(1.,0.,0.));
#1024 = DIRECTION('',(0.,0.,1.));
#1025 = ADVANCED_FACE('',(#1026),#1037,.T.);
#1026 = FACE_BOUND('',#1027,.T.);
#1027 = EDGE_LOOP('',(#1028,#1029,#1030,#1031));
#1028 = ORIENTED_EDGE('',*,*,#292,.F.);
#1029 = ORIENTED_EDGE('',*,*,#228,.T.);
#1030 = ORIENTED_EDGE('',*,*,#955,.T.);
#1031 = ORIENTED_EDGE('',*,*,#1032,.T.);
#1032 = EDGE_CURVE('',#948,#293,#1033,.T.);
#1033 = LINE('',#1034,#1035);
#1034 = CARTESIAN_POINT('',(24.997066,-6.209016,62.));
#1035 = VECTOR('',#1036,1.);
#1036 = DIRECTION('',(0.,-1.,0.));
#1037 = PLANE('',#1038);
#1038 = AXIS2_PLACEMENT_3D('',#1039,#1040,#1041);
#1039 = CARTESIAN_POINT('',(24.997066,-15.709016,60.));
#1040 = DIRECTION('',(1.,0.,0.));
#1041 = DIRECTION('',(0.,2.2E-16,1.));
#1042 = ADVANCED_FACE('',(#1043),#1054,.T.);
#1043 = FACE_BOUND('',#1044,.T.);
#1044 = EDGE_LOOP('',(#1045,#1046,#1052,#1053));
#1045 = ORIENTED_EDGE('',*,*,#643,.F.);
#1046 = ORIENTED_EDGE('',*,*,#1047,.T.);
#1047 = EDGE_CURVE('',#636,#963,#1048,.T.);
#1048 = LINE('',#1049,#1050);
#1049 = CARTESIAN_POINT('',(10.997066,-6.209016,62.));
#1050 = VECTOR('',#1051,1.);
#1051 = DIRECTION('',(0.,1.,0.));
#1052 = ORIENTED_EDGE('',*,*,#962,.T.);
#1053 = ORIENTED_EDGE('',*,*,#212,.F.);
#1054 = PLANE('',#1055);
#1055 = AXIS2_PLACEMENT_3D('',#1056,#1057,#1058);
#1056 = CARTESIAN_POINT('',(10.997066,-15.709016,64.));
#1057 = DIRECTION('',(-1.,0.,0.));
#1058 = DIRECTION('',(0.,-2.2E-16,-1.));
#1059 = ADVANCED_FACE('',(#1060),#1071,.F.);
#1060 = FACE_BOUND('',#1061,.F.);
#1061 = EDGE_LOOP('',(#1062,#1063,#1064,#1065));
#1062 = ORIENTED_EDGE('',*,*,#412,.F.);
#1063 = ORIENTED_EDGE('',*,*,#1008,.T.);
#1064 = ORIENTED_EDGE('',*,*,#891,.F.);
#1065 = ORIENTED_EDGE('',*,*,#1066,.F.);
#1066 = EDGE_CURVE('',#405,#852,#1067,.T.);
#1067 = LINE('',#1068,#1069);
#1068 = CARTESIAN_POINT('',(46.872066,-15.709016,70.));
#1069 = VECTOR('',#1070,1.);
#1070 = DIRECTION('',(0.,1.,-2.2E-16));
#1071 = PLANE('',#1072);
#1072 = AXIS2_PLACEMENT_3D('',#1073,#1074,#1075);
#1073 = CARTESIAN_POINT('',(23.782066,-15.709016,70.));
#1074 = DIRECTION('',(0.,-2.2E-16,-1.));
#1075 = DIRECTION('',(1.,0.,0.));
#1076 = ADVANCED_FACE('',(#1077),#1104,.T.);
#1077 = FACE_BOUND('',#1078,.T.);
#1078 = EDGE_LOOP('',(#1079,#1080,#1081,#1089,#1097,#1103));
#1079 = ORIENTED_EDGE('',*,*,#1032,.F.);
#1080 = ORIENTED_EDGE('',*,*,#947,.T.);
#1081 = ORIENTED_EDGE('',*,*,#1082,.T.);
#1082 = EDGE_CURVE('',#940,#1083,#1085,.T.);
#1083 = VERTEX_POINT('',#1084);
#1084 = CARTESIAN_POINT('',(34.872066,-0.709016,62.));
#1085 = LINE('',#1086,#1087);
#1086 = CARTESIAN_POINT('',(34.872066,3.290984,62.));
#1087 = VECTOR('',#1088,1.);
#1088 = DIRECTION('',(0.,-1.,0.));
#1089 = ORIENTED_EDGE('',*,*,#1090,.T.);
#1090 = EDGE_CURVE('',#1083,#1091,#1093,.T.);
#1091 = VERTEX_POINT('',#1092);
#1092 = CARTESIAN_POINT('',(41.872066,-0.709016,62.));
#1093 = LINE('',#1094,#1095);
#1094 = CARTESIAN_POINT('',(34.872066,-0.709016,62.));
#1095 = VECTOR('',#1096,1.);
#1096 = DIRECTION('',(1.,0.,0.));
#1097 = ORIENTED_EDGE('',*,*,#1098,.F.);
#1098 = EDGE_CURVE('',#301,#1091,#1099,.T.);
#1099 = LINE('',#1100,#1101);
#1100 = CARTESIAN_POINT('',(41.872066,-15.709016,62.));
#1101 = VECTOR('',#1102,1.);
#1102 = DIRECTION('',(0.,1.,0.));
#1103 = ORIENTED_EDGE('',*,*,#300,.F.);
#1104 = PLANE('',#1105);
#1105 = AXIS2_PLACEMENT_3D('',#1106,#1107,#1108);
#1106 = CARTESIAN_POINT('',(-10.877934,3.290984,62.));
#1107 = DIRECTION('',(-0.,-0.,-1.));
#1108 = DIRECTION('',(0.,-1.,0.));
#1109 = ADVANCED_FACE('',(#1110,#1121,#1132),#1143,.T.);
#1110 = FACE_BOUND('',#1111,.T.);
#1111 = EDGE_LOOP('',(#1112,#1113,#1119,#1120));
#1112 = ORIENTED_EDGE('',*,*,#404,.F.);
#1113 = ORIENTED_EDGE('',*,*,#1114,.T.);
#1114 = EDGE_CURVE('',#397,#850,#1115,.T.);
#1115 = LINE('',#1116,#1117);
#1116 = CARTESIAN_POINT('',(46.872066,-19.709016,0.));
#1117 = VECTOR('',#1118,1.);
#1118 = DIRECTION('',(0.,1.,0.));
#1119 = ORIENTED_EDGE('',*,*,#849,.T.);
#1120 = ORIENTED_EDGE('',*,*,#1066,.F.);
#1121 = FACE_BOUND('',#1122,.T.);
#1122 = EDGE_LOOP('',(#1123));
#1123 = ORIENTED_EDGE('',*,*,#1124,.T.);
#1124 = EDGE_CURVE('',#1125,#1125,#1127,.T.);
#1125 = VERTEX_POINT('',#1126);
#1126 = CARTESIAN_POINT('',(46.872066,-9.609016,17.5));
#1127 = CIRCLE('',#1128,1.4);
#1128 = AXIS2_PLACEMENT_3D('',#1129,#1130,#1131);
#1129 = CARTESIAN_POINT('',(46.872066,-8.209016,17.5));
#1130 = DIRECTION('',(-1.,0.,0.));
#1131 = DIRECTION('',(0.,-1.,0.));
#1132 = FACE_BOUND('',#1133,.T.);
#1133 = EDGE_LOOP('',(#1134));
#1134 = ORIENTED_EDGE('',*,*,#1135,.T.);
#1135 = EDGE_CURVE('',#1136,#1136,#1138,.T.);
#1136 = VERTEX_POINT('',#1137);
#1137 = CARTESIAN_POINT('',(46.872066,-9.609016,52.5));
#1138 = CIRCLE('',#1139,1.4);
#1139 = AXIS2_PLACEMENT_3D('',#1140,#1141,#1142);
#1140 = CARTESIAN_POINT('',(46.872066,-8.209016,52.5));
#1141 = DIRECTION('',(-1.,0.,0.));
#1142 = DIRECTION('',(0.,-1.,0.));
#1143 = PLANE('',#1144);
#1144 = AXIS2_PLACEMENT_3D('',#1145,#1146,#1147);
#1145 = CARTESIAN_POINT('',(46.872066,-6.209016,41.));
#1146 = DIRECTION('',(1.,0.,0.));
#1147 = DIRECTION('',(0.,0.,1.));
#1148 = ADVANCED_FACE('',(#1149,#1167,#1178),#1189,.F.);
#1149 = FACE_BOUND('',#1150,.F.);
#1150 = EDGE_LOOP('',(#1151,#1152,#1160,#1166));
#1151 = ORIENTED_EDGE('',*,*,#308,.T.);
#1152 = ORIENTED_EDGE('',*,*,#1153,.T.);
#1153 = EDGE_CURVE('',#309,#1154,#1156,.T.);
#1154 = VERTEX_POINT('',#1155);
#1155 = CARTESIAN_POINT('',(41.872066,-0.709016,12.));
#1156 = LINE('',#1157,#1158);
#1157 = CARTESIAN_POINT('',(41.872066,-15.709016,12.));
#1158 = VECTOR('',#1159,1.);
#1159 = DIRECTION('',(0.,1.,0.));
#1160 = ORIENTED_EDGE('',*,*,#1161,.F.);
#1161 = EDGE_CURVE('',#1091,#1154,#1162,.T.);
#1162 = LINE('',#1163,#1164);
#1163 = CARTESIAN_POINT('',(41.872066,-0.709016,62.));
#1164 = VECTOR('',#1165,1.);
#1165 = DIRECTION('',(-0.,-0.,-1.));
#1166 = ORIENTED_EDGE('',*,*,#1098,.F.);
#1167 = FACE_BOUND('',#1168,.F.);
#1168 = EDGE_LOOP('',(#1169));
#1169 = ORIENTED_EDGE('',*,*,#1170,.T.);
#1170 = EDGE_CURVE('',#1171,#1171,#1173,.T.);
#1171 = VERTEX_POINT('',#1172);
#1172 = CARTESIAN_POINT('',(41.872066,-9.609016,17.5));
#1173 = CIRCLE('',#1174,1.4);
#1174 = AXIS2_PLACEMENT_3D('',#1175,#1176,#1177);
#1175 = CARTESIAN_POINT('',(41.872066,-8.209016,17.5));
#1176 = DIRECTION('',(-1.,0.,0.));
#1177 = DIRECTION('',(0.,-1.,0.));
#1178 = FACE_BOUND('',#1179,.F.);
#1179 = EDGE_LOOP('',(#1180));
#1180 = ORIENTED_EDGE('',*,*,#1181,.T.);
#1181 = EDGE_CURVE('',#1182,#1182,#1184,.T.);
#1182 = VERTEX_POINT('',#1183);
#1183 = CARTESIAN_POINT('',(41.872066,-9.609016,52.5));
#1184 = CIRCLE('',#1185,1.4);
#1185 = AXIS2_PLACEMENT_3D('',#1186,#1187,#1188);
#1186 = CARTESIAN_POINT('',(41.872066,-8.209016,52.5));
#1187 = DIRECTION('',(-1.,0.,0.));
#1188 = DIRECTION('',(0.,-1.,0.));
#1189 = PLANE('',#1190);
#1190 = AXIS2_PLACEMENT_3D('',#1191,#1192,#1193);
#1191 = CARTESIAN_POINT('',(41.872066,-15.709016,62.));
#1192 = DIRECTION('',(1.,0.,0.));
#1193 = DIRECTION('',(0.,1.,0.));
#1194 = ADVANCED_FACE('',(#1195),#1229,.T.);
#1195 = FACE_BOUND('',#1196,.T.);
#1196 = EDGE_LOOP('',(#1197,#1198,#1199,#1207,#1215,#1221,#1222,#1228));
#1197 = ORIENTED_EDGE('',*,*,#1114,.F.);
#1198 = ORIENTED_EDGE('',*,*,#396,.F.);
#1199 = ORIENTED_EDGE('',*,*,#1200,.T.);
#1200 = EDGE_CURVE('',#389,#1201,#1203,.T.);
#1201 = VERTEX_POINT('',#1202);
#1202 = CARTESIAN_POINT('',(20.997066,-0.709016,-4.E-15));
#1203 = LINE('',#1204,#1205);
#1204 = CARTESIAN_POINT('',(20.997066,-19.709016,0.));
#1205 = VECTOR('',#1206,1.);
#1206 = DIRECTION('',(0.,1.,-2.2E-16));
#1207 = ORIENTED_EDGE('',*,*,#1208,.F.);
#1208 = EDGE_CURVE('',#1209,#1201,#1211,.T.);
#1209 = VERTEX_POINT('',#1210);
#1210 = CARTESIAN_POINT('',(14.997066,-0.709016,-4.E-15));
#1211 = LINE('',#1212,#1213);
#1212 = CARTESIAN_POINT('',(14.997066,-0.709016,-4.E-15));
#1213 = VECTOR('',#1214,1.);
#1214 = DIRECTION('',(1.,0.,0.));
#1215 = ORIENTED_EDGE('',*,*,#1216,.F.);
#1216 = EDGE_CURVE('',#677,#1209,#1217,.T.);
#1217 = LINE('',#1218,#1219);
#1218 = CARTESIAN_POINT('',(14.997066,-19.709016,0.));
#1219 = VECTOR('',#1220,1.);
#1220 = DIRECTION('',(0.,1.,-2.2E-16));
#1221 = ORIENTED_EDGE('',*,*,#676,.F.);
#1222 = ORIENTED_EDGE('',*,*,#1223,.F.);
#1223 = EDGE_CURVE('',#860,#669,#1224,.T.);
#1224 = LINE('',#1225,#1226);
#1225 = CARTESIAN_POINT('',(-10.877934,3.290984,0.));
#1226 = VECTOR('',#1227,1.);
#1227 = DIRECTION('',(0.,-1.,0.));
#1228 = ORIENTED_EDGE('',*,*,#859,.F.);
#1229 = PLANE('',#1230);
#1230 = AXIS2_PLACEMENT_3D('',#1231,#1232,#1233);
#1231 = CARTESIAN_POINT('',(17.997066,-7.46214883208,-6.6E-16));
#1232 = DIRECTION('',(-0.,-0.,-1.));
#1233 = DIRECTION('',(-1.,0.,0.));
#1234 = ADVANCED_FACE('',(#1235),#1253,.T.);
#1235 = FACE_BOUND('',#1236,.T.);
#1236 = EDGE_LOOP('',(#1237,#1245,#1251,#1252));
#1237 = ORIENTED_EDGE('',*,*,#1238,.F.);
#1238 = EDGE_CURVE('',#1239,#1154,#1241,.T.);
#1239 = VERTEX_POINT('',#1240);
#1240 = CARTESIAN_POINT('',(34.997066,-0.709016,12.));
#1241 = LINE('',#1242,#1243);
#1242 = CARTESIAN_POINT('',(34.872066,-0.709016,12.));
#1243 = VECTOR('',#1244,1.);
#1244 = DIRECTION('',(1.,0.,0.));
#1245 = ORIENTED_EDGE('',*,*,#1246,.T.);
#1246 = EDGE_CURVE('',#1239,#317,#1247,.T.);
#1247 = LINE('',#1248,#1249);
#1248 = CARTESIAN_POINT('',(34.997066,-0.709016,12.));
#1249 = VECTOR('',#1250,1.);
#1250 = DIRECTION('',(0.,-1.,2.2E-16));
#1251 = ORIENTED_EDGE('',*,*,#316,.T.);
#1252 = ORIENTED_EDGE('',*,*,#1153,.T.);
#1253 = PLANE('',#1254);
#1254 = AXIS2_PLACEMENT_3D('',#1255,#1256,#1257);
#1255 = CARTESIAN_POINT('',(38.434566,-8.209016,12.));
#1256 = DIRECTION('',(0.,0.,1.));
#1257 = DIRECTION('',(1.,0.,0.));
#1258 = ADVANCED_FACE('',(#1259),#1277,.F.);
#1259 = FACE_BOUND('',#1260,.F.);
#1260 = EDGE_LOOP('',(#1261,#1262,#1263,#1271));
#1261 = ORIENTED_EDGE('',*,*,#388,.F.);
#1262 = ORIENTED_EDGE('',*,*,#1200,.T.);
#1263 = ORIENTED_EDGE('',*,*,#1264,.T.);
#1264 = EDGE_CURVE('',#1201,#1265,#1267,.T.);
#1265 = VERTEX_POINT('',#1266);
#1266 = CARTESIAN_POINT('',(20.997066,-0.709016,12.));
#1267 = LINE('',#1268,#1269);
#1268 = CARTESIAN_POINT('',(20.997066,-0.709016,-4.E-15));
#1269 = VECTOR('',#1270,1.);
#1270 = DIRECTION('',(0.,0.,1.));
#1271 = ORIENTED_EDGE('',*,*,#1272,.F.);
#1272 = EDGE_CURVE('',#381,#1265,#1273,.T.);
#1273 = LINE('',#1274,#1275);
#1274 = CARTESIAN_POINT('',(20.997066,-19.709016,12.));
#1275 = VECTOR('',#1276,1.);
#1276 = DIRECTION('',(0.,1.,-2.2E-16));
#1277 = PLANE('',#1278);
#1278 = AXIS2_PLACEMENT_3D('',#1279,#1280,#1281);
#1279 = CARTESIAN_POINT('',(20.997066,-19.709016,0.));
#1280 = DIRECTION('',(1.,0.,0.));
#1281 = DIRECTION('',(0.,2.2E-16,1.));
#1282 = ADVANCED_FACE('',(#1283),#1301,.T.);
#1283 = FACE_BOUND('',#1284,.T.);
#1284 = EDGE_LOOP('',(#1285,#1293,#1299,#1300));
#1285 = ORIENTED_EDGE('',*,*,#1286,.F.);
#1286 = EDGE_CURVE('',#1287,#1239,#1289,.T.);
#1287 = VERTEX_POINT('',#1288);
#1288 = CARTESIAN_POINT('',(34.997066,-0.709016,8.5));
#1289 = LINE('',#1290,#1291);
#1290 = CARTESIAN_POINT('',(34.997066,-0.709016,8.5));
#1291 = VECTOR('',#1292,1.);
#1292 = DIRECTION('',(0.,0.,1.));
#1293 = ORIENTED_EDGE('',*,*,#1294,.T.);
#1294 = EDGE_CURVE('',#1287,#325,#1295,.T.);
#1295 = LINE('',#1296,#1297);
#1296 = CARTESIAN_POINT('',(34.997066,-0.709016,8.5));
#1297 = VECTOR('',#1298,1.);
#1298 = DIRECTION('',(0.,-1.,2.2E-16));
#1299 = ORIENTED_EDGE('',*,*,#324,.F.);
#1300 = ORIENTED_EDGE('',*,*,#1246,.F.);
#1301 = PLANE('',#1302);
#1302 = AXIS2_PLACEMENT_3D('',#1303,#1304,#1305);
#1303 = CARTESIAN_POINT('',(34.997066,-0.709016,8.5));
#1304 = DIRECTION('',(-1.,0.,0.));
#1305 = DIRECTION('',(0.,2.2E-16,1.));
#1306 = ADVANCED_FACE('',(#1307),#1371,.T.);
#1307 = FACE_BOUND('',#1308,.T.);
#1308 = EDGE_LOOP('',(#1309,#1317,#1318,#1326,#1334,#1340,#1341,#1349,
    #1355,#1356,#1357,#1365));
#1309 = ORIENTED_EDGE('',*,*,#1310,.F.);
#1310 = EDGE_CURVE('',#932,#1311,#1313,.T.);
#1311 = VERTEX_POINT('',#1312);
#1312 = CARTESIAN_POINT('',(34.872066,-0.709016,12.));
#1313 = LINE('',#1314,#1315);
#1314 = CARTESIAN_POINT('',(34.872066,3.290984,12.));
#1315 = VECTOR('',#1316,1.);
#1316 = DIRECTION('',(0.,-1.,0.));
#1317 = ORIENTED_EDGE('',*,*,#931,.T.);
#1318 = ORIENTED_EDGE('',*,*,#1319,.F.);
#1319 = EDGE_CURVE('',#1320,#922,#1322,.T.);
#1320 = VERTEX_POINT('',#1321);
#1321 = CARTESIAN_POINT('',(1.122066,-0.709016,12.));
#1322 = LINE('',#1323,#1324);
#1323 = CARTESIAN_POINT('',(1.122066,-0.709016,12.));
#1324 = VECTOR('',#1325,1.);
#1325 = DIRECTION('',(0.,1.,0.));
#1326 = ORIENTED_EDGE('',*,*,#1327,.F.);
#1327 = EDGE_CURVE('',#1328,#1320,#1330,.T.);
#1328 = VERTEX_POINT('',#1329);
#1329 = CARTESIAN_POINT('',(6.997066,-0.709016,12.));
#1330 = LINE('',#1331,#1332);
#1331 = CARTESIAN_POINT('',(6.997066,-0.709016,12.));
#1332 = VECTOR('',#1333,1.);
#1333 = DIRECTION('',(-1.,0.,0.));
#1334 = ORIENTED_EDGE('',*,*,#1335,.T.);
#1335 = EDGE_CURVE('',#1328,#693,#1336,.T.);
#1336 = LINE('',#1337,#1338);
#1337 = CARTESIAN_POINT('',(6.997066,-0.709016,12.));
#1338 = VECTOR('',#1339,1.);
#1339 = DIRECTION('',(0.,-1.,2.2E-16));
#1340 = ORIENTED_EDGE('',*,*,#692,.F.);
#1341 = ORIENTED_EDGE('',*,*,#1342,.T.);
#1342 = EDGE_CURVE('',#685,#1343,#1345,.T.);
#1343 = VERTEX_POINT('',#1344);
#1344 = CARTESIAN_POINT('',(14.997066,-0.709016,12.));
#1345 = LINE('',#1346,#1347);
#1346 = CARTESIAN_POINT('',(14.997066,-19.709016,12.));
#1347 = VECTOR('',#1348,1.);
#1348 = DIRECTION('',(0.,1.,-2.2E-16));
#1349 = ORIENTED_EDGE('',*,*,#1350,.F.);
#1350 = EDGE_CURVE('',#1265,#1343,#1351,.T.);
#1351 = LINE('',#1352,#1353);
#1352 = CARTESIAN_POINT('',(20.997066,-0.709016,12.));
#1353 = VECTOR('',#1354,1.);
#1354 = DIRECTION('',(-1.,0.,0.));
#1355 = ORIENTED_EDGE('',*,*,#1272,.F.);
#1356 = ORIENTED_EDGE('',*,*,#380,.F.);
#1357 = ORIENTED_EDGE('',*,*,#1358,.F.);
#1358 = EDGE_CURVE('',#1359,#373,#1361,.T.);
#1359 = VERTEX_POINT('',#1360);
#1360 = CARTESIAN_POINT('',(28.997066,-0.709016,12.));
#1361 = LINE('',#1362,#1363);
#1362 = CARTESIAN_POINT('',(28.997066,-0.709016,12.));
#1363 = VECTOR('',#1364,1.);
#1364 = DIRECTION('',(0.,-1.,2.2E-16));
#1365 = ORIENTED_EDGE('',*,*,#1366,.F.);
#1366 = EDGE_CURVE('',#1311,#1359,#1367,.T.);
#1367 = LINE('',#1368,#1369);
#1368 = CARTESIAN_POINT('',(34.997066,-0.709016,12.));
#1369 = VECTOR('',#1370,1.);
#1370 = DIRECTION('',(-1.,0.,0.));
#1371 = PLANE('',#1372);
#1372 = AXIS2_PLACEMENT_3D('',#1373,#1374,#1375);
#1373 = CARTESIAN_POINT('',(17.997066,-8.209016,12.));
#1374 = DIRECTION('',(0.,0.,1.));
#1375 = DIRECTION('',(1.,0.,0.));
#1376 = ADVANCED_FACE('',(#1377),#1395,.T.);
#1377 = FACE_BOUND('',#1378,.T.);
#1378 = EDGE_LOOP('',(#1379,#1387,#1393,#1394));
#1379 = ORIENTED_EDGE('',*,*,#1380,.F.);
#1380 = EDGE_CURVE('',#1381,#1287,#1383,.T.);
#1381 = VERTEX_POINT('',#1382);
#1382 = CARTESIAN_POINT('',(37.497066,-0.709016,8.5));
#1383 = LINE('',#1384,#1385);
#1384 = CARTESIAN_POINT('',(37.497066,-0.709016,8.5));
#1385 = VECTOR('',#1386,1.);
#1386 = DIRECTION('',(-1.,0.,0.));
#1387 = ORIENTED_EDGE('',*,*,#1388,.T.);
#1388 = EDGE_CURVE('',#1381,#333,#1389,.T.);
#1389 = LINE('',#1390,#1391);
#1390 = CARTESIAN_POINT('',(37.497066,-0.709016,8.5));
#1391 = VECTOR('',#1392,1.);
#1392 = DIRECTION('',(0.,-1.,2.2E-16));
#1393 = ORIENTED_EDGE('',*,*,#332,.F.);
#1394 = ORIENTED_EDGE('',*,*,#1294,.F.);
#1395 = PLANE('',#1396);
#1396 = AXIS2_PLACEMENT_3D('',#1397,#1398,#1399);
#1397 = CARTESIAN_POINT('',(37.497066,-0.709016,8.5));
#1398 = DIRECTION('',(-0.,-2.2E-16,-1.));
#1399 = DIRECTION('',(-1.,0.,0.));
#1400 = ADVANCED_FACE('',(#1401),#1419,.T.);
#1401 = FACE_BOUND('',#1402,.T.);
#1402 = EDGE_LOOP('',(#1403,#1411,#1412,#1413));
#1403 = ORIENTED_EDGE('',*,*,#1404,.F.);
#1404 = EDGE_CURVE('',#1359,#1405,#1407,.T.);
#1405 = VERTEX_POINT('',#1406);
#1406 = CARTESIAN_POINT('',(28.997066,-0.709016,8.5));
#1407 = LINE('',#1408,#1409);
#1408 = CARTESIAN_POINT('',(28.997066,-0.709016,12.));
#1409 = VECTOR('',#1410,1.);
#1410 = DIRECTION('',(0.,0.,-1.));
#1411 = ORIENTED_EDGE('',*,*,#1358,.T.);
#1412 = ORIENTED_EDGE('',*,*,#372,.T.);
#1413 = ORIENTED_EDGE('',*,*,#1414,.F.);
#1414 = EDGE_CURVE('',#1405,#365,#1415,.T.);
#1415 = LINE('',#1416,#1417);
#1416 = CARTESIAN_POINT('',(28.997066,-0.709016,8.5));
#1417 = VECTOR('',#1418,1.);
#1418 = DIRECTION('',(0.,-1.,2.2E-16));
#1419 = PLANE('',#1420);
#1420 = AXIS2_PLACEMENT_3D('',#1421,#1422,#1423);
#1421 = CARTESIAN_POINT('',(28.997066,-0.709016,12.));
#1422 = DIRECTION('',(1.,0.,0.));
#1423 = DIRECTION('',(0.,-2.2E-16,-1.));
#1424 = ADVANCED_FACE('',(#1425),#1443,.T.);
#1425 = FACE_BOUND('',#1426,.T.);
#1426 = EDGE_LOOP('',(#1427,#1435,#1441,#1442));
#1427 = ORIENTED_EDGE('',*,*,#1428,.F.);
#1428 = EDGE_CURVE('',#1429,#1381,#1431,.T.);
#1429 = VERTEX_POINT('',#1430);
#1430 = CARTESIAN_POINT('',(37.497066,-0.709016,3.));
#1431 = LINE('',#1432,#1433);
#1432 = CARTESIAN_POINT('',(37.497066,-0.709016,3.));
#1433 = VECTOR('',#1434,1.);
#1434 = DIRECTION('',(0.,0.,1.));
#1435 = ORIENTED_EDGE('',*,*,#1436,.T.);
#1436 = EDGE_CURVE('',#1429,#341,#1437,.T.);
#1437 = LINE('',#1438,#1439);
#1438 = CARTESIAN_POINT('',(37.497066,-0.709016,3.));
#1439 = VECTOR('',#1440,1.);
#1440 = DIRECTION('',(0.,-1.,2.2E-16));
#1441 = ORIENTED_EDGE('',*,*,#340,.F.);
#1442 = ORIENTED_EDGE('',*,*,#1388,.F.);
#1443 = PLANE('',#1444);
#1444 = AXIS2_PLACEMENT_3D('',#1445,#1446,#1447);
#1445 = CARTESIAN_POINT('',(37.497066,-0.709016,3.));
#1446 = DIRECTION('',(-1.,0.,0.));
#1447 = DIRECTION('',(0.,2.2E-16,1.));
#1448 = ADVANCED_FACE('',(#1449),#1467,.T.);
#1449 = FACE_BOUND('',#1450,.T.);
#1450 = EDGE_LOOP('',(#1451,#1459,#1460,#1461));
#1451 = ORIENTED_EDGE('',*,*,#1452,.F.);
#1452 = EDGE_CURVE('',#1405,#1453,#1455,.T.);
#1453 = VERTEX_POINT('',#1454);
#1454 = CARTESIAN_POINT('',(26.497066,-0.709016,8.5));
#1455 = LINE('',#1456,#1457);
#1456 = CARTESIAN_POINT('',(28.997066,-0.709016,8.5));
#1457 = VECTOR('',#1458,1.);
#1458 = DIRECTION('',(-1.,0.,0.));
#1459 = ORIENTED_EDGE('',*,*,#1414,.T.);
#1460 = ORIENTED_EDGE('',*,*,#364,.T.);
#1461 = ORIENTED_EDGE('',*,*,#1462,.F.);
#1462 = EDGE_CURVE('',#1453,#357,#1463,.T.);
#1463 = LINE('',#1464,#1465);
#1464 = CARTESIAN_POINT('',(26.497066,-0.709016,8.5));
#1465 = VECTOR('',#1466,1.);
#1466 = DIRECTION('',(0.,-1.,2.2E-16));
#1467 = PLANE('',#1468);
#1468 = AXIS2_PLACEMENT_3D('',#1469,#1470,#1471);
#1469 = CARTESIAN_POINT('',(28.997066,-0.709016,8.5));
#1470 = DIRECTION('',(-0.,-2.2E-16,-1.));
#1471 = DIRECTION('',(-1.,0.,0.));
#1472 = ADVANCED_FACE('',(#1473),#1491,.T.);
#1473 = FACE_BOUND('',#1474,.T.);
#1474 = EDGE_LOOP('',(#1475,#1483,#1489,#1490));
#1475 = ORIENTED_EDGE('',*,*,#1476,.F.);
#1476 = EDGE_CURVE('',#1477,#1429,#1479,.T.);
#1477 = VERTEX_POINT('',#1478);
#1478 = CARTESIAN_POINT('',(26.497066,-0.709016,3.));
#1479 = LINE('',#1480,#1481);
#1480 = CARTESIAN_POINT('',(26.497066,-0.709016,3.));
#1481 = VECTOR('',#1482,1.);
#1482 = DIRECTION('',(1.,0.,0.));
#1483 = ORIENTED_EDGE('',*,*,#1484,.T.);
#1484 = EDGE_CURVE('',#1477,#349,#1485,.T.);
#1485 = LINE('',#1486,#1487);
#1486 = CARTESIAN_POINT('',(26.497066,-0.709016,3.));
#1487 = VECTOR('',#1488,1.);
#1488 = DIRECTION('',(0.,-1.,2.2E-16));
#1489 = ORIENTED_EDGE('',*,*,#348,.T.);
#1490 = ORIENTED_EDGE('',*,*,#1436,.F.);
#1491 = PLANE('',#1492);
#1492 = AXIS2_PLACEMENT_3D('',#1493,#1494,#1495);
#1493 = CARTESIAN_POINT('',(26.497066,-0.709016,3.));
#1494 = DIRECTION('',(0.,2.2E-16,1.));
#1495 = DIRECTION('',(1.,0.,0.));
#1496 = ADVANCED_FACE('',(#1497),#1508,.T.);
#1497 = FACE_BOUND('',#1498,.T.);
#1498 = EDGE_LOOP('',(#1499,#1505,#1506,#1507));
#1499 = ORIENTED_EDGE('',*,*,#1500,.F.);
#1500 = EDGE_CURVE('',#1453,#1477,#1501,.T.);
#1501 = LINE('',#1502,#1503);
#1502 = CARTESIAN_POINT('',(26.497066,-0.709016,8.5));
#1503 = VECTOR('',#1504,1.);
#1504 = DIRECTION('',(0.,0.,-1.));
#1505 = ORIENTED_EDGE('',*,*,#1462,.T.);
#1506 = ORIENTED_EDGE('',*,*,#356,.T.);
#1507 = ORIENTED_EDGE('',*,*,#1484,.F.);
#1508 = PLANE('',#1509);
#1509 = AXIS2_PLACEMENT_3D('',#1510,#1511,#1512);
#1510 = CARTESIAN_POINT('',(26.497066,-0.709016,8.5));
#1511 = DIRECTION('',(1.,0.,0.));
#1512 = DIRECTION('',(0.,-2.2E-16,-1.));
#1513 = ADVANCED_FACE('',(#1514),#1533,.F.);
#1514 = FACE_BOUND('',#1515,.F.);
#1515 = EDGE_LOOP('',(#1516,#1524,#1531,#1532));
#1516 = ORIENTED_EDGE('',*,*,#1517,.T.);
#1517 = EDGE_CURVE('',#430,#1518,#1520,.T.);
#1518 = VERTEX_POINT('',#1519);
#1519 = CARTESIAN_POINT('',(26.647066,-0.709016,9.75));
#1520 = LINE('',#1521,#1522);
#1521 = CARTESIAN_POINT('',(26.647066,-15.709016,9.75));
#1522 = VECTOR('',#1523,1.);
#1523 = DIRECTION('',(0.,1.,-2.2E-16));
#1524 = ORIENTED_EDGE('',*,*,#1525,.T.);
#1525 = EDGE_CURVE('',#1518,#1518,#1526,.T.);
#1526 = CIRCLE('',#1527,0.9);
#1527 = AXIS2_PLACEMENT_3D('',#1528,#1529,#1530);
#1528 = CARTESIAN_POINT('',(25.747066,-0.709016,9.75));
#1529 = DIRECTION('',(0.,-1.,0.));
#1530 = DIRECTION('',(1.,0.,0.));
#1531 = ORIENTED_EDGE('',*,*,#1517,.F.);
#1532 = ORIENTED_EDGE('',*,*,#429,.F.);
#1533 = CYLINDRICAL_SURFACE('',#1534,0.9);
#1534 = AXIS2_PLACEMENT_3D('',#1535,#1536,#1537);
#1535 = CARTESIAN_POINT('',(25.747066,-15.709016,9.75));
#1536 = DIRECTION('',(0.,-1.,2.2E-16));
#1537 = DIRECTION('',(1.,0.,0.));
#1538 = ADVANCED_FACE('',(#1539),#1550,.F.);
#1539 = FACE_BOUND('',#1540,.F.);
#1540 = EDGE_LOOP('',(#1541,#1542,#1548,#1549));
#1541 = ORIENTED_EDGE('',*,*,#440,.F.);
#1542 = ORIENTED_EDGE('',*,*,#1543,.T.);
#1543 = EDGE_CURVE('',#441,#990,#1544,.T.);
#1544 = LINE('',#1545,#1546);
#1545 = CARTESIAN_POINT('',(39.722066,-15.709016,65.));
#1546 = VECTOR('',#1547,1.);
#1547 = DIRECTION('',(0.,1.,-2.2E-16));
#1548 = ORIENTED_EDGE('',*,*,#989,.T.);
#1549 = ORIENTED_EDGE('',*,*,#1543,.F.);
#1550 = CYLINDRICAL_SURFACE('',#1551,0.85);
#1551 = AXIS2_PLACEMENT_3D('',#1552,#1553,#1554);
#1552 = CARTESIAN_POINT('',(38.872066,-15.709016,65.));
#1553 = DIRECTION('',(0.,-1.,2.2E-16));
#1554 = DIRECTION('',(1.,0.,0.));
#1555 = ADVANCED_FACE('',(#1556),#1567,.F.);
#1556 = FACE_BOUND('',#1557,.F.);
#1557 = EDGE_LOOP('',(#1558,#1559,#1565,#1566));
#1558 = ORIENTED_EDGE('',*,*,#451,.F.);
#1559 = ORIENTED_EDGE('',*,*,#1560,.T.);
#1560 = EDGE_CURVE('',#452,#979,#1561,.T.);
#1561 = LINE('',#1562,#1563);
#1562 = CARTESIAN_POINT('',(42.722066,-15.709016,8.));
#1563 = VECTOR('',#1564,1.);
#1564 = DIRECTION('',(0.,1.,-2.2E-16));
#1565 = ORIENTED_EDGE('',*,*,#978,.T.);
#1566 = ORIENTED_EDGE('',*,*,#1560,.F.);
#1567 = CYLINDRICAL_SURFACE('',#1568,0.85);
#1568 = AXIS2_PLACEMENT_3D('',#1569,#1570,#1571);
#1569 = CARTESIAN_POINT('',(41.872066,-15.709016,8.));
#1570 = DIRECTION('',(0.,-1.,2.2E-16));
#1571 = DIRECTION('',(1.,0.,0.));
#1572 = ADVANCED_FACE('',(#1573),#1584,.F.);
#1573 = FACE_BOUND('',#1574,.F.);
#1574 = EDGE_LOOP('',(#1575,#1576,#1582,#1583));
#1575 = ORIENTED_EDGE('',*,*,#597,.F.);
#1576 = ORIENTED_EDGE('',*,*,#1577,.T.);
#1577 = EDGE_CURVE('',#598,#822,#1578,.T.);
#1578 = LINE('',#1579,#1580);
#1579 = CARTESIAN_POINT('',(23.782066,-4.334016,72.));
#1580 = VECTOR('',#1581,1.);
#1581 = DIRECTION('',(-1.,-0.,-0.));
#1582 = ORIENTED_EDGE('',*,*,#821,.T.);
#1583 = ORIENTED_EDGE('',*,*,#1577,.F.);
#1584 = CYLINDRICAL_SURFACE('',#1585,0.875);
#1585 = AXIS2_PLACEMENT_3D('',#1586,#1587,#1588);
#1586 = CARTESIAN_POINT('',(23.782066,-5.209016,72.));
#1587 = DIRECTION('',(1.,0.,0.));
#1588 = DIRECTION('',(0.,1.,0.));
#1589 = ADVANCED_FACE('',(#1590),#1601,.F.);
#1590 = FACE_BOUND('',#1591,.F.);
#1591 = EDGE_LOOP('',(#1592,#1593,#1599,#1600));
#1592 = ORIENTED_EDGE('',*,*,#608,.F.);
#1593 = ORIENTED_EDGE('',*,*,#1594,.T.);
#1594 = EDGE_CURVE('',#609,#833,#1595,.T.);
#1595 = LINE('',#1596,#1597);
#1596 = CARTESIAN_POINT('',(23.782066,-10.334016,72.));
#1597 = VECTOR('',#1598,1.);
#1598 = DIRECTION('',(-1.,-0.,-0.));
#1599 = ORIENTED_EDGE('',*,*,#832,.T.);
#1600 = ORIENTED_EDGE('',*,*,#1594,.F.);
#1601 = CYLINDRICAL_SURFACE('',#1602,0.875);
#1602 = AXIS2_PLACEMENT_3D('',#1603,#1604,#1605);
#1603 = CARTESIAN_POINT('',(23.782066,-11.209016,72.));
#1604 = DIRECTION('',(1.,0.,0.));
#1605 = DIRECTION('',(0.,1.,0.));
#1606 = ADVANCED_FACE('',(#1607,#1632,#1643),#1654,.F.);
#1607 = FACE_BOUND('',#1608,.F.);
#1608 = EDGE_LOOP('',(#1609,#1619,#1625,#1626));
#1609 = ORIENTED_EDGE('',*,*,#1610,.T.);
#1610 = EDGE_CURVE('',#1611,#1613,#1615,.T.);
#1611 = VERTEX_POINT('',#1612);
#1612 = CARTESIAN_POINT('',(-5.877934,-0.709016,62.));
#1613 = VERTEX_POINT('',#1614);
#1614 = CARTESIAN_POINT('',(-5.877934,-0.709016,12.));
#1615 = LINE('',#1616,#1617);
#1616 = CARTESIAN_POINT('',(-5.877934,-0.709016,62.));
#1617 = VECTOR('',#1618,1.);
#1618 = DIRECTION('',(-0.,-0.,-1.));
#1619 = ORIENTED_EDGE('',*,*,#1620,.T.);
#1620 = EDGE_CURVE('',#1613,#628,#1621,.T.);
#1621 = LINE('',#1622,#1623);
#1622 = CARTESIAN_POINT('',(-5.877934,-0.709016,12.));
#1623 = VECTOR('',#1624,1.);
#1624 = DIRECTION('',(0.,-1.,0.));
#1625 = ORIENTED_EDGE('',*,*,#625,.F.);
#1626 = ORIENTED_EDGE('',*,*,#1627,.F.);
#1627 = EDGE_CURVE('',#1611,#626,#1628,.T.);
#1628 = LINE('',#1629,#1630);
#1629 = CARTESIAN_POINT('',(-5.877934,-0.709016,62.));
#1630 = VECTOR('',#1631,1.);
#1631 = DIRECTION('',(0.,-1.,0.));
#1632 = FACE_BOUND('',#1633,.F.);
#1633 = EDGE_LOOP('',(#1634));
#1634 = ORIENTED_EDGE('',*,*,#1635,.F.);
#1635 = EDGE_CURVE('',#1636,#1636,#1638,.T.);
#1636 = VERTEX_POINT('',#1637);
#1637 = CARTESIAN_POINT('',(-5.877934,-9.609016,17.5));
#1638 = CIRCLE('',#1639,1.4);
#1639 = AXIS2_PLACEMENT_3D('',#1640,#1641,#1642);
#1640 = CARTESIAN_POINT('',(-5.877934,-8.209016,17.5));
#1641 = DIRECTION('',(-1.,0.,0.));
#1642 = DIRECTION('',(0.,-1.,0.));
#1643 = FACE_BOUND('',#1644,.F.);
#1644 = EDGE_LOOP('',(#1645));
#1645 = ORIENTED_EDGE('',*,*,#1646,.F.);
#1646 = EDGE_CURVE('',#1647,#1647,#1649,.T.);
#1647 = VERTEX_POINT('',#1648);
#1648 = CARTESIAN_POINT('',(-5.877934,-9.609016,52.5));
#1649 = CIRCLE('',#1650,1.4);
#1650 = AXIS2_PLACEMENT_3D('',#1651,#1652,#1653);
#1651 = CARTESIAN_POINT('',(-5.877934,-8.209016,52.5));
#1652 = DIRECTION('',(-1.,0.,0.));
#1653 = DIRECTION('',(0.,-1.,0.));
#1654 = PLANE('',#1655);
#1655 = AXIS2_PLACEMENT_3D('',#1656,#1657,#1658);
#1656 = CARTESIAN_POINT('',(-5.877934,-0.709016,62.));
#1657 = DIRECTION('',(-1.,0.,0.));
#1658 = DIRECTION('',(0.,-1.,0.));
#1659 = ADVANCED_FACE('',(#1660),#1680,.T.);
#1660 = FACE_BOUND('',#1661,.T.);
#1661 = EDGE_LOOP('',(#1662,#1670,#1676,#1677,#1678,#1679));
#1662 = ORIENTED_EDGE('',*,*,#1663,.F.);
#1663 = EDGE_CURVE('',#1664,#1611,#1666,.T.);
#1664 = VERTEX_POINT('',#1665);
#1665 = CARTESIAN_POINT('',(1.122066,-0.709016,62.));
#1666 = LINE('',#1667,#1668);
#1667 = CARTESIAN_POINT('',(-3.877934,-0.709016,62.));
#1668 = VECTOR('',#1669,1.);
#1669 = DIRECTION('',(-1.,0.,0.));
#1670 = ORIENTED_EDGE('',*,*,#1671,.T.);
#1671 = EDGE_CURVE('',#1664,#924,#1672,.T.);
#1672 = LINE('',#1673,#1674);
#1673 = CARTESIAN_POINT('',(1.122066,-0.709016,62.));
#1674 = VECTOR('',#1675,1.);
#1675 = DIRECTION('',(0.,1.,0.));
#1676 = ORIENTED_EDGE('',*,*,#970,.T.);
#1677 = ORIENTED_EDGE('',*,*,#1047,.F.);
#1678 = ORIENTED_EDGE('',*,*,#635,.F.);
#1679 = ORIENTED_EDGE('',*,*,#1627,.F.);
#1680 = PLANE('',#1681);
#1681 = AXIS2_PLACEMENT_3D('',#1682,#1683,#1684);
#1682 = CARTESIAN_POINT('',(-10.877934,3.290984,62.));
#1683 = DIRECTION('',(-0.,-0.,-1.));
#1684 = DIRECTION('',(0.,-1.,0.));
#1685 = ADVANCED_FACE('',(#1686),#1704,.T.);
#1686 = FACE_BOUND('',#1687,.T.);
#1687 = EDGE_LOOP('',(#1688,#1696,#1702,#1703));
#1688 = ORIENTED_EDGE('',*,*,#1689,.F.);
#1689 = EDGE_CURVE('',#1690,#749,#1692,.T.);
#1690 = VERTEX_POINT('',#1691);
#1691 = CARTESIAN_POINT('',(0.997066,-0.709016,12.));
#1692 = LINE('',#1693,#1694);
#1693 = CARTESIAN_POINT('',(0.997066,-0.709016,12.));
#1694 = VECTOR('',#1695,1.);
#1695 = DIRECTION('',(0.,-1.,2.2E-16));
#1696 = ORIENTED_EDGE('',*,*,#1697,.T.);
#1697 = EDGE_CURVE('',#1690,#1613,#1698,.T.);
#1698 = LINE('',#1699,#1700);
#1699 = CARTESIAN_POINT('',(-3.877934,-0.709016,12.));
#1700 = VECTOR('',#1701,1.);
#1701 = DIRECTION('',(-1.,0.,0.));
#1702 = ORIENTED_EDGE('',*,*,#1620,.T.);
#1703 = ORIENTED_EDGE('',*,*,#756,.F.);
#1704 = PLANE('',#1705);
#1705 = AXIS2_PLACEMENT_3D('',#1706,#1707,#1708);
#1706 = CARTESIAN_POINT('',(-2.440434,-8.209016,12.));
#1707 = DIRECTION('',(0.,0.,1.));
#1708 = DIRECTION('',(1.,0.,0.));
#1709 = ADVANCED_FACE('',(#1710),#1728,.F.);
#1710 = FACE_BOUND('',#1711,.F.);
#1711 = EDGE_LOOP('',(#1712,#1720,#1726,#1727));
#1712 = ORIENTED_EDGE('',*,*,#1713,.F.);
#1713 = EDGE_CURVE('',#1714,#1690,#1716,.T.);
#1714 = VERTEX_POINT('',#1715);
#1715 = CARTESIAN_POINT('',(0.997066,-0.709016,8.5));
#1716 = LINE('',#1717,#1718);
#1717 = CARTESIAN_POINT('',(0.997066,-0.709016,8.5));
#1718 = VECTOR('',#1719,1.);
#1719 = DIRECTION('',(0.,0.,1.));
#1720 = ORIENTED_EDGE('',*,*,#1721,.T.);
#1721 = EDGE_CURVE('',#1714,#741,#1722,.T.);
#1722 = LINE('',#1723,#1724);
#1723 = CARTESIAN_POINT('',(0.997066,-0.709016,8.5));
#1724 = VECTOR('',#1725,1.);
#1725 = DIRECTION('',(0.,-1.,2.2E-16));
#1726 = ORIENTED_EDGE('',*,*,#748,.F.);
#1727 = ORIENTED_EDGE('',*,*,#1689,.F.);
#1728 = PLANE('',#1729);
#1729 = AXIS2_PLACEMENT_3D('',#1730,#1731,#1732);
#1730 = CARTESIAN_POINT('',(0.997066,-0.709016,8.5));
#1731 = DIRECTION('',(-1.,0.,0.));
#1732 = DIRECTION('',(0.,2.2E-16,1.));
#1733 = ADVANCED_FACE('',(#1734),#1752,.F.);
#1734 = FACE_BOUND('',#1735,.F.);
#1735 = EDGE_LOOP('',(#1736,#1744,#1750,#1751));
#1736 = ORIENTED_EDGE('',*,*,#1737,.F.);
#1737 = EDGE_CURVE('',#1738,#1714,#1740,.T.);
#1738 = VERTEX_POINT('',#1739);
#1739 = CARTESIAN_POINT('',(-1.502934,-0.709016,8.5));
#1740 = LINE('',#1741,#1742);
#1741 = CARTESIAN_POINT('',(-1.502934,-0.709016,8.5));
#1742 = VECTOR('',#1743,1.);
#1743 = DIRECTION('',(1.,0.,0.));
#1744 = ORIENTED_EDGE('',*,*,#1745,.T.);
#1745 = EDGE_CURVE('',#1738,#733,#1746,.T.);
#1746 = LINE('',#1747,#1748);
#1747 = CARTESIAN_POINT('',(-1.502934,-0.709016,8.5));
#1748 = VECTOR('',#1749,1.);
#1749 = DIRECTION('',(0.,-1.,2.2E-16));
#1750 = ORIENTED_EDGE('',*,*,#740,.F.);
#1751 = ORIENTED_EDGE('',*,*,#1721,.F.);
#1752 = PLANE('',#1753);
#1753 = AXIS2_PLACEMENT_3D('',#1754,#1755,#1756);
#1754 = CARTESIAN_POINT('',(-1.502934,-0.709016,8.5));
#1755 = DIRECTION('',(0.,2.2E-16,1.));
#1756 = DIRECTION('',(1.,0.,0.));
#1757 = ADVANCED_FACE('',(#1758),#1776,.F.);
#1758 = FACE_BOUND('',#1759,.F.);
#1759 = EDGE_LOOP('',(#1760,#1768,#1774,#1775));
#1760 = ORIENTED_EDGE('',*,*,#1761,.F.);
#1761 = EDGE_CURVE('',#1762,#1738,#1764,.T.);
#1762 = VERTEX_POINT('',#1763);
#1763 = CARTESIAN_POINT('',(-1.502934,-0.709016,3.));
#1764 = LINE('',#1765,#1766);
#1765 = CARTESIAN_POINT('',(-1.502934,-0.709016,3.));
#1766 = VECTOR('',#1767,1.);
#1767 = DIRECTION('',(0.,0.,1.));
#1768 = ORIENTED_EDGE('',*,*,#1769,.T.);
#1769 = EDGE_CURVE('',#1762,#725,#1770,.T.);
#1770 = LINE('',#1771,#1772);
#1771 = CARTESIAN_POINT('',(-1.502934,-0.709016,3.));
#1772 = VECTOR('',#1773,1.);
#1773 = DIRECTION('',(0.,-1.,2.2E-16));
#1774 = ORIENTED_EDGE('',*,*,#732,.F.);
#1775 = ORIENTED_EDGE('',*,*,#1745,.F.);
#1776 = PLANE('',#1777);
#1777 = AXIS2_PLACEMENT_3D('',#1778,#1779,#1780);
#1778 = CARTESIAN_POINT('',(-1.502934,-0.709016,3.));
#1779 = DIRECTION('',(-1.,0.,0.));
#1780 = DIRECTION('',(0.,2.2E-16,1.));
#1781 = ADVANCED_FACE('',(#1782),#1800,.T.);
#1782 = FACE_BOUND('',#1783,.T.);
#1783 = EDGE_LOOP('',(#1784,#1792,#1793,#1794));
#1784 = ORIENTED_EDGE('',*,*,#1785,.F.);
#1785 = EDGE_CURVE('',#1762,#1786,#1788,.T.);
#1786 = VERTEX_POINT('',#1787);
#1787 = CARTESIAN_POINT('',(9.497066,-0.709016,3.));
#1788 = LINE('',#1789,#1790);
#1789 = CARTESIAN_POINT('',(-1.502934,-0.709016,3.));
#1790 = VECTOR('',#1791,1.);
#1791 = DIRECTION('',(1.,0.,0.));
#1792 = ORIENTED_EDGE('',*,*,#1769,.T.);
#1793 = ORIENTED_EDGE('',*,*,#724,.F.);
#1794 = ORIENTED_EDGE('',*,*,#1795,.F.);
#1795 = EDGE_CURVE('',#1786,#717,#1796,.T.);
#1796 = LINE('',#1797,#1798);
#1797 = CARTESIAN_POINT('',(9.497066,-0.709016,3.));
#1798 = VECTOR('',#1799,1.);
#1799 = DIRECTION('',(0.,-1.,2.2E-16));
#1800 = PLANE('',#1801);
#1801 = AXIS2_PLACEMENT_3D('',#1802,#1803,#1804);
#1802 = CARTESIAN_POINT('',(-1.502934,-0.709016,3.));
#1803 = DIRECTION('',(0.,2.2E-16,1.));
#1804 = DIRECTION('',(1.,0.,0.));
#1805 = ADVANCED_FACE('',(#1806),#1824,.F.);
#1806 = FACE_BOUND('',#1807,.F.);
#1807 = EDGE_LOOP('',(#1808,#1816,#1822,#1823));
#1808 = ORIENTED_EDGE('',*,*,#1809,.F.);
#1809 = EDGE_CURVE('',#1810,#1786,#1812,.T.);
#1810 = VERTEX_POINT('',#1811);
#1811 = CARTESIAN_POINT('',(9.497066,-0.709016,8.5));
#1812 = LINE('',#1813,#1814);
#1813 = CARTESIAN_POINT('',(9.497066,-0.709016,8.5));
#1814 = VECTOR('',#1815,1.);
#1815 = DIRECTION('',(0.,0.,-1.));
#1816 = ORIENTED_EDGE('',*,*,#1817,.T.);
#1817 = EDGE_CURVE('',#1810,#709,#1818,.T.);
#1818 = LINE('',#1819,#1820);
#1819 = CARTESIAN_POINT('',(9.497066,-0.709016,8.5));
#1820 = VECTOR('',#1821,1.);
#1821 = DIRECTION('',(0.,-1.,2.2E-16));
#1822 = ORIENTED_EDGE('',*,*,#716,.T.);
#1823 = ORIENTED_EDGE('',*,*,#1795,.F.);
#1824 = PLANE('',#1825);
#1825 = AXIS2_PLACEMENT_3D('',#1826,#1827,#1828);
#1826 = CARTESIAN_POINT('',(9.497066,-0.709016,8.5));
#1827 = DIRECTION('',(1.,0.,0.));
#1828 = DIRECTION('',(0.,-2.2E-16,-1.));
#1829 = ADVANCED_FACE('',(#1830),#1841,.F.);
#1830 = FACE_BOUND('',#1831,.F.);
#1831 = EDGE_LOOP('',(#1832,#1833,#1839,#1840));
#1832 = ORIENTED_EDGE('',*,*,#660,.F.);
#1833 = ORIENTED_EDGE('',*,*,#1834,.T.);
#1834 = EDGE_CURVE('',#661,#868,#1835,.T.);
#1835 = LINE('',#1836,#1837);
#1836 = CARTESIAN_POINT('',(-10.877934,-15.709016,70.));
#1837 = VECTOR('',#1838,1.);
#1838 = DIRECTION('',(0.,1.,-2.2E-16));
#1839 = ORIENTED_EDGE('',*,*,#875,.F.);
#1840 = ORIENTED_EDGE('',*,*,#803,.F.);
#1841 = PLANE('',#1842);
#1842 = AXIS2_PLACEMENT_3D('',#1843,#1844,#1845);
#1843 = CARTESIAN_POINT('',(-10.877934,-15.709016,70.));
#1844 = DIRECTION('',(0.,-2.2E-16,-1.));
#1845 = DIRECTION('',(1.,0.,0.));
#1846 = ADVANCED_FACE('',(#1847),#1865,.F.);
#1847 = FACE_BOUND('',#1848,.F.);
#1848 = EDGE_LOOP('',(#1849,#1857,#1863,#1864));
#1849 = ORIENTED_EDGE('',*,*,#1850,.F.);
#1850 = EDGE_CURVE('',#1851,#1810,#1853,.T.);
#1851 = VERTEX_POINT('',#1852);
#1852 = CARTESIAN_POINT('',(6.997066,-0.709016,8.5));
#1853 = LINE('',#1854,#1855);
#1854 = CARTESIAN_POINT('',(6.997066,-0.709016,8.5));
#1855 = VECTOR('',#1856,1.);
#1856 = DIRECTION('',(1.,0.,0.));
#1857 = ORIENTED_EDGE('',*,*,#1858,.T.);
#1858 = EDGE_CURVE('',#1851,#701,#1859,.T.);
#1859 = LINE('',#1860,#1861);
#1860 = CARTESIAN_POINT('',(6.997066,-0.709016,8.5));
#1861 = VECTOR('',#1862,1.);
#1862 = DIRECTION('',(0.,-1.,2.2E-16));
#1863 = ORIENTED_EDGE('',*,*,#708,.T.);
#1864 = ORIENTED_EDGE('',*,*,#1817,.F.);
#1865 = PLANE('',#1866);
#1866 = AXIS2_PLACEMENT_3D('',#1867,#1868,#1869);
#1867 = CARTESIAN_POINT('',(6.997066,-0.709016,8.5));
#1868 = DIRECTION('',(0.,2.2E-16,1.));
#1869 = DIRECTION('',(1.,0.,0.));
#1870 = ADVANCED_FACE('',(#1871,#1877,#1888),#1899,.T.);
#1871 = FACE_BOUND('',#1872,.T.);
#1872 = EDGE_LOOP('',(#1873,#1874,#1875,#1876));
#1873 = ORIENTED_EDGE('',*,*,#867,.F.);
#1874 = ORIENTED_EDGE('',*,*,#1223,.T.);
#1875 = ORIENTED_EDGE('',*,*,#668,.T.);
#1876 = ORIENTED_EDGE('',*,*,#1834,.T.);
#1877 = FACE_BOUND('',#1878,.T.);
#1878 = EDGE_LOOP('',(#1879));
#1879 = ORIENTED_EDGE('',*,*,#1880,.F.);
#1880 = EDGE_CURVE('',#1881,#1881,#1883,.T.);
#1881 = VERTEX_POINT('',#1882);
#1882 = CARTESIAN_POINT('',(-10.877934,-9.609016,52.5));
#1883 = CIRCLE('',#1884,1.4);
#1884 = AXIS2_PLACEMENT_3D('',#1885,#1886,#1887);
#1885 = CARTESIAN_POINT('',(-10.877934,-8.209016,52.5));
#1886 = DIRECTION('',(-1.,0.,0.));
#1887 = DIRECTION('',(0.,-1.,0.));
#1888 = FACE_BOUND('',#1889,.T.);
#1889 = EDGE_LOOP('',(#1890));
#1890 = ORIENTED_EDGE('',*,*,#1891,.F.);
#1891 = EDGE_CURVE('',#1892,#1892,#1894,.T.);
#1892 = VERTEX_POINT('',#1893);
#1893 = CARTESIAN_POINT('',(-10.877934,-9.609016,17.5));
#1894 = CIRCLE('',#1895,1.4);
#1895 = AXIS2_PLACEMENT_3D('',#1896,#1897,#1898);
#1896 = CARTESIAN_POINT('',(-10.877934,-8.209016,17.5));
#1897 = DIRECTION('',(-1.,0.,0.));
#1898 = DIRECTION('',(0.,-1.,0.));
#1899 = PLANE('',#1900);
#1900 = AXIS2_PLACEMENT_3D('',#1901,#1902,#1903);
#1901 = CARTESIAN_POINT('',(-10.877934,-6.209016,41.));
#1902 = DIRECTION('',(-1.,-0.,-0.));
#1903 = DIRECTION('',(0.,0.,-1.));
#1904 = ADVANCED_FACE('',(#1905),#1916,.F.);
#1905 = FACE_BOUND('',#1906,.F.);
#1906 = EDGE_LOOP('',(#1907,#1913,#1914,#1915));
#1907 = ORIENTED_EDGE('',*,*,#1908,.F.);
#1908 = EDGE_CURVE('',#1328,#1851,#1909,.T.);
#1909 = LINE('',#1910,#1911);
#1910 = CARTESIAN_POINT('',(6.997066,-0.709016,12.));
#1911 = VECTOR('',#1912,1.);
#1912 = DIRECTION('',(0.,0.,-1.));
#1913 = ORIENTED_EDGE('',*,*,#1335,.T.);
#1914 = ORIENTED_EDGE('',*,*,#700,.T.);
#1915 = ORIENTED_EDGE('',*,*,#1858,.F.);
#1916 = PLANE('',#1917);
#1917 = AXIS2_PLACEMENT_3D('',#1918,#1919,#1920);
#1918 = CARTESIAN_POINT('',(6.997066,-0.709016,12.));
#1919 = DIRECTION('',(1.,0.,0.));
#1920 = DIRECTION('',(0.,-2.2E-16,-1.));
#1921 = ADVANCED_FACE('',(#1922),#1933,.F.);
#1922 = FACE_BOUND('',#1923,.F.);
#1923 = EDGE_LOOP('',(#1924,#1925,#1926,#1932));
#1924 = ORIENTED_EDGE('',*,*,#684,.F.);
#1925 = ORIENTED_EDGE('',*,*,#1342,.T.);
#1926 = ORIENTED_EDGE('',*,*,#1927,.T.);
#1927 = EDGE_CURVE('',#1343,#1209,#1928,.T.);
#1928 = LINE('',#1929,#1930);
#1929 = CARTESIAN_POINT('',(14.997066,-0.709016,12.));
#1930 = VECTOR('',#1931,1.);
#1931 = DIRECTION('',(0.,0.,-1.));
#1932 = ORIENTED_EDGE('',*,*,#1216,.F.);
#1933 = PLANE('',#1934);
#1934 = AXIS2_PLACEMENT_3D('',#1935,#1936,#1937);
#1935 = CARTESIAN_POINT('',(14.997066,-19.709016,12.));
#1936 = DIRECTION('',(-1.,0.,0.));
#1937 = DIRECTION('',(0.,-2.2E-16,-1.));
#1938 = ADVANCED_FACE('',(#1939),#1950,.F.);
#1939 = FACE_BOUND('',#1940,.F.);
#1940 = EDGE_LOOP('',(#1941,#1942,#1948,#1949));
#1941 = ORIENTED_EDGE('',*,*,#764,.F.);
#1942 = ORIENTED_EDGE('',*,*,#1943,.T.);
#1943 = EDGE_CURVE('',#765,#911,#1944,.T.);
#1944 = LINE('',#1945,#1946);
#1945 = CARTESIAN_POINT('',(-2.027934,-15.709016,65.));
#1946 = VECTOR('',#1947,1.);
#1947 = DIRECTION('',(0.,1.,-2.2E-16));
#1948 = ORIENTED_EDGE('',*,*,#910,.T.);
#1949 = ORIENTED_EDGE('',*,*,#1943,.F.);
#1950 = CYLINDRICAL_SURFACE('',#1951,0.85);
#1951 = AXIS2_PLACEMENT_3D('',#1952,#1953,#1954);
#1952 = CARTESIAN_POINT('',(-2.877934,-15.709016,65.));
#1953 = DIRECTION('',(0.,-1.,2.2E-16));
#1954 = DIRECTION('',(1.,0.,0.));
#1955 = ADVANCED_FACE('',(#1956),#1967,.F.);
#1956 = FACE_BOUND('',#1957,.F.);
#1957 = EDGE_LOOP('',(#1958,#1959,#1965,#1966));
#1958 = ORIENTED_EDGE('',*,*,#775,.F.);
#1959 = ORIENTED_EDGE('',*,*,#1960,.T.);
#1960 = EDGE_CURVE('',#776,#900,#1961,.T.);
#1961 = LINE('',#1962,#1963);
#1962 = CARTESIAN_POINT('',(-5.027934,-15.709016,8.));
#1963 = VECTOR('',#1964,1.);
#1964 = DIRECTION('',(0.,1.,-2.2E-16));
#1965 = ORIENTED_EDGE('',*,*,#899,.T.);
#1966 = ORIENTED_EDGE('',*,*,#1960,.F.);
#1967 = CYLINDRICAL_SURFACE('',#1968,0.85);
#1968 = AXIS2_PLACEMENT_3D('',#1969,#1970,#1971);
#1969 = CARTESIAN_POINT('',(-5.877934,-15.709016,8.));
#1970 = DIRECTION('',(0.,-1.,2.2E-16));
#1971 = DIRECTION('',(1.,0.,0.));
#1972 = ADVANCED_FACE('',(#1973),#1992,.F.);
#1973 = FACE_BOUND('',#1974,.F.);
#1974 = EDGE_LOOP('',(#1975,#1983,#1990,#1991));
#1975 = ORIENTED_EDGE('',*,*,#1976,.T.);
#1976 = EDGE_CURVE('',#787,#1977,#1979,.T.);
#1977 = VERTEX_POINT('',#1978);
#1978 = CARTESIAN_POINT('',(11.147066,-0.709016,9.75));
#1979 = LINE('',#1980,#1981);
#1980 = CARTESIAN_POINT('',(11.147066,-15.709016,9.75));
#1981 = VECTOR('',#1982,1.);
#1982 = DIRECTION('',(0.,1.,-2.2E-16));
#1983 = ORIENTED_EDGE('',*,*,#1984,.T.);
#1984 = EDGE_CURVE('',#1977,#1977,#1985,.T.);
#1985 = CIRCLE('',#1986,0.9);
#1986 = AXIS2_PLACEMENT_3D('',#1987,#1988,#1989);
#1987 = CARTESIAN_POINT('',(10.247066,-0.709016,9.75));
#1988 = DIRECTION('',(0.,-1.,0.));
#1989 = DIRECTION('',(1.,0.,0.));
#1990 = ORIENTED_EDGE('',*,*,#1976,.F.);
#1991 = ORIENTED_EDGE('',*,*,#786,.F.);
#1992 = CYLINDRICAL_SURFACE('',#1993,0.9);
#1993 = AXIS2_PLACEMENT_3D('',#1994,#1995,#1996);
#1994 = CARTESIAN_POINT('',(10.247066,-15.709016,9.75));
#1995 = DIRECTION('',(0.,-1.,2.2E-16));
#1996 = DIRECTION('',(1.,0.,0.));
#1997 = ADVANCED_FACE('',(#1998),#2009,.F.);
#1998 = FACE_BOUND('',#1999,.F.);
#1999 = EDGE_LOOP('',(#2000,#2006,#2007,#2008));
#2000 = ORIENTED_EDGE('',*,*,#2001,.T.);
#2001 = EDGE_CURVE('',#1320,#1664,#2002,.T.);
#2002 = LINE('',#2003,#2004);
#2003 = CARTESIAN_POINT('',(1.122066,-0.709016,12.));
#2004 = VECTOR('',#2005,1.);
#2005 = DIRECTION('',(0.,0.,1.));
#2006 = ORIENTED_EDGE('',*,*,#1671,.T.);
#2007 = ORIENTED_EDGE('',*,*,#921,.F.);
#2008 = ORIENTED_EDGE('',*,*,#1319,.F.);
#2009 = PLANE('',#2010);
#2010 = AXIS2_PLACEMENT_3D('',#2011,#2012,#2013);
#2011 = CARTESIAN_POINT('',(1.122066,-0.709016,12.));
#2012 = DIRECTION('',(-1.,0.,0.));
#2013 = DIRECTION('',(0.,1.,0.));
#2014 = ADVANCED_FACE('',(#2015),#2026,.F.);
#2015 = FACE_BOUND('',#2016,.F.);
#2016 = EDGE_LOOP('',(#2017,#2018,#2019,#2025));
#2017 = ORIENTED_EDGE('',*,*,#939,.T.);
#2018 = ORIENTED_EDGE('',*,*,#1082,.T.);
#2019 = ORIENTED_EDGE('',*,*,#2020,.F.);
#2020 = EDGE_CURVE('',#1311,#1083,#2021,.T.);
#2021 = LINE('',#2022,#2023);
#2022 = CARTESIAN_POINT('',(34.872066,-0.709016,12.));
#2023 = VECTOR('',#2024,1.);
#2024 = DIRECTION('',(0.,0.,1.));
#2025 = ORIENTED_EDGE('',*,*,#1310,.F.);
#2026 = PLANE('',#2027);
#2027 = AXIS2_PLACEMENT_3D('',#2028,#2029,#2030);
#2028 = CARTESIAN_POINT('',(34.872066,3.290984,12.));
#2029 = DIRECTION('',(1.,0.,0.));
#2030 = DIRECTION('',(0.,-1.,0.));
#2031 = ADVANCED_FACE('',(#2032),#2046,.T.);
#2032 = FACE_BOUND('',#2033,.T.);
#2033 = EDGE_LOOP('',(#2034,#2035,#2036,#2037,#2038,#2039,#2040,#2041,
    #2042,#2043,#2044,#2045));
#2034 = ORIENTED_EDGE('',*,*,#1090,.F.);
#2035 = ORIENTED_EDGE('',*,*,#2020,.F.);
#2036 = ORIENTED_EDGE('',*,*,#1366,.T.);
#2037 = ORIENTED_EDGE('',*,*,#1404,.T.);
#2038 = ORIENTED_EDGE('',*,*,#1452,.T.);
#2039 = ORIENTED_EDGE('',*,*,#1500,.T.);
#2040 = ORIENTED_EDGE('',*,*,#1476,.T.);
#2041 = ORIENTED_EDGE('',*,*,#1428,.T.);
#2042 = ORIENTED_EDGE('',*,*,#1380,.T.);
#2043 = ORIENTED_EDGE('',*,*,#1286,.T.);
#2044 = ORIENTED_EDGE('',*,*,#1238,.T.);
#2045 = ORIENTED_EDGE('',*,*,#1161,.F.);
#2046 = PLANE('',#2047);
#2047 = AXIS2_PLACEMENT_3D('',#2048,#2049,#2050);
#2048 = CARTESIAN_POINT('',(36.719118845528,-0.709016,29.252032520325));
#2049 = DIRECTION('',(-0.,-1.,-0.));
#2050 = DIRECTION('',(0.,0.,-1.));
#2051 = ADVANCED_FACE('',(#2052),#2063,.F.);
#2052 = FACE_BOUND('',#2053,.F.);
#2053 = EDGE_LOOP('',(#2054,#2055,#2061,#2062));
#2054 = ORIENTED_EDGE('',*,*,#1170,.F.);
#2055 = ORIENTED_EDGE('',*,*,#2056,.T.);
#2056 = EDGE_CURVE('',#1171,#1125,#2057,.T.);
#2057 = LINE('',#2058,#2059);
#2058 = CARTESIAN_POINT('',(-10.877934,-9.609016,17.5));
#2059 = VECTOR('',#2060,1.);
#2060 = DIRECTION('',(1.,0.,0.));
#2061 = ORIENTED_EDGE('',*,*,#1124,.T.);
#2062 = ORIENTED_EDGE('',*,*,#2056,.F.);
#2063 = CYLINDRICAL_SURFACE('',#2064,1.4);
#2064 = AXIS2_PLACEMENT_3D('',#2065,#2066,#2067);
#2065 = CARTESIAN_POINT('',(-10.877934,-8.209016,17.5));
#2066 = DIRECTION('',(-1.,0.,0.));
#2067 = DIRECTION('',(0.,-1.,0.));
#2068 = ADVANCED_FACE('',(#2069),#2080,.F.);
#2069 = FACE_BOUND('',#2070,.F.);
#2070 = EDGE_LOOP('',(#2071,#2072,#2078,#2079));
#2071 = ORIENTED_EDGE('',*,*,#1181,.F.);
#2072 = ORIENTED_EDGE('',*,*,#2073,.T.);
#2073 = EDGE_CURVE('',#1182,#1136,#2074,.T.);
#2074 = LINE('',#2075,#2076);
#2075 = CARTESIAN_POINT('',(-10.877934,-9.609016,52.5));
#2076 = VECTOR('',#2077,1.);
#2077 = DIRECTION('',(1.,0.,0.));
#2078 = ORIENTED_EDGE('',*,*,#1135,.T.);
#2079 = ORIENTED_EDGE('',*,*,#2073,.F.);
#2080 = CYLINDRICAL_SURFACE('',#2081,1.4);
#2081 = AXIS2_PLACEMENT_3D('',#2082,#2083,#2084);
#2082 = CARTESIAN_POINT('',(-10.877934,-8.209016,52.5));
#2083 = DIRECTION('',(-1.,0.,0.));
#2084 = DIRECTION('',(0.,-1.,0.));
#2085 = ADVANCED_FACE('',(#2086),#2092,.F.);
#2086 = FACE_BOUND('',#2087,.T.);
#2087 = EDGE_LOOP('',(#2088,#2089,#2090,#2091));
#2088 = ORIENTED_EDGE('',*,*,#1350,.T.);
#2089 = ORIENTED_EDGE('',*,*,#1927,.T.);
#2090 = ORIENTED_EDGE('',*,*,#1208,.T.);
#2091 = ORIENTED_EDGE('',*,*,#1264,.T.);
#2092 = PLANE('',#2093);
#2093 = AXIS2_PLACEMENT_3D('',#2094,#2095,#2096);
#2094 = CARTESIAN_POINT('',(17.997066,-0.709016,6.));
#2095 = DIRECTION('',(0.,1.,-3.E-16));
#2096 = DIRECTION('',(0.,3.E-16,1.));
#2097 = ADVANCED_FACE('',(#2098),#2112,.T.);
#2098 = FACE_BOUND('',#2099,.T.);
#2099 = EDGE_LOOP('',(#2100,#2101,#2102,#2103,#2104,#2105,#2106,#2107,
    #2108,#2109,#2110,#2111));
#2100 = ORIENTED_EDGE('',*,*,#1761,.F.);
#2101 = ORIENTED_EDGE('',*,*,#1785,.T.);
#2102 = ORIENTED_EDGE('',*,*,#1809,.F.);
#2103 = ORIENTED_EDGE('',*,*,#1850,.F.);
#2104 = ORIENTED_EDGE('',*,*,#1908,.F.);
#2105 = ORIENTED_EDGE('',*,*,#1327,.T.);
#2106 = ORIENTED_EDGE('',*,*,#2001,.T.);
#2107 = ORIENTED_EDGE('',*,*,#1663,.T.);
#2108 = ORIENTED_EDGE('',*,*,#1610,.T.);
#2109 = ORIENTED_EDGE('',*,*,#1697,.F.);
#2110 = ORIENTED_EDGE('',*,*,#1713,.F.);
#2111 = ORIENTED_EDGE('',*,*,#1737,.F.);
#2112 = PLANE('',#2113);
#2113 = AXIS2_PLACEMENT_3D('',#2114,#2115,#2116);
#2114 = CARTESIAN_POINT('',(-0.724986845528,-0.709016,29.252032520325));
#2115 = DIRECTION('',(-0.,-1.,-0.));
#2116 = DIRECTION('',(0.,0.,-1.));
#2117 = ADVANCED_FACE('',(#2118),#2121,.F.);
#2118 = FACE_BOUND('',#2119,.T.);
#2119 = EDGE_LOOP('',(#2120));
#2120 = ORIENTED_EDGE('',*,*,#1525,.T.);
#2121 = PLANE('',#2122);
#2122 = AXIS2_PLACEMENT_3D('',#2123,#2124,#2125);
#2123 = CARTESIAN_POINT('',(17.997066,-0.709016,9.75));
#2124 = DIRECTION('',(0.,1.,0.));
#2125 = DIRECTION('',(0.,0.,1.));
#2126 = ADVANCED_FACE('',(#2127),#2138,.F.);
#2127 = FACE_BOUND('',#2128,.F.);
#2128 = EDGE_LOOP('',(#2129,#2130,#2136,#2137));
#2129 = ORIENTED_EDGE('',*,*,#1891,.F.);
#2130 = ORIENTED_EDGE('',*,*,#2131,.T.);
#2131 = EDGE_CURVE('',#1892,#1636,#2132,.T.);
#2132 = LINE('',#2133,#2134);
#2133 = CARTESIAN_POINT('',(-10.877934,-9.609016,17.5));
#2134 = VECTOR('',#2135,1.);
#2135 = DIRECTION('',(1.,0.,0.));
#2136 = ORIENTED_EDGE('',*,*,#1635,.T.);
#2137 = ORIENTED_EDGE('',*,*,#2131,.F.);
#2138 = CYLINDRICAL_SURFACE('',#2139,1.4);
#2139 = AXIS2_PLACEMENT_3D('',#2140,#2141,#2142);
#2140 = CARTESIAN_POINT('',(-10.877934,-8.209016,17.5));
#2141 = DIRECTION('',(-1.,0.,0.));
#2142 = DIRECTION('',(0.,-1.,0.));
#2143 = ADVANCED_FACE('',(#2144),#2155,.F.);
#2144 = FACE_BOUND('',#2145,.F.);
#2145 = EDGE_LOOP('',(#2146,#2147,#2153,#2154));
#2146 = ORIENTED_EDGE('',*,*,#1880,.F.);
#2147 = ORIENTED_EDGE('',*,*,#2148,.T.);
#2148 = EDGE_CURVE('',#1881,#1647,#2149,.T.);
#2149 = LINE('',#2150,#2151);
#2150 = CARTESIAN_POINT('',(-10.877934,-9.609016,52.5));
#2151 = VECTOR('',#2152,1.);
#2152 = DIRECTION('',(1.,0.,0.));
#2153 = ORIENTED_EDGE('',*,*,#1646,.T.);
#2154 = ORIENTED_EDGE('',*,*,#2148,.F.);
#2155 = CYLINDRICAL_SURFACE('',#2156,1.4);
#2156 = AXIS2_PLACEMENT_3D('',#2157,#2158,#2159);
#2157 = CARTESIAN_POINT('',(-10.877934,-8.209016,52.5));
#2158 = DIRECTION('',(-1.,0.,0.));
#2159 = DIRECTION('',(0.,-1.,0.));
#2160 = ADVANCED_FACE('',(#2161),#2164,.F.);
#2161 = FACE_BOUND('',#2162,.T.);
#2162 = EDGE_LOOP('',(#2163));
#2163 = ORIENTED_EDGE('',*,*,#1984,.T.);
#2164 = PLANE('',#2165);
#2165 = AXIS2_PLACEMENT_3D('',#2166,#2167,#2168);
#2166 = CARTESIAN_POINT('',(17.997066,-0.709016,9.75));
#2167 = DIRECTION('',(0.,1.,0.));
#2168 = DIRECTION('',(0.,0.,1.));
#2169 = ( GEOMETRIC_REPRESENTATION_CONTEXT(3) 
GLOBAL_UNCERTAINTY_ASSIGNED_CONTEXT((#2173)) 
GLOBAL_UNIT_ASSIGNED_CONTEXT((#2170,#2171,#2172)) REPRESENTATION_CONTEXT
('Context #1','3D Context with UNIT and UNCERTAINTY') );
#2170 = ( LENGTH_UNIT() NAMED_UNIT(*) SI_UNIT(.MILLI.,.METRE.) );
#2171 = ( NAMED_UNIT(*) PLANE_ANGLE_UNIT() SI_UNIT($,.RADIAN.) );
#2172 = ( NAMED_UNIT(*) SI_UNIT($,.STERADIAN.) SOLID_ANGLE_UNIT() );
#2173 = UNCERTAINTY_MEASURE_WITH_UNIT(LENGTH_MEASURE(5.E-04),#2170,
  'distance_accuracy_value','confusion accuracy');
#2174 = PRODUCT_RELATED_PRODUCT_CATEGORY('part',$,(#7));
#2175 = MECHANICAL_DESIGN_GEOMETRIC_PRESENTATION_REPRESENTATION('',(
    #2176),#2169);
#2176 = STYLED_ITEM('color',(#2177),#15);
#2177 = PRESENTATION_STYLE_ASSIGNMENT((#2178,#2184));
#2178 = SURFACE_STYLE_USAGE(.BOTH.,#2179);
#2179 = SURFACE_SIDE_STYLE('',(#2180));
#2180 = SURFACE_STYLE_FILL_AREA(#2181);
#2181 = FILL_AREA_STYLE('',(#2182));
#2182 = FILL_AREA_STYLE_COLOUR('',#2183);
#2183 = COLOUR_RGB('',0.447058818107,0.474509808674,0.501960817233);
#2184 = CURVE_STYLE('',#2185,POSITIVE_LENGTH_MEASURE(0.1),#2186);
#2185 = DRAUGHTING_PRE_DEFINED_CURVE_FONT('continuous');
#2186 = COLOUR_RGB('',9.803921802644E-02,9.803921802644E-02,
  9.803921802644E-02);
ENDSEC;
END-ISO-10303-21;
