ISO-10303-21;
HEADER;
FILE_DESCRIPTION(('FreeCAD Model'),'2;1');
FILE_NAME('Open CASCADE Shape Model','2026-08-27T18:07:12',(''),(''),
  'Open CASCADE STEP processor 7.8','FreeCAD','Unknown');
FILE_SCHEMA(('AUTOMOTIVE_DESIGN { 1 0 10303 214 1 1 1 1 }'));
ENDSEC;
DATA;
#1 = APPLICATION_PROTOCOL_DEFINITION('international standard',
  'automotive_design',2000,#2);
#2 = APPLICATION_CONTEXT(
  'core data for automotive mechanical design processes');
#3 = SHAPE_DEFINITION_REPRESENTATION(#4,#10);
#4 = PRODUCT_DEFINITION_SHAPE('','',#5);
#5 = PRODUCT_DEFINITION('design','',#6,#9);
#6 = PRODUCT_DEFINITION_FORMATION('','',#7);
#7 = PRODUCT('Pad005','Pad005','',(#8));
#8 = PRODUCT_CONTEXT('',#2,'mechanical');
#9 = PRODUCT_DEFINITION_CONTEXT('part definition',#2,'design');
#10 = ADVANCED_BREP_SHAPE_REPRESENTATION('',(#11,#15),#1167);
#11 = AXIS2_PLACEMENT_3D('',#12,#13,#14);
#12 = CARTESIAN_POINT('',(0.,0.,0.));
#13 = DIRECTION('',(0.,0.,1.));
#14 = DIRECTION('',(1.,0.,-0.));
#15 = MANIFOLD_SOLID_BREP('',#16);
#16 = CLOSED_SHELL('',(#17,#57,#88,#119,#150,#181,#221,#243,#274,#305,
    #336,#367,#398,#429,#460,#491,#522,#553,#584,#615,#646,#677,#708,
    #739,#770,#801,#832,#863,#894,#925,#1006,#1037,#1062,#1087,#1104,
    #1155));
#17 = ADVANCED_FACE('',(#18),#52,.T.);
#18 = FACE_BOUND('',#19,.T.);
#19 = EDGE_LOOP('',(#20,#30,#38,#46));
#20 = ORIENTED_EDGE('',*,*,#21,.T.);
#21 = EDGE_CURVE('',#22,#24,#26,.T.);
#22 = VERTEX_POINT('',#23);
#23 = CARTESIAN_POINT('',(-24.594349,14.70191,12.));
#24 = VERTEX_POINT('',#25);
#25 = CARTESIAN_POINT('',(-24.594349,28.70191,12.));
#26 = LINE('',#27,#28);
#27 = CARTESIAN_POINT('',(-24.594349,14.70191,12.));
#28 = VECTOR('',#29,1.);
#29 = DIRECTION('',(0.,1.,-2.2E-16));
#30 = ORIENTED_EDGE('',*,*,#31,.T.);
#31 = EDGE_CURVE('',#24,#32,#34,.T.);
#32 = VERTEX_POINT('',#33);
#33 = CARTESIAN_POINT('',(-24.594349,28.70191,18.75));
#34 = LINE('',#35,#36);
#35 = CARTESIAN_POINT('',(-24.594349,28.70191,18.25));
#36 = VECTOR('',#37,1.);
#37 = DIRECTION('',(0.,2.2E-16,1.));
#38 = ORIENTED_EDGE('',*,*,#39,.F.);
#39 = EDGE_CURVE('',#40,#32,#42,.T.);
#40 = VERTEX_POINT('',#41);
#41 = CARTESIAN_POINT('',(-24.594349,14.70191,18.75));
#42 = LINE('',#43,#44);
#43 = CARTESIAN_POINT('',(-24.594349,14.70191,18.75));
#44 = VECTOR('',#45,1.);
#45 = DIRECTION('',(0.,1.,-2.2E-16));
#46 = ORIENTED_EDGE('',*,*,#47,.F.);
#47 = EDGE_CURVE('',#22,#40,#48,.T.);
#48 = LINE('',#49,#50);
#49 = CARTESIAN_POINT('',(-24.594349,14.70191,12.));
#50 = VECTOR('',#51,1.);
#51 = DIRECTION('',(0.,2.2E-16,1.));
#52 = PLANE('',#53);
#53 = AXIS2_PLACEMENT_3D('',#54,#55,#56);
#54 = CARTESIAN_POINT('',(-24.594349,21.70191,15.375));
#55 = DIRECTION('',(1.,0.,0.));
#56 = DIRECTION('',(0.,0.,1.));
#57 = ADVANCED_FACE('',(#58),#83,.T.);
#58 = FACE_BOUND('',#59,.T.);
#59 = EDGE_LOOP('',(#60,#61,#69,#77));
#60 = ORIENTED_EDGE('',*,*,#39,.T.);
#61 = ORIENTED_EDGE('',*,*,#62,.T.);
#62 = EDGE_CURVE('',#32,#63,#65,.T.);
#63 = VERTEX_POINT('',#64);
#64 = CARTESIAN_POINT('',(-29.594349,28.70191,18.75));
#65 = LINE('',#66,#67);
#66 = CARTESIAN_POINT('',(-24.594349,28.70191,18.75));
#67 = VECTOR('',#68,1.);
#68 = DIRECTION('',(-1.,0.,0.));
#69 = ORIENTED_EDGE('',*,*,#70,.F.);
#70 = EDGE_CURVE('',#71,#63,#73,.T.);
#71 = VERTEX_POINT('',#72);
#72 = CARTESIAN_POINT('',(-29.594349,14.70191,18.75));
#73 = LINE('',#74,#75);
#74 = CARTESIAN_POINT('',(-29.594349,14.70191,18.75));
#75 = VECTOR('',#76,1.);
#76 = DIRECTION('',(0.,1.,-2.2E-16));
#77 = ORIENTED_EDGE('',*,*,#78,.F.);
#78 = EDGE_CURVE('',#40,#71,#79,.T.);
#79 = LINE('',#80,#81);
#80 = CARTESIAN_POINT('',(-24.594349,14.70191,18.75));
#81 = VECTOR('',#82,1.);
#82 = DIRECTION('',(-1.,0.,0.));
#83 = PLANE('',#84);
#84 = AXIS2_PLACEMENT_3D('',#85,#86,#87);
#85 = CARTESIAN_POINT('',(-24.594349,14.70191,18.75));
#86 = DIRECTION('',(0.,2.2E-16,1.));
#87 = DIRECTION('',(-1.,0.,0.));
#88 = ADVANCED_FACE('',(#89),#114,.T.);
#89 = FACE_BOUND('',#90,.T.);
#90 = EDGE_LOOP('',(#91,#101,#107,#108));
#91 = ORIENTED_EDGE('',*,*,#92,.F.);
#92 = EDGE_CURVE('',#93,#95,#97,.T.);
#93 = VERTEX_POINT('',#94);
#94 = CARTESIAN_POINT('',(-29.594349,14.70191,12.));
#95 = VERTEX_POINT('',#96);
#96 = CARTESIAN_POINT('',(-29.594349,28.70191,12.));
#97 = LINE('',#98,#99);
#98 = CARTESIAN_POINT('',(-29.594349,14.70191,12.));
#99 = VECTOR('',#100,1.);
#100 = DIRECTION('',(0.,1.,-2.2E-16));
#101 = ORIENTED_EDGE('',*,*,#102,.T.);
#102 = EDGE_CURVE('',#93,#71,#103,.T.);
#103 = LINE('',#104,#105);
#104 = CARTESIAN_POINT('',(-29.594349,14.70191,18.25));
#105 = VECTOR('',#106,1.);
#106 = DIRECTION('',(0.,2.2E-16,1.));
#107 = ORIENTED_EDGE('',*,*,#70,.T.);
#108 = ORIENTED_EDGE('',*,*,#109,.T.);
#109 = EDGE_CURVE('',#63,#95,#110,.T.);
#110 = LINE('',#111,#112);
#111 = CARTESIAN_POINT('',(-29.594349,28.70191,18.25));
#112 = VECTOR('',#113,1.);
#113 = DIRECTION('',(0.,-2.2E-16,-1.));
#114 = PLANE('',#115);
#115 = AXIS2_PLACEMENT_3D('',#116,#117,#118);
#116 = CARTESIAN_POINT('',(-29.594349,21.70191,15.375));
#117 = DIRECTION('',(-1.,-0.,-0.));
#118 = DIRECTION('',(0.,0.,-1.));
#119 = ADVANCED_FACE('',(#120),#145,.T.);
#120 = FACE_BOUND('',#121,.T.);
#121 = EDGE_LOOP('',(#122,#123,#131,#139));
#122 = ORIENTED_EDGE('',*,*,#92,.T.);
#123 = ORIENTED_EDGE('',*,*,#124,.T.);
#124 = EDGE_CURVE('',#95,#125,#127,.T.);
#125 = VERTEX_POINT('',#126);
#126 = CARTESIAN_POINT('',(-50.594349,28.70191,12.));
#127 = LINE('',#128,#129);
#128 = CARTESIAN_POINT('',(-49.594349,28.70191,12.));
#129 = VECTOR('',#130,1.);
#130 = DIRECTION('',(-1.,-0.,-0.));
#131 = ORIENTED_EDGE('',*,*,#132,.T.);
#132 = EDGE_CURVE('',#125,#133,#135,.T.);
#133 = VERTEX_POINT('',#134);
#134 = CARTESIAN_POINT('',(-50.594349,14.70191,12.));
#135 = LINE('',#136,#137);
#136 = CARTESIAN_POINT('',(-50.594349,28.70191,12.));
#137 = VECTOR('',#138,1.);
#138 = DIRECTION('',(0.,-1.,0.));
#139 = ORIENTED_EDGE('',*,*,#140,.T.);
#140 = EDGE_CURVE('',#133,#93,#141,.T.);
#141 = LINE('',#142,#143);
#142 = CARTESIAN_POINT('',(-49.594349,14.70191,12.));
#143 = VECTOR('',#144,1.);
#144 = DIRECTION('',(1.,0.,0.));
#145 = PLANE('',#146);
#146 = AXIS2_PLACEMENT_3D('',#147,#148,#149);
#147 = CARTESIAN_POINT('',(-40.094349,21.70191,12.));
#148 = DIRECTION('',(0.,0.,1.));
#149 = DIRECTION('',(1.,0.,0.));
#150 = ADVANCED_FACE('',(#151),#176,.T.);
#151 = FACE_BOUND('',#152,.T.);
#152 = EDGE_LOOP('',(#153,#161,#162,#170));
#153 = ORIENTED_EDGE('',*,*,#154,.T.);
#154 = EDGE_CURVE('',#155,#133,#157,.T.);
#155 = VERTEX_POINT('',#156);
#156 = CARTESIAN_POINT('',(-50.594349,14.70191,0.));
#157 = LINE('',#158,#159);
#158 = CARTESIAN_POINT('',(-50.594349,14.70191,0.));
#159 = VECTOR('',#160,1.);
#160 = DIRECTION('',(0.,0.,1.));
#161 = ORIENTED_EDGE('',*,*,#132,.F.);
#162 = ORIENTED_EDGE('',*,*,#163,.F.);
#163 = EDGE_CURVE('',#164,#125,#166,.T.);
#164 = VERTEX_POINT('',#165);
#165 = CARTESIAN_POINT('',(-50.594349,28.70191,-2.E-15));
#166 = LINE('',#167,#168);
#167 = CARTESIAN_POINT('',(-50.594349,28.70191,0.));
#168 = VECTOR('',#169,1.);
#169 = DIRECTION('',(0.,0.,1.));
#170 = ORIENTED_EDGE('',*,*,#171,.T.);
#171 = EDGE_CURVE('',#164,#155,#172,.T.);
#172 = LINE('',#173,#174);
#173 = CARTESIAN_POINT('',(-50.594349,28.70191,0.));
#174 = VECTOR('',#175,1.);
#175 = DIRECTION('',(0.,-1.,0.));
#176 = PLANE('',#177);
#177 = AXIS2_PLACEMENT_3D('',#178,#179,#180);
#178 = CARTESIAN_POINT('',(-50.594349,21.70191,6.));
#179 = DIRECTION('',(-1.,-0.,-0.));
#180 = DIRECTION('',(0.,0.,-1.));
#181 = ADVANCED_FACE('',(#182),#216,.T.);
#182 = FACE_BOUND('',#183,.T.);
#183 = EDGE_LOOP('',(#184,#194,#202,#210));
#184 = ORIENTED_EDGE('',*,*,#185,.T.);
#185 = EDGE_CURVE('',#186,#188,#190,.T.);
#186 = VERTEX_POINT('',#187);
#187 = CARTESIAN_POINT('',(-45.594349,14.70191,3.5));
#188 = VERTEX_POINT('',#189);
#189 = CARTESIAN_POINT('',(-45.594349,14.70191,0.));
#190 = LINE('',#191,#192);
#191 = CARTESIAN_POINT('',(-45.594349,14.70191,3.5));
#192 = VECTOR('',#193,1.);
#193 = DIRECTION('',(0.,0.,-1.));
#194 = ORIENTED_EDGE('',*,*,#195,.T.);
#195 = EDGE_CURVE('',#188,#196,#198,.T.);
#196 = VERTEX_POINT('',#197);
#197 = CARTESIAN_POINT('',(-45.594349,28.70191,-2.E-15));
#198 = LINE('',#199,#200);
#199 = CARTESIAN_POINT('',(-45.594349,14.70191,0.));
#200 = VECTOR('',#201,1.);
#201 = DIRECTION('',(0.,1.,-2.2E-16));
#202 = ORIENTED_EDGE('',*,*,#203,.T.);
#203 = EDGE_CURVE('',#196,#204,#206,.T.);
#204 = VERTEX_POINT('',#205);
#205 = CARTESIAN_POINT('',(-45.594349,28.70191,3.5));
#206 = LINE('',#207,#208);
#207 = CARTESIAN_POINT('',(-45.594349,28.70191,5.360329581994));
#208 = VECTOR('',#209,1.);
#209 = DIRECTION('',(0.,0.,1.));
#210 = ORIENTED_EDGE('',*,*,#211,.F.);
#211 = EDGE_CURVE('',#186,#204,#212,.T.);
#212 = LINE('',#213,#214);
#213 = CARTESIAN_POINT('',(-45.594349,14.70191,3.5));
#214 = VECTOR('',#215,1.);
#215 = DIRECTION('',(0.,1.,-2.2E-16));
#216 = PLANE('',#217);
#217 = AXIS2_PLACEMENT_3D('',#218,#219,#220);
#218 = CARTESIAN_POINT('',(-45.594349,21.70191,1.75));
#219 = DIRECTION('',(1.,0.,0.));
#220 = DIRECTION('',(0.,0.,1.));
#221 = ADVANCED_FACE('',(#222),#238,.T.);
#222 = FACE_BOUND('',#223,.T.);
#223 = EDGE_LOOP('',(#224,#225,#231,#232));
#224 = ORIENTED_EDGE('',*,*,#195,.F.);
#225 = ORIENTED_EDGE('',*,*,#226,.F.);
#226 = EDGE_CURVE('',#155,#188,#227,.T.);
#227 = LINE('',#228,#229);
#228 = CARTESIAN_POINT('',(-49.594349,14.70191,0.));
#229 = VECTOR('',#230,1.);
#230 = DIRECTION('',(1.,0.,0.));
#231 = ORIENTED_EDGE('',*,*,#171,.F.);
#232 = ORIENTED_EDGE('',*,*,#233,.F.);
#233 = EDGE_CURVE('',#196,#164,#234,.T.);
#234 = LINE('',#235,#236);
#235 = CARTESIAN_POINT('',(-49.594349,28.70191,-2.E-15));
#236 = VECTOR('',#237,1.);
#237 = DIRECTION('',(-1.,-0.,-0.));
#238 = PLANE('',#239);
#239 = AXIS2_PLACEMENT_3D('',#240,#241,#242);
#240 = CARTESIAN_POINT('',(-48.094349,21.70191,-6.2E-16));
#241 = DIRECTION('',(-2.3E-16,-0.,-1.));
#242 = DIRECTION('',(-1.,0.,2.3E-16));
#243 = ADVANCED_FACE('',(#244),#269,.F.);
#244 = FACE_BOUND('',#245,.F.);
#245 = EDGE_LOOP('',(#246,#254,#262,#268));
#246 = ORIENTED_EDGE('',*,*,#247,.F.);
#247 = EDGE_CURVE('',#248,#186,#250,.T.);
#248 = VERTEX_POINT('',#249);
#249 = CARTESIAN_POINT('',(-48.094349,14.70191,3.5));
#250 = LINE('',#251,#252);
#251 = CARTESIAN_POINT('',(-48.094349,14.70191,3.5));
#252 = VECTOR('',#253,1.);
#253 = DIRECTION('',(1.,0.,0.));
#254 = ORIENTED_EDGE('',*,*,#255,.T.);
#255 = EDGE_CURVE('',#248,#256,#258,.T.);
#256 = VERTEX_POINT('',#257);
#257 = CARTESIAN_POINT('',(-48.094349,28.70191,3.5));
#258 = LINE('',#259,#260);
#259 = CARTESIAN_POINT('',(-48.094349,14.70191,3.5));
#260 = VECTOR('',#261,1.);
#261 = DIRECTION('',(0.,1.,-2.2E-16));
#262 = ORIENTED_EDGE('',*,*,#263,.F.);
#263 = EDGE_CURVE('',#204,#256,#264,.T.);
#264 = LINE('',#265,#266);
#265 = CARTESIAN_POINT('',(-37.594349,28.70191,3.5));
#266 = VECTOR('',#267,1.);
#267 = DIRECTION('',(-1.,0.,0.));
#268 = ORIENTED_EDGE('',*,*,#211,.F.);
#269 = PLANE('',#270);
#270 = AXIS2_PLACEMENT_3D('',#271,#272,#273);
#271 = CARTESIAN_POINT('',(-48.094349,14.70191,3.5));
#272 = DIRECTION('',(0.,-2.2E-16,-1.));
#273 = DIRECTION('',(1.,0.,0.));
#274 = ADVANCED_FACE('',(#275),#300,.F.);
#275 = FACE_BOUND('',#276,.F.);
#276 = EDGE_LOOP('',(#277,#285,#293,#299));
#277 = ORIENTED_EDGE('',*,*,#278,.F.);
#278 = EDGE_CURVE('',#279,#248,#281,.T.);
#279 = VERTEX_POINT('',#280);
#280 = CARTESIAN_POINT('',(-48.094349,14.70191,9.));
#281 = LINE('',#282,#283);
#282 = CARTESIAN_POINT('',(-48.094349,14.70191,9.));
#283 = VECTOR('',#284,1.);
#284 = DIRECTION('',(0.,0.,-1.));
#285 = ORIENTED_EDGE('',*,*,#286,.T.);
#286 = EDGE_CURVE('',#279,#287,#289,.T.);
#287 = VERTEX_POINT('',#288);
#288 = CARTESIAN_POINT('',(-48.094349,28.70191,9.));
#289 = LINE('',#290,#291);
#290 = CARTESIAN_POINT('',(-48.094349,14.70191,9.));
#291 = VECTOR('',#292,1.);
#292 = DIRECTION('',(0.,1.,-2.2E-16));
#293 = ORIENTED_EDGE('',*,*,#294,.F.);
#294 = EDGE_CURVE('',#256,#287,#295,.T.);
#295 = LINE('',#296,#297);
#296 = CARTESIAN_POINT('',(-48.094349,28.70191,8.110329581994));
#297 = VECTOR('',#298,1.);
#298 = DIRECTION('',(0.,0.,1.));
#299 = ORIENTED_EDGE('',*,*,#255,.F.);
#300 = PLANE('',#301);
#301 = AXIS2_PLACEMENT_3D('',#302,#303,#304);
#302 = CARTESIAN_POINT('',(-48.094349,14.70191,9.));
#303 = DIRECTION('',(-1.,0.,0.));
#304 = DIRECTION('',(0.,-2.2E-16,-1.));
#305 = ADVANCED_FACE('',(#306),#331,.T.);
#306 = FACE_BOUND('',#307,.T.);
#307 = EDGE_LOOP('',(#308,#316,#317,#325));
#308 = ORIENTED_EDGE('',*,*,#309,.T.);
#309 = EDGE_CURVE('',#310,#279,#312,.T.);
#310 = VERTEX_POINT('',#311);
#311 = CARTESIAN_POINT('',(-37.094349,14.70191,9.));
#312 = LINE('',#313,#314);
#313 = CARTESIAN_POINT('',(-37.094349,14.70191,9.));
#314 = VECTOR('',#315,1.);
#315 = DIRECTION('',(-1.,0.,0.));
#316 = ORIENTED_EDGE('',*,*,#286,.T.);
#317 = ORIENTED_EDGE('',*,*,#318,.T.);
#318 = EDGE_CURVE('',#287,#319,#321,.T.);
#319 = VERTEX_POINT('',#320);
#320 = CARTESIAN_POINT('',(-37.094349,28.70191,9.));
#321 = LINE('',#322,#323);
#322 = CARTESIAN_POINT('',(-32.094349,28.70191,9.));
#323 = VECTOR('',#324,1.);
#324 = DIRECTION('',(1.,0.,0.));
#325 = ORIENTED_EDGE('',*,*,#326,.F.);
#326 = EDGE_CURVE('',#310,#319,#327,.T.);
#327 = LINE('',#328,#329);
#328 = CARTESIAN_POINT('',(-37.094349,14.70191,9.));
#329 = VECTOR('',#330,1.);
#330 = DIRECTION('',(0.,1.,-2.2E-16));
#331 = PLANE('',#332);
#332 = AXIS2_PLACEMENT_3D('',#333,#334,#335);
#333 = CARTESIAN_POINT('',(-42.594349,21.70191,9.));
#334 = DIRECTION('',(-0.,-2.5E-16,-1.));
#335 = DIRECTION('',(0.,-1.,2.5E-16));
#336 = ADVANCED_FACE('',(#337),#362,.F.);
#337 = FACE_BOUND('',#338,.F.);
#338 = EDGE_LOOP('',(#339,#347,#355,#361));
#339 = ORIENTED_EDGE('',*,*,#340,.F.);
#340 = EDGE_CURVE('',#341,#310,#343,.T.);
#341 = VERTEX_POINT('',#342);
#342 = CARTESIAN_POINT('',(-37.094349,14.70191,3.5));
#343 = LINE('',#344,#345);
#344 = CARTESIAN_POINT('',(-37.094349,14.70191,3.5));
#345 = VECTOR('',#346,1.);
#346 = DIRECTION('',(0.,0.,1.));
#347 = ORIENTED_EDGE('',*,*,#348,.T.);
#348 = EDGE_CURVE('',#341,#349,#351,.T.);
#349 = VERTEX_POINT('',#350);
#350 = CARTESIAN_POINT('',(-37.094349,28.70191,3.5));
#351 = LINE('',#352,#353);
#352 = CARTESIAN_POINT('',(-37.094349,14.70191,3.5));
#353 = VECTOR('',#354,1.);
#354 = DIRECTION('',(0.,1.,-2.2E-16));
#355 = ORIENTED_EDGE('',*,*,#356,.F.);
#356 = EDGE_CURVE('',#319,#349,#357,.T.);
#357 = LINE('',#358,#359);
#358 = CARTESIAN_POINT('',(-37.094349,28.70191,5.360329581994));
#359 = VECTOR('',#360,1.);
#360 = DIRECTION('',(0.,0.,-1.));
#361 = ORIENTED_EDGE('',*,*,#326,.F.);
#362 = PLANE('',#363);
#363 = AXIS2_PLACEMENT_3D('',#364,#365,#366);
#364 = CARTESIAN_POINT('',(-37.094349,14.70191,3.5));
#365 = DIRECTION('',(1.,0.,0.));
#366 = DIRECTION('',(0.,2.2E-16,1.));
#367 = ADVANCED_FACE('',(#368),#393,.F.);
#368 = FACE_BOUND('',#369,.F.);
#369 = EDGE_LOOP('',(#370,#378,#386,#392));
#370 = ORIENTED_EDGE('',*,*,#371,.F.);
#371 = EDGE_CURVE('',#372,#341,#374,.T.);
#372 = VERTEX_POINT('',#373);
#373 = CARTESIAN_POINT('',(-39.594349,14.70191,3.5));
#374 = LINE('',#375,#376);
#375 = CARTESIAN_POINT('',(-48.094349,14.70191,3.5));
#376 = VECTOR('',#377,1.);
#377 = DIRECTION('',(1.,0.,0.));
#378 = ORIENTED_EDGE('',*,*,#379,.T.);
#379 = EDGE_CURVE('',#372,#380,#382,.T.);
#380 = VERTEX_POINT('',#381);
#381 = CARTESIAN_POINT('',(-39.594349,28.70191,3.5));
#382 = LINE('',#383,#384);
#383 = CARTESIAN_POINT('',(-39.594349,14.70191,3.5));
#384 = VECTOR('',#385,1.);
#385 = DIRECTION('',(0.,1.,-2.2E-16));
#386 = ORIENTED_EDGE('',*,*,#387,.F.);
#387 = EDGE_CURVE('',#349,#380,#388,.T.);
#388 = LINE('',#389,#390);
#389 = CARTESIAN_POINT('',(-37.594349,28.70191,3.5));
#390 = VECTOR('',#391,1.);
#391 = DIRECTION('',(-1.,0.,0.));
#392 = ORIENTED_EDGE('',*,*,#348,.F.);
#393 = PLANE('',#394);
#394 = AXIS2_PLACEMENT_3D('',#395,#396,#397);
#395 = CARTESIAN_POINT('',(-48.094349,14.70191,3.5));
#396 = DIRECTION('',(0.,-2.2E-16,-1.));
#397 = DIRECTION('',(1.,0.,0.));
#398 = ADVANCED_FACE('',(#399),#424,.F.);
#399 = FACE_BOUND('',#400,.F.);
#400 = EDGE_LOOP('',(#401,#409,#417,#423));
#401 = ORIENTED_EDGE('',*,*,#402,.F.);
#402 = EDGE_CURVE('',#403,#372,#405,.T.);
#403 = VERTEX_POINT('',#404);
#404 = CARTESIAN_POINT('',(-39.594349,14.70191,0.));
#405 = LINE('',#406,#407);
#406 = CARTESIAN_POINT('',(-39.594349,14.70191,0.));
#407 = VECTOR('',#408,1.);
#408 = DIRECTION('',(0.,0.,1.));
#409 = ORIENTED_EDGE('',*,*,#410,.T.);
#410 = EDGE_CURVE('',#403,#411,#413,.T.);
#411 = VERTEX_POINT('',#412);
#412 = CARTESIAN_POINT('',(-39.594349,28.70191,-2.E-15));
#413 = LINE('',#414,#415);
#414 = CARTESIAN_POINT('',(-39.594349,14.70191,0.));
#415 = VECTOR('',#416,1.);
#416 = DIRECTION('',(0.,1.,-2.2E-16));
#417 = ORIENTED_EDGE('',*,*,#418,.F.);
#418 = EDGE_CURVE('',#380,#411,#419,.T.);
#419 = LINE('',#420,#421);
#420 = CARTESIAN_POINT('',(-39.594349,28.70191,3.610329581994));
#421 = VECTOR('',#422,1.);
#422 = DIRECTION('',(0.,0.,-1.));
#423 = ORIENTED_EDGE('',*,*,#379,.F.);
#424 = PLANE('',#425);
#425 = AXIS2_PLACEMENT_3D('',#426,#427,#428);
#426 = CARTESIAN_POINT('',(-39.594349,14.70191,0.));
#427 = DIRECTION('',(1.,0.,0.));
#428 = DIRECTION('',(0.,2.2E-16,1.));
#429 = ADVANCED_FACE('',(#430),#455,.F.);
#430 = FACE_BOUND('',#431,.F.);
#431 = EDGE_LOOP('',(#432,#442,#448,#449));
#432 = ORIENTED_EDGE('',*,*,#433,.T.);
#433 = EDGE_CURVE('',#434,#436,#438,.T.);
#434 = VERTEX_POINT('',#435);
#435 = CARTESIAN_POINT('',(-30.094349,14.70191,0.));
#436 = VERTEX_POINT('',#437);
#437 = CARTESIAN_POINT('',(-30.094349,28.70191,-2.E-15));
#438 = LINE('',#439,#440);
#439 = CARTESIAN_POINT('',(-30.094349,14.70191,0.));
#440 = VECTOR('',#441,1.);
#441 = DIRECTION('',(0.,1.,-2.2E-16));
#442 = ORIENTED_EDGE('',*,*,#443,.T.);
#443 = EDGE_CURVE('',#436,#411,#444,.T.);
#444 = LINE('',#445,#446);
#445 = CARTESIAN_POINT('',(-4.594349,28.70191,0.));
#446 = VECTOR('',#447,1.);
#447 = DIRECTION('',(-1.,0.,0.));
#448 = ORIENTED_EDGE('',*,*,#410,.F.);
#449 = ORIENTED_EDGE('',*,*,#450,.T.);
#450 = EDGE_CURVE('',#403,#434,#451,.T.);
#451 = LINE('',#452,#453);
#452 = CARTESIAN_POINT('',(-49.594349,14.70191,0.));
#453 = VECTOR('',#454,1.);
#454 = DIRECTION('',(1.,0.,0.));
#455 = PLANE('',#456);
#456 = AXIS2_PLACEMENT_3D('',#457,#458,#459);
#457 = CARTESIAN_POINT('',(-27.094349,21.70191,0.));
#458 = DIRECTION('',(0.,0.,1.));
#459 = DIRECTION('',(1.,0.,0.));
#460 = ADVANCED_FACE('',(#461),#486,.F.);
#461 = FACE_BOUND('',#462,.F.);
#462 = EDGE_LOOP('',(#463,#471,#479,#485));
#463 = ORIENTED_EDGE('',*,*,#464,.F.);
#464 = EDGE_CURVE('',#465,#434,#467,.T.);
#465 = VERTEX_POINT('',#466);
#466 = CARTESIAN_POINT('',(-30.094349,14.70191,3.5));
#467 = LINE('',#468,#469);
#468 = CARTESIAN_POINT('',(-30.094349,14.70191,3.5));
#469 = VECTOR('',#470,1.);
#470 = DIRECTION('',(0.,0.,-1.));
#471 = ORIENTED_EDGE('',*,*,#472,.T.);
#472 = EDGE_CURVE('',#465,#473,#475,.T.);
#473 = VERTEX_POINT('',#474);
#474 = CARTESIAN_POINT('',(-30.094349,28.70191,3.5));
#475 = LINE('',#476,#477);
#476 = CARTESIAN_POINT('',(-30.094349,14.70191,3.5));
#477 = VECTOR('',#478,1.);
#478 = DIRECTION('',(0.,1.,-2.2E-16));
#479 = ORIENTED_EDGE('',*,*,#480,.F.);
#480 = EDGE_CURVE('',#436,#473,#481,.T.);
#481 = LINE('',#482,#483);
#482 = CARTESIAN_POINT('',(-30.094349,28.70191,5.32435770751));
#483 = VECTOR('',#484,1.);
#484 = DIRECTION('',(0.,0.,1.));
#485 = ORIENTED_EDGE('',*,*,#433,.F.);
#486 = PLANE('',#487);
#487 = AXIS2_PLACEMENT_3D('',#488,#489,#490);
#488 = CARTESIAN_POINT('',(-30.094349,14.70191,3.5));
#489 = DIRECTION('',(-1.,0.,0.));
#490 = DIRECTION('',(0.,-2.2E-16,-1.));
#491 = ADVANCED_FACE('',(#492),#517,.F.);
#492 = FACE_BOUND('',#493,.F.);
#493 = EDGE_LOOP('',(#494,#502,#510,#516));
#494 = ORIENTED_EDGE('',*,*,#495,.F.);
#495 = EDGE_CURVE('',#496,#465,#498,.T.);
#496 = VERTEX_POINT('',#497);
#497 = CARTESIAN_POINT('',(-32.594349,14.70191,3.5));
#498 = LINE('',#499,#500);
#499 = CARTESIAN_POINT('',(-32.594349,14.70191,3.5));
#500 = VECTOR('',#501,1.);
#501 = DIRECTION('',(1.,0.,0.));
#502 = ORIENTED_EDGE('',*,*,#503,.T.);
#503 = EDGE_CURVE('',#496,#504,#506,.T.);
#504 = VERTEX_POINT('',#505);
#505 = CARTESIAN_POINT('',(-32.594349,28.70191,3.5));
#506 = LINE('',#507,#508);
#507 = CARTESIAN_POINT('',(-32.594349,14.70191,3.5));
#508 = VECTOR('',#509,1.);
#509 = DIRECTION('',(0.,1.,-2.2E-16));
#510 = ORIENTED_EDGE('',*,*,#511,.F.);
#511 = EDGE_CURVE('',#473,#504,#512,.T.);
#512 = LINE('',#513,#514);
#513 = CARTESIAN_POINT('',(-29.844349,28.70191,3.5));
#514 = VECTOR('',#515,1.);
#515 = DIRECTION('',(-1.,0.,0.));
#516 = ORIENTED_EDGE('',*,*,#472,.F.);
#517 = PLANE('',#518);
#518 = AXIS2_PLACEMENT_3D('',#519,#520,#521);
#519 = CARTESIAN_POINT('',(-32.594349,14.70191,3.5));
#520 = DIRECTION('',(0.,-2.2E-16,-1.));
#521 = DIRECTION('',(1.,0.,0.));
#522 = ADVANCED_FACE('',(#523),#548,.F.);
#523 = FACE_BOUND('',#524,.F.);
#524 = EDGE_LOOP('',(#525,#533,#541,#547));
#525 = ORIENTED_EDGE('',*,*,#526,.F.);
#526 = EDGE_CURVE('',#527,#496,#529,.T.);
#527 = VERTEX_POINT('',#528);
#528 = CARTESIAN_POINT('',(-32.594349,14.70191,9.));
#529 = LINE('',#530,#531);
#530 = CARTESIAN_POINT('',(-32.594349,14.70191,9.));
#531 = VECTOR('',#532,1.);
#532 = DIRECTION('',(0.,0.,-1.));
#533 = ORIENTED_EDGE('',*,*,#534,.T.);
#534 = EDGE_CURVE('',#527,#535,#537,.T.);
#535 = VERTEX_POINT('',#536);
#536 = CARTESIAN_POINT('',(-32.594349,28.70191,9.));
#537 = LINE('',#538,#539);
#538 = CARTESIAN_POINT('',(-32.594349,14.70191,9.));
#539 = VECTOR('',#540,1.);
#540 = DIRECTION('',(0.,1.,-2.2E-16));
#541 = ORIENTED_EDGE('',*,*,#542,.F.);
#542 = EDGE_CURVE('',#504,#535,#543,.T.);
#543 = LINE('',#544,#545);
#544 = CARTESIAN_POINT('',(-32.594349,28.70191,8.07435770751));
#545 = VECTOR('',#546,1.);
#546 = DIRECTION('',(0.,0.,1.));
#547 = ORIENTED_EDGE('',*,*,#503,.F.);
#548 = PLANE('',#549);
#549 = AXIS2_PLACEMENT_3D('',#550,#551,#552);
#550 = CARTESIAN_POINT('',(-32.594349,14.70191,9.));
#551 = DIRECTION('',(-1.,0.,0.));
#552 = DIRECTION('',(0.,-2.2E-16,-1.));
#553 = ADVANCED_FACE('',(#554),#579,.T.);
#554 = FACE_BOUND('',#555,.T.);
#555 = EDGE_LOOP('',(#556,#564,#565,#573));
#556 = ORIENTED_EDGE('',*,*,#557,.F.);
#557 = EDGE_CURVE('',#527,#558,#560,.T.);
#558 = VERTEX_POINT('',#559);
#559 = CARTESIAN_POINT('',(-21.594349,14.70191,9.));
#560 = LINE('',#561,#562);
#561 = CARTESIAN_POINT('',(-32.594349,14.70191,9.));
#562 = VECTOR('',#563,1.);
#563 = DIRECTION('',(1.,0.,0.));
#564 = ORIENTED_EDGE('',*,*,#534,.T.);
#565 = ORIENTED_EDGE('',*,*,#566,.F.);
#566 = EDGE_CURVE('',#567,#535,#569,.T.);
#567 = VERTEX_POINT('',#568);
#568 = CARTESIAN_POINT('',(-21.594349,28.70191,9.));
#569 = LINE('',#570,#571);
#570 = CARTESIAN_POINT('',(-29.844349,28.70191,9.));
#571 = VECTOR('',#572,1.);
#572 = DIRECTION('',(-1.,0.,0.));
#573 = ORIENTED_EDGE('',*,*,#574,.F.);
#574 = EDGE_CURVE('',#558,#567,#575,.T.);
#575 = LINE('',#576,#577);
#576 = CARTESIAN_POINT('',(-21.594349,14.70191,9.));
#577 = VECTOR('',#578,1.);
#578 = DIRECTION('',(0.,1.,-2.2E-16));
#579 = PLANE('',#580);
#580 = AXIS2_PLACEMENT_3D('',#581,#582,#583);
#581 = CARTESIAN_POINT('',(-32.594349,14.70191,9.));
#582 = DIRECTION('',(0.,-2.2E-16,-1.));
#583 = DIRECTION('',(1.,0.,0.));
#584 = ADVANCED_FACE('',(#585),#610,.T.);
#585 = FACE_BOUND('',#586,.T.);
#586 = EDGE_LOOP('',(#587,#595,#596,#604));
#587 = ORIENTED_EDGE('',*,*,#588,.F.);
#588 = EDGE_CURVE('',#558,#589,#591,.T.);
#589 = VERTEX_POINT('',#590);
#590 = CARTESIAN_POINT('',(-21.594349,14.70191,3.5));
#591 = LINE('',#592,#593);
#592 = CARTESIAN_POINT('',(-21.594349,14.70191,9.));
#593 = VECTOR('',#594,1.);
#594 = DIRECTION('',(0.,0.,-1.));
#595 = ORIENTED_EDGE('',*,*,#574,.T.);
#596 = ORIENTED_EDGE('',*,*,#597,.F.);
#597 = EDGE_CURVE('',#598,#567,#600,.T.);
#598 = VERTEX_POINT('',#599);
#599 = CARTESIAN_POINT('',(-21.594349,28.70191,3.5));
#600 = LINE('',#601,#602);
#601 = CARTESIAN_POINT('',(-21.594349,28.70191,8.07435770751));
#602 = VECTOR('',#603,1.);
#603 = DIRECTION('',(0.,0.,1.));
#604 = ORIENTED_EDGE('',*,*,#605,.F.);
#605 = EDGE_CURVE('',#589,#598,#606,.T.);
#606 = LINE('',#607,#608);
#607 = CARTESIAN_POINT('',(-21.594349,14.70191,3.5));
#608 = VECTOR('',#609,1.);
#609 = DIRECTION('',(0.,1.,-2.2E-16));
#610 = PLANE('',#611);
#611 = AXIS2_PLACEMENT_3D('',#612,#613,#614);
#612 = CARTESIAN_POINT('',(-21.594349,14.70191,9.));
#613 = DIRECTION('',(-1.,0.,0.));
#614 = DIRECTION('',(0.,-2.2E-16,-1.));
#615 = ADVANCED_FACE('',(#616),#641,.T.);
#616 = FACE_BOUND('',#617,.T.);
#617 = EDGE_LOOP('',(#618,#626,#627,#635));
#618 = ORIENTED_EDGE('',*,*,#619,.F.);
#619 = EDGE_CURVE('',#589,#620,#622,.T.);
#620 = VERTEX_POINT('',#621);
#621 = CARTESIAN_POINT('',(-24.094349,14.70191,3.5));
#622 = LINE('',#623,#624);
#623 = CARTESIAN_POINT('',(-21.594349,14.70191,3.5));
#624 = VECTOR('',#625,1.);
#625 = DIRECTION('',(-1.,0.,0.));
#626 = ORIENTED_EDGE('',*,*,#605,.T.);
#627 = ORIENTED_EDGE('',*,*,#628,.F.);
#628 = EDGE_CURVE('',#629,#598,#631,.T.);
#629 = VERTEX_POINT('',#630);
#630 = CARTESIAN_POINT('',(-24.094349,28.70191,3.5));
#631 = LINE('',#632,#633);
#632 = CARTESIAN_POINT('',(-24.344349,28.70191,3.5));
#633 = VECTOR('',#634,1.);
#634 = DIRECTION('',(1.,0.,0.));
#635 = ORIENTED_EDGE('',*,*,#636,.F.);
#636 = EDGE_CURVE('',#620,#629,#637,.T.);
#637 = LINE('',#638,#639);
#638 = CARTESIAN_POINT('',(-24.094349,14.70191,3.5));
#639 = VECTOR('',#640,1.);
#640 = DIRECTION('',(0.,1.,-2.2E-16));
#641 = PLANE('',#642);
#642 = AXIS2_PLACEMENT_3D('',#643,#644,#645);
#643 = CARTESIAN_POINT('',(-21.594349,14.70191,3.5));
#644 = DIRECTION('',(0.,2.2E-16,1.));
#645 = DIRECTION('',(-1.,0.,0.));
#646 = ADVANCED_FACE('',(#647),#672,.T.);
#647 = FACE_BOUND('',#648,.T.);
#648 = EDGE_LOOP('',(#649,#657,#658,#666));
#649 = ORIENTED_EDGE('',*,*,#650,.F.);
#650 = EDGE_CURVE('',#620,#651,#653,.T.);
#651 = VERTEX_POINT('',#652);
#652 = CARTESIAN_POINT('',(-24.094349,14.70191,0.));
#653 = LINE('',#654,#655);
#654 = CARTESIAN_POINT('',(-24.094349,14.70191,3.5));
#655 = VECTOR('',#656,1.);
#656 = DIRECTION('',(0.,0.,-1.));
#657 = ORIENTED_EDGE('',*,*,#636,.T.);
#658 = ORIENTED_EDGE('',*,*,#659,.F.);
#659 = EDGE_CURVE('',#660,#629,#662,.T.);
#660 = VERTEX_POINT('',#661);
#661 = CARTESIAN_POINT('',(-24.094349,28.70191,-2.E-15));
#662 = LINE('',#663,#664);
#663 = CARTESIAN_POINT('',(-24.094349,28.70191,5.32435770751));
#664 = VECTOR('',#665,1.);
#665 = DIRECTION('',(0.,0.,1.));
#666 = ORIENTED_EDGE('',*,*,#667,.F.);
#667 = EDGE_CURVE('',#651,#660,#668,.T.);
#668 = LINE('',#669,#670);
#669 = CARTESIAN_POINT('',(-24.094349,14.70191,0.));
#670 = VECTOR('',#671,1.);
#671 = DIRECTION('',(0.,1.,-2.2E-16));
#672 = PLANE('',#673);
#673 = AXIS2_PLACEMENT_3D('',#674,#675,#676);
#674 = CARTESIAN_POINT('',(-24.094349,14.70191,3.5));
#675 = DIRECTION('',(-1.,0.,0.));
#676 = DIRECTION('',(0.,-2.2E-16,-1.));
#677 = ADVANCED_FACE('',(#678),#703,.F.);
#678 = FACE_BOUND('',#679,.F.);
#679 = EDGE_LOOP('',(#680,#690,#696,#697));
#680 = ORIENTED_EDGE('',*,*,#681,.T.);
#681 = EDGE_CURVE('',#682,#684,#686,.T.);
#682 = VERTEX_POINT('',#683);
#683 = CARTESIAN_POINT('',(-14.594349,14.70191,0.));
#684 = VERTEX_POINT('',#685);
#685 = CARTESIAN_POINT('',(-14.594349,28.70191,-2.E-15));
#686 = LINE('',#687,#688);
#687 = CARTESIAN_POINT('',(-14.594349,14.70191,0.));
#688 = VECTOR('',#689,1.);
#689 = DIRECTION('',(0.,1.,-2.2E-16));
#690 = ORIENTED_EDGE('',*,*,#691,.T.);
#691 = EDGE_CURVE('',#684,#660,#692,.T.);
#692 = LINE('',#693,#694);
#693 = CARTESIAN_POINT('',(-4.594349,28.70191,0.));
#694 = VECTOR('',#695,1.);
#695 = DIRECTION('',(-1.,0.,0.));
#696 = ORIENTED_EDGE('',*,*,#667,.F.);
#697 = ORIENTED_EDGE('',*,*,#698,.T.);
#698 = EDGE_CURVE('',#651,#682,#699,.T.);
#699 = LINE('',#700,#701);
#700 = CARTESIAN_POINT('',(-49.594349,14.70191,0.));
#701 = VECTOR('',#702,1.);
#702 = DIRECTION('',(1.,0.,0.));
#703 = PLANE('',#704);
#704 = AXIS2_PLACEMENT_3D('',#705,#706,#707);
#705 = CARTESIAN_POINT('',(-27.094349,21.70191,0.));
#706 = DIRECTION('',(0.,0.,1.));
#707 = DIRECTION('',(1.,0.,0.));
#708 = ADVANCED_FACE('',(#709),#734,.F.);
#709 = FACE_BOUND('',#710,.F.);
#710 = EDGE_LOOP('',(#711,#719,#727,#733));
#711 = ORIENTED_EDGE('',*,*,#712,.F.);
#712 = EDGE_CURVE('',#713,#682,#715,.T.);
#713 = VERTEX_POINT('',#714);
#714 = CARTESIAN_POINT('',(-14.594349,14.70191,3.5));
#715 = LINE('',#716,#717);
#716 = CARTESIAN_POINT('',(-14.594349,14.70191,3.5));
#717 = VECTOR('',#718,1.);
#718 = DIRECTION('',(0.,0.,-1.));
#719 = ORIENTED_EDGE('',*,*,#720,.T.);
#720 = EDGE_CURVE('',#713,#721,#723,.T.);
#721 = VERTEX_POINT('',#722);
#722 = CARTESIAN_POINT('',(-14.594349,28.70191,3.5));
#723 = LINE('',#724,#725);
#724 = CARTESIAN_POINT('',(-14.594349,14.70191,3.5));
#725 = VECTOR('',#726,1.);
#726 = DIRECTION('',(0.,1.,-2.2E-16));
#727 = ORIENTED_EDGE('',*,*,#728,.F.);
#728 = EDGE_CURVE('',#684,#721,#729,.T.);
#729 = LINE('',#730,#731);
#730 = CARTESIAN_POINT('',(-14.594349,28.70191,5.360329581994));
#731 = VECTOR('',#732,1.);
#732 = DIRECTION('',(0.,0.,1.));
#733 = ORIENTED_EDGE('',*,*,#681,.F.);
#734 = PLANE('',#735);
#735 = AXIS2_PLACEMENT_3D('',#736,#737,#738);
#736 = CARTESIAN_POINT('',(-14.594349,14.70191,3.5));
#737 = DIRECTION('',(-1.,0.,0.));
#738 = DIRECTION('',(0.,-2.2E-16,-1.));
#739 = ADVANCED_FACE('',(#740),#765,.F.);
#740 = FACE_BOUND('',#741,.F.);
#741 = EDGE_LOOP('',(#742,#750,#758,#764));
#742 = ORIENTED_EDGE('',*,*,#743,.F.);
#743 = EDGE_CURVE('',#744,#713,#746,.T.);
#744 = VERTEX_POINT('',#745);
#745 = CARTESIAN_POINT('',(-17.094349,14.70191,3.5));
#746 = LINE('',#747,#748);
#747 = CARTESIAN_POINT('',(-17.094349,14.70191,3.5));
#748 = VECTOR('',#749,1.);
#749 = DIRECTION('',(1.,0.,0.));
#750 = ORIENTED_EDGE('',*,*,#751,.T.);
#751 = EDGE_CURVE('',#744,#752,#754,.T.);
#752 = VERTEX_POINT('',#753);
#753 = CARTESIAN_POINT('',(-17.094349,28.70191,3.5));
#754 = LINE('',#755,#756);
#755 = CARTESIAN_POINT('',(-17.094349,14.70191,3.5));
#756 = VECTOR('',#757,1.);
#757 = DIRECTION('',(0.,1.,-2.2E-16));
#758 = ORIENTED_EDGE('',*,*,#759,.F.);
#759 = EDGE_CURVE('',#721,#752,#760,.T.);
#760 = LINE('',#761,#762);
#761 = CARTESIAN_POINT('',(-22.094349,28.70191,3.5));
#762 = VECTOR('',#763,1.);
#763 = DIRECTION('',(-1.,0.,0.));
#764 = ORIENTED_EDGE('',*,*,#720,.F.);
#765 = PLANE('',#766);
#766 = AXIS2_PLACEMENT_3D('',#767,#768,#769);
#767 = CARTESIAN_POINT('',(-17.094349,14.70191,3.5));
#768 = DIRECTION('',(0.,-2.2E-16,-1.));
#769 = DIRECTION('',(1.,0.,0.));
#770 = ADVANCED_FACE('',(#771),#796,.F.);
#771 = FACE_BOUND('',#772,.F.);
#772 = EDGE_LOOP('',(#773,#781,#789,#795));
#773 = ORIENTED_EDGE('',*,*,#774,.F.);
#774 = EDGE_CURVE('',#775,#744,#777,.T.);
#775 = VERTEX_POINT('',#776);
#776 = CARTESIAN_POINT('',(-17.094349,14.70191,9.));
#777 = LINE('',#778,#779);
#778 = CARTESIAN_POINT('',(-17.094349,14.70191,9.));
#779 = VECTOR('',#780,1.);
#780 = DIRECTION('',(0.,0.,-1.));
#781 = ORIENTED_EDGE('',*,*,#782,.T.);
#782 = EDGE_CURVE('',#775,#783,#785,.T.);
#783 = VERTEX_POINT('',#784);
#784 = CARTESIAN_POINT('',(-17.094349,28.70191,9.));
#785 = LINE('',#786,#787);
#786 = CARTESIAN_POINT('',(-17.094349,14.70191,9.));
#787 = VECTOR('',#788,1.);
#788 = DIRECTION('',(0.,1.,-2.2E-16));
#789 = ORIENTED_EDGE('',*,*,#790,.F.);
#790 = EDGE_CURVE('',#752,#783,#791,.T.);
#791 = LINE('',#792,#793);
#792 = CARTESIAN_POINT('',(-17.094349,28.70191,8.110329581994));
#793 = VECTOR('',#794,1.);
#794 = DIRECTION('',(0.,0.,1.));
#795 = ORIENTED_EDGE('',*,*,#751,.F.);
#796 = PLANE('',#797);
#797 = AXIS2_PLACEMENT_3D('',#798,#799,#800);
#798 = CARTESIAN_POINT('',(-17.094349,14.70191,9.));
#799 = DIRECTION('',(-1.,0.,0.));
#800 = DIRECTION('',(0.,-2.2E-16,-1.));
#801 = ADVANCED_FACE('',(#802),#827,.T.);
#802 = FACE_BOUND('',#803,.T.);
#803 = EDGE_LOOP('',(#804,#812,#813,#821));
#804 = ORIENTED_EDGE('',*,*,#805,.T.);
#805 = EDGE_CURVE('',#806,#775,#808,.T.);
#806 = VERTEX_POINT('',#807);
#807 = CARTESIAN_POINT('',(-6.094349,14.70191,9.));
#808 = LINE('',#809,#810);
#809 = CARTESIAN_POINT('',(-6.094349,14.70191,9.));
#810 = VECTOR('',#811,1.);
#811 = DIRECTION('',(-1.,0.,0.));
#812 = ORIENTED_EDGE('',*,*,#782,.T.);
#813 = ORIENTED_EDGE('',*,*,#814,.T.);
#814 = EDGE_CURVE('',#783,#815,#817,.T.);
#815 = VERTEX_POINT('',#816);
#816 = CARTESIAN_POINT('',(-6.094349,28.70191,9.));
#817 = LINE('',#818,#819);
#818 = CARTESIAN_POINT('',(-16.594349,28.70191,9.));
#819 = VECTOR('',#820,1.);
#820 = DIRECTION('',(1.,0.,0.));
#821 = ORIENTED_EDGE('',*,*,#822,.F.);
#822 = EDGE_CURVE('',#806,#815,#823,.T.);
#823 = LINE('',#824,#825);
#824 = CARTESIAN_POINT('',(-6.094349,14.70191,9.));
#825 = VECTOR('',#826,1.);
#826 = DIRECTION('',(0.,1.,-2.2E-16));
#827 = PLANE('',#828);
#828 = AXIS2_PLACEMENT_3D('',#829,#830,#831);
#829 = CARTESIAN_POINT('',(-11.594349,21.70191,9.));
#830 = DIRECTION('',(-0.,-2.5E-16,-1.));
#831 = DIRECTION('',(0.,-1.,2.5E-16));
#832 = ADVANCED_FACE('',(#833),#858,.F.);
#833 = FACE_BOUND('',#834,.F.);
#834 = EDGE_LOOP('',(#835,#843,#851,#857));
#835 = ORIENTED_EDGE('',*,*,#836,.F.);
#836 = EDGE_CURVE('',#837,#806,#839,.T.);
#837 = VERTEX_POINT('',#838);
#838 = CARTESIAN_POINT('',(-6.094349,14.70191,3.5));
#839 = LINE('',#840,#841);
#840 = CARTESIAN_POINT('',(-6.094349,14.70191,3.5));
#841 = VECTOR('',#842,1.);
#842 = DIRECTION('',(0.,0.,1.));
#843 = ORIENTED_EDGE('',*,*,#844,.T.);
#844 = EDGE_CURVE('',#837,#845,#847,.T.);
#845 = VERTEX_POINT('',#846);
#846 = CARTESIAN_POINT('',(-6.094349,28.70191,3.5));
#847 = LINE('',#848,#849);
#848 = CARTESIAN_POINT('',(-6.094349,14.70191,3.5));
#849 = VECTOR('',#850,1.);
#850 = DIRECTION('',(0.,1.,-2.2E-16));
#851 = ORIENTED_EDGE('',*,*,#852,.F.);
#852 = EDGE_CURVE('',#815,#845,#853,.T.);
#853 = LINE('',#854,#855);
#854 = CARTESIAN_POINT('',(-6.094349,28.70191,5.360329581994));
#855 = VECTOR('',#856,1.);
#856 = DIRECTION('',(0.,0.,-1.));
#857 = ORIENTED_EDGE('',*,*,#822,.F.);
#858 = PLANE('',#859);
#859 = AXIS2_PLACEMENT_3D('',#860,#861,#862);
#860 = CARTESIAN_POINT('',(-6.094349,14.70191,3.5));
#861 = DIRECTION('',(1.,0.,0.));
#862 = DIRECTION('',(0.,2.2E-16,1.));
#863 = ADVANCED_FACE('',(#864),#889,.F.);
#864 = FACE_BOUND('',#865,.F.);
#865 = EDGE_LOOP('',(#866,#874,#882,#888));
#866 = ORIENTED_EDGE('',*,*,#867,.F.);
#867 = EDGE_CURVE('',#868,#837,#870,.T.);
#868 = VERTEX_POINT('',#869);
#869 = CARTESIAN_POINT('',(-8.594349,14.70191,3.5));
#870 = LINE('',#871,#872);
#871 = CARTESIAN_POINT('',(-17.094349,14.70191,3.5));
#872 = VECTOR('',#873,1.);
#873 = DIRECTION('',(1.,0.,0.));
#874 = ORIENTED_EDGE('',*,*,#875,.T.);
#875 = EDGE_CURVE('',#868,#876,#878,.T.);
#876 = VERTEX_POINT('',#877);
#877 = CARTESIAN_POINT('',(-8.594349,28.70191,3.5));
#878 = LINE('',#879,#880);
#879 = CARTESIAN_POINT('',(-8.594349,14.70191,3.5));
#880 = VECTOR('',#881,1.);
#881 = DIRECTION('',(0.,1.,-2.2E-16));
#882 = ORIENTED_EDGE('',*,*,#883,.F.);
#883 = EDGE_CURVE('',#845,#876,#884,.T.);
#884 = LINE('',#885,#886);
#885 = CARTESIAN_POINT('',(-22.094349,28.70191,3.5));
#886 = VECTOR('',#887,1.);
#887 = DIRECTION('',(-1.,0.,0.));
#888 = ORIENTED_EDGE('',*,*,#844,.F.);
#889 = PLANE('',#890);
#890 = AXIS2_PLACEMENT_3D('',#891,#892,#893);
#891 = CARTESIAN_POINT('',(-17.094349,14.70191,3.5));
#892 = DIRECTION('',(0.,-2.2E-16,-1.));
#893 = DIRECTION('',(1.,0.,0.));
#894 = ADVANCED_FACE('',(#895),#920,.T.);
#895 = FACE_BOUND('',#896,.T.);
#896 = EDGE_LOOP('',(#897,#905,#906,#914));
#897 = ORIENTED_EDGE('',*,*,#898,.T.);
#898 = EDGE_CURVE('',#899,#868,#901,.T.);
#899 = VERTEX_POINT('',#900);
#900 = CARTESIAN_POINT('',(-8.594349,14.70191,0.));
#901 = LINE('',#902,#903);
#902 = CARTESIAN_POINT('',(-8.594349,14.70191,0.));
#903 = VECTOR('',#904,1.);
#904 = DIRECTION('',(0.,0.,1.));
#905 = ORIENTED_EDGE('',*,*,#875,.T.);
#906 = ORIENTED_EDGE('',*,*,#907,.T.);
#907 = EDGE_CURVE('',#876,#908,#910,.T.);
#908 = VERTEX_POINT('',#909);
#909 = CARTESIAN_POINT('',(-8.594349,28.70191,-2.E-15));
#910 = LINE('',#911,#912);
#911 = CARTESIAN_POINT('',(-8.594349,28.70191,3.610329581994));
#912 = VECTOR('',#913,1.);
#913 = DIRECTION('',(0.,0.,-1.));
#914 = ORIENTED_EDGE('',*,*,#915,.F.);
#915 = EDGE_CURVE('',#899,#908,#916,.T.);
#916 = LINE('',#917,#918);
#917 = CARTESIAN_POINT('',(-8.594349,14.70191,0.));
#918 = VECTOR('',#919,1.);
#919 = DIRECTION('',(0.,1.,-2.2E-16));
#920 = PLANE('',#921);
#921 = AXIS2_PLACEMENT_3D('',#922,#923,#924);
#922 = CARTESIAN_POINT('',(-8.594349,21.70191,1.75));
#923 = DIRECTION('',(-1.,-0.,-0.));
#924 = DIRECTION('',(0.,0.,-1.));
#925 = ADVANCED_FACE('',(#926,#979,#990),#1001,.T.);
#926 = FACE_BOUND('',#927,.T.);
#927 = EDGE_LOOP('',(#928,#929,#930,#931,#932,#933,#934,#935,#936,#937,
    #938,#939,#940,#941,#942,#943,#944,#945,#946,#947,#948,#949,#950,
    #951,#952,#953,#954,#955,#956,#957,#965,#973));
#928 = ORIENTED_EDGE('',*,*,#47,.T.);
#929 = ORIENTED_EDGE('',*,*,#78,.T.);
#930 = ORIENTED_EDGE('',*,*,#102,.F.);
#931 = ORIENTED_EDGE('',*,*,#140,.F.);
#932 = ORIENTED_EDGE('',*,*,#154,.F.);
#933 = ORIENTED_EDGE('',*,*,#226,.T.);
#934 = ORIENTED_EDGE('',*,*,#185,.F.);
#935 = ORIENTED_EDGE('',*,*,#247,.F.);
#936 = ORIENTED_EDGE('',*,*,#278,.F.);
#937 = ORIENTED_EDGE('',*,*,#309,.F.);
#938 = ORIENTED_EDGE('',*,*,#340,.F.);
#939 = ORIENTED_EDGE('',*,*,#371,.F.);
#940 = ORIENTED_EDGE('',*,*,#402,.F.);
#941 = ORIENTED_EDGE('',*,*,#450,.T.);
#942 = ORIENTED_EDGE('',*,*,#464,.F.);
#943 = ORIENTED_EDGE('',*,*,#495,.F.);
#944 = ORIENTED_EDGE('',*,*,#526,.F.);
#945 = ORIENTED_EDGE('',*,*,#557,.T.);
#946 = ORIENTED_EDGE('',*,*,#588,.T.);
#947 = ORIENTED_EDGE('',*,*,#619,.T.);
#948 = ORIENTED_EDGE('',*,*,#650,.T.);
#949 = ORIENTED_EDGE('',*,*,#698,.T.);
#950 = ORIENTED_EDGE('',*,*,#712,.F.);
#951 = ORIENTED_EDGE('',*,*,#743,.F.);
#952 = ORIENTED_EDGE('',*,*,#774,.F.);
#953 = ORIENTED_EDGE('',*,*,#805,.F.);
#954 = ORIENTED_EDGE('',*,*,#836,.F.);
#955 = ORIENTED_EDGE('',*,*,#867,.F.);
#956 = ORIENTED_EDGE('',*,*,#898,.F.);
#957 = ORIENTED_EDGE('',*,*,#958,.T.);
#958 = EDGE_CURVE('',#899,#959,#961,.T.);
#959 = VERTEX_POINT('',#960);
#960 = CARTESIAN_POINT('',(-3.594349,14.70191,0.));
#961 = LINE('',#962,#963);
#962 = CARTESIAN_POINT('',(-49.594349,14.70191,0.));
#963 = VECTOR('',#964,1.);
#964 = DIRECTION('',(1.,0.,0.));
#965 = ORIENTED_EDGE('',*,*,#966,.T.);
#966 = EDGE_CURVE('',#959,#967,#969,.T.);
#967 = VERTEX_POINT('',#968);
#968 = CARTESIAN_POINT('',(-3.594349,14.70191,12.));
#969 = LINE('',#970,#971);
#970 = CARTESIAN_POINT('',(-3.594349,14.70191,0.));
#971 = VECTOR('',#972,1.);
#972 = DIRECTION('',(0.,0.,1.));
#973 = ORIENTED_EDGE('',*,*,#974,.F.);
#974 = EDGE_CURVE('',#22,#967,#975,.T.);
#975 = LINE('',#976,#977);
#976 = CARTESIAN_POINT('',(-4.594349,14.70191,12.));
#977 = VECTOR('',#978,1.);
#978 = DIRECTION('',(1.,0.,0.));
#979 = FACE_BOUND('',#980,.T.);
#980 = EDGE_LOOP('',(#981));
#981 = ORIENTED_EDGE('',*,*,#982,.F.);
#982 = EDGE_CURVE('',#983,#983,#985,.T.);
#983 = VERTEX_POINT('',#984);
#984 = CARTESIAN_POINT('',(-33.944349,14.70191,2.25));
#985 = CIRCLE('',#986,0.9);
#986 = AXIS2_PLACEMENT_3D('',#987,#988,#989);
#987 = CARTESIAN_POINT('',(-34.844349,14.70191,2.25));
#988 = DIRECTION('',(0.,-1.,0.));
#989 = DIRECTION('',(1.,0.,0.));
#990 = FACE_BOUND('',#991,.T.);
#991 = EDGE_LOOP('',(#992));
#992 = ORIENTED_EDGE('',*,*,#993,.F.);
#993 = EDGE_CURVE('',#994,#994,#996,.T.);
#994 = VERTEX_POINT('',#995);
#995 = CARTESIAN_POINT('',(-18.444349,14.70191,2.25));
#996 = CIRCLE('',#997,0.9);
#997 = AXIS2_PLACEMENT_3D('',#998,#999,#1000);
#998 = CARTESIAN_POINT('',(-19.344349,14.70191,2.25));
#999 = DIRECTION('',(0.,-1.,0.));
#1000 = DIRECTION('',(1.,0.,0.));
#1001 = PLANE('',#1002);
#1002 = AXIS2_PLACEMENT_3D('',#1003,#1004,#1005);
#1003 = CARTESIAN_POINT('',(-27.094349,14.70191,7.154582366589));
#1004 = DIRECTION('',(-0.,-1.,-0.));
#1005 = DIRECTION('',(0.,0.,-1.));
#1006 = ADVANCED_FACE('',(#1007),#1032,.T.);
#1007 = FACE_BOUND('',#1008,.T.);
#1008 = EDGE_LOOP('',(#1009,#1017,#1025,#1031));
#1009 = ORIENTED_EDGE('',*,*,#1010,.T.);
#1010 = EDGE_CURVE('',#959,#1011,#1013,.T.);
#1011 = VERTEX_POINT('',#1012);
#1012 = CARTESIAN_POINT('',(-3.594349,28.70191,-2.E-15));
#1013 = LINE('',#1014,#1015);
#1014 = CARTESIAN_POINT('',(-3.594349,14.70191,0.));
#1015 = VECTOR('',#1016,1.);
#1016 = DIRECTION('',(0.,1.,0.));
#1017 = ORIENTED_EDGE('',*,*,#1018,.T.);
#1018 = EDGE_CURVE('',#1011,#1019,#1021,.T.);
#1019 = VERTEX_POINT('',#1020);
#1020 = CARTESIAN_POINT('',(-3.594349,28.70191,12.));
#1021 = LINE('',#1022,#1023);
#1022 = CARTESIAN_POINT('',(-3.594349,28.70191,0.));
#1023 = VECTOR('',#1024,1.);
#1024 = DIRECTION('',(0.,0.,1.));
#1025 = ORIENTED_EDGE('',*,*,#1026,.F.);
#1026 = EDGE_CURVE('',#967,#1019,#1027,.T.);
#1027 = LINE('',#1028,#1029);
#1028 = CARTESIAN_POINT('',(-3.594349,14.70191,12.));
#1029 = VECTOR('',#1030,1.);
#1030 = DIRECTION('',(0.,1.,0.));
#1031 = ORIENTED_EDGE('',*,*,#966,.F.);
#1032 = PLANE('',#1033);
#1033 = AXIS2_PLACEMENT_3D('',#1034,#1035,#1036);
#1034 = CARTESIAN_POINT('',(-3.594349,21.70191,6.));
#1035 = DIRECTION('',(1.,0.,0.));
#1036 = DIRECTION('',(0.,0.,1.));
#1037 = ADVANCED_FACE('',(#1038),#1057,.F.);
#1038 = FACE_BOUND('',#1039,.F.);
#1039 = EDGE_LOOP('',(#1040,#1041,#1049,#1056));
#1040 = ORIENTED_EDGE('',*,*,#982,.F.);
#1041 = ORIENTED_EDGE('',*,*,#1042,.T.);
#1042 = EDGE_CURVE('',#983,#1043,#1045,.T.);
#1043 = VERTEX_POINT('',#1044);
#1044 = CARTESIAN_POINT('',(-33.944349,28.70191,2.25));
#1045 = LINE('',#1046,#1047);
#1046 = CARTESIAN_POINT('',(-33.944349,14.70191,2.25));
#1047 = VECTOR('',#1048,1.);
#1048 = DIRECTION('',(0.,1.,-2.2E-16));
#1049 = ORIENTED_EDGE('',*,*,#1050,.T.);
#1050 = EDGE_CURVE('',#1043,#1043,#1051,.T.);
#1051 = CIRCLE('',#1052,0.9);
#1052 = AXIS2_PLACEMENT_3D('',#1053,#1054,#1055);
#1053 = CARTESIAN_POINT('',(-34.844349,28.70191,2.25));
#1054 = DIRECTION('',(0.,-1.,2.2E-16));
#1055 = DIRECTION('',(1.,0.,0.));
#1056 = ORIENTED_EDGE('',*,*,#1042,.F.);
#1057 = CYLINDRICAL_SURFACE('',#1058,0.9);
#1058 = AXIS2_PLACEMENT_3D('',#1059,#1060,#1061);
#1059 = CARTESIAN_POINT('',(-34.844349,14.70191,2.25));
#1060 = DIRECTION('',(0.,-1.,2.2E-16));
#1061 = DIRECTION('',(1.,0.,0.));
#1062 = ADVANCED_FACE('',(#1063),#1082,.F.);
#1063 = FACE_BOUND('',#1064,.F.);
#1064 = EDGE_LOOP('',(#1065,#1066,#1074,#1081));
#1065 = ORIENTED_EDGE('',*,*,#993,.F.);
#1066 = ORIENTED_EDGE('',*,*,#1067,.T.);
#1067 = EDGE_CURVE('',#994,#1068,#1070,.T.);
#1068 = VERTEX_POINT('',#1069);
#1069 = CARTESIAN_POINT('',(-18.444349,28.70191,2.25));
#1070 = LINE('',#1071,#1072);
#1071 = CARTESIAN_POINT('',(-18.444349,14.70191,2.25));
#1072 = VECTOR('',#1073,1.);
#1073 = DIRECTION('',(0.,1.,-2.2E-16));
#1074 = ORIENTED_EDGE('',*,*,#1075,.T.);
#1075 = EDGE_CURVE('',#1068,#1068,#1076,.T.);
#1076 = CIRCLE('',#1077,0.9);
#1077 = AXIS2_PLACEMENT_3D('',#1078,#1079,#1080);
#1078 = CARTESIAN_POINT('',(-19.344349,28.70191,2.25));
#1079 = DIRECTION('',(0.,-1.,2.2E-16));
#1080 = DIRECTION('',(1.,0.,0.));
#1081 = ORIENTED_EDGE('',*,*,#1067,.F.);
#1082 = CYLINDRICAL_SURFACE('',#1083,0.9);
#1083 = AXIS2_PLACEMENT_3D('',#1084,#1085,#1086);
#1084 = CARTESIAN_POINT('',(-19.344349,14.70191,2.25));
#1085 = DIRECTION('',(0.,-1.,2.2E-16));
#1086 = DIRECTION('',(1.,0.,0.));
#1087 = ADVANCED_FACE('',(#1088),#1099,.T.);
#1088 = FACE_BOUND('',#1089,.T.);
#1089 = EDGE_LOOP('',(#1090,#1091,#1092,#1098));
#1090 = ORIENTED_EDGE('',*,*,#958,.F.);
#1091 = ORIENTED_EDGE('',*,*,#915,.T.);
#1092 = ORIENTED_EDGE('',*,*,#1093,.F.);
#1093 = EDGE_CURVE('',#1011,#908,#1094,.T.);
#1094 = LINE('',#1095,#1096);
#1095 = CARTESIAN_POINT('',(-4.594349,28.70191,0.));
#1096 = VECTOR('',#1097,1.);
#1097 = DIRECTION('',(-1.,0.,0.));
#1098 = ORIENTED_EDGE('',*,*,#1010,.F.);
#1099 = PLANE('',#1100);
#1100 = AXIS2_PLACEMENT_3D('',#1101,#1102,#1103);
#1101 = CARTESIAN_POINT('',(-6.094349,21.70191,-6.2E-16));
#1102 = DIRECTION('',(2.3E-16,-0.,-1.));
#1103 = DIRECTION('',(-1.,0.,-2.3E-16));
#1104 = ADVANCED_FACE('',(#1105,#1144,#1147),#1150,.T.);
#1105 = FACE_BOUND('',#1106,.T.);
#1106 = EDGE_LOOP('',(#1107,#1108,#1109,#1110,#1111,#1112,#1113,#1114,
    #1115,#1116,#1117,#1118,#1119,#1120,#1121,#1122,#1123,#1124,#1125,
    #1126,#1127,#1128,#1129,#1130,#1131,#1132,#1133,#1134,#1135,#1136,
    #1137,#1143));
#1107 = ORIENTED_EDGE('',*,*,#1093,.T.);
#1108 = ORIENTED_EDGE('',*,*,#907,.F.);
#1109 = ORIENTED_EDGE('',*,*,#883,.F.);
#1110 = ORIENTED_EDGE('',*,*,#852,.F.);
#1111 = ORIENTED_EDGE('',*,*,#814,.F.);
#1112 = ORIENTED_EDGE('',*,*,#790,.F.);
#1113 = ORIENTED_EDGE('',*,*,#759,.F.);
#1114 = ORIENTED_EDGE('',*,*,#728,.F.);
#1115 = ORIENTED_EDGE('',*,*,#691,.T.);
#1116 = ORIENTED_EDGE('',*,*,#659,.T.);
#1117 = ORIENTED_EDGE('',*,*,#628,.T.);
#1118 = ORIENTED_EDGE('',*,*,#597,.T.);
#1119 = ORIENTED_EDGE('',*,*,#566,.T.);
#1120 = ORIENTED_EDGE('',*,*,#542,.F.);
#1121 = ORIENTED_EDGE('',*,*,#511,.F.);
#1122 = ORIENTED_EDGE('',*,*,#480,.F.);
#1123 = ORIENTED_EDGE('',*,*,#443,.T.);
#1124 = ORIENTED_EDGE('',*,*,#418,.F.);
#1125 = ORIENTED_EDGE('',*,*,#387,.F.);
#1126 = ORIENTED_EDGE('',*,*,#356,.F.);
#1127 = ORIENTED_EDGE('',*,*,#318,.F.);
#1128 = ORIENTED_EDGE('',*,*,#294,.F.);
#1129 = ORIENTED_EDGE('',*,*,#263,.F.);
#1130 = ORIENTED_EDGE('',*,*,#203,.F.);
#1131 = ORIENTED_EDGE('',*,*,#233,.T.);
#1132 = ORIENTED_EDGE('',*,*,#163,.T.);
#1133 = ORIENTED_EDGE('',*,*,#124,.F.);
#1134 = ORIENTED_EDGE('',*,*,#109,.F.);
#1135 = ORIENTED_EDGE('',*,*,#62,.F.);
#1136 = ORIENTED_EDGE('',*,*,#31,.F.);
#1137 = ORIENTED_EDGE('',*,*,#1138,.F.);
#1138 = EDGE_CURVE('',#1019,#24,#1139,.T.);
#1139 = LINE('',#1140,#1141);
#1140 = CARTESIAN_POINT('',(-4.594349,28.70191,12.));
#1141 = VECTOR('',#1142,1.);
#1142 = DIRECTION('',(-1.,0.,0.));
#1143 = ORIENTED_EDGE('',*,*,#1018,.F.);
#1144 = FACE_BOUND('',#1145,.T.);
#1145 = EDGE_LOOP('',(#1146));
#1146 = ORIENTED_EDGE('',*,*,#1050,.T.);
#1147 = FACE_BOUND('',#1148,.T.);
#1148 = EDGE_LOOP('',(#1149));
#1149 = ORIENTED_EDGE('',*,*,#1075,.T.);
#1150 = PLANE('',#1151);
#1151 = AXIS2_PLACEMENT_3D('',#1152,#1153,#1154);
#1152 = CARTESIAN_POINT('',(-27.094349,28.70191,7.154582366589));
#1153 = DIRECTION('',(0.,1.,0.));
#1154 = DIRECTION('',(0.,-0.,1.));
#1155 = ADVANCED_FACE('',(#1156),#1162,.T.);
#1156 = FACE_BOUND('',#1157,.T.);
#1157 = EDGE_LOOP('',(#1158,#1159,#1160,#1161));
#1158 = ORIENTED_EDGE('',*,*,#1138,.T.);
#1159 = ORIENTED_EDGE('',*,*,#21,.F.);
#1160 = ORIENTED_EDGE('',*,*,#974,.T.);
#1161 = ORIENTED_EDGE('',*,*,#1026,.T.);
#1162 = PLANE('',#1163);
#1163 = AXIS2_PLACEMENT_3D('',#1164,#1165,#1166);
#1164 = CARTESIAN_POINT('',(-14.094349,21.70191,12.));
#1165 = DIRECTION('',(0.,0.,1.));
#1166 = DIRECTION('',(1.,0.,-0.));
#1167 = ( GEOMETRIC_REPRESENTATION_CONTEXT(3) 
GLOBAL_UNCERTAINTY_ASSIGNED_CONTEXT((#1171)) 
GLOBAL_UNIT_ASSIGNED_CONTEXT((#1168,#1169,#1170)) REPRESENTATION_CONTEXT
('Context #1','3D Context with UNIT and UNCERTAINTY') );
#1168 = ( LENGTH_UNIT() NAMED_UNIT(*) SI_UNIT(.MILLI.,.METRE.) );
#1169 = ( NAMED_UNIT(*) PLANE_ANGLE_UNIT() SI_UNIT($,.RADIAN.) );
#1170 = ( NAMED_UNIT(*) SI_UNIT($,.STERADIAN.) SOLID_ANGLE_UNIT() );
#1171 = UNCERTAINTY_MEASURE_WITH_UNIT(LENGTH_MEASURE(1.E-04),#1168,
  'distance_accuracy_value','confusion accuracy');
#1172 = PRODUCT_RELATED_PRODUCT_CATEGORY('part',$,(#7));
#1173 = MECHANICAL_DESIGN_GEOMETRIC_PRESENTATION_REPRESENTATION('',(
    #1174),#1167);
#1174 = STYLED_ITEM('color',(#1175),#15);
#1175 = PRESENTATION_STYLE_ASSIGNMENT((#1176,#1182));
#1176 = SURFACE_STYLE_USAGE(.BOTH.,#1177);
#1177 = SURFACE_SIDE_STYLE('',(#1178));
#1178 = SURFACE_STYLE_FILL_AREA(#1179);
#1179 = FILL_AREA_STYLE('',(#1180));
#1180 = FILL_AREA_STYLE_COLOUR('',#1181);
#1181 = COLOUR_RGB('',0.447058818107,0.474509808674,0.501960817233);
#1182 = CURVE_STYLE('',#1183,POSITIVE_LENGTH_MEASURE(0.1),#1184);
#1183 = DRAUGHTING_PRE_DEFINED_CURVE_FONT('continuous');
#1184 = COLOUR_RGB('',9.803921802644E-02,9.803921802644E-02,
  9.803921802644E-02);
ENDSEC;
END-ISO-10303-21;
