ISO-10303-21;
HEADER;
FILE_DESCRIPTION(('FreeCAD Model'),'2;1');
FILE_NAME('Open CASCADE Shape Model','2026-08-27T18:07:28',(''),(''),
  'Open CASCADE STEP processor 7.8','FreeCAD','Unknown');
FILE_SCHEMA(('AUTOMOTIVE_DESIGN { 1 0 10303 214 1 1 1 1 }'));
ENDSEC;
DATA;
#1 = APPLICATION_PROTOCOL_DEFINITION('international standard',
  'automotive_design',2000,#2);
#2 = APPLICATION_CONTEXT(
  'core data for automotive mechanical design processes');
#3 = SHAPE_DEFINITION_REPRESENTATION(#4,#10);
#4 = PRODUCT_DEFINITION_SHAPE('','',#5);
#5 = PRODUCT_DEFINITION('design','',#6,#9);
#6 = PRODUCT_DEFINITION_FORMATION('','',#7);
#7 = PRODUCT('Pocket','Pocket','',(#8));
#8 = PRODUCT_CONTEXT('',#2,'mechanical');
#9 = PRODUCT_DEFINITION_CONTEXT('part definition',#2,'design');
#10 = ADVANCED_BREP_SHAPE_REPRESENTATION('',(#11,#15),#220);
#11 = AXIS2_PLACEMENT_3D('',#12,#13,#14);
#12 = CARTESIAN_POINT('',(0.,0.,0.));
#13 = DIRECTION('',(0.,0.,1.));
#14 = DIRECTION('',(1.,0.,-0.));
#15 = MANIFOLD_SOLID_BREP('',#16);
#16 = CLOSED_SHELL('',(#17,#44,#69,#112,#143,#167,#191,#208));
#17 = ADVANCED_FACE('',(#18),#39,.T.);
#18 = FACE_BOUND('',#19,.F.);
#19 = EDGE_LOOP('',(#20,#31,#38));
#20 = ORIENTED_EDGE('',*,*,#21,.F.);
#21 = EDGE_CURVE('',#22,#24,#26,.T.);
#22 = VERTEX_POINT('',#23);
#23 = CARTESIAN_POINT('',(10.6841,0.,0.));
#24 = VERTEX_POINT('',#25);
#25 = CARTESIAN_POINT('',(1.E-15,10.6841,0.));
#26 = CIRCLE('',#27,10.6841);
#27 = AXIS2_PLACEMENT_3D('',#28,#29,#30);
#28 = CARTESIAN_POINT('',(0.,0.,0.));
#29 = DIRECTION('',(0.,0.,1.));
#30 = DIRECTION('',(1.,0.,0.));
#31 = ORIENTED_EDGE('',*,*,#32,.T.);
#32 = EDGE_CURVE('',#22,#22,#33,.T.);
#33 = CIRCLE('',#34,10.6841);
#34 = AXIS2_PLACEMENT_3D('',#35,#36,#37);
#35 = CARTESIAN_POINT('',(0.,0.,0.));
#36 = DIRECTION('',(0.,-1.,0.));
#37 = DIRECTION('',(1.,0.,0.));
#38 = ORIENTED_EDGE('',*,*,#21,.T.);
#39 = SPHERICAL_SURFACE('',#40,10.6841);
#40 = AXIS2_PLACEMENT_3D('',#41,#42,#43);
#41 = CARTESIAN_POINT('',(0.,0.,0.));
#42 = DIRECTION('',(0.,1.,0.));
#43 = DIRECTION('',(1.,0.,0.));
#44 = ADVANCED_FACE('',(#45),#64,.T.);
#45 = FACE_BOUND('',#46,.F.);
#46 = EDGE_LOOP('',(#47,#55,#62,#63));
#47 = ORIENTED_EDGE('',*,*,#48,.T.);
#48 = EDGE_CURVE('',#22,#49,#51,.T.);
#49 = VERTEX_POINT('',#50);
#50 = CARTESIAN_POINT('',(10.6841,-6.,0.));
#51 = LINE('',#52,#53);
#52 = CARTESIAN_POINT('',(10.6841,0.,0.));
#53 = VECTOR('',#54,1.);
#54 = DIRECTION('',(0.,-1.,0.));
#55 = ORIENTED_EDGE('',*,*,#56,.T.);
#56 = EDGE_CURVE('',#49,#49,#57,.T.);
#57 = CIRCLE('',#58,10.6841);
#58 = AXIS2_PLACEMENT_3D('',#59,#60,#61);
#59 = CARTESIAN_POINT('',(0.,-6.,0.));
#60 = DIRECTION('',(0.,-1.,0.));
#61 = DIRECTION('',(1.,0.,0.));
#62 = ORIENTED_EDGE('',*,*,#48,.F.);
#63 = ORIENTED_EDGE('',*,*,#32,.F.);
#64 = CYLINDRICAL_SURFACE('',#65,10.6841);
#65 = AXIS2_PLACEMENT_3D('',#66,#67,#68);
#66 = CARTESIAN_POINT('',(0.,0.,0.));
#67 = DIRECTION('',(0.,1.,0.));
#68 = DIRECTION('',(1.,0.,0.));
#69 = ADVANCED_FACE('',(#70,#73),#107,.T.);
#70 = FACE_BOUND('',#71,.T.);
#71 = EDGE_LOOP('',(#72));
#72 = ORIENTED_EDGE('',*,*,#56,.T.);
#73 = FACE_BOUND('',#74,.T.);
#74 = EDGE_LOOP('',(#75,#85,#93,#101));
#75 = ORIENTED_EDGE('',*,*,#76,.F.);
#76 = EDGE_CURVE('',#77,#79,#81,.T.);
#77 = VERTEX_POINT('',#78);
#78 = CARTESIAN_POINT('',(-2.875,-6.,-7.125));
#79 = VERTEX_POINT('',#80);
#80 = CARTESIAN_POINT('',(2.875,-6.,-7.125));
#81 = LINE('',#82,#83);
#82 = CARTESIAN_POINT('',(-2.875,-6.,-7.125));
#83 = VECTOR('',#84,1.);
#84 = DIRECTION('',(1.,0.,0.));
#85 = ORIENTED_EDGE('',*,*,#86,.F.);
#86 = EDGE_CURVE('',#87,#77,#89,.T.);
#87 = VERTEX_POINT('',#88);
#88 = CARTESIAN_POINT('',(-2.875,-6.,7.125));
#89 = LINE('',#90,#91);
#90 = CARTESIAN_POINT('',(-2.875,-6.,7.125));
#91 = VECTOR('',#92,1.);
#92 = DIRECTION('',(0.,0.,-1.));
#93 = ORIENTED_EDGE('',*,*,#94,.F.);
#94 = EDGE_CURVE('',#95,#87,#97,.T.);
#95 = VERTEX_POINT('',#96);
#96 = CARTESIAN_POINT('',(2.875,-6.,7.125));
#97 = LINE('',#98,#99);
#98 = CARTESIAN_POINT('',(2.875,-6.,7.125));
#99 = VECTOR('',#100,1.);
#100 = DIRECTION('',(-1.,0.,0.));
#101 = ORIENTED_EDGE('',*,*,#102,.F.);
#102 = EDGE_CURVE('',#79,#95,#103,.T.);
#103 = LINE('',#104,#105);
#104 = CARTESIAN_POINT('',(2.875,-6.,-7.125));
#105 = VECTOR('',#106,1.);
#106 = DIRECTION('',(0.,0.,1.));
#107 = PLANE('',#108);
#108 = AXIS2_PLACEMENT_3D('',#109,#110,#111);
#109 = CARTESIAN_POINT('',(0.,-6.,0.));
#110 = DIRECTION('',(-0.,-1.,-0.));
#111 = DIRECTION('',(1.,0.,0.));
#112 = ADVANCED_FACE('',(#113),#138,.F.);
#113 = FACE_BOUND('',#114,.F.);
#114 = EDGE_LOOP('',(#115,#123,#131,#137));
#115 = ORIENTED_EDGE('',*,*,#116,.T.);
#116 = EDGE_CURVE('',#77,#117,#119,.T.);
#117 = VERTEX_POINT('',#118);
#118 = CARTESIAN_POINT('',(-2.875,0.,-7.125));
#119 = LINE('',#120,#121);
#120 = CARTESIAN_POINT('',(-2.875,-6.,-7.125));
#121 = VECTOR('',#122,1.);
#122 = DIRECTION('',(0.,1.,-2.2E-16));
#123 = ORIENTED_EDGE('',*,*,#124,.T.);
#124 = EDGE_CURVE('',#117,#125,#127,.T.);
#125 = VERTEX_POINT('',#126);
#126 = CARTESIAN_POINT('',(2.875,0.,-7.125));
#127 = LINE('',#128,#129);
#128 = CARTESIAN_POINT('',(-2.875,0.,-7.125));
#129 = VECTOR('',#130,1.);
#130 = DIRECTION('',(1.,0.,0.));
#131 = ORIENTED_EDGE('',*,*,#132,.F.);
#132 = EDGE_CURVE('',#79,#125,#133,.T.);
#133 = LINE('',#134,#135);
#134 = CARTESIAN_POINT('',(2.875,-6.,-7.125));
#135 = VECTOR('',#136,1.);
#136 = DIRECTION('',(0.,1.,-2.2E-16));
#137 = ORIENTED_EDGE('',*,*,#76,.F.);
#138 = PLANE('',#139);
#139 = AXIS2_PLACEMENT_3D('',#140,#141,#142);
#140 = CARTESIAN_POINT('',(-2.875,-6.,-7.125));
#141 = DIRECTION('',(0.,-2.2E-16,-1.));
#142 = DIRECTION('',(1.,0.,0.));
#143 = ADVANCED_FACE('',(#144),#162,.F.);
#144 = FACE_BOUND('',#145,.F.);
#145 = EDGE_LOOP('',(#146,#147,#155,#161));
#146 = ORIENTED_EDGE('',*,*,#132,.T.);
#147 = ORIENTED_EDGE('',*,*,#148,.T.);
#148 = EDGE_CURVE('',#125,#149,#151,.T.);
#149 = VERTEX_POINT('',#150);
#150 = CARTESIAN_POINT('',(2.875,0.,7.125));
#151 = LINE('',#152,#153);
#152 = CARTESIAN_POINT('',(2.875,0.,-7.125));
#153 = VECTOR('',#154,1.);
#154 = DIRECTION('',(0.,0.,1.));
#155 = ORIENTED_EDGE('',*,*,#156,.F.);
#156 = EDGE_CURVE('',#95,#149,#157,.T.);
#157 = LINE('',#158,#159);
#158 = CARTESIAN_POINT('',(2.875,-6.,7.125));
#159 = VECTOR('',#160,1.);
#160 = DIRECTION('',(0.,1.,-2.2E-16));
#161 = ORIENTED_EDGE('',*,*,#102,.F.);
#162 = PLANE('',#163);
#163 = AXIS2_PLACEMENT_3D('',#164,#165,#166);
#164 = CARTESIAN_POINT('',(2.875,-6.,-7.125));
#165 = DIRECTION('',(1.,-0.,0.));
#166 = DIRECTION('',(0.,2.2E-16,1.));
#167 = ADVANCED_FACE('',(#168),#186,.F.);
#168 = FACE_BOUND('',#169,.F.);
#169 = EDGE_LOOP('',(#170,#171,#179,#185));
#170 = ORIENTED_EDGE('',*,*,#156,.T.);
#171 = ORIENTED_EDGE('',*,*,#172,.T.);
#172 = EDGE_CURVE('',#149,#173,#175,.T.);
#173 = VERTEX_POINT('',#174);
#174 = CARTESIAN_POINT('',(-2.875,0.,7.125));
#175 = LINE('',#176,#177);
#176 = CARTESIAN_POINT('',(2.875,0.,7.125));
#177 = VECTOR('',#178,1.);
#178 = DIRECTION('',(-1.,0.,0.));
#179 = ORIENTED_EDGE('',*,*,#180,.F.);
#180 = EDGE_CURVE('',#87,#173,#181,.T.);
#181 = LINE('',#182,#183);
#182 = CARTESIAN_POINT('',(-2.875,-6.,7.125));
#183 = VECTOR('',#184,1.);
#184 = DIRECTION('',(0.,1.,-2.2E-16));
#185 = ORIENTED_EDGE('',*,*,#94,.F.);
#186 = PLANE('',#187);
#187 = AXIS2_PLACEMENT_3D('',#188,#189,#190);
#188 = CARTESIAN_POINT('',(2.875,-6.,7.125));
#189 = DIRECTION('',(0.,2.2E-16,1.));
#190 = DIRECTION('',(-1.,0.,0.));
#191 = ADVANCED_FACE('',(#192),#203,.F.);
#192 = FACE_BOUND('',#193,.F.);
#193 = EDGE_LOOP('',(#194,#195,#201,#202));
#194 = ORIENTED_EDGE('',*,*,#180,.T.);
#195 = ORIENTED_EDGE('',*,*,#196,.T.);
#196 = EDGE_CURVE('',#173,#117,#197,.T.);
#197 = LINE('',#198,#199);
#198 = CARTESIAN_POINT('',(-2.875,0.,7.125));
#199 = VECTOR('',#200,1.);
#200 = DIRECTION('',(0.,0.,-1.));
#201 = ORIENTED_EDGE('',*,*,#116,.F.);
#202 = ORIENTED_EDGE('',*,*,#86,.F.);
#203 = PLANE('',#204);
#204 = AXIS2_PLACEMENT_3D('',#205,#206,#207);
#205 = CARTESIAN_POINT('',(-2.875,-6.,7.125));
#206 = DIRECTION('',(-1.,0.,-0.));
#207 = DIRECTION('',(0.,-2.2E-16,-1.));
#208 = ADVANCED_FACE('',(#209),#215,.F.);
#209 = FACE_BOUND('',#210,.T.);
#210 = EDGE_LOOP('',(#211,#212,#213,#214));
#211 = ORIENTED_EDGE('',*,*,#124,.T.);
#212 = ORIENTED_EDGE('',*,*,#148,.T.);
#213 = ORIENTED_EDGE('',*,*,#172,.T.);
#214 = ORIENTED_EDGE('',*,*,#196,.T.);
#215 = PLANE('',#216);
#216 = AXIS2_PLACEMENT_3D('',#217,#218,#219);
#217 = CARTESIAN_POINT('',(0.,0.,-1.E-15));
#218 = DIRECTION('',(0.,1.,-2.5E-16));
#219 = DIRECTION('',(0.,2.5E-16,1.));
#220 = ( GEOMETRIC_REPRESENTATION_CONTEXT(3) 
GLOBAL_UNCERTAINTY_ASSIGNED_CONTEXT((#224)) GLOBAL_UNIT_ASSIGNED_CONTEXT
((#221,#222,#223)) REPRESENTATION_CONTEXT('Context #1',
  '3D Context with UNIT and UNCERTAINTY') );
#221 = ( LENGTH_UNIT() NAMED_UNIT(*) SI_UNIT(.MILLI.,.METRE.) );
#222 = ( NAMED_UNIT(*) PLANE_ANGLE_UNIT() SI_UNIT($,.RADIAN.) );
#223 = ( NAMED_UNIT(*) SI_UNIT($,.STERADIAN.) SOLID_ANGLE_UNIT() );
#224 = UNCERTAINTY_MEASURE_WITH_UNIT(LENGTH_MEASURE(1.E-07),#221,
  'distance_accuracy_value','confusion accuracy');
#225 = PRODUCT_RELATED_PRODUCT_CATEGORY('part',$,(#7));
#226 = MECHANICAL_DESIGN_GEOMETRIC_PRESENTATION_REPRESENTATION('',(#227)
  ,#220);
#227 = STYLED_ITEM('color',(#228),#15);
#228 = PRESENTATION_STYLE_ASSIGNMENT((#229,#235));
#229 = SURFACE_STYLE_USAGE(.BOTH.,#230);
#230 = SURFACE_SIDE_STYLE('',(#231));
#231 = SURFACE_STYLE_FILL_AREA(#232);
#232 = FILL_AREA_STYLE('',(#233));
#233 = FILL_AREA_STYLE_COLOUR('',#234);
#234 = COLOUR_RGB('',0.447058818107,0.474509808674,0.501960817233);
#235 = CURVE_STYLE('',#236,POSITIVE_LENGTH_MEASURE(0.1),#237);
#236 = DRAUGHTING_PRE_DEFINED_CURVE_FONT('continuous');
#237 = COLOUR_RGB('',9.803921802644E-02,9.803921802644E-02,
  9.803921802644E-02);
ENDSEC;
END-ISO-10303-21;
