ISO-10303-21;
HEADER;
FILE_DESCRIPTION(('FreeCAD Model'),'2;1');
FILE_NAME('Open CASCADE Shape Model','2026-08-27T17:55:57',(''),(''),
  'Open CASCADE STEP processor 7.8','FreeCAD','Unknown');
FILE_SCHEMA(('AUTOMOTIVE_DESIGN { 1 0 10303 214 1 1 1 1 }'));
ENDSEC;
DATA;
#1 = APPLICATION_PROTOCOL_DEFINITION('international standard',
  'automotive_design',2000,#2);
#2 = APPLICATION_CONTEXT(
  'core data for automotive mechanical design processes');
#3 = SHAPE_DEFINITION_REPRESENTATION(#4,#10);
#4 = PRODUCT_DEFINITION_SHAPE('','',#5);
#5 = PRODUCT_DEFINITION('design','',#6,#9);
#6 = PRODUCT_DEFINITION_FORMATION('','',#7);
#7 = PRODUCT('Pocket001','Pocket001','',(#8));
#8 = PRODUCT_CONTEXT('',#2,'mechanical');
#9 = PRODUCT_DEFINITION_CONTEXT('part definition',#2,'design');
#10 = ADVANCED_BREP_SHAPE_REPRESENTATION('',(#11,#15),#309);
#11 = AXIS2_PLACEMENT_3D('',#12,#13,#14);
#12 = CARTESIAN_POINT('',(0.,0.,0.));
#13 = DIRECTION('',(0.,0.,1.));
#14 = DIRECTION('',(1.,0.,-0.));
#15 = MANIFOLD_SOLID_BREP('',#16);
#16 = CLOSED_SHELL('',(#17,#57,#88,#119,#174,#229,#246,#263,#275,#292));
#17 = ADVANCED_FACE('',(#18),#52,.T.);
#18 = FACE_BOUND('',#19,.T.);
#19 = EDGE_LOOP('',(#20,#30,#38,#46));
#20 = ORIENTED_EDGE('',*,*,#21,.T.);
#21 = EDGE_CURVE('',#22,#24,#26,.T.);
#22 = VERTEX_POINT('',#23);
#23 = CARTESIAN_POINT('',(-231.924838,-76.613873,0.));
#24 = VERTEX_POINT('',#25);
#25 = CARTESIAN_POINT('',(-231.924838,-76.613873,6.));
#26 = LINE('',#27,#28);
#27 = CARTESIAN_POINT('',(-231.924838,-76.613873,0.));
#28 = VECTOR('',#29,1.);
#29 = DIRECTION('',(0.,0.,1.));
#30 = ORIENTED_EDGE('',*,*,#31,.T.);
#31 = EDGE_CURVE('',#24,#32,#34,.T.);
#32 = VERTEX_POINT('',#33);
#33 = CARTESIAN_POINT('',(-224.853771,-69.542804,6.));
#34 = LINE('',#35,#36);
#35 = CARTESIAN_POINT('',(-231.924838,-76.613873,6.));
#36 = VECTOR('',#37,1.);
#37 = DIRECTION('',(0.707106681187,0.707106881187,0.));
#38 = ORIENTED_EDGE('',*,*,#39,.F.);
#39 = EDGE_CURVE('',#40,#32,#42,.T.);
#40 = VERTEX_POINT('',#41);
#41 = CARTESIAN_POINT('',(-224.853771,-69.542804,0.));
#42 = LINE('',#43,#44);
#43 = CARTESIAN_POINT('',(-224.853771,-69.542804,0.));
#44 = VECTOR('',#45,1.);
#45 = DIRECTION('',(0.,0.,1.));
#46 = ORIENTED_EDGE('',*,*,#47,.F.);
#47 = EDGE_CURVE('',#22,#40,#48,.T.);
#48 = LINE('',#49,#50);
#49 = CARTESIAN_POINT('',(-231.924838,-76.613873,0.));
#50 = VECTOR('',#51,1.);
#51 = DIRECTION('',(0.707106681187,0.707106881187,0.));
#52 = PLANE('',#53);
#53 = AXIS2_PLACEMENT_3D('',#54,#55,#56);
#54 = CARTESIAN_POINT('',(-231.924838,-76.613873,0.));
#55 = DIRECTION('',(-0.707106881187,0.707106681187,0.));
#56 = DIRECTION('',(0.707106681187,0.707106881187,0.));
#57 = ADVANCED_FACE('',(#58),#83,.T.);
#58 = FACE_BOUND('',#59,.T.);
#59 = EDGE_LOOP('',(#60,#61,#69,#77));
#60 = ORIENTED_EDGE('',*,*,#21,.F.);
#61 = ORIENTED_EDGE('',*,*,#62,.T.);
#62 = EDGE_CURVE('',#22,#63,#65,.T.);
#63 = VERTEX_POINT('',#64);
#64 = CARTESIAN_POINT('',(-283.0839906034,-127.7730757591,0.));
#65 = LINE('',#66,#67);
#66 = CARTESIAN_POINT('',(-231.924838,-76.613873,0.));
#67 = VECTOR('',#68,1.);
#68 = DIRECTION('',(-0.707106434568,-0.707107127805,0.));
#69 = ORIENTED_EDGE('',*,*,#70,.F.);
#70 = EDGE_CURVE('',#71,#63,#73,.T.);
#71 = VERTEX_POINT('',#72);
#72 = CARTESIAN_POINT('',(-283.0839906034,-127.7730757591,6.));
#73 = LINE('',#74,#75);
#74 = CARTESIAN_POINT('',(-283.0839906034,-127.7730757591,6.));
#75 = VECTOR('',#76,1.);
#76 = DIRECTION('',(-0.,-0.,-1.));
#77 = ORIENTED_EDGE('',*,*,#78,.F.);
#78 = EDGE_CURVE('',#24,#71,#79,.T.);
#79 = LINE('',#80,#81);
#80 = CARTESIAN_POINT('',(-231.924838,-76.613873,6.));
#81 = VECTOR('',#82,1.);
#82 = DIRECTION('',(-0.707106434568,-0.707107127805,0.));
#83 = PLANE('',#84);
#84 = AXIS2_PLACEMENT_3D('',#85,#86,#87);
#85 = CARTESIAN_POINT('',(-259.0954037795,-103.7844654171,3.));
#86 = DIRECTION('',(-0.707107127805,0.707106434568,0.));
#87 = DIRECTION('',(-0.707106434568,-0.707107127805,0.));
#88 = ADVANCED_FACE('',(#89),#114,.T.);
#89 = FACE_BOUND('',#90,.T.);
#90 = EDGE_LOOP('',(#91,#92,#100,#108));
#91 = ORIENTED_EDGE('',*,*,#39,.T.);
#92 = ORIENTED_EDGE('',*,*,#93,.T.);
#93 = EDGE_CURVE('',#32,#94,#96,.T.);
#94 = VERTEX_POINT('',#95);
#95 = CARTESIAN_POINT('',(-199.963609,-94.432959,6.));
#96 = LINE('',#97,#98);
#97 = CARTESIAN_POINT('',(-224.853771,-69.542804,6.));
#98 = VECTOR('',#99,1.);
#99 = DIRECTION('',(0.707106880618,-0.707106681755,0.));
#100 = ORIENTED_EDGE('',*,*,#101,.F.);
#101 = EDGE_CURVE('',#102,#94,#104,.T.);
#102 = VERTEX_POINT('',#103);
#103 = CARTESIAN_POINT('',(-199.963609,-94.432959,0.));
#104 = LINE('',#105,#106);
#105 = CARTESIAN_POINT('',(-199.963609,-94.432959,0.));
#106 = VECTOR('',#107,1.);
#107 = DIRECTION('',(0.,0.,1.));
#108 = ORIENTED_EDGE('',*,*,#109,.F.);
#109 = EDGE_CURVE('',#40,#102,#110,.T.);
#110 = LINE('',#111,#112);
#111 = CARTESIAN_POINT('',(-224.853771,-69.542804,0.));
#112 = VECTOR('',#113,1.);
#113 = DIRECTION('',(0.707106880618,-0.707106681755,0.));
#114 = PLANE('',#115);
#115 = AXIS2_PLACEMENT_3D('',#116,#117,#118);
#116 = CARTESIAN_POINT('',(-224.853771,-69.542804,0.));
#117 = DIRECTION('',(0.707106681755,0.707106880618,0.));
#118 = DIRECTION('',(0.707106880618,-0.707106681755,0.));
#119 = ADVANCED_FACE('',(#120,#147,#158),#169,.T.);
#120 = FACE_BOUND('',#121,.T.);
#121 = EDGE_LOOP('',(#122,#123,#124,#125,#133,#141));
#122 = ORIENTED_EDGE('',*,*,#62,.F.);
#123 = ORIENTED_EDGE('',*,*,#47,.T.);
#124 = ORIENTED_EDGE('',*,*,#109,.T.);
#125 = ORIENTED_EDGE('',*,*,#126,.F.);
#126 = EDGE_CURVE('',#127,#102,#129,.T.);
#127 = VERTEX_POINT('',#128);
#128 = CARTESIAN_POINT('',(-204.167938,-114.914911,8.881784197001E-16));
#129 = LINE('',#130,#131);
#130 = CARTESIAN_POINT('',(-204.167938,-114.914911,8.881784197001E-16));
#131 = VECTOR('',#132,1.);
#132 = DIRECTION('',(0.201077373026,0.979575362112,0.));
#133 = ORIENTED_EDGE('',*,*,#134,.F.);
#134 = EDGE_CURVE('',#135,#127,#137,.T.);
#135 = VERTEX_POINT('',#136);
#136 = CARTESIAN_POINT('',(-277.1465301747,-138.8506802576,1.E-15));
#137 = LINE('',#138,#139);
#138 = CARTESIAN_POINT('',(-277.1465301747,-138.8506802576,
    8.881784197001E-16));
#139 = VECTOR('',#140,1.);
#140 = DIRECTION('',(0.950197304053,0.311648974601,0.));
#141 = ORIENTED_EDGE('',*,*,#142,.T.);
#142 = EDGE_CURVE('',#135,#63,#143,.T.);
#143 = LINE('',#144,#145);
#144 = CARTESIAN_POINT('',(-282.3251000029,-129.1889487626,1.7E-16));
#145 = VECTOR('',#146,1.);
#146 = DIRECTION('',(-0.47240868792,0.881379618313,0.));
#147 = FACE_BOUND('',#148,.T.);
#148 = EDGE_LOOP('',(#149));
#149 = ORIENTED_EDGE('',*,*,#150,.T.);
#150 = EDGE_CURVE('',#151,#151,#153,.T.);
#151 = VERTEX_POINT('',#152);
#152 = CARTESIAN_POINT('',(-208.321683,-91.745955,0.));
#153 = CIRCLE('',#154,1.4);
#154 = AXIS2_PLACEMENT_3D('',#155,#156,#157);
#155 = CARTESIAN_POINT('',(-209.721683,-91.745955,0.));
#156 = DIRECTION('',(0.,0.,1.));
#157 = DIRECTION('',(1.,0.,0.));
#158 = FACE_BOUND('',#159,.T.);
#159 = EDGE_LOOP('',(#160));
#160 = ORIENTED_EDGE('',*,*,#161,.T.);
#161 = EDGE_CURVE('',#162,#162,#164,.T.);
#162 = VERTEX_POINT('',#163);
#163 = CARTESIAN_POINT('',(-220.766764,-79.300877,0.));
#164 = CIRCLE('',#165,1.4);
#165 = AXIS2_PLACEMENT_3D('',#166,#167,#168);
#166 = CARTESIAN_POINT('',(-222.166764,-79.300877,0.));
#167 = DIRECTION('',(0.,0.,1.));
#168 = DIRECTION('',(1.,0.,0.));
#169 = PLANE('',#170);
#170 = AXIS2_PLACEMENT_3D('',#171,#172,#173);
#171 = CARTESIAN_POINT('',(-241.166917742,-108.9512958964,3.3E-16));
#172 = DIRECTION('',(-0.,-0.,-1.));
#173 = DIRECTION('',(-1.,0.,0.));
#174 = ADVANCED_FACE('',(#175,#202,#213),#224,.T.);
#175 = FACE_BOUND('',#176,.T.);
#176 = EDGE_LOOP('',(#177,#178,#179,#187,#195,#201));
#177 = ORIENTED_EDGE('',*,*,#31,.F.);
#178 = ORIENTED_EDGE('',*,*,#78,.T.);
#179 = ORIENTED_EDGE('',*,*,#180,.T.);
#180 = EDGE_CURVE('',#71,#181,#183,.T.);
#181 = VERTEX_POINT('',#182);
#182 = CARTESIAN_POINT('',(-277.1465301747,-138.8506802576,6.));
#183 = LINE('',#184,#185);
#184 = CARTESIAN_POINT('',(-283.0839906034,-127.7730757591,6.));
#185 = VECTOR('',#186,1.);
#186 = DIRECTION('',(0.47240868792,-0.881379618313,0.));
#187 = ORIENTED_EDGE('',*,*,#188,.T.);
#188 = EDGE_CURVE('',#181,#189,#191,.T.);
#189 = VERTEX_POINT('',#190);
#190 = CARTESIAN_POINT('',(-204.167938,-114.914911,6.));
#191 = LINE('',#192,#193);
#192 = CARTESIAN_POINT('',(-277.1465301747,-138.8506802576,6.));
#193 = VECTOR('',#194,1.);
#194 = DIRECTION('',(0.950197304053,0.311648974601,0.));
#195 = ORIENTED_EDGE('',*,*,#196,.T.);
#196 = EDGE_CURVE('',#189,#94,#197,.T.);
#197 = LINE('',#198,#199);
#198 = CARTESIAN_POINT('',(-204.167938,-114.914911,6.));
#199 = VECTOR('',#200,1.);
#200 = DIRECTION('',(0.201077373026,0.979575362112,0.));
#201 = ORIENTED_EDGE('',*,*,#93,.F.);
#202 = FACE_BOUND('',#203,.T.);
#203 = EDGE_LOOP('',(#204));
#204 = ORIENTED_EDGE('',*,*,#205,.F.);
#205 = EDGE_CURVE('',#206,#206,#208,.T.);
#206 = VERTEX_POINT('',#207);
#207 = CARTESIAN_POINT('',(-208.321683,-91.745955,6.));
#208 = CIRCLE('',#209,1.4);
#209 = AXIS2_PLACEMENT_3D('',#210,#211,#212);
#210 = CARTESIAN_POINT('',(-209.721683,-91.745955,6.));
#211 = DIRECTION('',(0.,0.,1.));
#212 = DIRECTION('',(1.,0.,0.));
#213 = FACE_BOUND('',#214,.T.);
#214 = EDGE_LOOP('',(#215));
#215 = ORIENTED_EDGE('',*,*,#216,.F.);
#216 = EDGE_CURVE('',#217,#217,#219,.T.);
#217 = VERTEX_POINT('',#218);
#218 = CARTESIAN_POINT('',(-220.766764,-79.300877,6.));
#219 = CIRCLE('',#220,1.4);
#220 = AXIS2_PLACEMENT_3D('',#221,#222,#223);
#221 = CARTESIAN_POINT('',(-222.166764,-79.300877,6.));
#222 = DIRECTION('',(0.,0.,1.));
#223 = DIRECTION('',(1.,0.,0.));
#224 = PLANE('',#225);
#225 = AXIS2_PLACEMENT_3D('',#226,#227,#228);
#226 = CARTESIAN_POINT('',(-241.166917742,-108.9512958964,6.));
#227 = DIRECTION('',(0.,0.,1.));
#228 = DIRECTION('',(1.,0.,0.));
#229 = ADVANCED_FACE('',(#230),#241,.T.);
#230 = FACE_BOUND('',#231,.T.);
#231 = EDGE_LOOP('',(#232,#233,#234,#235));
#232 = ORIENTED_EDGE('',*,*,#180,.F.);
#233 = ORIENTED_EDGE('',*,*,#70,.T.);
#234 = ORIENTED_EDGE('',*,*,#142,.F.);
#235 = ORIENTED_EDGE('',*,*,#236,.F.);
#236 = EDGE_CURVE('',#181,#135,#237,.T.);
#237 = LINE('',#238,#239);
#238 = CARTESIAN_POINT('',(-277.1465301747,-138.8506802576,6.));
#239 = VECTOR('',#240,1.);
#240 = DIRECTION('',(-0.,-0.,-1.));
#241 = PLANE('',#242);
#242 = AXIS2_PLACEMENT_3D('',#243,#244,#245);
#243 = CARTESIAN_POINT('',(-283.0839906034,-127.7730757591,6.));
#244 = DIRECTION('',(-0.881379618313,-0.47240868792,0.));
#245 = DIRECTION('',(0.47240868792,-0.881379618313,0.));
#246 = ADVANCED_FACE('',(#247),#258,.T.);
#247 = FACE_BOUND('',#248,.T.);
#248 = EDGE_LOOP('',(#249,#255,#256,#257));
#249 = ORIENTED_EDGE('',*,*,#250,.T.);
#250 = EDGE_CURVE('',#189,#127,#251,.T.);
#251 = LINE('',#252,#253);
#252 = CARTESIAN_POINT('',(-204.167938,-114.914911,6.));
#253 = VECTOR('',#254,1.);
#254 = DIRECTION('',(-0.,-0.,-1.));
#255 = ORIENTED_EDGE('',*,*,#126,.T.);
#256 = ORIENTED_EDGE('',*,*,#101,.T.);
#257 = ORIENTED_EDGE('',*,*,#196,.F.);
#258 = PLANE('',#259);
#259 = AXIS2_PLACEMENT_3D('',#260,#261,#262);
#260 = CARTESIAN_POINT('',(-204.167938,-114.914911,6.));
#261 = DIRECTION('',(0.979575362112,-0.201077373026,0.));
#262 = DIRECTION('',(0.201077373026,0.979575362112,0.));
#263 = ADVANCED_FACE('',(#264),#270,.T.);
#264 = FACE_BOUND('',#265,.T.);
#265 = EDGE_LOOP('',(#266,#267,#268,#269));
#266 = ORIENTED_EDGE('',*,*,#236,.T.);
#267 = ORIENTED_EDGE('',*,*,#134,.T.);
#268 = ORIENTED_EDGE('',*,*,#250,.F.);
#269 = ORIENTED_EDGE('',*,*,#188,.F.);
#270 = PLANE('',#271);
#271 = AXIS2_PLACEMENT_3D('',#272,#273,#274);
#272 = CARTESIAN_POINT('',(-277.1465301747,-138.8506802576,6.));
#273 = DIRECTION('',(0.311648974601,-0.950197304053,0.));
#274 = DIRECTION('',(0.950197304053,0.311648974601,0.));
#275 = ADVANCED_FACE('',(#276),#287,.F.);
#276 = FACE_BOUND('',#277,.T.);
#277 = EDGE_LOOP('',(#278,#284,#285,#286));
#278 = ORIENTED_EDGE('',*,*,#279,.T.);
#279 = EDGE_CURVE('',#151,#206,#280,.T.);
#280 = LINE('',#281,#282);
#281 = CARTESIAN_POINT('',(-208.321683,-91.745955,0.));
#282 = VECTOR('',#283,1.);
#283 = DIRECTION('',(0.,0.,1.));
#284 = ORIENTED_EDGE('',*,*,#205,.T.);
#285 = ORIENTED_EDGE('',*,*,#279,.F.);
#286 = ORIENTED_EDGE('',*,*,#150,.F.);
#287 = CYLINDRICAL_SURFACE('',#288,1.4);
#288 = AXIS2_PLACEMENT_3D('',#289,#290,#291);
#289 = CARTESIAN_POINT('',(-209.721683,-91.745955,0.));
#290 = DIRECTION('',(-0.,-0.,-1.));
#291 = DIRECTION('',(1.,0.,0.));
#292 = ADVANCED_FACE('',(#293),#304,.F.);
#293 = FACE_BOUND('',#294,.T.);
#294 = EDGE_LOOP('',(#295,#301,#302,#303));
#295 = ORIENTED_EDGE('',*,*,#296,.T.);
#296 = EDGE_CURVE('',#162,#217,#297,.T.);
#297 = LINE('',#298,#299);
#298 = CARTESIAN_POINT('',(-220.766764,-79.300877,0.));
#299 = VECTOR('',#300,1.);
#300 = DIRECTION('',(0.,0.,1.));
#301 = ORIENTED_EDGE('',*,*,#216,.T.);
#302 = ORIENTED_EDGE('',*,*,#296,.F.);
#303 = ORIENTED_EDGE('',*,*,#161,.F.);
#304 = CYLINDRICAL_SURFACE('',#305,1.4);
#305 = AXIS2_PLACEMENT_3D('',#306,#307,#308);
#306 = CARTESIAN_POINT('',(-222.166764,-79.300877,0.));
#307 = DIRECTION('',(-0.,-0.,-1.));
#308 = DIRECTION('',(1.,0.,0.));
#309 = ( GEOMETRIC_REPRESENTATION_CONTEXT(3) 
GLOBAL_UNCERTAINTY_ASSIGNED_CONTEXT((#313)) GLOBAL_UNIT_ASSIGNED_CONTEXT
((#310,#311,#312)) REPRESENTATION_CONTEXT('Context #1',
  '3D Context with UNIT and UNCERTAINTY') );
#310 = ( LENGTH_UNIT() NAMED_UNIT(*) SI_UNIT(.MILLI.,.METRE.) );
#311 = ( NAMED_UNIT(*) PLANE_ANGLE_UNIT() SI_UNIT($,.RADIAN.) );
#312 = ( NAMED_UNIT(*) SI_UNIT($,.STERADIAN.) SOLID_ANGLE_UNIT() );
#313 = UNCERTAINTY_MEASURE_WITH_UNIT(LENGTH_MEASURE(5.E-05),#310,
  'distance_accuracy_value','confusion accuracy');
#314 = PRODUCT_RELATED_PRODUCT_CATEGORY('part',$,(#7));
#315 = MECHANICAL_DESIGN_GEOMETRIC_PRESENTATION_REPRESENTATION('',(#316)
  ,#309);
#316 = STYLED_ITEM('color',(#317),#15);
#317 = PRESENTATION_STYLE_ASSIGNMENT((#318,#324));
#318 = SURFACE_STYLE_USAGE(.BOTH.,#319);
#319 = SURFACE_SIDE_STYLE('',(#320));
#320 = SURFACE_STYLE_FILL_AREA(#321);
#321 = FILL_AREA_STYLE('',(#322));
#322 = FILL_AREA_STYLE_COLOUR('',#323);
#323 = COLOUR_RGB('',0.447058818107,0.474509808674,0.501960817233);
#324 = CURVE_STYLE('',#325,POSITIVE_LENGTH_MEASURE(0.1),#326);
#325 = DRAUGHTING_PRE_DEFINED_CURVE_FONT('continuous');
#326 = COLOUR_RGB('',9.803921802644E-02,9.803921802644E-02,
  9.803921802644E-02);
ENDSEC;
END-ISO-10303-21;
