ISO-10303-21;
HEADER;
FILE_DESCRIPTION(('FreeCAD Model'),'2;1');
FILE_NAME('Open CASCADE Shape Model','2026-08-27T17:55:33',(''),(''),
  'Open CASCADE STEP processor 7.8','FreeCAD','Unknown');
FILE_SCHEMA(('AUTOMOTIVE_DESIGN { 1 0 10303 214 1 1 1 1 }'));
ENDSEC;
DATA;
#1 = APPLICATION_PROTOCOL_DEFINITION('international standard',
  'automotive_design',2000,#2);
#2 = APPLICATION_CONTEXT(
  'core data for automotive mechanical design processes');
#3 = SHAPE_DEFINITION_REPRESENTATION(#4,#10);
#4 = PRODUCT_DEFINITION_SHAPE('','',#5);
#5 = PRODUCT_DEFINITION('design','',#6,#9);
#6 = PRODUCT_DEFINITION_FORMATION('','',#7);
#7 = PRODUCT('Pocket004','Pocket004','',(#8));
#8 = PRODUCT_CONTEXT('',#2,'mechanical');
#9 = PRODUCT_DEFINITION_CONTEXT('part definition',#2,'design');
#10 = ADVANCED_BREP_SHAPE_REPRESENTATION('',(#11,#15),#1196);
#11 = AXIS2_PLACEMENT_3D('',#12,#13,#14);
#12 = CARTESIAN_POINT('',(0.,0.,0.));
#13 = DIRECTION('',(0.,0.,1.));
#14 = DIRECTION('',(1.,0.,-0.));
#15 = MANIFOLD_SOLID_BREP('',#16);
#16 = CLOSED_SHELL('',(#17,#175,#206,#230,#270,#310,#334,#359,#399,#423,
    #471,#496,#521,#546,#571,#596,#621,#646,#731,#748,#779,#835,#896,
    #919,#936,#970,#994,#1026,#1043,#1068,#1085,#1110,#1127,#1144,#1162,
    #1179));
#17 = ADVANCED_FACE('',(#18,#93,#104,#115,#126,#137,#148,#159),#170,.T.
  );
#18 = FACE_BOUND('',#19,.T.);
#19 = EDGE_LOOP('',(#20,#30,#38,#46,#54,#62,#70,#79,#87));
#20 = ORIENTED_EDGE('',*,*,#21,.T.);
#21 = EDGE_CURVE('',#22,#24,#26,.T.);
#22 = VERTEX_POINT('',#23);
#23 = CARTESIAN_POINT('',(-231.924838,111.813873,0.));
#24 = VERTEX_POINT('',#25);
#25 = CARTESIAN_POINT('',(-231.8167472551,111.76910033718,-2.E-15));
#26 = LINE('',#27,#28);
#27 = CARTESIAN_POINT('',(-231.924838,111.813873,-1.7763568394E-15));
#28 = VECTOR('',#29,1.);
#29 = DIRECTION('',(0.923879501247,-0.382683507845,0.));
#30 = ORIENTED_EDGE('',*,*,#31,.T.);
#31 = EDGE_CURVE('',#24,#32,#34,.T.);
#32 = VERTEX_POINT('',#33);
#33 = CARTESIAN_POINT('',(-214.2062476483,108.47459087425,-1.E-15));
#34 = LINE('',#35,#36);
#35 = CARTESIAN_POINT('',(-235.7318043225,112.50151525125,-2.7E-16));
#36 = VECTOR('',#37,1.);
#37 = DIRECTION('',(0.982947517785,-0.183886316186,0.));
#38 = ORIENTED_EDGE('',*,*,#39,.F.);
#39 = EDGE_CURVE('',#40,#32,#42,.T.);
#40 = VERTEX_POINT('',#41);
#41 = CARTESIAN_POINT('',(-238.9959046564,83.68494196726,-1.E-15));
#42 = LINE('',#43,#44);
#43 = CARTESIAN_POINT('',(-233.2486953059,89.432149439627,-2.7E-16));
#44 = VECTOR('',#45,1.);
#45 = DIRECTION('',(0.707106896726,0.707106665647,0.));
#46 = ORIENTED_EDGE('',*,*,#47,.F.);
#47 = EDGE_CURVE('',#48,#40,#50,.T.);
#48 = VERTEX_POINT('',#49);
#49 = CARTESIAN_POINT('',(-231.924838,76.613873,0.));
#50 = LINE('',#51,#52);
#51 = CARTESIAN_POINT('',(-241.5760143881,86.26505254209,-1.6E-15));
#52 = VECTOR('',#53,1.);
#53 = DIRECTION('',(-0.707106665647,0.707106896726,0.));
#54 = ORIENTED_EDGE('',*,*,#55,.F.);
#55 = EDGE_CURVE('',#56,#48,#58,.T.);
#56 = VERTEX_POINT('',#57);
#57 = CARTESIAN_POINT('',(-245.924838,76.613873,0.));
#58 = LINE('',#59,#60);
#59 = CARTESIAN_POINT('',(-245.424838,76.613873,0.));
#60 = VECTOR('',#61,1.);
#61 = DIRECTION('',(1.,0.,0.));
#62 = ORIENTED_EDGE('',*,*,#63,.F.);
#63 = EDGE_CURVE('',#64,#56,#66,.T.);
#64 = VERTEX_POINT('',#65);
#65 = CARTESIAN_POINT('',(-276.924995,76.713873000002,0.));
#66 = LINE('',#67,#68);
#67 = CARTESIAN_POINT('',(-276.924995,76.713873000002,0.));
#68 = VECTOR('',#69,1.);
#69 = DIRECTION('',(0.99999479718,-3.225773331401E-03,0.));
#70 = ORIENTED_EDGE('',*,*,#71,.F.);
#71 = EDGE_CURVE('',#72,#64,#74,.T.);
#72 = VERTEX_POINT('',#73);
#73 = CARTESIAN_POINT('',(-276.9248376567,111.71387299999,0.));
#74 = CIRCLE('',#75,17.500000000352);
#75 = AXIS2_PLACEMENT_3D('',#76,#77,#78);
#76 = CARTESIAN_POINT('',(-276.9248376567,94.213872999646,0.));
#77 = DIRECTION('',(0.,0.,1.));
#78 = DIRECTION('',(1.,0.,0.));
#79 = ORIENTED_EDGE('',*,*,#80,.T.);
#80 = EDGE_CURVE('',#72,#81,#83,.T.);
#81 = VERTEX_POINT('',#82);
#82 = CARTESIAN_POINT('',(-245.924838,111.813873,0.));
#83 = LINE('',#84,#85);
#84 = CARTESIAN_POINT('',(-276.9248376567,111.71387299999,0.));
#85 = VECTOR('',#86,1.);
#86 = DIRECTION('',(0.999994797127,3.22578970393E-03,0.));
#87 = ORIENTED_EDGE('',*,*,#88,.T.);
#88 = EDGE_CURVE('',#81,#22,#89,.T.);
#89 = LINE('',#90,#91);
#90 = CARTESIAN_POINT('',(-241.924838,111.813873,0.));
#91 = VECTOR('',#92,1.);
#92 = DIRECTION('',(1.,0.,0.));
#93 = FACE_BOUND('',#94,.T.);
#94 = EDGE_LOOP('',(#95));
#95 = ORIENTED_EDGE('',*,*,#96,.T.);
#96 = EDGE_CURVE('',#97,#97,#99,.T.);
#97 = VERTEX_POINT('',#98);
#98 = CARTESIAN_POINT('',(-247.824838,85.41865,0.));
#99 = CIRCLE('',#100,1.1);
#100 = AXIS2_PLACEMENT_3D('',#101,#102,#103);
#101 = CARTESIAN_POINT('',(-248.924838,85.41865,0.));
#102 = DIRECTION('',(0.,0.,1.));
#103 = DIRECTION('',(1.,0.,0.));
#104 = FACE_BOUND('',#105,.T.);
#105 = EDGE_LOOP('',(#106));
#106 = ORIENTED_EDGE('',*,*,#107,.T.);
#107 = EDGE_CURVE('',#108,#108,#110,.T.);
#108 = VERTEX_POINT('',#109);
#109 = CARTESIAN_POINT('',(-275.824838,86.963873,0.));
#110 = CIRCLE('',#111,1.1);
#111 = AXIS2_PLACEMENT_3D('',#112,#113,#114);
#112 = CARTESIAN_POINT('',(-276.924838,86.963873,0.));
#113 = DIRECTION('',(0.,0.,1.));
#114 = DIRECTION('',(1.,0.,0.));
#115 = FACE_BOUND('',#116,.T.);
#116 = EDGE_LOOP('',(#117));
#117 = ORIENTED_EDGE('',*,*,#118,.T.);
#118 = EDGE_CURVE('',#119,#119,#121,.T.);
#119 = VERTEX_POINT('',#120);
#120 = CARTESIAN_POINT('',(-247.824838,103.009027,0.));
#121 = CIRCLE('',#122,1.1);
#122 = AXIS2_PLACEMENT_3D('',#123,#124,#125);
#123 = CARTESIAN_POINT('',(-248.924838,103.009027,0.));
#124 = DIRECTION('',(0.,0.,1.));
#125 = DIRECTION('',(1.,0.,0.));
#126 = FACE_BOUND('',#127,.T.);
#127 = EDGE_LOOP('',(#128));
#128 = ORIENTED_EDGE('',*,*,#129,.T.);
#129 = EDGE_CURVE('',#130,#130,#132,.T.);
#130 = VERTEX_POINT('',#131);
#131 = CARTESIAN_POINT('',(-268.574838,94.213873,0.));
#132 = CIRCLE('',#133,1.1);
#133 = AXIS2_PLACEMENT_3D('',#134,#135,#136);
#134 = CARTESIAN_POINT('',(-269.674838,94.213873,0.));
#135 = DIRECTION('',(0.,0.,1.));
#136 = DIRECTION('',(1.,0.,0.));
#137 = FACE_BOUND('',#138,.T.);
#138 = EDGE_LOOP('',(#139));
#139 = ORIENTED_EDGE('',*,*,#140,.T.);
#140 = EDGE_CURVE('',#141,#141,#143,.T.);
#141 = VERTEX_POINT('',#142);
#142 = CARTESIAN_POINT('',(-272.5498376567,94.213872999646,0.));
#143 = CIRCLE('',#144,4.375);
#144 = AXIS2_PLACEMENT_3D('',#145,#146,#147);
#145 = CARTESIAN_POINT('',(-276.9248376567,94.213872999646,0.));
#146 = DIRECTION('',(0.,0.,1.));
#147 = DIRECTION('',(1.,0.,0.));
#148 = FACE_BOUND('',#149,.T.);
#149 = EDGE_LOOP('',(#150));
#150 = ORIENTED_EDGE('',*,*,#151,.T.);
#151 = EDGE_CURVE('',#152,#152,#154,.T.);
#152 = VERTEX_POINT('',#153);
#153 = CARTESIAN_POINT('',(-283.074838,94.213873,0.));
#154 = CIRCLE('',#155,1.1);
#155 = AXIS2_PLACEMENT_3D('',#156,#157,#158);
#156 = CARTESIAN_POINT('',(-284.174838,94.213873,0.));
#157 = DIRECTION('',(0.,0.,1.));
#158 = DIRECTION('',(1.,0.,0.));
#159 = FACE_BOUND('',#160,.T.);
#160 = EDGE_LOOP('',(#161));
#161 = ORIENTED_EDGE('',*,*,#162,.T.);
#162 = EDGE_CURVE('',#163,#163,#165,.T.);
#163 = VERTEX_POINT('',#164);
#164 = CARTESIAN_POINT('',(-275.824838,101.463873,0.));
#165 = CIRCLE('',#166,1.1);
#166 = AXIS2_PLACEMENT_3D('',#167,#168,#169);
#167 = CARTESIAN_POINT('',(-276.924838,101.463873,0.));
#168 = DIRECTION('',(0.,0.,1.));
#169 = DIRECTION('',(1.,0.,0.));
#170 = PLANE('',#171);
#171 = AXIS2_PLACEMENT_3D('',#172,#173,#174);
#172 = CARTESIAN_POINT('',(-252.1778534575,94.965569713525,-5.4E-16));
#173 = DIRECTION('',(-0.,-0.,-1.));
#174 = DIRECTION('',(-1.,0.,0.));
#175 = ADVANCED_FACE('',(#176),#201,.F.);
#176 = FACE_BOUND('',#177,.F.);
#177 = EDGE_LOOP('',(#178,#188,#194,#195));
#178 = ORIENTED_EDGE('',*,*,#179,.F.);
#179 = EDGE_CURVE('',#180,#182,#184,.T.);
#180 = VERTEX_POINT('',#181);
#181 = CARTESIAN_POINT('',(-231.924838,111.813873,8.));
#182 = VERTEX_POINT('',#183);
#183 = CARTESIAN_POINT('',(-231.8167472551,111.76910033718,8.));
#184 = LINE('',#185,#186);
#185 = CARTESIAN_POINT('',(-231.924838,111.813873,8.));
#186 = VECTOR('',#187,1.);
#187 = DIRECTION('',(0.923879501247,-0.382683507845,0.));
#188 = ORIENTED_EDGE('',*,*,#189,.F.);
#189 = EDGE_CURVE('',#22,#180,#190,.T.);
#190 = LINE('',#191,#192);
#191 = CARTESIAN_POINT('',(-231.924838,111.813873,-50.));
#192 = VECTOR('',#193,1.);
#193 = DIRECTION('',(0.,0.,1.));
#194 = ORIENTED_EDGE('',*,*,#21,.T.);
#195 = ORIENTED_EDGE('',*,*,#196,.F.);
#196 = EDGE_CURVE('',#182,#24,#197,.T.);
#197 = LINE('',#198,#199);
#198 = CARTESIAN_POINT('',(-231.8167472551,111.76910033718,8.));
#199 = VECTOR('',#200,1.);
#200 = DIRECTION('',(1.7E-16,-7.E-17,-1.));
#201 = PLANE('',#202);
#202 = AXIS2_PLACEMENT_3D('',#203,#204,#205);
#203 = CARTESIAN_POINT('',(-231.924838,111.813873,8.));
#204 = DIRECTION('',(-0.382683507845,-0.923879501247,0.));
#205 = DIRECTION('',(0.923879501247,-0.382683507845,0.));
#206 = ADVANCED_FACE('',(#207),#225,.T.);
#207 = FACE_BOUND('',#208,.F.);
#208 = EDGE_LOOP('',(#209,#217,#218,#219));
#209 = ORIENTED_EDGE('',*,*,#210,.F.);
#210 = EDGE_CURVE('',#182,#211,#213,.T.);
#211 = VERTEX_POINT('',#212);
#212 = CARTESIAN_POINT('',(-214.2062476483,108.47459087425,8.));
#213 = LINE('',#214,#215);
#214 = CARTESIAN_POINT('',(-225.3430604859,110.5580261032,8.));
#215 = VECTOR('',#216,1.);
#216 = DIRECTION('',(0.982947517785,-0.183886316186,0.));
#217 = ORIENTED_EDGE('',*,*,#196,.T.);
#218 = ORIENTED_EDGE('',*,*,#31,.T.);
#219 = ORIENTED_EDGE('',*,*,#220,.F.);
#220 = EDGE_CURVE('',#211,#32,#221,.T.);
#221 = LINE('',#222,#223);
#222 = CARTESIAN_POINT('',(-214.2062476483,108.47459087425,8.));
#223 = VECTOR('',#224,1.);
#224 = DIRECTION('',(1.7E-16,-7.E-17,-1.));
#225 = PLANE('',#226);
#226 = AXIS2_PLACEMENT_3D('',#227,#228,#229);
#227 = CARTESIAN_POINT('',(-223.0114974517,110.12184560572,8.));
#228 = DIRECTION('',(0.183886316186,0.982947517785,0.));
#229 = DIRECTION('',(-1.79335966031E-16,3.354953296742E-17,1.));
#230 = ADVANCED_FACE('',(#231),#265,.T.);
#231 = FACE_BOUND('',#232,.T.);
#232 = EDGE_LOOP('',(#233,#234,#242,#250,#258,#264));
#233 = ORIENTED_EDGE('',*,*,#88,.F.);
#234 = ORIENTED_EDGE('',*,*,#235,.T.);
#235 = EDGE_CURVE('',#81,#236,#238,.T.);
#236 = VERTEX_POINT('',#237);
#237 = CARTESIAN_POINT('',(-245.924838,111.813873,5.));
#238 = LINE('',#239,#240);
#239 = CARTESIAN_POINT('',(-245.924838,111.813873,0.));
#240 = VECTOR('',#241,1.);
#241 = DIRECTION('',(0.,0.,1.));
#242 = ORIENTED_EDGE('',*,*,#243,.T.);
#243 = EDGE_CURVE('',#236,#244,#246,.T.);
#244 = VERTEX_POINT('',#245);
#245 = CARTESIAN_POINT('',(-245.424838,111.813873,5.));
#246 = LINE('',#247,#248);
#247 = CARTESIAN_POINT('',(-245.924838,111.813873,5.));
#248 = VECTOR('',#249,1.);
#249 = DIRECTION('',(1.,0.,0.));
#250 = ORIENTED_EDGE('',*,*,#251,.F.);
#251 = EDGE_CURVE('',#252,#244,#254,.T.);
#252 = VERTEX_POINT('',#253);
#253 = CARTESIAN_POINT('',(-245.424838,111.813873,8.));
#254 = LINE('',#255,#256);
#255 = CARTESIAN_POINT('',(-245.424838,111.813873,8.));
#256 = VECTOR('',#257,1.);
#257 = DIRECTION('',(-0.,-0.,-1.));
#258 = ORIENTED_EDGE('',*,*,#259,.T.);
#259 = EDGE_CURVE('',#252,#180,#260,.T.);
#260 = LINE('',#261,#262);
#261 = CARTESIAN_POINT('',(-241.924838,111.813873,8.));
#262 = VECTOR('',#263,1.);
#263 = DIRECTION('',(1.,0.,0.));
#264 = ORIENTED_EDGE('',*,*,#189,.F.);
#265 = PLANE('',#266);
#266 = AXIS2_PLACEMENT_3D('',#267,#268,#269);
#267 = CARTESIAN_POINT('',(-226.5645438823,111.813873,-17.57598039215));
#268 = DIRECTION('',(5.6E-16,1.,0.));
#269 = DIRECTION('',(1.,-5.6E-16,0.));
#270 = ADVANCED_FACE('',(#271),#305,.T.);
#271 = FACE_BOUND('',#272,.T.);
#272 = EDGE_LOOP('',(#273,#281,#289,#297,#303,#304));
#273 = ORIENTED_EDGE('',*,*,#274,.F.);
#274 = EDGE_CURVE('',#275,#211,#277,.T.);
#275 = VERTEX_POINT('',#276);
#276 = CARTESIAN_POINT('',(-214.1057418917,108.57509659803,8.));
#277 = LINE('',#278,#279);
#278 = CARTESIAN_POINT('',(-214.1057418917,108.57509659803,8.));
#279 = VECTOR('',#280,1.);
#280 = DIRECTION('',(-0.707106896726,-0.707106665647,0.));
#281 = ORIENTED_EDGE('',*,*,#282,.F.);
#282 = EDGE_CURVE('',#283,#275,#285,.T.);
#283 = VERTEX_POINT('',#284);
#284 = CARTESIAN_POINT('',(-214.1057418917,108.57509659803,-50.));
#285 = LINE('',#286,#287);
#286 = CARTESIAN_POINT('',(-214.1057418917,108.57509659803,-50.));
#287 = VECTOR('',#288,1.);
#288 = DIRECTION('',(0.,0.,1.));
#289 = ORIENTED_EDGE('',*,*,#290,.F.);
#290 = EDGE_CURVE('',#291,#283,#293,.T.);
#291 = VERTEX_POINT('',#292);
#292 = CARTESIAN_POINT('',(-238.9959046564,83.68494196726,-50.));
#293 = LINE('',#294,#295);
#294 = CARTESIAN_POINT('',(-238.9959046564,83.68494196726,-50.));
#295 = VECTOR('',#296,1.);
#296 = DIRECTION('',(0.707106896726,0.707106665647,0.));
#297 = ORIENTED_EDGE('',*,*,#298,.F.);
#298 = EDGE_CURVE('',#40,#291,#299,.T.);
#299 = LINE('',#300,#301);
#300 = CARTESIAN_POINT('',(-238.9959046564,83.68494196726,8.));
#301 = VECTOR('',#302,1.);
#302 = DIRECTION('',(0.,0.,-1.));
#303 = ORIENTED_EDGE('',*,*,#39,.T.);
#304 = ORIENTED_EDGE('',*,*,#220,.F.);
#305 = PLANE('',#306);
#306 = AXIS2_PLACEMENT_3D('',#307,#308,#309);
#307 = CARTESIAN_POINT('',(-226.550823274,96.130019282649,-21.));
#308 = DIRECTION('',(-0.707106665647,0.707106896726,-1.7E-16));
#309 = DIRECTION('',(0.707106896726,0.707106665647,-1.232595164408E-32)
  );
#310 = ADVANCED_FACE('',(#311),#329,.T.);
#311 = FACE_BOUND('',#312,.T.);
#312 = EDGE_LOOP('',(#313,#321,#327,#328));
#313 = ORIENTED_EDGE('',*,*,#314,.T.);
#314 = EDGE_CURVE('',#72,#315,#317,.T.);
#315 = VERTEX_POINT('',#316);
#316 = CARTESIAN_POINT('',(-276.9248376567,111.71387299999,5.));
#317 = LINE('',#318,#319);
#318 = CARTESIAN_POINT('',(-276.9248376567,111.71387299999,0.));
#319 = VECTOR('',#320,1.);
#320 = DIRECTION('',(0.,0.,1.));
#321 = ORIENTED_EDGE('',*,*,#322,.T.);
#322 = EDGE_CURVE('',#315,#236,#323,.T.);
#323 = LINE('',#324,#325);
#324 = CARTESIAN_POINT('',(-276.9248376567,111.71387299999,5.));
#325 = VECTOR('',#326,1.);
#326 = DIRECTION('',(0.999994797127,3.22578970393E-03,0.));
#327 = ORIENTED_EDGE('',*,*,#235,.F.);
#328 = ORIENTED_EDGE('',*,*,#80,.F.);
#329 = PLANE('',#330);
#330 = AXIS2_PLACEMENT_3D('',#331,#332,#333);
#331 = CARTESIAN_POINT('',(-276.9248376567,111.71387299999,0.));
#332 = DIRECTION('',(-3.22578970393E-03,0.999994797127,0.));
#333 = DIRECTION('',(0.999994797127,3.22578970393E-03,0.));
#334 = ADVANCED_FACE('',(#335),#354,.T.);
#335 = FACE_BOUND('',#336,.F.);
#336 = EDGE_LOOP('',(#337,#338,#347,#353));
#337 = ORIENTED_EDGE('',*,*,#314,.T.);
#338 = ORIENTED_EDGE('',*,*,#339,.T.);
#339 = EDGE_CURVE('',#315,#340,#342,.T.);
#340 = VERTEX_POINT('',#341);
#341 = CARTESIAN_POINT('',(-276.924995,76.713873000002,5.));
#342 = CIRCLE('',#343,17.500000000352);
#343 = AXIS2_PLACEMENT_3D('',#344,#345,#346);
#344 = CARTESIAN_POINT('',(-276.9248376567,94.213872999646,5.));
#345 = DIRECTION('',(0.,0.,1.));
#346 = DIRECTION('',(1.,0.,0.));
#347 = ORIENTED_EDGE('',*,*,#348,.F.);
#348 = EDGE_CURVE('',#64,#340,#349,.T.);
#349 = LINE('',#350,#351);
#350 = CARTESIAN_POINT('',(-276.924995,76.713873000002,0.));
#351 = VECTOR('',#352,1.);
#352 = DIRECTION('',(0.,0.,1.));
#353 = ORIENTED_EDGE('',*,*,#71,.F.);
#354 = CYLINDRICAL_SURFACE('',#355,17.500000000352);
#355 = AXIS2_PLACEMENT_3D('',#356,#357,#358);
#356 = CARTESIAN_POINT('',(-276.9248376567,94.213872999646,0.));
#357 = DIRECTION('',(-0.,-0.,-1.));
#358 = DIRECTION('',(1.,0.,0.));
#359 = ADVANCED_FACE('',(#360),#394,.T.);
#360 = FACE_BOUND('',#361,.T.);
#361 = EDGE_LOOP('',(#362,#370,#371,#372,#380,#388));
#362 = ORIENTED_EDGE('',*,*,#363,.F.);
#363 = EDGE_CURVE('',#48,#364,#366,.T.);
#364 = VERTEX_POINT('',#365);
#365 = CARTESIAN_POINT('',(-231.924838,76.613873,-44.));
#366 = LINE('',#367,#368);
#367 = CARTESIAN_POINT('',(-231.924838,76.613873,8.));
#368 = VECTOR('',#369,1.);
#369 = DIRECTION('',(0.,0.,-1.));
#370 = ORIENTED_EDGE('',*,*,#47,.T.);
#371 = ORIENTED_EDGE('',*,*,#298,.T.);
#372 = ORIENTED_EDGE('',*,*,#373,.F.);
#373 = EDGE_CURVE('',#374,#291,#376,.T.);
#374 = VERTEX_POINT('',#375);
#375 = CARTESIAN_POINT('',(-224.8537713435,69.54280403274,-50.));
#376 = LINE('',#377,#378);
#377 = CARTESIAN_POINT('',(-231.924838,76.613873,-50.));
#378 = VECTOR('',#379,1.);
#379 = DIRECTION('',(-0.707106665647,0.707106896726,-1.7E-16));
#380 = ORIENTED_EDGE('',*,*,#381,.F.);
#381 = EDGE_CURVE('',#382,#374,#384,.T.);
#382 = VERTEX_POINT('',#383);
#383 = CARTESIAN_POINT('',(-224.8537713435,69.54280403274,-44.));
#384 = LINE('',#385,#386);
#385 = CARTESIAN_POINT('',(-224.8537713435,69.54280403274,-44.));
#386 = VECTOR('',#387,1.);
#387 = DIRECTION('',(0.,0.,-1.));
#388 = ORIENTED_EDGE('',*,*,#389,.F.);
#389 = EDGE_CURVE('',#364,#382,#390,.T.);
#390 = LINE('',#391,#392);
#391 = CARTESIAN_POINT('',(-231.924838,76.613873,-44.));
#392 = VECTOR('',#393,1.);
#393 = DIRECTION('',(0.707106665647,-0.707106896726,1.7E-16));
#394 = PLANE('',#395);
#395 = AXIS2_PLACEMENT_3D('',#396,#397,#398);
#396 = CARTESIAN_POINT('',(-234.1471732348,78.836208961139,
    -28.14285714285));
#397 = DIRECTION('',(-0.707106896726,-0.707106665647,2.E-16));
#398 = DIRECTION('',(0.707106665647,-0.707106896726,1.232595164408E-32)
  );
#399 = ADVANCED_FACE('',(#400),#418,.F.);
#400 = FACE_BOUND('',#401,.F.);
#401 = EDGE_LOOP('',(#402,#403,#411,#417));
#402 = ORIENTED_EDGE('',*,*,#348,.T.);
#403 = ORIENTED_EDGE('',*,*,#404,.T.);
#404 = EDGE_CURVE('',#340,#405,#407,.T.);
#405 = VERTEX_POINT('',#406);
#406 = CARTESIAN_POINT('',(-245.924838,76.613873,5.));
#407 = LINE('',#408,#409);
#408 = CARTESIAN_POINT('',(-276.924995,76.713873000002,5.));
#409 = VECTOR('',#410,1.);
#410 = DIRECTION('',(0.99999479718,-3.225773331401E-03,0.));
#411 = ORIENTED_EDGE('',*,*,#412,.F.);
#412 = EDGE_CURVE('',#56,#405,#413,.T.);
#413 = LINE('',#414,#415);
#414 = CARTESIAN_POINT('',(-245.924838,76.613873,0.));
#415 = VECTOR('',#416,1.);
#416 = DIRECTION('',(0.,0.,1.));
#417 = ORIENTED_EDGE('',*,*,#63,.F.);
#418 = PLANE('',#419);
#419 = AXIS2_PLACEMENT_3D('',#420,#421,#422);
#420 = CARTESIAN_POINT('',(-276.924995,76.713873000002,0.));
#421 = DIRECTION('',(3.225773331401E-03,0.99999479718,0.));
#422 = DIRECTION('',(0.99999479718,-3.225773331401E-03,0.));
#423 = ADVANCED_FACE('',(#424),#466,.T.);
#424 = FACE_BOUND('',#425,.T.);
#425 = EDGE_LOOP('',(#426,#427,#428,#436,#444,#452,#460));
#426 = ORIENTED_EDGE('',*,*,#412,.F.);
#427 = ORIENTED_EDGE('',*,*,#55,.T.);
#428 = ORIENTED_EDGE('',*,*,#429,.T.);
#429 = EDGE_CURVE('',#48,#430,#432,.T.);
#430 = VERTEX_POINT('',#431);
#431 = CARTESIAN_POINT('',(-231.924838,76.613873,2.));
#432 = LINE('',#433,#434);
#433 = CARTESIAN_POINT('',(-231.924838,76.613873,-50.));
#434 = VECTOR('',#435,1.);
#435 = DIRECTION('',(0.,0.,1.));
#436 = ORIENTED_EDGE('',*,*,#437,.T.);
#437 = EDGE_CURVE('',#430,#438,#440,.T.);
#438 = VERTEX_POINT('',#439);
#439 = CARTESIAN_POINT('',(-231.924838,76.613873,8.));
#440 = LINE('',#441,#442);
#441 = CARTESIAN_POINT('',(-231.924838,76.613873,-50.));
#442 = VECTOR('',#443,1.);
#443 = DIRECTION('',(0.,0.,1.));
#444 = ORIENTED_EDGE('',*,*,#445,.F.);
#445 = EDGE_CURVE('',#446,#438,#448,.T.);
#446 = VERTEX_POINT('',#447);
#447 = CARTESIAN_POINT('',(-245.424838,76.613873,8.));
#448 = LINE('',#449,#450);
#449 = CARTESIAN_POINT('',(-245.424838,76.613873,8.));
#450 = VECTOR('',#451,1.);
#451 = DIRECTION('',(1.,0.,0.));
#452 = ORIENTED_EDGE('',*,*,#453,.T.);
#453 = EDGE_CURVE('',#446,#454,#456,.T.);
#454 = VERTEX_POINT('',#455);
#455 = CARTESIAN_POINT('',(-245.424838,76.613873,5.));
#456 = LINE('',#457,#458);
#457 = CARTESIAN_POINT('',(-245.424838,76.613873,8.));
#458 = VECTOR('',#459,1.);
#459 = DIRECTION('',(-0.,-0.,-1.));
#460 = ORIENTED_EDGE('',*,*,#461,.F.);
#461 = EDGE_CURVE('',#405,#454,#462,.T.);
#462 = LINE('',#463,#464);
#463 = CARTESIAN_POINT('',(-245.924838,76.613873,5.));
#464 = VECTOR('',#465,1.);
#465 = DIRECTION('',(1.,0.,0.));
#466 = PLANE('',#467);
#467 = AXIS2_PLACEMENT_3D('',#468,#469,#470);
#468 = CARTESIAN_POINT('',(-226.5645438823,76.613873,-17.57598039215));
#469 = DIRECTION('',(-5.6E-16,-1.,-0.));
#470 = DIRECTION('',(-1.,5.6E-16,0.));
#471 = ADVANCED_FACE('',(#472),#491,.F.);
#472 = FACE_BOUND('',#473,.T.);
#473 = EDGE_LOOP('',(#474,#482,#489,#490));
#474 = ORIENTED_EDGE('',*,*,#475,.T.);
#475 = EDGE_CURVE('',#97,#476,#478,.T.);
#476 = VERTEX_POINT('',#477);
#477 = CARTESIAN_POINT('',(-247.824838,85.41865,5.));
#478 = LINE('',#479,#480);
#479 = CARTESIAN_POINT('',(-247.824838,85.41865,0.));
#480 = VECTOR('',#481,1.);
#481 = DIRECTION('',(0.,0.,1.));
#482 = ORIENTED_EDGE('',*,*,#483,.T.);
#483 = EDGE_CURVE('',#476,#476,#484,.T.);
#484 = CIRCLE('',#485,1.1);
#485 = AXIS2_PLACEMENT_3D('',#486,#487,#488);
#486 = CARTESIAN_POINT('',(-248.924838,85.41865,5.));
#487 = DIRECTION('',(0.,0.,1.));
#488 = DIRECTION('',(1.,0.,0.));
#489 = ORIENTED_EDGE('',*,*,#475,.F.);
#490 = ORIENTED_EDGE('',*,*,#96,.F.);
#491 = CYLINDRICAL_SURFACE('',#492,1.1);
#492 = AXIS2_PLACEMENT_3D('',#493,#494,#495);
#493 = CARTESIAN_POINT('',(-248.924838,85.41865,0.));
#494 = DIRECTION('',(-0.,-0.,-1.));
#495 = DIRECTION('',(1.,0.,0.));
#496 = ADVANCED_FACE('',(#497),#516,.F.);
#497 = FACE_BOUND('',#498,.T.);
#498 = EDGE_LOOP('',(#499,#500,#508,#515));
#499 = ORIENTED_EDGE('',*,*,#107,.F.);
#500 = ORIENTED_EDGE('',*,*,#501,.T.);
#501 = EDGE_CURVE('',#108,#502,#504,.T.);
#502 = VERTEX_POINT('',#503);
#503 = CARTESIAN_POINT('',(-275.824838,86.963873,2.25));
#504 = LINE('',#505,#506);
#505 = CARTESIAN_POINT('',(-275.824838,86.963873,0.));
#506 = VECTOR('',#507,1.);
#507 = DIRECTION('',(0.,0.,1.));
#508 = ORIENTED_EDGE('',*,*,#509,.F.);
#509 = EDGE_CURVE('',#502,#502,#510,.T.);
#510 = CIRCLE('',#511,1.1);
#511 = AXIS2_PLACEMENT_3D('',#512,#513,#514);
#512 = CARTESIAN_POINT('',(-276.924838,86.963873,2.25));
#513 = DIRECTION('',(0.,0.,-1.));
#514 = DIRECTION('',(1.,0.,0.));
#515 = ORIENTED_EDGE('',*,*,#501,.F.);
#516 = CYLINDRICAL_SURFACE('',#517,1.1);
#517 = AXIS2_PLACEMENT_3D('',#518,#519,#520);
#518 = CARTESIAN_POINT('',(-276.924838,86.963873,0.));
#519 = DIRECTION('',(-0.,-0.,-1.));
#520 = DIRECTION('',(1.,0.,0.));
#521 = ADVANCED_FACE('',(#522),#541,.F.);
#522 = FACE_BOUND('',#523,.T.);
#523 = EDGE_LOOP('',(#524,#532,#539,#540));
#524 = ORIENTED_EDGE('',*,*,#525,.T.);
#525 = EDGE_CURVE('',#119,#526,#528,.T.);
#526 = VERTEX_POINT('',#527);
#527 = CARTESIAN_POINT('',(-247.824838,103.009027,5.));
#528 = LINE('',#529,#530);
#529 = CARTESIAN_POINT('',(-247.824838,103.009027,0.));
#530 = VECTOR('',#531,1.);
#531 = DIRECTION('',(0.,0.,1.));
#532 = ORIENTED_EDGE('',*,*,#533,.T.);
#533 = EDGE_CURVE('',#526,#526,#534,.T.);
#534 = CIRCLE('',#535,1.1);
#535 = AXIS2_PLACEMENT_3D('',#536,#537,#538);
#536 = CARTESIAN_POINT('',(-248.924838,103.009027,5.));
#537 = DIRECTION('',(0.,0.,1.));
#538 = DIRECTION('',(1.,0.,0.));
#539 = ORIENTED_EDGE('',*,*,#525,.F.);
#540 = ORIENTED_EDGE('',*,*,#118,.F.);
#541 = CYLINDRICAL_SURFACE('',#542,1.1);
#542 = AXIS2_PLACEMENT_3D('',#543,#544,#545);
#543 = CARTESIAN_POINT('',(-248.924838,103.009027,0.));
#544 = DIRECTION('',(-0.,-0.,-1.));
#545 = DIRECTION('',(1.,0.,0.));
#546 = ADVANCED_FACE('',(#547),#566,.F.);
#547 = FACE_BOUND('',#548,.T.);
#548 = EDGE_LOOP('',(#549,#550,#558,#565));
#549 = ORIENTED_EDGE('',*,*,#129,.F.);
#550 = ORIENTED_EDGE('',*,*,#551,.T.);
#551 = EDGE_CURVE('',#130,#552,#554,.T.);
#552 = VERTEX_POINT('',#553);
#553 = CARTESIAN_POINT('',(-268.574838,94.213873,2.25));
#554 = LINE('',#555,#556);
#555 = CARTESIAN_POINT('',(-268.574838,94.213873,0.));
#556 = VECTOR('',#557,1.);
#557 = DIRECTION('',(0.,0.,1.));
#558 = ORIENTED_EDGE('',*,*,#559,.F.);
#559 = EDGE_CURVE('',#552,#552,#560,.T.);
#560 = CIRCLE('',#561,1.1);
#561 = AXIS2_PLACEMENT_3D('',#562,#563,#564);
#562 = CARTESIAN_POINT('',(-269.674838,94.213873,2.25));
#563 = DIRECTION('',(0.,0.,-1.));
#564 = DIRECTION('',(1.,0.,0.));
#565 = ORIENTED_EDGE('',*,*,#551,.F.);
#566 = CYLINDRICAL_SURFACE('',#567,1.1);
#567 = AXIS2_PLACEMENT_3D('',#568,#569,#570);
#568 = CARTESIAN_POINT('',(-269.674838,94.213873,0.));
#569 = DIRECTION('',(-0.,-0.,-1.));
#570 = DIRECTION('',(1.,0.,0.));
#571 = ADVANCED_FACE('',(#572),#591,.F.);
#572 = FACE_BOUND('',#573,.F.);
#573 = EDGE_LOOP('',(#574,#583,#589,#590));
#574 = ORIENTED_EDGE('',*,*,#575,.F.);
#575 = EDGE_CURVE('',#576,#576,#578,.T.);
#576 = VERTEX_POINT('',#577);
#577 = CARTESIAN_POINT('',(-272.5498376567,94.213872999646,2.25));
#578 = CIRCLE('',#579,4.375);
#579 = AXIS2_PLACEMENT_3D('',#580,#581,#582);
#580 = CARTESIAN_POINT('',(-276.9248376567,94.213872999646,2.25));
#581 = DIRECTION('',(0.,0.,1.));
#582 = DIRECTION('',(1.,0.,0.));
#583 = ORIENTED_EDGE('',*,*,#584,.T.);
#584 = EDGE_CURVE('',#576,#141,#585,.T.);
#585 = LINE('',#586,#587);
#586 = CARTESIAN_POINT('',(-272.5498376567,94.213872999646,2.25));
#587 = VECTOR('',#588,1.);
#588 = DIRECTION('',(-0.,-0.,-1.));
#589 = ORIENTED_EDGE('',*,*,#140,.T.);
#590 = ORIENTED_EDGE('',*,*,#584,.F.);
#591 = CYLINDRICAL_SURFACE('',#592,4.375);
#592 = AXIS2_PLACEMENT_3D('',#593,#594,#595);
#593 = CARTESIAN_POINT('',(-276.9248376567,94.213872999646,2.25));
#594 = DIRECTION('',(0.,0.,1.));
#595 = DIRECTION('',(1.,0.,0.));
#596 = ADVANCED_FACE('',(#597),#616,.F.);
#597 = FACE_BOUND('',#598,.T.);
#598 = EDGE_LOOP('',(#599,#600,#608,#615));
#599 = ORIENTED_EDGE('',*,*,#151,.F.);
#600 = ORIENTED_EDGE('',*,*,#601,.T.);
#601 = EDGE_CURVE('',#152,#602,#604,.T.);
#602 = VERTEX_POINT('',#603);
#603 = CARTESIAN_POINT('',(-283.074838,94.213873,2.25));
#604 = LINE('',#605,#606);
#605 = CARTESIAN_POINT('',(-283.074838,94.213873,0.));
#606 = VECTOR('',#607,1.);
#607 = DIRECTION('',(0.,0.,1.));
#608 = ORIENTED_EDGE('',*,*,#609,.F.);
#609 = EDGE_CURVE('',#602,#602,#610,.T.);
#610 = CIRCLE('',#611,1.1);
#611 = AXIS2_PLACEMENT_3D('',#612,#613,#614);
#612 = CARTESIAN_POINT('',(-284.174838,94.213873,2.25));
#613 = DIRECTION('',(0.,0.,-1.));
#614 = DIRECTION('',(1.,0.,0.));
#615 = ORIENTED_EDGE('',*,*,#601,.F.);
#616 = CYLINDRICAL_SURFACE('',#617,1.1);
#617 = AXIS2_PLACEMENT_3D('',#618,#619,#620);
#618 = CARTESIAN_POINT('',(-284.174838,94.213873,0.));
#619 = DIRECTION('',(-0.,-0.,-1.));
#620 = DIRECTION('',(1.,0.,0.));
#621 = ADVANCED_FACE('',(#622),#641,.F.);
#622 = FACE_BOUND('',#623,.T.);
#623 = EDGE_LOOP('',(#624,#625,#633,#640));
#624 = ORIENTED_EDGE('',*,*,#162,.F.);
#625 = ORIENTED_EDGE('',*,*,#626,.T.);
#626 = EDGE_CURVE('',#163,#627,#629,.T.);
#627 = VERTEX_POINT('',#628);
#628 = CARTESIAN_POINT('',(-275.824838,101.463873,2.25));
#629 = LINE('',#630,#631);
#630 = CARTESIAN_POINT('',(-275.824838,101.463873,0.));
#631 = VECTOR('',#632,1.);
#632 = DIRECTION('',(0.,0.,1.));
#633 = ORIENTED_EDGE('',*,*,#634,.F.);
#634 = EDGE_CURVE('',#627,#627,#635,.T.);
#635 = CIRCLE('',#636,1.1);
#636 = AXIS2_PLACEMENT_3D('',#637,#638,#639);
#637 = CARTESIAN_POINT('',(-276.924838,101.463873,2.25));
#638 = DIRECTION('',(0.,0.,-1.));
#639 = DIRECTION('',(1.,0.,0.));
#640 = ORIENTED_EDGE('',*,*,#626,.F.);
#641 = CYLINDRICAL_SURFACE('',#642,1.1);
#642 = AXIS2_PLACEMENT_3D('',#643,#644,#645);
#643 = CARTESIAN_POINT('',(-276.924838,101.463873,0.));
#644 = DIRECTION('',(-0.,-0.,-1.));
#645 = DIRECTION('',(1.,0.,0.));
#646 = ADVANCED_FACE('',(#647,#682,#693,#704,#715),#726,.T.);
#647 = FACE_BOUND('',#648,.T.);
#648 = EDGE_LOOP('',(#649,#650,#651,#652,#653,#659,#660,#668,#676));
#649 = ORIENTED_EDGE('',*,*,#274,.T.);
#650 = ORIENTED_EDGE('',*,*,#210,.F.);
#651 = ORIENTED_EDGE('',*,*,#179,.F.);
#652 = ORIENTED_EDGE('',*,*,#259,.F.);
#653 = ORIENTED_EDGE('',*,*,#654,.T.);
#654 = EDGE_CURVE('',#252,#446,#655,.T.);
#655 = LINE('',#656,#657);
#656 = CARTESIAN_POINT('',(-245.424838,111.813873,8.));
#657 = VECTOR('',#658,1.);
#658 = DIRECTION('',(0.,-1.,0.));
#659 = ORIENTED_EDGE('',*,*,#445,.T.);
#660 = ORIENTED_EDGE('',*,*,#661,.T.);
#661 = EDGE_CURVE('',#438,#662,#664,.T.);
#662 = VERTEX_POINT('',#663);
#663 = CARTESIAN_POINT('',(-224.8537713435,69.54280403274,8.));
#664 = LINE('',#665,#666);
#665 = CARTESIAN_POINT('',(-231.924838,76.613873,8.));
#666 = VECTOR('',#667,1.);
#667 = DIRECTION('',(0.707106665647,-0.707106896726,1.7E-16));
#668 = ORIENTED_EDGE('',*,*,#669,.F.);
#669 = EDGE_CURVE('',#670,#662,#672,.T.);
#670 = VERTEX_POINT('',#671);
#671 = CARTESIAN_POINT('',(-199.9636085787,94.432958663518,8.));
#672 = LINE('',#673,#674);
#673 = CARTESIAN_POINT('',(-199.9636085787,94.432958663518,8.));
#674 = VECTOR('',#675,1.);
#675 = DIRECTION('',(-0.707106896726,-0.707106665647,0.));
#676 = ORIENTED_EDGE('',*,*,#677,.F.);
#677 = EDGE_CURVE('',#275,#670,#678,.T.);
#678 = LINE('',#679,#680);
#679 = CARTESIAN_POINT('',(-207.0346752352,101.50402763077,8.));
#680 = VECTOR('',#681,1.);
#681 = DIRECTION('',(0.707106665647,-0.707106896726,1.7E-16));
#682 = FACE_BOUND('',#683,.T.);
#683 = EDGE_LOOP('',(#684));
#684 = ORIENTED_EDGE('',*,*,#685,.T.);
#685 = EDGE_CURVE('',#686,#686,#688,.T.);
#686 = VERTEX_POINT('',#687);
#687 = CARTESIAN_POINT('',(-220.7667640761,79.300877095217,8.));
#688 = CIRCLE('',#689,1.4);
#689 = AXIS2_PLACEMENT_3D('',#690,#691,#692);
#690 = CARTESIAN_POINT('',(-222.1667640761,79.300877095217,8.));
#691 = DIRECTION('',(0.,0.,-1.));
#692 = DIRECTION('',(1.,0.,0.));
#693 = FACE_BOUND('',#694,.T.);
#694 = EDGE_LOOP('',(#695));
#695 = ORIENTED_EDGE('',*,*,#696,.T.);
#696 = EDGE_CURVE('',#697,#697,#699,.T.);
#697 = VERTEX_POINT('',#698);
#698 = CARTESIAN_POINT('',(-227.8378307326,86.371946062477,8.));
#699 = CIRCLE('',#700,1.4);
#700 = AXIS2_PLACEMENT_3D('',#701,#702,#703);
#701 = CARTESIAN_POINT('',(-229.2378307326,86.371946062477,8.));
#702 = DIRECTION('',(0.,0.,-1.));
#703 = DIRECTION('',(1.,0.,0.));
#704 = FACE_BOUND('',#705,.T.);
#705 = EDGE_LOOP('',(#706));
#706 = ORIENTED_EDGE('',*,*,#707,.T.);
#707 = EDGE_CURVE('',#708,#708,#710,.T.);
#708 = VERTEX_POINT('',#709);
#709 = CARTESIAN_POINT('',(-208.3216826349,91.745954502912,8.));
#710 = CIRCLE('',#711,1.4);
#711 = AXIS2_PLACEMENT_3D('',#712,#713,#714);
#712 = CARTESIAN_POINT('',(-209.7216826349,91.745954502912,8.));
#713 = DIRECTION('',(0.,0.,-1.));
#714 = DIRECTION('',(1.,0.,0.));
#715 = FACE_BOUND('',#716,.T.);
#716 = EDGE_LOOP('',(#717));
#717 = ORIENTED_EDGE('',*,*,#718,.T.);
#718 = EDGE_CURVE('',#719,#719,#721,.T.);
#719 = VERTEX_POINT('',#720);
#720 = CARTESIAN_POINT('',(-215.3927492914,98.817023470171,8.));
#721 = CIRCLE('',#722,1.4);
#722 = AXIS2_PLACEMENT_3D('',#723,#724,#725);
#723 = CARTESIAN_POINT('',(-216.7927492914,98.817023470171,8.));
#724 = DIRECTION('',(0.,0.,-1.));
#725 = DIRECTION('',(1.,0.,0.));
#726 = PLANE('',#727);
#727 = AXIS2_PLACEMENT_3D('',#728,#729,#730);
#728 = CARTESIAN_POINT('',(-226.9452761315,92.793238348487,8.));
#729 = DIRECTION('',(0.,0.,1.));
#730 = DIRECTION('',(1.,0.,0.));
#731 = ADVANCED_FACE('',(#732),#743,.T.);
#732 = FACE_BOUND('',#733,.T.);
#733 = EDGE_LOOP('',(#734,#735,#736,#742));
#734 = ORIENTED_EDGE('',*,*,#654,.F.);
#735 = ORIENTED_EDGE('',*,*,#251,.T.);
#736 = ORIENTED_EDGE('',*,*,#737,.T.);
#737 = EDGE_CURVE('',#244,#454,#738,.T.);
#738 = LINE('',#739,#740);
#739 = CARTESIAN_POINT('',(-245.424838,111.813873,5.));
#740 = VECTOR('',#741,1.);
#741 = DIRECTION('',(0.,-1.,0.));
#742 = ORIENTED_EDGE('',*,*,#453,.F.);
#743 = PLANE('',#744);
#744 = AXIS2_PLACEMENT_3D('',#745,#746,#747);
#745 = CARTESIAN_POINT('',(-245.424838,111.813873,8.));
#746 = DIRECTION('',(-1.,0.,0.));
#747 = DIRECTION('',(0.,-1.,0.));
#748 = ADVANCED_FACE('',(#749,#757,#768,#771),#774,.T.);
#749 = FACE_BOUND('',#750,.T.);
#750 = EDGE_LOOP('',(#751,#752,#753,#754,#755,#756));
#751 = ORIENTED_EDGE('',*,*,#322,.F.);
#752 = ORIENTED_EDGE('',*,*,#339,.T.);
#753 = ORIENTED_EDGE('',*,*,#404,.T.);
#754 = ORIENTED_EDGE('',*,*,#461,.T.);
#755 = ORIENTED_EDGE('',*,*,#737,.F.);
#756 = ORIENTED_EDGE('',*,*,#243,.F.);
#757 = FACE_BOUND('',#758,.T.);
#758 = EDGE_LOOP('',(#759));
#759 = ORIENTED_EDGE('',*,*,#760,.F.);
#760 = EDGE_CURVE('',#761,#761,#763,.T.);
#761 = VERTEX_POINT('',#762);
#762 = CARTESIAN_POINT('',(-266.1748376567,94.213872999646,5.));
#763 = CIRCLE('',#764,10.75);
#764 = AXIS2_PLACEMENT_3D('',#765,#766,#767);
#765 = CARTESIAN_POINT('',(-276.9248376567,94.213872999646,5.));
#766 = DIRECTION('',(0.,0.,1.));
#767 = DIRECTION('',(1.,0.,0.));
#768 = FACE_BOUND('',#769,.T.);
#769 = EDGE_LOOP('',(#770));
#770 = ORIENTED_EDGE('',*,*,#483,.F.);
#771 = FACE_BOUND('',#772,.T.);
#772 = EDGE_LOOP('',(#773));
#773 = ORIENTED_EDGE('',*,*,#533,.F.);
#774 = PLANE('',#775);
#775 = AXIS2_PLACEMENT_3D('',#776,#777,#778);
#776 = CARTESIAN_POINT('',(-266.5027383004,94.213870499878,5.));
#777 = DIRECTION('',(0.,0.,1.));
#778 = DIRECTION('',(1.,0.,0.));
#779 = ADVANCED_FACE('',(#780),#830,.T.);
#780 = FACE_BOUND('',#781,.T.);
#781 = EDGE_LOOP('',(#782,#783,#784,#792,#800,#808,#816,#824));
#782 = ORIENTED_EDGE('',*,*,#282,.T.);
#783 = ORIENTED_EDGE('',*,*,#677,.T.);
#784 = ORIENTED_EDGE('',*,*,#785,.F.);
#785 = EDGE_CURVE('',#786,#670,#788,.T.);
#786 = VERTEX_POINT('',#787);
#787 = CARTESIAN_POINT('',(-199.9636085787,94.432958663518,2.));
#788 = LINE('',#789,#790);
#789 = CARTESIAN_POINT('',(-199.9636085787,94.432958663518,2.));
#790 = VECTOR('',#791,1.);
#791 = DIRECTION('',(0.,0.,1.));
#792 = ORIENTED_EDGE('',*,*,#793,.F.);
#793 = EDGE_CURVE('',#794,#786,#796,.T.);
#794 = VERTEX_POINT('',#795);
#795 = CARTESIAN_POINT('',(-207.0346752352,101.50402763077,2.));
#796 = LINE('',#797,#798);
#797 = CARTESIAN_POINT('',(-207.0346752352,101.50402763077,2.));
#798 = VECTOR('',#799,1.);
#799 = DIRECTION('',(0.707106665647,-0.707106896726,1.7E-16));
#800 = ORIENTED_EDGE('',*,*,#801,.T.);
#801 = EDGE_CURVE('',#794,#802,#804,.T.);
#802 = VERTEX_POINT('',#803);
#803 = CARTESIAN_POINT('',(-207.0346752352,101.50402763077,-44.));
#804 = LINE('',#805,#806);
#805 = CARTESIAN_POINT('',(-207.0346752352,101.50402763077,8.));
#806 = VECTOR('',#807,1.);
#807 = DIRECTION('',(-0.,-0.,-1.));
#808 = ORIENTED_EDGE('',*,*,#809,.T.);
#809 = EDGE_CURVE('',#802,#810,#812,.T.);
#810 = VERTEX_POINT('',#811);
#811 = CARTESIAN_POINT('',(-199.9636085787,94.432958663518,-44.));
#812 = LINE('',#813,#814);
#813 = CARTESIAN_POINT('',(-207.0346752352,101.50402763077,-44.));
#814 = VECTOR('',#815,1.);
#815 = DIRECTION('',(0.707106665647,-0.707106896726,1.7E-16));
#816 = ORIENTED_EDGE('',*,*,#817,.F.);
#817 = EDGE_CURVE('',#818,#810,#820,.T.);
#818 = VERTEX_POINT('',#819);
#819 = CARTESIAN_POINT('',(-199.9636085787,94.432958663518,-50.));
#820 = LINE('',#821,#822);
#821 = CARTESIAN_POINT('',(-199.9636085787,94.432958663518,-50.));
#822 = VECTOR('',#823,1.);
#823 = DIRECTION('',(0.,0.,1.));
#824 = ORIENTED_EDGE('',*,*,#825,.F.);
#825 = EDGE_CURVE('',#283,#818,#826,.T.);
#826 = LINE('',#827,#828);
#827 = CARTESIAN_POINT('',(-207.0346752352,101.50402763077,-50.));
#828 = VECTOR('',#829,1.);
#829 = DIRECTION('',(0.707106665647,-0.707106896726,1.7E-16));
#830 = PLANE('',#831);
#831 = AXIS2_PLACEMENT_3D('',#832,#833,#834);
#832 = CARTESIAN_POINT('',(-208.4810297786,102.9503826468,-21.));
#833 = DIRECTION('',(0.707106896726,0.707106665647,4.E-16));
#834 = DIRECTION('',(-0.707106665647,0.707106896726,-2.465190328816E-32)
  );
#835 = ADVANCED_FACE('',(#836,#847,#858,#869,#880),#891,.T.);
#836 = FACE_BOUND('',#837,.T.);
#837 = EDGE_LOOP('',(#838,#839,#840,#841));
#838 = ORIENTED_EDGE('',*,*,#373,.T.);
#839 = ORIENTED_EDGE('',*,*,#290,.T.);
#840 = ORIENTED_EDGE('',*,*,#825,.T.);
#841 = ORIENTED_EDGE('',*,*,#842,.F.);
#842 = EDGE_CURVE('',#374,#818,#843,.T.);
#843 = LINE('',#844,#845);
#844 = CARTESIAN_POINT('',(-224.8537713435,69.54280403274,-50.));
#845 = VECTOR('',#846,1.);
#846 = DIRECTION('',(0.707106896726,0.707106665647,0.));
#847 = FACE_BOUND('',#848,.T.);
#848 = EDGE_LOOP('',(#849));
#849 = ORIENTED_EDGE('',*,*,#850,.F.);
#850 = EDGE_CURVE('',#851,#851,#853,.T.);
#851 = VERTEX_POINT('',#852);
#852 = CARTESIAN_POINT('',(-208.3216826349,91.745954502912,-50.));
#853 = CIRCLE('',#854,1.4);
#854 = AXIS2_PLACEMENT_3D('',#855,#856,#857);
#855 = CARTESIAN_POINT('',(-209.7216826349,91.745954502912,-50.));
#856 = DIRECTION('',(0.,0.,-1.));
#857 = DIRECTION('',(1.,0.,0.));
#858 = FACE_BOUND('',#859,.T.);
#859 = EDGE_LOOP('',(#860));
#860 = ORIENTED_EDGE('',*,*,#861,.F.);
#861 = EDGE_CURVE('',#862,#862,#864,.T.);
#862 = VERTEX_POINT('',#863);
#863 = CARTESIAN_POINT('',(-215.3927492914,98.817023470171,-50.));
#864 = CIRCLE('',#865,1.4);
#865 = AXIS2_PLACEMENT_3D('',#866,#867,#868);
#866 = CARTESIAN_POINT('',(-216.7927492914,98.817023470171,-50.));
#867 = DIRECTION('',(0.,0.,-1.));
#868 = DIRECTION('',(1.,0.,0.));
#869 = FACE_BOUND('',#870,.T.);
#870 = EDGE_LOOP('',(#871));
#871 = ORIENTED_EDGE('',*,*,#872,.F.);
#872 = EDGE_CURVE('',#873,#873,#875,.T.);
#873 = VERTEX_POINT('',#874);
#874 = CARTESIAN_POINT('',(-220.7667640761,79.300877095217,-50.));
#875 = CIRCLE('',#876,1.4);
#876 = AXIS2_PLACEMENT_3D('',#877,#878,#879);
#877 = CARTESIAN_POINT('',(-222.1667640761,79.300877095217,-50.));
#878 = DIRECTION('',(0.,0.,-1.));
#879 = DIRECTION('',(1.,0.,0.));
#880 = FACE_BOUND('',#881,.T.);
#881 = EDGE_LOOP('',(#882));
#882 = ORIENTED_EDGE('',*,*,#883,.F.);
#883 = EDGE_CURVE('',#884,#884,#886,.T.);
#884 = VERTEX_POINT('',#885);
#885 = CARTESIAN_POINT('',(-227.8378307326,86.371946062477,-50.));
#886 = CIRCLE('',#887,1.4);
#887 = AXIS2_PLACEMENT_3D('',#888,#889,#890);
#888 = CARTESIAN_POINT('',(-229.2378307326,86.371946062477,-50.));
#889 = DIRECTION('',(0.,0.,-1.));
#890 = DIRECTION('',(1.,0.,0.));
#891 = PLANE('',#892);
#892 = AXIS2_PLACEMENT_3D('',#893,#894,#895);
#893 = CARTESIAN_POINT('',(-219.4797566176,89.058950315389,-50.));
#894 = DIRECTION('',(2.5E-16,-2.5E-16,-1.));
#895 = DIRECTION('',(0.,-1.,2.5E-16));
#896 = ADVANCED_FACE('',(#897),#914,.T.);
#897 = FACE_BOUND('',#898,.T.);
#898 = EDGE_LOOP('',(#899,#900,#901,#907,#908));
#899 = ORIENTED_EDGE('',*,*,#429,.F.);
#900 = ORIENTED_EDGE('',*,*,#363,.T.);
#901 = ORIENTED_EDGE('',*,*,#902,.F.);
#902 = EDGE_CURVE('',#802,#364,#903,.T.);
#903 = LINE('',#904,#905);
#904 = CARTESIAN_POINT('',(-207.0346752352,101.50402763077,-44.));
#905 = VECTOR('',#906,1.);
#906 = DIRECTION('',(-0.707106896726,-0.707106665647,0.));
#907 = ORIENTED_EDGE('',*,*,#801,.F.);
#908 = ORIENTED_EDGE('',*,*,#909,.F.);
#909 = EDGE_CURVE('',#430,#794,#910,.T.);
#910 = LINE('',#911,#912);
#911 = CARTESIAN_POINT('',(-231.924838,76.613873,2.));
#912 = VECTOR('',#913,1.);
#913 = DIRECTION('',(0.707106896726,0.707106665647,0.));
#914 = PLANE('',#915);
#915 = AXIS2_PLACEMENT_3D('',#916,#917,#918);
#916 = CARTESIAN_POINT('',(-219.4797566176,89.058950315389,-21.));
#917 = DIRECTION('',(0.707106665647,-0.707106896726,2.E-16));
#918 = DIRECTION('',(-0.707106896726,-0.707106665647,-1.232595164408E-32
    ));
#919 = ADVANCED_FACE('',(#920),#931,.F.);
#920 = FACE_BOUND('',#921,.T.);
#921 = EDGE_LOOP('',(#922,#923,#924,#930));
#922 = ORIENTED_EDGE('',*,*,#842,.T.);
#923 = ORIENTED_EDGE('',*,*,#817,.T.);
#924 = ORIENTED_EDGE('',*,*,#925,.T.);
#925 = EDGE_CURVE('',#810,#382,#926,.T.);
#926 = LINE('',#927,#928);
#927 = CARTESIAN_POINT('',(-199.9636085787,94.432958663518,-44.));
#928 = VECTOR('',#929,1.);
#929 = DIRECTION('',(-0.707106896726,-0.707106665647,0.));
#930 = ORIENTED_EDGE('',*,*,#381,.T.);
#931 = PLANE('',#932);
#932 = AXIS2_PLACEMENT_3D('',#933,#934,#935);
#933 = CARTESIAN_POINT('',(-212.4086899611,81.987881348129,-21.));
#934 = DIRECTION('',(-0.707106665647,0.707106896726,0.));
#935 = DIRECTION('',(0.707106896726,0.707106665647,0.));
#936 = ADVANCED_FACE('',(#937,#943,#954),#965,.F.);
#937 = FACE_BOUND('',#938,.F.);
#938 = EDGE_LOOP('',(#939,#940,#941,#942));
#939 = ORIENTED_EDGE('',*,*,#809,.T.);
#940 = ORIENTED_EDGE('',*,*,#925,.T.);
#941 = ORIENTED_EDGE('',*,*,#389,.F.);
#942 = ORIENTED_EDGE('',*,*,#902,.F.);
#943 = FACE_BOUND('',#944,.F.);
#944 = EDGE_LOOP('',(#945));
#945 = ORIENTED_EDGE('',*,*,#946,.F.);
#946 = EDGE_CURVE('',#947,#947,#949,.T.);
#947 = VERTEX_POINT('',#948);
#948 = CARTESIAN_POINT('',(-220.7667640761,79.300877095217,-44.));
#949 = CIRCLE('',#950,1.4);
#950 = AXIS2_PLACEMENT_3D('',#951,#952,#953);
#951 = CARTESIAN_POINT('',(-222.1667640761,79.300877095217,-44.));
#952 = DIRECTION('',(0.,0.,-1.));
#953 = DIRECTION('',(1.,0.,0.));
#954 = FACE_BOUND('',#955,.F.);
#955 = EDGE_LOOP('',(#956));
#956 = ORIENTED_EDGE('',*,*,#957,.F.);
#957 = EDGE_CURVE('',#958,#958,#960,.T.);
#958 = VERTEX_POINT('',#959);
#959 = CARTESIAN_POINT('',(-208.3216826349,91.745954502912,-44.));
#960 = CIRCLE('',#961,1.4);
#961 = AXIS2_PLACEMENT_3D('',#962,#963,#964);
#962 = CARTESIAN_POINT('',(-209.7216826349,91.745954502912,-44.));
#963 = DIRECTION('',(0.,0.,-1.));
#964 = DIRECTION('',(1.,0.,0.));
#965 = PLANE('',#966);
#966 = AXIS2_PLACEMENT_3D('',#967,#968,#969);
#967 = CARTESIAN_POINT('',(-207.0346752352,101.50402763077,-44.));
#968 = DIRECTION('',(8.E-17,-1.6E-16,-1.));
#969 = DIRECTION('',(-0.707106896726,-0.707106665647,5.656851476546E-17)
  );
#970 = ADVANCED_FACE('',(#971),#989,.F.);
#971 = FACE_BOUND('',#972,.F.);
#972 = EDGE_LOOP('',(#973,#974,#982,#988));
#973 = ORIENTED_EDGE('',*,*,#661,.T.);
#974 = ORIENTED_EDGE('',*,*,#975,.T.);
#975 = EDGE_CURVE('',#662,#976,#978,.T.);
#976 = VERTEX_POINT('',#977);
#977 = CARTESIAN_POINT('',(-224.8537713435,69.54280403274,2.));
#978 = LINE('',#979,#980);
#979 = CARTESIAN_POINT('',(-224.8537713435,69.54280403274,8.));
#980 = VECTOR('',#981,1.);
#981 = DIRECTION('',(0.,0.,-1.));
#982 = ORIENTED_EDGE('',*,*,#983,.F.);
#983 = EDGE_CURVE('',#430,#976,#984,.T.);
#984 = LINE('',#985,#986);
#985 = CARTESIAN_POINT('',(-231.924838,76.613873,2.));
#986 = VECTOR('',#987,1.);
#987 = DIRECTION('',(0.707106665647,-0.707106896726,1.7E-16));
#988 = ORIENTED_EDGE('',*,*,#437,.T.);
#989 = PLANE('',#990);
#990 = AXIS2_PLACEMENT_3D('',#991,#992,#993);
#991 = CARTESIAN_POINT('',(-231.924838,76.613873,8.));
#992 = DIRECTION('',(0.707106896726,0.707106665647,-6.E-17));
#993 = DIRECTION('',(9.757356985669E-17,-1.824264293504E-16,-1.));
#994 = ADVANCED_FACE('',(#995,#1006,#1009,#1012,#1015,#1018),#1021,.T.);
#995 = FACE_BOUND('',#996,.T.);
#996 = EDGE_LOOP('',(#997));
#997 = ORIENTED_EDGE('',*,*,#998,.T.);
#998 = EDGE_CURVE('',#999,#999,#1001,.T.);
#999 = VERTEX_POINT('',#1000);
#1000 = CARTESIAN_POINT('',(-266.1748376567,94.213872999646,2.25));
#1001 = CIRCLE('',#1002,10.75);
#1002 = AXIS2_PLACEMENT_3D('',#1003,#1004,#1005);
#1003 = CARTESIAN_POINT('',(-276.9248376567,94.213872999646,2.25));
#1004 = DIRECTION('',(0.,0.,1.));
#1005 = DIRECTION('',(1.,0.,0.));
#1006 = FACE_BOUND('',#1007,.T.);
#1007 = EDGE_LOOP('',(#1008));
#1008 = ORIENTED_EDGE('',*,*,#509,.T.);
#1009 = FACE_BOUND('',#1010,.T.);
#1010 = EDGE_LOOP('',(#1011));
#1011 = ORIENTED_EDGE('',*,*,#575,.F.);
#1012 = FACE_BOUND('',#1013,.T.);
#1013 = EDGE_LOOP('',(#1014));
#1014 = ORIENTED_EDGE('',*,*,#609,.T.);
#1015 = FACE_BOUND('',#1016,.T.);
#1016 = EDGE_LOOP('',(#1017));
#1017 = ORIENTED_EDGE('',*,*,#559,.T.);
#1018 = FACE_BOUND('',#1019,.T.);
#1019 = EDGE_LOOP('',(#1020));
#1020 = ORIENTED_EDGE('',*,*,#634,.T.);
#1021 = PLANE('',#1022);
#1022 = AXIS2_PLACEMENT_3D('',#1023,#1024,#1025);
#1023 = CARTESIAN_POINT('',(-276.9248376567,94.213872999646,2.25));
#1024 = DIRECTION('',(0.,0.,1.));
#1025 = DIRECTION('',(1.,0.,0.));
#1026 = ADVANCED_FACE('',(#1027),#1038,.F.);
#1027 = FACE_BOUND('',#1028,.T.);
#1028 = EDGE_LOOP('',(#1029,#1030,#1036,#1037));
#1029 = ORIENTED_EDGE('',*,*,#975,.T.);
#1030 = ORIENTED_EDGE('',*,*,#1031,.T.);
#1031 = EDGE_CURVE('',#976,#786,#1032,.T.);
#1032 = LINE('',#1033,#1034);
#1033 = CARTESIAN_POINT('',(-224.8537713435,69.54280403274,2.));
#1034 = VECTOR('',#1035,1.);
#1035 = DIRECTION('',(0.707106896726,0.707106665647,0.));
#1036 = ORIENTED_EDGE('',*,*,#785,.T.);
#1037 = ORIENTED_EDGE('',*,*,#669,.T.);
#1038 = PLANE('',#1039);
#1039 = AXIS2_PLACEMENT_3D('',#1040,#1041,#1042);
#1040 = CARTESIAN_POINT('',(-212.4086899611,81.987881348129,-21.));
#1041 = DIRECTION('',(-0.707106665647,0.707106896726,0.));
#1042 = DIRECTION('',(0.707106896726,0.707106665647,0.));
#1043 = ADVANCED_FACE('',(#1044),#1063,.F.);
#1044 = FACE_BOUND('',#1045,.F.);
#1045 = EDGE_LOOP('',(#1046,#1055,#1061,#1062));
#1046 = ORIENTED_EDGE('',*,*,#1047,.F.);
#1047 = EDGE_CURVE('',#1048,#1048,#1050,.T.);
#1048 = VERTEX_POINT('',#1049);
#1049 = CARTESIAN_POINT('',(-220.7667640761,79.300877095217,2.));
#1050 = CIRCLE('',#1051,1.4);
#1051 = AXIS2_PLACEMENT_3D('',#1052,#1053,#1054);
#1052 = CARTESIAN_POINT('',(-222.1667640761,79.300877095217,2.));
#1053 = DIRECTION('',(0.,0.,-1.));
#1054 = DIRECTION('',(1.,0.,0.));
#1055 = ORIENTED_EDGE('',*,*,#1056,.T.);
#1056 = EDGE_CURVE('',#1048,#686,#1057,.T.);
#1057 = LINE('',#1058,#1059);
#1058 = CARTESIAN_POINT('',(-220.7667640761,79.300877095217,-50.));
#1059 = VECTOR('',#1060,1.);
#1060 = DIRECTION('',(0.,0.,1.));
#1061 = ORIENTED_EDGE('',*,*,#685,.T.);
#1062 = ORIENTED_EDGE('',*,*,#1056,.F.);
#1063 = CYLINDRICAL_SURFACE('',#1064,1.4);
#1064 = AXIS2_PLACEMENT_3D('',#1065,#1066,#1067);
#1065 = CARTESIAN_POINT('',(-222.1667640761,79.300877095217,-50.));
#1066 = DIRECTION('',(0.,0.,-1.));
#1067 = DIRECTION('',(1.,0.,0.));
#1068 = ADVANCED_FACE('',(#1069),#1080,.F.);
#1069 = FACE_BOUND('',#1070,.F.);
#1070 = EDGE_LOOP('',(#1071,#1072,#1078,#1079));
#1071 = ORIENTED_EDGE('',*,*,#883,.F.);
#1072 = ORIENTED_EDGE('',*,*,#1073,.T.);
#1073 = EDGE_CURVE('',#884,#697,#1074,.T.);
#1074 = LINE('',#1075,#1076);
#1075 = CARTESIAN_POINT('',(-227.8378307326,86.371946062477,-50.));
#1076 = VECTOR('',#1077,1.);
#1077 = DIRECTION('',(0.,0.,1.));
#1078 = ORIENTED_EDGE('',*,*,#696,.T.);
#1079 = ORIENTED_EDGE('',*,*,#1073,.F.);
#1080 = CYLINDRICAL_SURFACE('',#1081,1.4);
#1081 = AXIS2_PLACEMENT_3D('',#1082,#1083,#1084);
#1082 = CARTESIAN_POINT('',(-229.2378307326,86.371946062477,-50.));
#1083 = DIRECTION('',(0.,0.,-1.));
#1084 = DIRECTION('',(1.,0.,0.));
#1085 = ADVANCED_FACE('',(#1086),#1105,.F.);
#1086 = FACE_BOUND('',#1087,.F.);
#1087 = EDGE_LOOP('',(#1088,#1097,#1103,#1104));
#1088 = ORIENTED_EDGE('',*,*,#1089,.F.);
#1089 = EDGE_CURVE('',#1090,#1090,#1092,.T.);
#1090 = VERTEX_POINT('',#1091);
#1091 = CARTESIAN_POINT('',(-208.3216826349,91.745954502912,2.));
#1092 = CIRCLE('',#1093,1.4);
#1093 = AXIS2_PLACEMENT_3D('',#1094,#1095,#1096);
#1094 = CARTESIAN_POINT('',(-209.7216826349,91.745954502912,2.));
#1095 = DIRECTION('',(0.,0.,-1.));
#1096 = DIRECTION('',(1.,0.,0.));
#1097 = ORIENTED_EDGE('',*,*,#1098,.T.);
#1098 = EDGE_CURVE('',#1090,#708,#1099,.T.);
#1099 = LINE('',#1100,#1101);
#1100 = CARTESIAN_POINT('',(-208.3216826349,91.745954502912,-50.));
#1101 = VECTOR('',#1102,1.);
#1102 = DIRECTION('',(0.,0.,1.));
#1103 = ORIENTED_EDGE('',*,*,#707,.T.);
#1104 = ORIENTED_EDGE('',*,*,#1098,.F.);
#1105 = CYLINDRICAL_SURFACE('',#1106,1.4);
#1106 = AXIS2_PLACEMENT_3D('',#1107,#1108,#1109);
#1107 = CARTESIAN_POINT('',(-209.7216826349,91.745954502912,-50.));
#1108 = DIRECTION('',(0.,0.,-1.));
#1109 = DIRECTION('',(1.,0.,0.));
#1110 = ADVANCED_FACE('',(#1111),#1122,.F.);
#1111 = FACE_BOUND('',#1112,.F.);
#1112 = EDGE_LOOP('',(#1113,#1114,#1120,#1121));
#1113 = ORIENTED_EDGE('',*,*,#861,.F.);
#1114 = ORIENTED_EDGE('',*,*,#1115,.T.);
#1115 = EDGE_CURVE('',#862,#719,#1116,.T.);
#1116 = LINE('',#1117,#1118);
#1117 = CARTESIAN_POINT('',(-215.3927492914,98.817023470171,-50.));
#1118 = VECTOR('',#1119,1.);
#1119 = DIRECTION('',(0.,0.,1.));
#1120 = ORIENTED_EDGE('',*,*,#718,.T.);
#1121 = ORIENTED_EDGE('',*,*,#1115,.F.);
#1122 = CYLINDRICAL_SURFACE('',#1123,1.4);
#1123 = AXIS2_PLACEMENT_3D('',#1124,#1125,#1126);
#1124 = CARTESIAN_POINT('',(-216.7927492914,98.817023470171,-50.));
#1125 = DIRECTION('',(0.,0.,-1.));
#1126 = DIRECTION('',(1.,0.,0.));
#1127 = ADVANCED_FACE('',(#1128),#1139,.F.);
#1128 = FACE_BOUND('',#1129,.F.);
#1129 = EDGE_LOOP('',(#1130,#1136,#1137,#1138));
#1130 = ORIENTED_EDGE('',*,*,#1131,.T.);
#1131 = EDGE_CURVE('',#761,#999,#1132,.T.);
#1132 = LINE('',#1133,#1134);
#1133 = CARTESIAN_POINT('',(-266.1748376567,94.213872999646,5.));
#1134 = VECTOR('',#1135,1.);
#1135 = DIRECTION('',(-0.,-0.,-1.));
#1136 = ORIENTED_EDGE('',*,*,#998,.T.);
#1137 = ORIENTED_EDGE('',*,*,#1131,.F.);
#1138 = ORIENTED_EDGE('',*,*,#760,.F.);
#1139 = CYLINDRICAL_SURFACE('',#1140,10.75);
#1140 = AXIS2_PLACEMENT_3D('',#1141,#1142,#1143);
#1141 = CARTESIAN_POINT('',(-276.9248376567,94.213872999646,5.));
#1142 = DIRECTION('',(0.,0.,1.));
#1143 = DIRECTION('',(1.,0.,0.));
#1144 = ADVANCED_FACE('',(#1145,#1151,#1154),#1157,.F.);
#1145 = FACE_BOUND('',#1146,.F.);
#1146 = EDGE_LOOP('',(#1147,#1148,#1149,#1150));
#1147 = ORIENTED_EDGE('',*,*,#983,.T.);
#1148 = ORIENTED_EDGE('',*,*,#1031,.T.);
#1149 = ORIENTED_EDGE('',*,*,#793,.F.);
#1150 = ORIENTED_EDGE('',*,*,#909,.F.);
#1151 = FACE_BOUND('',#1152,.F.);
#1152 = EDGE_LOOP('',(#1153));
#1153 = ORIENTED_EDGE('',*,*,#1047,.T.);
#1154 = FACE_BOUND('',#1155,.F.);
#1155 = EDGE_LOOP('',(#1156));
#1156 = ORIENTED_EDGE('',*,*,#1089,.T.);
#1157 = PLANE('',#1158);
#1158 = AXIS2_PLACEMENT_3D('',#1159,#1160,#1161);
#1159 = CARTESIAN_POINT('',(-231.924838,76.613873,2.));
#1160 = DIRECTION('',(-8.E-17,1.6E-16,1.));
#1161 = DIRECTION('',(0.707106896726,0.707106665647,-5.656851476546E-17)
  );
#1162 = ADVANCED_FACE('',(#1163),#1174,.F.);
#1163 = FACE_BOUND('',#1164,.F.);
#1164 = EDGE_LOOP('',(#1165,#1166,#1172,#1173));
#1165 = ORIENTED_EDGE('',*,*,#850,.F.);
#1166 = ORIENTED_EDGE('',*,*,#1167,.T.);
#1167 = EDGE_CURVE('',#851,#958,#1168,.T.);
#1168 = LINE('',#1169,#1170);
#1169 = CARTESIAN_POINT('',(-208.3216826349,91.745954502912,-50.));
#1170 = VECTOR('',#1171,1.);
#1171 = DIRECTION('',(0.,0.,1.));
#1172 = ORIENTED_EDGE('',*,*,#957,.T.);
#1173 = ORIENTED_EDGE('',*,*,#1167,.F.);
#1174 = CYLINDRICAL_SURFACE('',#1175,1.4);
#1175 = AXIS2_PLACEMENT_3D('',#1176,#1177,#1178);
#1176 = CARTESIAN_POINT('',(-209.7216826349,91.745954502912,-50.));
#1177 = DIRECTION('',(0.,0.,-1.));
#1178 = DIRECTION('',(1.,0.,0.));
#1179 = ADVANCED_FACE('',(#1180),#1191,.F.);
#1180 = FACE_BOUND('',#1181,.F.);
#1181 = EDGE_LOOP('',(#1182,#1183,#1189,#1190));
#1182 = ORIENTED_EDGE('',*,*,#872,.F.);
#1183 = ORIENTED_EDGE('',*,*,#1184,.T.);
#1184 = EDGE_CURVE('',#873,#947,#1185,.T.);
#1185 = LINE('',#1186,#1187);
#1186 = CARTESIAN_POINT('',(-220.7667640761,79.300877095217,-50.));
#1187 = VECTOR('',#1188,1.);
#1188 = DIRECTION('',(0.,0.,1.));
#1189 = ORIENTED_EDGE('',*,*,#946,.T.);
#1190 = ORIENTED_EDGE('',*,*,#1184,.F.);
#1191 = CYLINDRICAL_SURFACE('',#1192,1.4);
#1192 = AXIS2_PLACEMENT_3D('',#1193,#1194,#1195);
#1193 = CARTESIAN_POINT('',(-222.1667640761,79.300877095217,-50.));
#1194 = DIRECTION('',(0.,0.,-1.));
#1195 = DIRECTION('',(1.,0.,0.));
#1196 = ( GEOMETRIC_REPRESENTATION_CONTEXT(3) 
GLOBAL_UNCERTAINTY_ASSIGNED_CONTEXT((#1200)) 
GLOBAL_UNIT_ASSIGNED_CONTEXT((#1197,#1198,#1199)) REPRESENTATION_CONTEXT
('Context #1','3D Context with UNIT and UNCERTAINTY') );
#1197 = ( LENGTH_UNIT() NAMED_UNIT(*) SI_UNIT(.MILLI.,.METRE.) );
#1198 = ( NAMED_UNIT(*) PLANE_ANGLE_UNIT() SI_UNIT($,.RADIAN.) );
#1199 = ( NAMED_UNIT(*) SI_UNIT($,.STERADIAN.) SOLID_ANGLE_UNIT() );
#1200 = UNCERTAINTY_MEASURE_WITH_UNIT(LENGTH_MEASURE(2.E-05),#1197,
  'distance_accuracy_value','confusion accuracy');
#1201 = PRODUCT_RELATED_PRODUCT_CATEGORY('part',$,(#7));
#1202 = MECHANICAL_DESIGN_GEOMETRIC_PRESENTATION_REPRESENTATION('',(
    #1203),#1196);
#1203 = STYLED_ITEM('color',(#1204),#15);
#1204 = PRESENTATION_STYLE_ASSIGNMENT((#1205,#1211));
#1205 = SURFACE_STYLE_USAGE(.BOTH.,#1206);
#1206 = SURFACE_SIDE_STYLE('',(#1207));
#1207 = SURFACE_STYLE_FILL_AREA(#1208);
#1208 = FILL_AREA_STYLE('',(#1209));
#1209 = FILL_AREA_STYLE_COLOUR('',#1210);
#1210 = COLOUR_RGB('',0.447058818107,0.474509808674,0.501960817233);
#1211 = CURVE_STYLE('',#1212,POSITIVE_LENGTH_MEASURE(0.1),#1213);
#1212 = DRAUGHTING_PRE_DEFINED_CURVE_FONT('continuous');
#1213 = COLOUR_RGB('',9.803921802644E-02,9.803921802644E-02,
  9.803921802644E-02);
ENDSEC;
END-ISO-10303-21;
